<?xml version="1.0" encoding="UTF-8" standalone="no"?>
<!DOCTYPE svg PUBLIC "-//W3C//DTD SVG 1.1//EN"
 "http://www.w3.org/Graphics/SVG/1.1/DTD/svg11.dtd">
<!-- Generated by graphviz version 12.2.0 (20241103.1931)
 -->
<!-- Title: stackchan::display::Display Pages: 1 -->
<svg width="505pt" height="1639pt"
 viewBox="0.00 0.00 505.05 1639.25" xmlns="http://www.w3.org/2000/svg" xmlns:xlink="http://www.w3.org/1999/xlink">
<g id="graph0" class="graph" transform="scale(1 1) rotate(0) translate(4 1635.25)">
<title>stackchan::display::Display</title>
<!-- Node1 -->
<g id="Node000001" class="node">
<title>Node1</title>
<g id="a_Node000001"><a xlink:title=" ">
<polygon fill="#999999" stroke="none" points="363.25,-198.25 233.5,-198.25 233.5,0 363.25,0 363.25,-198.25"/>
<text text-anchor="start" x="258.62" y="-184.75" font-family="Helvetica,sans-Serif" font-size="10.00">stackchan::display</text>
<text text-anchor="start" x="280.38" y="-173.5" font-family="Helvetica,sans-Serif" font-size="10.00">::Display</text>
<text text-anchor="start" x="237.88" y="-158.25" font-family="Helvetica,sans-Serif" font-size="10.00">#</text>
<text text-anchor="start" x="247.5" y="-158.25" font-family="Helvetica,sans-Serif" font-size="10.00">canvas_</text>
<text text-anchor="start" x="237.5" y="-143" font-family="Helvetica,sans-Serif" font-size="10.00">+</text>
<text text-anchor="start" x="247.5" y="-143" font-family="Helvetica,sans-Serif" font-size="10.00">Display()</text>
<text text-anchor="start" x="237.5" y="-127.75" font-family="Helvetica,sans-Serif" font-size="10.00">+</text>
<text text-anchor="start" x="247.5" y="-127.75" font-family="Helvetica,sans-Serif" font-size="10.00">getFace()</text>
<text text-anchor="start" x="237.5" y="-112.5" font-family="Helvetica,sans-Serif" font-size="10.00">+</text>
<text text-anchor="start" x="247.5" y="-112.5" font-family="Helvetica,sans-Serif" font-size="10.00">setFace()</text>
<text text-anchor="start" x="237.5" y="-97.25" font-family="Helvetica,sans-Serif" font-size="10.00">+</text>
<text text-anchor="start" x="247.5" y="-97.25" font-family="Helvetica,sans-Serif" font-size="10.00">getExpressionWeight()</text>
<text text-anchor="start" x="237.5" y="-82" font-family="Helvetica,sans-Serif" font-size="10.00">+</text>
<text text-anchor="start" x="247.5" y="-82" font-family="Helvetica,sans-Serif" font-size="10.00">getSpeechBalloon()</text>
<text text-anchor="start" x="237.5" y="-66.75" font-family="Helvetica,sans-Serif" font-size="10.00">+</text>
<text text-anchor="start" x="247.5" y="-66.75" font-family="Helvetica,sans-Serif" font-size="10.00">getColorPalette()</text>
<text text-anchor="start" x="237.5" y="-51.5" font-family="Helvetica,sans-Serif" font-size="10.00">+</text>
<text text-anchor="start" x="247.5" y="-51.5" font-family="Helvetica,sans-Serif" font-size="10.00">getCanvas()</text>
<text text-anchor="start" x="237.5" y="-36.25" font-family="Helvetica,sans-Serif" font-size="10.00">+</text>
<text text-anchor="start" x="247.5" y="-36.25" font-family="Helvetica,sans-Serif" font-size="10.00">draw()</text>
<text text-anchor="start" x="237.5" y="-21" font-family="Helvetica,sans-Serif" font-size="10.00">+</text>
<text text-anchor="start" x="247.5" y="-21" font-family="Helvetica,sans-Serif" font-size="10.00">update()</text>
<text text-anchor="start" x="237.88" y="-5.75" font-family="Helvetica,sans-Serif" font-size="10.00">#</text>
<text text-anchor="start" x="247.5" y="-5.75" font-family="Helvetica,sans-Serif" font-size="10.00">drawEmotionalDecorator()</text>
<polygon fill="#666666" stroke="#666666" points="233.5,-169.75 233.5,-169.75 363.25,-169.75 363.25,-169.75 233.5,-169.75"/>
<polygon fill="#666666" stroke="#666666" points="233.5,-154.5 233.5,-154.5 245.5,-154.5 245.5,-154.5 233.5,-154.5"/>
<polygon fill="#666666" stroke="#666666" points="245.5,-154.5 245.5,-154.5 363.25,-154.5 363.25,-154.5 245.5,-154.5"/>
<polygon fill="none" stroke="#666666" points="233.5,0 233.5,-198.25 363.25,-198.25 363.25,0 233.5,0"/>
</a>
</g>
</g>
<!-- Node2 -->
<g id="Node000002" class="node">
<title>Node2</title>
<g id="a_Node000002"><a xlink:href="classstackchan_1_1display_1_1_face.html" target="_top" xlink:title=" ">
<polygon fill="white" stroke="none" points="158.88,-504.75 47.88,-504.75 47.88,-245.5 158.88,-245.5 158.88,-504.75"/>
<text text-anchor="start" x="63.62" y="-491.25" font-family="Helvetica,sans-Serif" font-size="10.00">stackchan::display</text>
<text text-anchor="start" x="90.25" y="-480" font-family="Helvetica,sans-Serif" font-size="10.00">::Face</text>
<text text-anchor="start" x="52.25" y="-464.75" font-family="Helvetica,sans-Serif" font-size="10.00">#</text>
<text text-anchor="start" x="61.88" y="-464.75" font-family="Helvetica,sans-Serif" font-size="10.00">is_auto_blink_</text>
<text text-anchor="start" x="52.25" y="-449.5" font-family="Helvetica,sans-Serif" font-size="10.00">#</text>
<text text-anchor="start" x="61.88" y="-449.5" font-family="Helvetica,sans-Serif" font-size="10.00">auto_blink_interval_</text>
<text text-anchor="start" x="52.25" y="-434.25" font-family="Helvetica,sans-Serif" font-size="10.00">#</text>
<text text-anchor="start" x="61.88" y="-434.25" font-family="Helvetica,sans-Serif" font-size="10.00">last_blink_time_</text>
<text text-anchor="start" x="52.25" y="-419" font-family="Helvetica,sans-Serif" font-size="10.00">#</text>
<text text-anchor="start" x="61.88" y="-419" font-family="Helvetica,sans-Serif" font-size="10.00">blink_duration_</text>
<text text-anchor="start" x="52.25" y="-403.75" font-family="Helvetica,sans-Serif" font-size="10.00">#</text>
<text text-anchor="start" x="61.88" y="-403.75" font-family="Helvetica,sans-Serif" font-size="10.00">breath_frequency_</text>
<text text-anchor="start" x="51.88" y="-388.5" font-family="Helvetica,sans-Serif" font-size="10.00">+</text>
<text text-anchor="start" x="61.88" y="-388.5" font-family="Helvetica,sans-Serif" font-size="10.00">Face()</text>
<text text-anchor="start" x="51.88" y="-373.25" font-family="Helvetica,sans-Serif" font-size="10.00">+</text>
<text text-anchor="start" x="61.88" y="-373.25" font-family="Helvetica,sans-Serif" font-size="10.00">Face()</text>
<text text-anchor="start" x="51.88" y="-358" font-family="Helvetica,sans-Serif" font-size="10.00">+</text>
<text text-anchor="start" x="61.88" y="-358" font-family="Helvetica,sans-Serif" font-size="10.00">getLeftEye()</text>
<text text-anchor="start" x="51.88" y="-342.75" font-family="Helvetica,sans-Serif" font-size="10.00">+</text>
<text text-anchor="start" x="61.88" y="-342.75" font-family="Helvetica,sans-Serif" font-size="10.00">getRightEye()</text>
<text text-anchor="start" x="51.88" y="-327.5" font-family="Helvetica,sans-Serif" font-size="10.00">+</text>
<text text-anchor="start" x="61.88" y="-327.5" font-family="Helvetica,sans-Serif" font-size="10.00">getMouth()</text>
<text text-anchor="start" x="51.88" y="-312.25" font-family="Helvetica,sans-Serif" font-size="10.00">+</text>
<text text-anchor="start" x="61.88" y="-312.25" font-family="Helvetica,sans-Serif" font-size="10.00">activateAutoBlink()</text>
<text text-anchor="start" x="51.88" y="-297" font-family="Helvetica,sans-Serif" font-size="10.00">+</text>
<text text-anchor="start" x="61.88" y="-297" font-family="Helvetica,sans-Serif" font-size="10.00">deactivateAutoBlink()</text>
<text text-anchor="start" x="51.88" y="-281.75" font-family="Helvetica,sans-Serif" font-size="10.00">+</text>
<text text-anchor="start" x="61.88" y="-281.75" font-family="Helvetica,sans-Serif" font-size="10.00">getIsAutoBlink()</text>
<text text-anchor="start" x="51.88" y="-266.5" font-family="Helvetica,sans-Serif" font-size="10.00">+</text>
<text text-anchor="start" x="61.88" y="-266.5" font-family="Helvetica,sans-Serif" font-size="10.00">updateState()</text>
<text text-anchor="start" x="51.88" y="-251.25" font-family="Helvetica,sans-Serif" font-size="10.00">+</text>
<text text-anchor="start" x="61.88" y="-251.25" font-family="Helvetica,sans-Serif" font-size="10.00">draw()</text>
<polygon fill="#bfbfbf" stroke="#bfbfbf" points="47.88,-476.25 47.88,-476.25 158.88,-476.25 158.88,-476.25 47.88,-476.25"/>
<polygon fill="#bfbfbf" stroke="#bfbfbf" points="47.88,-400 47.88,-400 59.88,-400 59.88,-400 47.88,-400"/>
<polygon fill="#bfbfbf" stroke="#bfbfbf" points="59.88,-400 59.88,-400 158.88,-400 158.88,-400 59.88,-400"/>
<polygon fill="none" stroke="#bfbfbf" points="47.88,-245.5 47.88,-504.75 158.88,-504.75 158.88,-245.5 47.88,-245.5"/>
</a>
</g>
</g>
<!-- Node2&#45;&gt;Node1 -->
<g id="edge1_Node000001_Node000002" class="edge">
<title>Node2&#45;&gt;Node1</title>
<g id="a_edge1_Node000001_Node000002"><a xlink:title=" ">
<path fill="none" stroke="#63b8ff" d="M158.7,-258.9C161.53,-254.32 164.43,-249.83 167.38,-245.5 184.19,-220.79 204.92,-195.89 224.89,-173.86"/>
<polygon fill="none" stroke="#63b8ff" points="224.97,-173.78 226.08,-166.65 233.08,-164.94 231.97,-172.06 224.97,-173.78"/>
</a>
</g>
<text text-anchor="middle" x="201.97" y="-218" font-family="Helvetica,sans-Serif" font-size="10.00" fill="grey"> #face_</text>
</g>
<!-- Node3 -->
<g id="Node000003" class="node">
<title>Node3</title>
<g id="a_Node000003"><a xlink:href="classstackchan_1_1display_1_1_facial_drawable.html" target="_top" xlink:title=" ">
<polygon fill="white" stroke="none" points="187.12,-995.75 99.62,-995.75 99.62,-904.25 187.12,-904.25 187.12,-995.75"/>
<text text-anchor="start" x="103.62" y="-982.25" font-family="Helvetica,sans-Serif" font-size="10.00">stackchan::display</text>
<text text-anchor="start" x="107.75" y="-971" font-family="Helvetica,sans-Serif" font-size="10.00">::FacialDrawable</text>
<text text-anchor="start" x="141.88" y="-955.75" font-family="Helvetica,sans-Serif" font-size="10.00"> </text>
<text text-anchor="start" x="109.38" y="-940.5" font-family="Helvetica,sans-Serif" font-size="10.00">+</text>
<text text-anchor="start" x="125.12" y="-940.5" font-family="Helvetica,sans-Serif" font-size="10.00">draw()</text>
<text text-anchor="start" x="109.38" y="-925.25" font-family="Helvetica,sans-Serif" font-size="10.00">+</text>
<text text-anchor="start" x="125.12" y="-925.25" font-family="Helvetica,sans-Serif" font-size="10.00">Drawable()</text>
<text text-anchor="start" x="109.38" y="-910" font-family="Helvetica,sans-Serif" font-size="10.00">+</text>
<text text-anchor="start" x="125.12" y="-910" font-family="Helvetica,sans-Serif" font-size="10.00">Drawable()</text>
<polygon fill="#bfbfbf" stroke="#bfbfbf" points="99.62,-967.25 99.62,-967.25 187.12,-967.25 187.12,-967.25 99.62,-967.25"/>
<polygon fill="#bfbfbf" stroke="#bfbfbf" points="99.62,-952 99.62,-952 187.12,-952 187.12,-952 99.62,-952"/>
<polygon fill="none" stroke="#bfbfbf" points="99.62,-904.25 99.62,-995.75 187.12,-995.75 187.12,-904.25 99.62,-904.25"/>
</a>
</g>
</g>
<!-- Node3&#45;&gt;Node2 -->
<g id="edge2_Node000002_Node000003" class="edge">
<title>Node3&#45;&gt;Node2</title>
<g id="a_edge2_Node000002_Node000003"><a xlink:title=" ">
<path fill="none" stroke="#63b8ff" d="M142.04,-892.94C139.76,-811.35 134.2,-655.16 122.38,-522.75 121.84,-516.74 121.24,-510.6 120.6,-504.4"/>
<polygon fill="none" stroke="#63b8ff" points="138.54,-893.02 142.31,-902.92 145.53,-892.83 138.54,-893.02"/>
</a>
</g>
</g>
<!-- Node7 -->
<g id="Node000007" class="node">
<title>Node7</title>
<g id="a_Node000007"><a xlink:href="classstackchan_1_1display_1_1_base_eye.html" target="_top" xlink:title="Base class for Eye, draw nothing.">
<polygon fill="white" stroke="none" points="108.75,-700.5 0,-700.5 0,-563.25 108.75,-563.25 108.75,-700.5"/>
<text text-anchor="start" x="14.62" y="-687" font-family="Helvetica,sans-Serif" font-size="10.00">stackchan::display</text>
<text text-anchor="start" x="33" y="-675.75" font-family="Helvetica,sans-Serif" font-size="10.00">::BaseEye</text>
<text text-anchor="start" x="4.38" y="-660.5" font-family="Helvetica,sans-Serif" font-size="10.00">#</text>
<text text-anchor="start" x="14" y="-660.5" font-family="Helvetica,sans-Serif" font-size="10.00">is_left_</text>
<text text-anchor="start" x="4.38" y="-645.25" font-family="Helvetica,sans-Serif" font-size="10.00">#</text>
<text text-anchor="start" x="14" y="-645.25" font-family="Helvetica,sans-Serif" font-size="10.00">milli_sec_</text>
<text text-anchor="start" x="4.38" y="-630" font-family="Helvetica,sans-Serif" font-size="10.00">#</text>
<text text-anchor="start" x="14" y="-630" font-family="Helvetica,sans-Serif" font-size="10.00">last_saccade_millis_</text>
<text text-anchor="start" x="4.38" y="-614.75" font-family="Helvetica,sans-Serif" font-size="10.00">#</text>
<text text-anchor="start" x="14" y="-614.75" font-family="Helvetica,sans-Serif" font-size="10.00">saccade_interval_</text>
<text text-anchor="start" x="4" y="-599.5" font-family="Helvetica,sans-Serif" font-size="10.00">+</text>
<text text-anchor="start" x="14" y="-599.5" font-family="Helvetica,sans-Serif" font-size="10.00">BaseEye()</text>
<text text-anchor="start" x="4.38" y="-584.25" font-family="Helvetica,sans-Serif" font-size="10.00">#</text>
<text text-anchor="start" x="14" y="-584.25" font-family="Helvetica,sans-Serif" font-size="10.00">updateGaze()</text>
<text text-anchor="start" x="4.38" y="-569" font-family="Helvetica,sans-Serif" font-size="10.00">#</text>
<text text-anchor="start" x="14" y="-569" font-family="Helvetica,sans-Serif" font-size="10.00">updateSaccade()</text>
<polygon fill="#666666" stroke="#666666" points="0,-672 0,-672 108.75,-672 108.75,-672 0,-672"/>
<polygon fill="#666666" stroke="#666666" points="0,-611 0,-611 12,-611 12,-611 0,-611"/>
<polygon fill="#666666" stroke="#666666" points="12,-611 12,-611 108.75,-611 108.75,-611 12,-611"/>
<polygon fill="none" stroke="#666666" points="0,-563.25 0,-700.5 108.75,-700.5 108.75,-563.25 0,-563.25"/>
</a>
</g>
</g>
<!-- Node3&#45;&gt;Node7 -->
<g id="edge7_Node000007_Node000003" class="edge">
<title>Node3&#45;&gt;Node7</title>
<g id="a_edge7_Node000007_Node000003"><a xlink:title=" ">
<path fill="none" stroke="#63b8ff" d="M124.63,-893.61C123.86,-891.12 123.1,-888.66 122.38,-886.25 103.52,-823.67 84.44,-751.63 71.31,-700.41"/>
<polygon fill="none" stroke="#63b8ff" points="121.29,-894.64 127.67,-903.1 127.96,-892.51 121.29,-894.64"/>
</a>
</g>
</g>
<!-- Node8 -->
<g id="Node000008" class="node">
<title>Node8</title>
<g id="a_Node000008"><a xlink:href="classstackchan_1_1display_1_1_base_mouth.html" target="_top" xlink:title=" ">
<polygon fill="white" stroke="none" points="260.75,-662.38 164,-662.38 164,-601.38 260.75,-601.38 260.75,-662.38"/>
<text text-anchor="start" x="172.62" y="-648.88" font-family="Helvetica,sans-Serif" font-size="10.00">stackchan::display</text>
<text text-anchor="start" x="185.38" y="-637.62" font-family="Helvetica,sans-Serif" font-size="10.00">::BaseMouth</text>
<text text-anchor="start" x="168" y="-622.38" font-family="Helvetica,sans-Serif" font-size="10.00">#</text>
<text text-anchor="start" x="177.25" y="-622.38" font-family="Helvetica,sans-Serif" font-size="10.00">breath_amplitude_</text>
<text text-anchor="start" x="210.88" y="-607.12" font-family="Helvetica,sans-Serif" font-size="10.00"> </text>
<polygon fill="#bfbfbf" stroke="#bfbfbf" points="164,-633.88 164,-633.88 260.75,-633.88 260.75,-633.88 164,-633.88"/>
<polygon fill="#bfbfbf" stroke="#bfbfbf" points="164,-618.62 164,-618.62 175.25,-618.62 175.25,-618.62 164,-618.62"/>
<polygon fill="#bfbfbf" stroke="#bfbfbf" points="175.25,-618.62 175.25,-618.62 260.75,-618.62 260.75,-618.62 175.25,-618.62"/>
<polygon fill="none" stroke="#bfbfbf" points="164,-601.38 164,-662.38 260.75,-662.38 260.75,-601.38 164,-601.38"/>
</a>
</g>
</g>
<!-- Node3&#45;&gt;Node8 -->
<g id="edge10_Node000008_Node000003" class="edge">
<title>Node3&#45;&gt;Node8</title>
<g id="a_edge10_Node000008_Node000003"><a xlink:title=" ">
<path fill="none" stroke="#63b8ff" d="M155.48,-893.54C170.2,-826.11 194.49,-714.8 205.98,-662.17"/>
<polygon fill="none" stroke="#63b8ff" points="152.15,-892.38 153.44,-902.9 158.99,-893.88 152.15,-892.38"/>
</a>
</g>
</g>
<!-- Node4 -->
<g id="Node000004" class="node">
<title>Node4</title>
<g id="a_Node000004"><a xlink:href="classstackchan_1_1display_1_1_drawable.html" target="_top" xlink:title=" ">
<polygon fill="white" stroke="none" points="205,-1320.75 103.75,-1320.75 103.75,-1076.75 205,-1076.75 205,-1320.75"/>
<text text-anchor="start" x="114.62" y="-1307.25" font-family="Helvetica,sans-Serif" font-size="10.00">stackchan::display</text>
<text text-anchor="start" x="131.88" y="-1296" font-family="Helvetica,sans-Serif" font-size="10.00">::Drawable</text>
<text text-anchor="start" x="108.12" y="-1280.75" font-family="Helvetica,sans-Serif" font-size="10.00">#</text>
<text text-anchor="start" x="117.75" y="-1280.75" font-family="Helvetica,sans-Serif" font-size="10.00">rotation_</text>
<text text-anchor="start" x="108.12" y="-1265.5" font-family="Helvetica,sans-Serif" font-size="10.00">#</text>
<text text-anchor="start" x="117.75" y="-1265.5" font-family="Helvetica,sans-Serif" font-size="10.00">visible_</text>
<text text-anchor="start" x="108.12" y="-1250.25" font-family="Helvetica,sans-Serif" font-size="10.00">#</text>
<text text-anchor="start" x="117.75" y="-1250.25" font-family="Helvetica,sans-Serif" font-size="10.00">ignore_expression_</text>
<text text-anchor="start" x="107.75" y="-1235" font-family="Helvetica,sans-Serif" font-size="10.00">+</text>
<text text-anchor="start" x="117.75" y="-1235" font-family="Helvetica,sans-Serif" font-size="10.00">Drawable()</text>
<text text-anchor="start" x="107.75" y="-1219.75" font-family="Helvetica,sans-Serif" font-size="10.00">+</text>
<text text-anchor="start" x="117.75" y="-1219.75" font-family="Helvetica,sans-Serif" font-size="10.00">Drawable()</text>
<text text-anchor="start" x="107.75" y="-1204.5" font-family="Helvetica,sans-Serif" font-size="10.00">+</text>
<text text-anchor="start" x="117.75" y="-1204.5" font-family="Helvetica,sans-Serif" font-size="10.00">~Drawable()</text>
<text text-anchor="start" x="107.75" y="-1189.25" font-family="Helvetica,sans-Serif" font-size="10.00">+</text>
<text text-anchor="start" x="117.75" y="-1189.25" font-family="Helvetica,sans-Serif" font-size="10.00">setPosition()</text>
<text text-anchor="start" x="107.75" y="-1174" font-family="Helvetica,sans-Serif" font-size="10.00">+</text>
<text text-anchor="start" x="117.75" y="-1174" font-family="Helvetica,sans-Serif" font-size="10.00">getPosition()</text>
<text text-anchor="start" x="107.75" y="-1158.75" font-family="Helvetica,sans-Serif" font-size="10.00">+</text>
<text text-anchor="start" x="117.75" y="-1158.75" font-family="Helvetica,sans-Serif" font-size="10.00">setRotation()</text>
<text text-anchor="start" x="107.75" y="-1143.5" font-family="Helvetica,sans-Serif" font-size="10.00">+</text>
<text text-anchor="start" x="117.75" y="-1143.5" font-family="Helvetica,sans-Serif" font-size="10.00">getRotation()</text>
<text text-anchor="start" x="107.75" y="-1128.25" font-family="Helvetica,sans-Serif" font-size="10.00">+</text>
<text text-anchor="start" x="117.75" y="-1128.25" font-family="Helvetica,sans-Serif" font-size="10.00">setSize()</text>
<text text-anchor="start" x="107.75" y="-1113" font-family="Helvetica,sans-Serif" font-size="10.00">+</text>
<text text-anchor="start" x="117.75" y="-1113" font-family="Helvetica,sans-Serif" font-size="10.00">getSize()</text>
<text text-anchor="start" x="107.75" y="-1097.75" font-family="Helvetica,sans-Serif" font-size="10.00">+</text>
<text text-anchor="start" x="117.75" y="-1097.75" font-family="Helvetica,sans-Serif" font-size="10.00">setVisible()</text>
<text text-anchor="start" x="117.75" y="-1082.5" font-family="Helvetica,sans-Serif" font-size="10.00">and 7 more...</text>
<polygon fill="#bfbfbf" stroke="#bfbfbf" points="103.75,-1292.25 103.75,-1292.25 205,-1292.25 205,-1292.25 103.75,-1292.25"/>
<polygon fill="#bfbfbf" stroke="#bfbfbf" points="103.75,-1246.5 103.75,-1246.5 115.75,-1246.5 115.75,-1246.5 103.75,-1246.5"/>
<polygon fill="#bfbfbf" stroke="#bfbfbf" points="115.75,-1246.5 115.75,-1246.5 205,-1246.5 205,-1246.5 115.75,-1246.5"/>
<polygon fill="none" stroke="#bfbfbf" points="103.75,-1076.75 103.75,-1320.75 205,-1320.75 205,-1076.75 103.75,-1076.75"/>
</a>
</g>
</g>
<!-- Node4&#45;&gt;Node3 -->
<g id="edge3_Node000003_Node000004" class="edge">
<title>Node4&#45;&gt;Node3</title>
<g id="a_edge3_Node000003_Node000004"><a xlink:title=" ">
<path fill="none" stroke="#63b8ff" d="M148.49,-1065.67C147.36,-1040.41 146.26,-1015.63 145.36,-995.61"/>
<polygon fill="none" stroke="#63b8ff" points="144.98,-1065.56 148.92,-1075.39 151.97,-1065.25 144.98,-1065.56"/>
</a>
</g>
</g>
<!-- Node11 -->
<g id="Node000011" class="node">
<title>Node11</title>
<g id="a_Node000011"><a xlink:href="classstackchan_1_1display_1_1_speech_balloon.html" target="_top" xlink:title=" ">
<polygon fill="white" stroke="none" points="390.62,-886.25 296.12,-886.25 296.12,-718.5 390.62,-718.5 390.62,-886.25"/>
<text text-anchor="start" x="303.62" y="-872.75" font-family="Helvetica,sans-Serif" font-size="10.00">stackchan::display</text>
<text text-anchor="start" x="308.5" y="-861.5" font-family="Helvetica,sans-Serif" font-size="10.00">::SpeechBalloon</text>
<text text-anchor="start" x="300.5" y="-846.25" font-family="Helvetica,sans-Serif" font-size="10.00">#</text>
<text text-anchor="start" x="310.12" y="-846.25" font-family="Helvetica,sans-Serif" font-size="10.00">text_</text>
<text text-anchor="start" x="300.5" y="-831" font-family="Helvetica,sans-Serif" font-size="10.00">#</text>
<text text-anchor="start" x="310.12" y="-831" font-family="Helvetica,sans-Serif" font-size="10.00">font_</text>
<text text-anchor="start" x="300.12" y="-815.75" font-family="Helvetica,sans-Serif" font-size="10.00">+</text>
<text text-anchor="start" x="310.12" y="-815.75" font-family="Helvetica,sans-Serif" font-size="10.00">SpeechBalloon()</text>
<text text-anchor="start" x="300.12" y="-800.5" font-family="Helvetica,sans-Serif" font-size="10.00">+</text>
<text text-anchor="start" x="310.12" y="-800.5" font-family="Helvetica,sans-Serif" font-size="10.00">~SpeechBalloon()</text>
<text text-anchor="start" x="300.12" y="-785.25" font-family="Helvetica,sans-Serif" font-size="10.00">+</text>
<text text-anchor="start" x="310.12" y="-785.25" font-family="Helvetica,sans-Serif" font-size="10.00">SpeechBalloon()</text>
<text text-anchor="start" x="300.12" y="-770" font-family="Helvetica,sans-Serif" font-size="10.00">+</text>
<text text-anchor="start" x="310.12" y="-770" font-family="Helvetica,sans-Serif" font-size="10.00">operator=()</text>
<text text-anchor="start" x="300.12" y="-754.75" font-family="Helvetica,sans-Serif" font-size="10.00">+</text>
<text text-anchor="start" x="310.12" y="-754.75" font-family="Helvetica,sans-Serif" font-size="10.00">setText()</text>
<text text-anchor="start" x="300.12" y="-739.5" font-family="Helvetica,sans-Serif" font-size="10.00">+</text>
<text text-anchor="start" x="310.12" y="-739.5" font-family="Helvetica,sans-Serif" font-size="10.00">draw()</text>
<text text-anchor="start" x="300.12" y="-724.25" font-family="Helvetica,sans-Serif" font-size="10.00">+</text>
<text text-anchor="start" x="310.12" y="-724.25" font-family="Helvetica,sans-Serif" font-size="10.00">draw()</text>
<polygon fill="#bfbfbf" stroke="#bfbfbf" points="296.12,-857.75 296.12,-857.75 390.62,-857.75 390.62,-857.75 296.12,-857.75"/>
<polygon fill="#bfbfbf" stroke="#bfbfbf" points="296.12,-827.25 296.12,-827.25 308.12,-827.25 308.12,-827.25 296.12,-827.25"/>
<polygon fill="#bfbfbf" stroke="#bfbfbf" points="308.12,-827.25 308.12,-827.25 390.62,-827.25 390.62,-827.25 308.12,-827.25"/>
<polygon fill="none" stroke="#bfbfbf" points="296.12,-718.5 296.12,-886.25 390.62,-886.25 390.62,-718.5 296.12,-718.5"/>
</a>
</g>
</g>
<!-- Node4&#45;&gt;Node11 -->
<g id="edge14_Node000011_Node000004" class="edge">
<title>Node4&#45;&gt;Node11</title>
<g id="a_edge14_Node000011_Node000004"><a xlink:title=" ">
<path fill="none" stroke="#63b8ff" d="M209.87,-1081.95C240,-1019.09 276.54,-942.83 303.77,-886.01"/>
<polygon fill="none" stroke="#63b8ff" points="206.72,-1080.43 205.55,-1090.96 213.03,-1083.45 206.72,-1080.43"/>
</a>
</g>
</g>
<!-- Node5 -->
<g id="Node000005" class="node">
<title>Node5</title>
<g id="a_Node000005"><a xlink:href="classm5_1_1_vector2i.html" target="_top" xlink:title=" ">
<polygon fill="white" stroke="none" points="98,-1631.25 26.75,-1631.25 26.75,-1368 98,-1368 98,-1631.25"/>
<text text-anchor="start" x="35.38" y="-1617.75" font-family="Helvetica,sans-Serif" font-size="10.00">m5::Vector2i</text>
<text text-anchor="start" x="30.75" y="-1602.5" font-family="Helvetica,sans-Serif" font-size="10.00">+</text>
<text text-anchor="start" x="40.75" y="-1602.5" font-family="Helvetica,sans-Serif" font-size="10.00">x</text>
<text text-anchor="start" x="30.75" y="-1587.25" font-family="Helvetica,sans-Serif" font-size="10.00">+</text>
<text text-anchor="start" x="40.75" y="-1587.25" font-family="Helvetica,sans-Serif" font-size="10.00">y</text>
<text text-anchor="start" x="30.75" y="-1572" font-family="Helvetica,sans-Serif" font-size="10.00">+</text>
<text text-anchor="start" x="40.75" y="-1572" font-family="Helvetica,sans-Serif" font-size="10.00">Vector2i()</text>
<text text-anchor="start" x="30.75" y="-1556.75" font-family="Helvetica,sans-Serif" font-size="10.00">+</text>
<text text-anchor="start" x="40.75" y="-1556.75" font-family="Helvetica,sans-Serif" font-size="10.00">Vector2i()</text>
<text text-anchor="start" x="30.75" y="-1541.5" font-family="Helvetica,sans-Serif" font-size="10.00">+</text>
<text text-anchor="start" x="40.75" y="-1541.5" font-family="Helvetica,sans-Serif" font-size="10.00">operator+()</text>
<text text-anchor="start" x="30.75" y="-1526.25" font-family="Helvetica,sans-Serif" font-size="10.00">+</text>
<text text-anchor="start" x="40.75" y="-1526.25" font-family="Helvetica,sans-Serif" font-size="10.00">operator&#45;()</text>
<text text-anchor="start" x="30.75" y="-1511" font-family="Helvetica,sans-Serif" font-size="10.00">+</text>
<text text-anchor="start" x="40.75" y="-1511" font-family="Helvetica,sans-Serif" font-size="10.00">operator*()</text>
<text text-anchor="start" x="30.75" y="-1495.75" font-family="Helvetica,sans-Serif" font-size="10.00">+</text>
<text text-anchor="start" x="40.75" y="-1495.75" font-family="Helvetica,sans-Serif" font-size="10.00">operator/()</text>
<text text-anchor="start" x="30.75" y="-1480.5" font-family="Helvetica,sans-Serif" font-size="10.00">+</text>
<text text-anchor="start" x="40.75" y="-1480.5" font-family="Helvetica,sans-Serif" font-size="10.00">operator+=()</text>
<text text-anchor="start" x="30.75" y="-1465.25" font-family="Helvetica,sans-Serif" font-size="10.00">+</text>
<text text-anchor="start" x="40.75" y="-1465.25" font-family="Helvetica,sans-Serif" font-size="10.00">operator&#45;=()</text>
<text text-anchor="start" x="30.75" y="-1450" font-family="Helvetica,sans-Serif" font-size="10.00">+</text>
<text text-anchor="start" x="40.75" y="-1450" font-family="Helvetica,sans-Serif" font-size="10.00">operator*=()</text>
<text text-anchor="start" x="30.75" y="-1434.75" font-family="Helvetica,sans-Serif" font-size="10.00">+</text>
<text text-anchor="start" x="40.75" y="-1434.75" font-family="Helvetica,sans-Serif" font-size="10.00">operator/=()</text>
<text text-anchor="start" x="30.75" y="-1419.5" font-family="Helvetica,sans-Serif" font-size="10.00">+</text>
<text text-anchor="start" x="40.75" y="-1419.5" font-family="Helvetica,sans-Serif" font-size="10.00">operator==()</text>
<text text-anchor="start" x="30.75" y="-1404.25" font-family="Helvetica,sans-Serif" font-size="10.00">+</text>
<text text-anchor="start" x="40.75" y="-1404.25" font-family="Helvetica,sans-Serif" font-size="10.00">operator!=()</text>
<text text-anchor="start" x="30.75" y="-1389" font-family="Helvetica,sans-Serif" font-size="10.00">+</text>
<text text-anchor="start" x="40.75" y="-1389" font-family="Helvetica,sans-Serif" font-size="10.00">dot()</text>
<text text-anchor="start" x="30.75" y="-1373.75" font-family="Helvetica,sans-Serif" font-size="10.00">+</text>
<text text-anchor="start" x="40.75" y="-1373.75" font-family="Helvetica,sans-Serif" font-size="10.00">clamp()</text>
<polygon fill="#bfbfbf" stroke="#bfbfbf" points="26.75,-1614 26.75,-1614 98,-1614 98,-1614 26.75,-1614"/>
<polygon fill="#bfbfbf" stroke="#bfbfbf" points="26.75,-1583.5 26.75,-1583.5 38.75,-1583.5 38.75,-1583.5 26.75,-1583.5"/>
<polygon fill="#bfbfbf" stroke="#bfbfbf" points="38.75,-1583.5 38.75,-1583.5 98,-1583.5 98,-1583.5 38.75,-1583.5"/>
<polygon fill="none" stroke="#bfbfbf" points="26.75,-1368 26.75,-1631.25 98,-1631.25 98,-1368 26.75,-1368"/>
</a>
</g>
</g>
<!-- Node5&#45;&gt;Node4 -->
<g id="edge4_Node000004_Node000005" class="edge">
<title>Node5&#45;&gt;Node4</title>
<g id="a_edge4_Node000004_Node000005"><a xlink:title=" ">
<path fill="none" stroke="#63b8ff" d="M96.05,-1368.36C98.94,-1358.31 101.9,-1348.35 104.88,-1338.75 105.49,-1336.78 106.11,-1334.8 106.74,-1332.81"/>
<polygon fill="none" stroke="#63b8ff" points="106.76,-1332.75 104.79,-1325.81 110.44,-1321.33 112.4,-1328.27 106.76,-1332.75"/>
</a>
</g>
<text text-anchor="middle" x="128.12" y="-1340.5" font-family="Helvetica,sans-Serif" font-size="10.00" fill="grey"> #position_</text>
</g>
<!-- Node5&#45;&gt;Node7 -->
<g id="edge8_Node000007_Node000005" class="edge">
<title>Node5&#45;&gt;Node7</title>
<g id="a_edge8_Node000007_Node000005"><a xlink:title=" ">
<path fill="none" stroke="#63b8ff" d="M61.17,-1368.08C59.49,-1186.43 56.5,-862.92 55.12,-713.1"/>
<polygon fill="none" stroke="#63b8ff" points="55.12,-713.36 51.06,-707.39 55.01,-701.36 59.06,-707.32 55.12,-713.36"/>
</a>
</g>
<text text-anchor="middle" x="96.16" y="-1049.25" font-family="Helvetica,sans-Serif" font-size="10.00" fill="grey"> #gaze_</text>
<text text-anchor="start" x="58.28" y="-1038" font-family="Helvetica,sans-Serif" font-size="10.00" fill="grey">#iris_position</text>
<text text-anchor="middle" x="96.16" y="-1026.75" font-family="Helvetica,sans-Serif" font-size="10.00" fill="grey">_</text>
<text text-anchor="middle" x="96.16" y="-1015.5" font-family="Helvetica,sans-Serif" font-size="10.00" fill="grey">#saccade_noise_</text>
</g>
<!-- Node6 -->
<g id="Node000006" class="node">
<title>Node6</title>
<g id="a_Node000006"><a xlink:href="classm5_1_1_size2i.html" target="_top" xlink:title=" ">
<polygon fill="white" stroke="none" points="191.88,-1570.25 122.88,-1570.25 122.88,-1429 191.88,-1429 191.88,-1570.25"/>
<text text-anchor="start" x="135.25" y="-1556.75" font-family="Helvetica,sans-Serif" font-size="10.00">m5::Size2i</text>
<text text-anchor="start" x="126.88" y="-1541.5" font-family="Helvetica,sans-Serif" font-size="10.00">+</text>
<text text-anchor="start" x="136.88" y="-1541.5" font-family="Helvetica,sans-Serif" font-size="10.00">width</text>
<text text-anchor="start" x="126.88" y="-1526.25" font-family="Helvetica,sans-Serif" font-size="10.00">+</text>
<text text-anchor="start" x="136.88" y="-1526.25" font-family="Helvetica,sans-Serif" font-size="10.00">height</text>
<text text-anchor="start" x="126.88" y="-1511" font-family="Helvetica,sans-Serif" font-size="10.00">+</text>
<text text-anchor="start" x="136.88" y="-1511" font-family="Helvetica,sans-Serif" font-size="10.00">Size2i()</text>
<text text-anchor="start" x="126.88" y="-1495.75" font-family="Helvetica,sans-Serif" font-size="10.00">+</text>
<text text-anchor="start" x="136.88" y="-1495.75" font-family="Helvetica,sans-Serif" font-size="10.00">Size2i()</text>
<text text-anchor="start" x="126.88" y="-1480.5" font-family="Helvetica,sans-Serif" font-size="10.00">+</text>
<text text-anchor="start" x="136.88" y="-1480.5" font-family="Helvetica,sans-Serif" font-size="10.00">operator*=()</text>
<text text-anchor="start" x="126.88" y="-1465.25" font-family="Helvetica,sans-Serif" font-size="10.00">+</text>
<text text-anchor="start" x="136.88" y="-1465.25" font-family="Helvetica,sans-Serif" font-size="10.00">area()</text>
<text text-anchor="start" x="126.88" y="-1450" font-family="Helvetica,sans-Serif" font-size="10.00">+</text>
<text text-anchor="start" x="136.88" y="-1450" font-family="Helvetica,sans-Serif" font-size="10.00">max()</text>
<text text-anchor="start" x="126.88" y="-1434.75" font-family="Helvetica,sans-Serif" font-size="10.00">+</text>
<text text-anchor="start" x="136.88" y="-1434.75" font-family="Helvetica,sans-Serif" font-size="10.00">min()</text>
<polygon fill="#bfbfbf" stroke="#bfbfbf" points="122.88,-1553 122.88,-1553 191.88,-1553 191.88,-1553 122.88,-1553"/>
<polygon fill="#bfbfbf" stroke="#bfbfbf" points="122.88,-1522.5 122.88,-1522.5 134.88,-1522.5 134.88,-1522.5 122.88,-1522.5"/>
<polygon fill="#bfbfbf" stroke="#bfbfbf" points="134.88,-1522.5 134.88,-1522.5 191.88,-1522.5 191.88,-1522.5 134.88,-1522.5"/>
<polygon fill="none" stroke="#bfbfbf" points="122.88,-1429 122.88,-1570.25 191.88,-1570.25 191.88,-1429 122.88,-1429"/>
</a>
</g>
</g>
<!-- Node6&#45;&gt;Node4 -->
<g id="edge5_Node000004_Node000006" class="edge">
<title>Node6&#45;&gt;Node4</title>
<g id="a_edge5_Node000004_Node000006"><a xlink:title=" ">
<path fill="none" stroke="#63b8ff" d="M156.68,-1429.31C156.39,-1400.64 156.05,-1366.38 155.71,-1333.19"/>
<polygon fill="none" stroke="#63b8ff" points="155.72,-1333.43 151.66,-1327.47 155.6,-1321.43 159.66,-1327.39 155.72,-1333.43"/>
</a>
</g>
<text text-anchor="middle" x="170.88" y="-1340.5" font-family="Helvetica,sans-Serif" font-size="10.00" fill="grey"> #size_</text>
</g>
<!-- Node7&#45;&gt;Node2 -->
<g id="edge6_Node000002_Node000007" class="edge">
<title>Node7&#45;&gt;Node2</title>
<g id="a_edge6_Node000002_Node000007"><a xlink:title=" ">
<path fill="none" stroke="#63b8ff" d="M65.55,-563.32C67.89,-549.87 70.39,-535.85 72.88,-522.75 73.23,-520.87 73.59,-518.98 73.96,-517.09"/>
<polygon fill="none" stroke="#63b8ff" points="73.96,-517.08 71.17,-510.43 76.24,-505.3 79.03,-511.95 73.96,-517.08"/>
</a>
</g>
<text text-anchor="middle" x="97.62" y="-535.75" font-family="Helvetica,sans-Serif" font-size="10.00" fill="grey"> #left_eye_</text>
<text text-anchor="middle" x="97.62" y="-524.5" font-family="Helvetica,sans-Serif" font-size="10.00" fill="grey">#right_eye_</text>
</g>
<!-- Node8&#45;&gt;Node2 -->
<g id="edge9_Node000002_Node000008" class="edge">
<title>Node8&#45;&gt;Node2</title>
<g id="a_edge9_Node000002_Node000008"><a xlink:title=" ">
<path fill="none" stroke="#63b8ff" d="M199.76,-601.4C190.51,-579.76 177.19,-548.63 163.39,-516.39"/>
<polygon fill="none" stroke="#63b8ff" points="163.37,-516.34 157.33,-512.4 158.65,-505.31 164.69,-509.25 163.37,-516.34"/>
</a>
</g>
<text text-anchor="middle" x="193.88" y="-530.12" font-family="Helvetica,sans-Serif" font-size="10.00" fill="grey"> #mouth_</text>
</g>
<!-- Node9 -->
<g id="Node000009" class="node">
<title>Node9</title>
<g id="a_Node000009"><a xlink:href="classstackchan_1_1display_1_1_expression_weight.html" target="_top" xlink:title=" ">
<polygon fill="white" stroke="none" points="304.12,-443.75 176.62,-443.75 176.62,-306.5 304.12,-306.5 304.12,-443.75"/>
<text text-anchor="start" x="199.5" y="-430.25" font-family="Helvetica,sans-Serif" font-size="10.00">stackchan::display</text>
<text text-anchor="start" x="199.5" y="-419" font-family="Helvetica,sans-Serif" font-size="10.00">::ExpressionWeight</text>
<text text-anchor="start" x="238.88" y="-403.75" font-family="Helvetica,sans-Serif" font-size="10.00"> </text>
<text text-anchor="start" x="180.62" y="-388.5" font-family="Helvetica,sans-Serif" font-size="10.00">+</text>
<text text-anchor="start" x="190.62" y="-388.5" font-family="Helvetica,sans-Serif" font-size="10.00">ExpressionWeight()</text>
<text text-anchor="start" x="180.62" y="-373.25" font-family="Helvetica,sans-Serif" font-size="10.00">+</text>
<text text-anchor="start" x="190.62" y="-373.25" font-family="Helvetica,sans-Serif" font-size="10.00">set()</text>
<text text-anchor="start" x="180.62" y="-358" font-family="Helvetica,sans-Serif" font-size="10.00">+</text>
<text text-anchor="start" x="190.62" y="-358" font-family="Helvetica,sans-Serif" font-size="10.00">setEmotionalExpression()</text>
<text text-anchor="start" x="180.62" y="-342.75" font-family="Helvetica,sans-Serif" font-size="10.00">+</text>
<text text-anchor="start" x="190.62" y="-342.75" font-family="Helvetica,sans-Serif" font-size="10.00">get()</text>
<text text-anchor="start" x="180.62" y="-327.5" font-family="Helvetica,sans-Serif" font-size="10.00">+</text>
<text text-anchor="start" x="190.62" y="-327.5" font-family="Helvetica,sans-Serif" font-size="10.00">contains()</text>
<text text-anchor="start" x="180.62" y="-312.25" font-family="Helvetica,sans-Serif" font-size="10.00">+</text>
<text text-anchor="start" x="190.62" y="-312.25" font-family="Helvetica,sans-Serif" font-size="10.00">clear()</text>
<polygon fill="#bfbfbf" stroke="#bfbfbf" points="176.62,-415.25 176.62,-415.25 304.12,-415.25 304.12,-415.25 176.62,-415.25"/>
<polygon fill="#bfbfbf" stroke="#bfbfbf" points="176.62,-400 176.62,-400 304.12,-400 304.12,-400 176.62,-400"/>
<polygon fill="none" stroke="#bfbfbf" points="176.62,-306.5 176.62,-443.75 304.12,-443.75 304.12,-306.5 176.62,-306.5"/>
</a>
</g>
</g>
<!-- Node9&#45;&gt;Node1 -->
<g id="edge11_Node000001_Node000009" class="edge">
<title>Node9&#45;&gt;Node1</title>
<g id="a_edge11_Node000001_Node000009"><a xlink:title=" ">
<path fill="none" stroke="#63b8ff" d="M234.21,-306.51C233.33,-278.27 234.53,-245.33 241.38,-216.25 241.82,-214.37 242.29,-212.49 242.8,-210.6"/>
<polygon fill="none" stroke="#63b8ff" points="242.84,-210.49 240.76,-203.59 246.33,-199.01 248.41,-205.92 242.84,-210.49"/>
</a>
</g>
<text text-anchor="middle" x="287.88" y="-218" font-family="Helvetica,sans-Serif" font-size="10.00" fill="grey"> #expression_weight_</text>
</g>
<!-- Node10 -->
<g id="Node000010" class="node">
<title>Node10</title>
<g id="a_Node000010"><a xlink:href="classstackchan_1_1display_1_1_color_palette.html" target="_top" xlink:title=" ">
<polygon fill="white" stroke="none" points="410.12,-459 322.62,-459 322.62,-291.25 410.12,-291.25 410.12,-459"/>
<text text-anchor="start" x="326.62" y="-445.5" font-family="Helvetica,sans-Serif" font-size="10.00">stackchan::display</text>
<text text-anchor="start" x="337.5" y="-434.25" font-family="Helvetica,sans-Serif" font-size="10.00">::ColorPalette</text>
<text text-anchor="start" x="364.88" y="-419" font-family="Helvetica,sans-Serif" font-size="10.00"> </text>
<text text-anchor="start" x="327.88" y="-403.75" font-family="Helvetica,sans-Serif" font-size="10.00">+</text>
<text text-anchor="start" x="339.12" y="-403.75" font-family="Helvetica,sans-Serif" font-size="10.00">ColorPalette()</text>
<text text-anchor="start" x="327.88" y="-388.5" font-family="Helvetica,sans-Serif" font-size="10.00">+</text>
<text text-anchor="start" x="339.12" y="-388.5" font-family="Helvetica,sans-Serif" font-size="10.00">~ColorPalette()</text>
<text text-anchor="start" x="327.88" y="-373.25" font-family="Helvetica,sans-Serif" font-size="10.00">+</text>
<text text-anchor="start" x="339.12" y="-373.25" font-family="Helvetica,sans-Serif" font-size="10.00">ColorPalette()</text>
<text text-anchor="start" x="327.88" y="-358" font-family="Helvetica,sans-Serif" font-size="10.00">+</text>
<text text-anchor="start" x="339.12" y="-358" font-family="Helvetica,sans-Serif" font-size="10.00">operator=()</text>
<text text-anchor="start" x="327.88" y="-342.75" font-family="Helvetica,sans-Serif" font-size="10.00">+</text>
<text text-anchor="start" x="339.12" y="-342.75" font-family="Helvetica,sans-Serif" font-size="10.00">get()</text>
<text text-anchor="start" x="327.88" y="-327.5" font-family="Helvetica,sans-Serif" font-size="10.00">+</text>
<text text-anchor="start" x="339.12" y="-327.5" font-family="Helvetica,sans-Serif" font-size="10.00">set()</text>
<text text-anchor="start" x="327.88" y="-312.25" font-family="Helvetica,sans-Serif" font-size="10.00">+</text>
<text text-anchor="start" x="339.12" y="-312.25" font-family="Helvetica,sans-Serif" font-size="10.00">contains()</text>
<text text-anchor="start" x="327.88" y="-297" font-family="Helvetica,sans-Serif" font-size="10.00">+</text>
<text text-anchor="start" x="339.12" y="-297" font-family="Helvetica,sans-Serif" font-size="10.00">clear()</text>
<polygon fill="#666666" stroke="#666666" points="322.62,-430.5 322.62,-430.5 410.12,-430.5 410.12,-430.5 322.62,-430.5"/>
<polygon fill="#666666" stroke="#666666" points="322.62,-415.25 322.62,-415.25 410.12,-415.25 410.12,-415.25 322.62,-415.25"/>
<polygon fill="none" stroke="#666666" points="322.62,-291.25 322.62,-459 410.12,-459 410.12,-291.25 322.62,-291.25"/>
</a>
</g>
</g>
<!-- Node10&#45;&gt;Node1 -->
<g id="edge12_Node000001_Node000010" class="edge">
<title>Node10&#45;&gt;Node1</title>
<g id="a_edge12_Node000001_Node000010"><a xlink:title=" ">
<path fill="none" stroke="#63b8ff" d="M351.24,-291.42C346.35,-267.09 340.57,-240.5 334.38,-216.25 333.9,-214.4 333.42,-212.53 332.92,-210.65"/>
<polygon fill="none" stroke="#63b8ff" points="332.9,-210.58 327.47,-205.84 329.75,-199 335.19,-203.74 332.9,-210.58"/>
</a>
</g>
<text text-anchor="middle" x="370.61" y="-218" font-family="Helvetica,sans-Serif" font-size="10.00" fill="grey"> #color_palette_</text>
</g>
<!-- Node11&#45;&gt;Node1 -->
<g id="edge13_Node000001_Node000011" class="edge">
<title>Node11&#45;&gt;Node1</title>
<g id="a_edge13_Node000001_Node000011"><a xlink:title=" ">
<path fill="none" stroke="#63b8ff" d="M370.5,-718.71C388.36,-659.8 410.1,-578.33 419.38,-504.75 433.79,-390.43 439.99,-358.86 419.38,-245.5 413.52,-213.27 393.85,-184.08 372.03,-160.46"/>
<polygon fill="none" stroke="#63b8ff" points="372.2,-160.65 365.16,-159.1 363.87,-152.01 370.92,-153.55 372.2,-160.65"/>
</a>
</g>
<text text-anchor="middle" x="456.93" y="-530.12" font-family="Helvetica,sans-Serif" font-size="10.00" fill="grey"> #speech_balloon_</text>
</g>
</g>
</svg>
