<?xml version="1.0" encoding="UTF-8" standalone="no"?>
<!DOCTYPE svg PUBLIC "-//W3C//DTD SVG 1.1//EN"
 "http://www.w3.org/Graphics/SVG/1.1/DTD/svg11.dtd">
<!-- Generated by graphviz version 12.2.0 (20241103.1931)
 -->
<!-- Title: stackchan::display::Eye Pages: 1 -->
<svg width="178pt" height="1011pt"
 viewBox="0.00 0.00 178.00 1011.25" xmlns="http://www.w3.org/2000/svg" xmlns:xlink="http://www.w3.org/1999/xlink">
<g id="graph0" class="graph" transform="scale(1 1) rotate(0) translate(4 1007.25)">
<title>stackchan::display::Eye</title>
<!-- Node1 -->
<g id="Node000001" class="node">
<title>Node1</title>
<g id="a_Node000001"><a xlink:title=" ">
<polygon fill="#999999" stroke="none" points="108.25,-65 0.5,-65 0.5,0 108.25,0 108.25,-65"/>
<text text-anchor="start" x="4.5" y="-51.5" font-family="Helvetica,sans-Serif" font-size="10.00">stackchan::display::Eye</text>
<text text-anchor="start" x="52.88" y="-36.25" font-family="Helvetica,sans-Serif" font-size="10.00"> </text>
<text text-anchor="start" x="15.88" y="-21" font-family="Helvetica,sans-Serif" font-size="10.00">+</text>
<text text-anchor="start" x="37.25" y="-21" font-family="Helvetica,sans-Serif" font-size="10.00">draw()</text>
<text text-anchor="start" x="15.88" y="-5.75" font-family="Helvetica,sans-Serif" font-size="10.00">+</text>
<text text-anchor="start" x="37.25" y="-5.75" font-family="Helvetica,sans-Serif" font-size="10.00">BaseEye()</text>
<polygon fill="#666666" stroke="#666666" points="0.5,-47.75 0.5,-47.75 108.25,-47.75 108.25,-47.75 0.5,-47.75"/>
<polygon fill="#666666" stroke="#666666" points="0.5,-32.5 0.5,-32.5 108.25,-32.5 108.25,-32.5 0.5,-32.5"/>
<polygon fill="none" stroke="#666666" points="0.5,0 0.5,-65 108.25,-65 108.25,0 0.5,0"/>
</a>
</g>
</g>
<!-- Node2 -->
<g id="Node000002" class="node">
<title>Node2</title>
<g id="a_Node000002"><a xlink:href="classstackchan_1_1display_1_1_base_eye.html" target="_top" xlink:title="Base class for Eye, draw nothing.">
<polygon fill="white" stroke="none" points="108.75,-239.25 0,-239.25 0,-102 108.75,-102 108.75,-239.25"/>
<text text-anchor="start" x="14.62" y="-225.75" font-family="Helvetica,sans-Serif" font-size="10.00">stackchan::display</text>
<text text-anchor="start" x="33" y="-214.5" font-family="Helvetica,sans-Serif" font-size="10.00">::BaseEye</text>
<text text-anchor="start" x="4.38" y="-199.25" font-family="Helvetica,sans-Serif" font-size="10.00">#</text>
<text text-anchor="start" x="14" y="-199.25" font-family="Helvetica,sans-Serif" font-size="10.00">is_left_</text>
<text text-anchor="start" x="4.38" y="-184" font-family="Helvetica,sans-Serif" font-size="10.00">#</text>
<text text-anchor="start" x="14" y="-184" font-family="Helvetica,sans-Serif" font-size="10.00">milli_sec_</text>
<text text-anchor="start" x="4.38" y="-168.75" font-family="Helvetica,sans-Serif" font-size="10.00">#</text>
<text text-anchor="start" x="14" y="-168.75" font-family="Helvetica,sans-Serif" font-size="10.00">last_saccade_millis_</text>
<text text-anchor="start" x="4.38" y="-153.5" font-family="Helvetica,sans-Serif" font-size="10.00">#</text>
<text text-anchor="start" x="14" y="-153.5" font-family="Helvetica,sans-Serif" font-size="10.00">saccade_interval_</text>
<text text-anchor="start" x="4" y="-138.25" font-family="Helvetica,sans-Serif" font-size="10.00">+</text>
<text text-anchor="start" x="14" y="-138.25" font-family="Helvetica,sans-Serif" font-size="10.00">BaseEye()</text>
<text text-anchor="start" x="4.38" y="-123" font-family="Helvetica,sans-Serif" font-size="10.00">#</text>
<text text-anchor="start" x="14" y="-123" font-family="Helvetica,sans-Serif" font-size="10.00">updateGaze()</text>
<text text-anchor="start" x="4.38" y="-107.75" font-family="Helvetica,sans-Serif" font-size="10.00">#</text>
<text text-anchor="start" x="14" y="-107.75" font-family="Helvetica,sans-Serif" font-size="10.00">updateSaccade()</text>
<polygon fill="#666666" stroke="#666666" points="0,-210.75 0,-210.75 108.75,-210.75 108.75,-210.75 0,-210.75"/>
<polygon fill="#666666" stroke="#666666" points="0,-149.75 0,-149.75 12,-149.75 12,-149.75 0,-149.75"/>
<polygon fill="#666666" stroke="#666666" points="12,-149.75 12,-149.75 108.75,-149.75 108.75,-149.75 12,-149.75"/>
<polygon fill="none" stroke="#666666" points="0,-102 0,-239.25 108.75,-239.25 108.75,-102 0,-102"/>
</a>
</g>
</g>
<!-- Node2&#45;&gt;Node1 -->
<g id="edge1_Node000001_Node000002" class="edge">
<title>Node2&#45;&gt;Node1</title>
<g id="a_edge1_Node000001_Node000002"><a xlink:title=" ">
<path fill="none" stroke="#63b8ff" d="M54.38,-91.01C54.38,-81.78 54.38,-72.81 54.38,-64.81"/>
<polygon fill="none" stroke="#63b8ff" points="50.88,-90.85 54.38,-100.85 57.88,-90.85 50.88,-90.85"/>
</a>
</g>
</g>
<!-- Node3 -->
<g id="Node000003" class="node">
<title>Node3</title>
<g id="a_Node000003"><a xlink:href="classstackchan_1_1display_1_1_facial_drawable.html" target="_top" xlink:title=" ">
<polygon fill="white" stroke="none" points="153.12,-367.75 65.62,-367.75 65.62,-276.25 153.12,-276.25 153.12,-367.75"/>
<text text-anchor="start" x="69.62" y="-354.25" font-family="Helvetica,sans-Serif" font-size="10.00">stackchan::display</text>
<text text-anchor="start" x="73.75" y="-343" font-family="Helvetica,sans-Serif" font-size="10.00">::FacialDrawable</text>
<text text-anchor="start" x="107.88" y="-327.75" font-family="Helvetica,sans-Serif" font-size="10.00"> </text>
<text text-anchor="start" x="75.38" y="-312.5" font-family="Helvetica,sans-Serif" font-size="10.00">+</text>
<text text-anchor="start" x="91.12" y="-312.5" font-family="Helvetica,sans-Serif" font-size="10.00">draw()</text>
<text text-anchor="start" x="75.38" y="-297.25" font-family="Helvetica,sans-Serif" font-size="10.00">+</text>
<text text-anchor="start" x="91.12" y="-297.25" font-family="Helvetica,sans-Serif" font-size="10.00">Drawable()</text>
<text text-anchor="start" x="75.38" y="-282" font-family="Helvetica,sans-Serif" font-size="10.00">+</text>
<text text-anchor="start" x="91.12" y="-282" font-family="Helvetica,sans-Serif" font-size="10.00">Drawable()</text>
<polygon fill="#bfbfbf" stroke="#bfbfbf" points="65.62,-339.25 65.62,-339.25 153.12,-339.25 153.12,-339.25 65.62,-339.25"/>
<polygon fill="#bfbfbf" stroke="#bfbfbf" points="65.62,-324 65.62,-324 153.12,-324 153.12,-324 65.62,-324"/>
<polygon fill="none" stroke="#bfbfbf" points="65.62,-276.25 65.62,-367.75 153.12,-367.75 153.12,-276.25 65.62,-276.25"/>
</a>
</g>
</g>
<!-- Node3&#45;&gt;Node2 -->
<g id="edge2_Node000002_Node000003" class="edge">
<title>Node3&#45;&gt;Node2</title>
<g id="a_edge2_Node000002_Node000003"><a xlink:title=" ">
<path fill="none" stroke="#63b8ff" d="M89.06,-265.81C85.85,-257.12 82.51,-248.04 79.22,-239.1"/>
<polygon fill="none" stroke="#63b8ff" points="85.76,-266.99 92.5,-275.17 92.33,-264.57 85.76,-266.99"/>
</a>
</g>
</g>
<!-- Node4 -->
<g id="Node000004" class="node">
<title>Node4</title>
<g id="a_Node000004"><a xlink:href="classstackchan_1_1display_1_1_drawable.html" target="_top" xlink:title=" ">
<polygon fill="white" stroke="none" points="170,-692.75 68.75,-692.75 68.75,-448.75 170,-448.75 170,-692.75"/>
<text text-anchor="start" x="79.62" y="-679.25" font-family="Helvetica,sans-Serif" font-size="10.00">stackchan::display</text>
<text text-anchor="start" x="96.88" y="-668" font-family="Helvetica,sans-Serif" font-size="10.00">::Drawable</text>
<text text-anchor="start" x="73.12" y="-652.75" font-family="Helvetica,sans-Serif" font-size="10.00">#</text>
<text text-anchor="start" x="82.75" y="-652.75" font-family="Helvetica,sans-Serif" font-size="10.00">rotation_</text>
<text text-anchor="start" x="73.12" y="-637.5" font-family="Helvetica,sans-Serif" font-size="10.00">#</text>
<text text-anchor="start" x="82.75" y="-637.5" font-family="Helvetica,sans-Serif" font-size="10.00">visible_</text>
<text text-anchor="start" x="73.12" y="-622.25" font-family="Helvetica,sans-Serif" font-size="10.00">#</text>
<text text-anchor="start" x="82.75" y="-622.25" font-family="Helvetica,sans-Serif" font-size="10.00">ignore_expression_</text>
<text text-anchor="start" x="72.75" y="-607" font-family="Helvetica,sans-Serif" font-size="10.00">+</text>
<text text-anchor="start" x="82.75" y="-607" font-family="Helvetica,sans-Serif" font-size="10.00">Drawable()</text>
<text text-anchor="start" x="72.75" y="-591.75" font-family="Helvetica,sans-Serif" font-size="10.00">+</text>
<text text-anchor="start" x="82.75" y="-591.75" font-family="Helvetica,sans-Serif" font-size="10.00">Drawable()</text>
<text text-anchor="start" x="72.75" y="-576.5" font-family="Helvetica,sans-Serif" font-size="10.00">+</text>
<text text-anchor="start" x="82.75" y="-576.5" font-family="Helvetica,sans-Serif" font-size="10.00">~Drawable()</text>
<text text-anchor="start" x="72.75" y="-561.25" font-family="Helvetica,sans-Serif" font-size="10.00">+</text>
<text text-anchor="start" x="82.75" y="-561.25" font-family="Helvetica,sans-Serif" font-size="10.00">setPosition()</text>
<text text-anchor="start" x="72.75" y="-546" font-family="Helvetica,sans-Serif" font-size="10.00">+</text>
<text text-anchor="start" x="82.75" y="-546" font-family="Helvetica,sans-Serif" font-size="10.00">getPosition()</text>
<text text-anchor="start" x="72.75" y="-530.75" font-family="Helvetica,sans-Serif" font-size="10.00">+</text>
<text text-anchor="start" x="82.75" y="-530.75" font-family="Helvetica,sans-Serif" font-size="10.00">setRotation()</text>
<text text-anchor="start" x="72.75" y="-515.5" font-family="Helvetica,sans-Serif" font-size="10.00">+</text>
<text text-anchor="start" x="82.75" y="-515.5" font-family="Helvetica,sans-Serif" font-size="10.00">getRotation()</text>
<text text-anchor="start" x="72.75" y="-500.25" font-family="Helvetica,sans-Serif" font-size="10.00">+</text>
<text text-anchor="start" x="82.75" y="-500.25" font-family="Helvetica,sans-Serif" font-size="10.00">setSize()</text>
<text text-anchor="start" x="72.75" y="-485" font-family="Helvetica,sans-Serif" font-size="10.00">+</text>
<text text-anchor="start" x="82.75" y="-485" font-family="Helvetica,sans-Serif" font-size="10.00">getSize()</text>
<text text-anchor="start" x="72.75" y="-469.75" font-family="Helvetica,sans-Serif" font-size="10.00">+</text>
<text text-anchor="start" x="82.75" y="-469.75" font-family="Helvetica,sans-Serif" font-size="10.00">setVisible()</text>
<text text-anchor="start" x="82.75" y="-454.5" font-family="Helvetica,sans-Serif" font-size="10.00">and 7 more...</text>
<polygon fill="#bfbfbf" stroke="#bfbfbf" points="68.75,-664.25 68.75,-664.25 170,-664.25 170,-664.25 68.75,-664.25"/>
<polygon fill="#bfbfbf" stroke="#bfbfbf" points="68.75,-618.5 68.75,-618.5 80.75,-618.5 80.75,-618.5 68.75,-618.5"/>
<polygon fill="#bfbfbf" stroke="#bfbfbf" points="80.75,-618.5 80.75,-618.5 170,-618.5 170,-618.5 80.75,-618.5"/>
<polygon fill="none" stroke="#bfbfbf" points="68.75,-448.75 68.75,-692.75 170,-692.75 170,-448.75 68.75,-448.75"/>
</a>
</g>
</g>
<!-- Node4&#45;&gt;Node3 -->
<g id="edge3_Node000003_Node000004" class="edge">
<title>Node4&#45;&gt;Node3</title>
<g id="a_edge3_Node000003_Node000004"><a xlink:title=" ">
<path fill="none" stroke="#63b8ff" d="M114.02,-437.67C113,-412.41 111.99,-387.63 111.18,-367.61"/>
<polygon fill="none" stroke="#63b8ff" points="110.51,-437.54 114.42,-447.39 117.51,-437.26 110.51,-437.54"/>
</a>
</g>
</g>
<!-- Node5 -->
<g id="Node000005" class="node">
<title>Node5</title>
<g id="a_Node000005"><a xlink:href="classm5_1_1_vector2i.html" target="_top" xlink:title=" ">
<polygon fill="white" stroke="none" points="72,-1003.25 0.75,-1003.25 0.75,-740 72,-740 72,-1003.25"/>
<text text-anchor="start" x="9.38" y="-989.75" font-family="Helvetica,sans-Serif" font-size="10.00">m5::Vector2i</text>
<text text-anchor="start" x="4.75" y="-974.5" font-family="Helvetica,sans-Serif" font-size="10.00">+</text>
<text text-anchor="start" x="14.75" y="-974.5" font-family="Helvetica,sans-Serif" font-size="10.00">x</text>
<text text-anchor="start" x="4.75" y="-959.25" font-family="Helvetica,sans-Serif" font-size="10.00">+</text>
<text text-anchor="start" x="14.75" y="-959.25" font-family="Helvetica,sans-Serif" font-size="10.00">y</text>
<text text-anchor="start" x="4.75" y="-944" font-family="Helvetica,sans-Serif" font-size="10.00">+</text>
<text text-anchor="start" x="14.75" y="-944" font-family="Helvetica,sans-Serif" font-size="10.00">Vector2i()</text>
<text text-anchor="start" x="4.75" y="-928.75" font-family="Helvetica,sans-Serif" font-size="10.00">+</text>
<text text-anchor="start" x="14.75" y="-928.75" font-family="Helvetica,sans-Serif" font-size="10.00">Vector2i()</text>
<text text-anchor="start" x="4.75" y="-913.5" font-family="Helvetica,sans-Serif" font-size="10.00">+</text>
<text text-anchor="start" x="14.75" y="-913.5" font-family="Helvetica,sans-Serif" font-size="10.00">operator+()</text>
<text text-anchor="start" x="4.75" y="-898.25" font-family="Helvetica,sans-Serif" font-size="10.00">+</text>
<text text-anchor="start" x="14.75" y="-898.25" font-family="Helvetica,sans-Serif" font-size="10.00">operator&#45;()</text>
<text text-anchor="start" x="4.75" y="-883" font-family="Helvetica,sans-Serif" font-size="10.00">+</text>
<text text-anchor="start" x="14.75" y="-883" font-family="Helvetica,sans-Serif" font-size="10.00">operator*()</text>
<text text-anchor="start" x="4.75" y="-867.75" font-family="Helvetica,sans-Serif" font-size="10.00">+</text>
<text text-anchor="start" x="14.75" y="-867.75" font-family="Helvetica,sans-Serif" font-size="10.00">operator/()</text>
<text text-anchor="start" x="4.75" y="-852.5" font-family="Helvetica,sans-Serif" font-size="10.00">+</text>
<text text-anchor="start" x="14.75" y="-852.5" font-family="Helvetica,sans-Serif" font-size="10.00">operator+=()</text>
<text text-anchor="start" x="4.75" y="-837.25" font-family="Helvetica,sans-Serif" font-size="10.00">+</text>
<text text-anchor="start" x="14.75" y="-837.25" font-family="Helvetica,sans-Serif" font-size="10.00">operator&#45;=()</text>
<text text-anchor="start" x="4.75" y="-822" font-family="Helvetica,sans-Serif" font-size="10.00">+</text>
<text text-anchor="start" x="14.75" y="-822" font-family="Helvetica,sans-Serif" font-size="10.00">operator*=()</text>
<text text-anchor="start" x="4.75" y="-806.75" font-family="Helvetica,sans-Serif" font-size="10.00">+</text>
<text text-anchor="start" x="14.75" y="-806.75" font-family="Helvetica,sans-Serif" font-size="10.00">operator/=()</text>
<text text-anchor="start" x="4.75" y="-791.5" font-family="Helvetica,sans-Serif" font-size="10.00">+</text>
<text text-anchor="start" x="14.75" y="-791.5" font-family="Helvetica,sans-Serif" font-size="10.00">operator==()</text>
<text text-anchor="start" x="4.75" y="-776.25" font-family="Helvetica,sans-Serif" font-size="10.00">+</text>
<text text-anchor="start" x="14.75" y="-776.25" font-family="Helvetica,sans-Serif" font-size="10.00">operator!=()</text>
<text text-anchor="start" x="4.75" y="-761" font-family="Helvetica,sans-Serif" font-size="10.00">+</text>
<text text-anchor="start" x="14.75" y="-761" font-family="Helvetica,sans-Serif" font-size="10.00">dot()</text>
<text text-anchor="start" x="4.75" y="-745.75" font-family="Helvetica,sans-Serif" font-size="10.00">+</text>
<text text-anchor="start" x="14.75" y="-745.75" font-family="Helvetica,sans-Serif" font-size="10.00">clamp()</text>
<polygon fill="#bfbfbf" stroke="#bfbfbf" points="0.75,-986 0.75,-986 72,-986 72,-986 0.75,-986"/>
<polygon fill="#bfbfbf" stroke="#bfbfbf" points="0.75,-955.5 0.75,-955.5 12.75,-955.5 12.75,-955.5 0.75,-955.5"/>
<polygon fill="#bfbfbf" stroke="#bfbfbf" points="12.75,-955.5 12.75,-955.5 72,-955.5 72,-955.5 12.75,-955.5"/>
<polygon fill="none" stroke="#bfbfbf" points="0.75,-740 0.75,-1003.25 72,-1003.25 72,-740 0.75,-740"/>
</a>
</g>
</g>
<!-- Node5&#45;&gt;Node2 -->
<g id="edge6_Node000002_Node000005" class="edge">
<title>Node5&#45;&gt;Node2</title>
<g id="a_edge6_Node000002_Node000005"><a xlink:title=" ">
<path fill="none" stroke="#63b8ff" d="M31.25,-740.11C28.41,-642.46 26.55,-505.66 32.62,-385.75 34.87,-341.4 39.72,-292.07 44.27,-251.96"/>
<polygon fill="none" stroke="#63b8ff" points="44.29,-251.82 41,-245.4 45.66,-239.89 48.95,-246.31 44.29,-251.82"/>
</a>
</g>
<text text-anchor="middle" x="70.5" y="-421.25" font-family="Helvetica,sans-Serif" font-size="10.00" fill="grey"> #gaze_</text>
<text text-anchor="start" x="32.62" y="-410" font-family="Helvetica,sans-Serif" font-size="10.00" fill="grey">#iris_position</text>
<text text-anchor="middle" x="70.5" y="-398.75" font-family="Helvetica,sans-Serif" font-size="10.00" fill="grey">_</text>
<text text-anchor="middle" x="70.5" y="-387.5" font-family="Helvetica,sans-Serif" font-size="10.00" fill="grey">#saccade_noise_</text>
</g>
<!-- Node5&#45;&gt;Node4 -->
<g id="edge4_Node000004_Node000005" class="edge">
<title>Node5&#45;&gt;Node4</title>
<g id="a_edge4_Node000004_Node000005"><a xlink:title=" ">
<path fill="none" stroke="#63b8ff" d="M66.89,-740.41C69.5,-730.35 72.18,-720.37 74.88,-710.75 75.42,-708.79 75.98,-706.81 76.55,-704.83"/>
<polygon fill="none" stroke="#63b8ff" points="76.53,-704.9 74.36,-698.02 79.88,-693.37 82.04,-700.25 76.53,-704.9"/>
</a>
</g>
<text text-anchor="middle" x="98.12" y="-712.5" font-family="Helvetica,sans-Serif" font-size="10.00" fill="grey"> #position_</text>
</g>
<!-- Node6 -->
<g id="Node000006" class="node">
<title>Node6</title>
<g id="a_Node000006"><a xlink:href="classm5_1_1_size2i.html" target="_top" xlink:title=" ">
<polygon fill="white" stroke="none" points="165.88,-942.25 96.88,-942.25 96.88,-801 165.88,-801 165.88,-942.25"/>
<text text-anchor="start" x="109.25" y="-928.75" font-family="Helvetica,sans-Serif" font-size="10.00">m5::Size2i</text>
<text text-anchor="start" x="100.88" y="-913.5" font-family="Helvetica,sans-Serif" font-size="10.00">+</text>
<text text-anchor="start" x="110.88" y="-913.5" font-family="Helvetica,sans-Serif" font-size="10.00">width</text>
<text text-anchor="start" x="100.88" y="-898.25" font-family="Helvetica,sans-Serif" font-size="10.00">+</text>
<text text-anchor="start" x="110.88" y="-898.25" font-family="Helvetica,sans-Serif" font-size="10.00">height</text>
<text text-anchor="start" x="100.88" y="-883" font-family="Helvetica,sans-Serif" font-size="10.00">+</text>
<text text-anchor="start" x="110.88" y="-883" font-family="Helvetica,sans-Serif" font-size="10.00">Size2i()</text>
<text text-anchor="start" x="100.88" y="-867.75" font-family="Helvetica,sans-Serif" font-size="10.00">+</text>
<text text-anchor="start" x="110.88" y="-867.75" font-family="Helvetica,sans-Serif" font-size="10.00">Size2i()</text>
<text text-anchor="start" x="100.88" y="-852.5" font-family="Helvetica,sans-Serif" font-size="10.00">+</text>
<text text-anchor="start" x="110.88" y="-852.5" font-family="Helvetica,sans-Serif" font-size="10.00">operator*=()</text>
<text text-anchor="start" x="100.88" y="-837.25" font-family="Helvetica,sans-Serif" font-size="10.00">+</text>
<text text-anchor="start" x="110.88" y="-837.25" font-family="Helvetica,sans-Serif" font-size="10.00">area()</text>
<text text-anchor="start" x="100.88" y="-822" font-family="Helvetica,sans-Serif" font-size="10.00">+</text>
<text text-anchor="start" x="110.88" y="-822" font-family="Helvetica,sans-Serif" font-size="10.00">max()</text>
<text text-anchor="start" x="100.88" y="-806.75" font-family="Helvetica,sans-Serif" font-size="10.00">+</text>
<text text-anchor="start" x="110.88" y="-806.75" font-family="Helvetica,sans-Serif" font-size="10.00">min()</text>
<polygon fill="#bfbfbf" stroke="#bfbfbf" points="96.88,-925 96.88,-925 165.88,-925 165.88,-925 96.88,-925"/>
<polygon fill="#bfbfbf" stroke="#bfbfbf" points="96.88,-894.5 96.88,-894.5 108.88,-894.5 108.88,-894.5 96.88,-894.5"/>
<polygon fill="#bfbfbf" stroke="#bfbfbf" points="108.88,-894.5 108.88,-894.5 165.88,-894.5 165.88,-894.5 108.88,-894.5"/>
<polygon fill="none" stroke="#bfbfbf" points="96.88,-801 96.88,-942.25 165.88,-942.25 165.88,-801 96.88,-801"/>
</a>
</g>
</g>
<!-- Node6&#45;&gt;Node4 -->
<g id="edge5_Node000004_Node000006" class="edge">
<title>Node6&#45;&gt;Node4</title>
<g id="a_edge5_Node000004_Node000006"><a xlink:title=" ">
<path fill="none" stroke="#63b8ff" d="M128.59,-801.31C127.44,-772.64 126.07,-738.38 124.73,-705.19"/>
<polygon fill="none" stroke="#63b8ff" points="124.74,-705.42 120.5,-699.59 124.26,-693.43 128.5,-699.27 124.74,-705.42"/>
</a>
</g>
<text text-anchor="middle" x="140.38" y="-712.5" font-family="Helvetica,sans-Serif" font-size="10.00" fill="grey"> #size_</text>
</g>
</g>
</svg>
