<?xml version="1.0" encoding="UTF-8" standalone="no"?>
<!DOCTYPE svg PUBLIC "-//W3C//DTD SVG 1.1//EN"
 "http://www.w3.org/Graphics/SVG/1.1/DTD/svg11.dtd">
<!-- Generated by graphviz version 12.2.0 (20241103.1931)
 -->
<!-- Title: stackchan::display::SpeechBalloon Pages: 1 -->
<svg width="166pt" height="767pt"
 viewBox="0.00 0.00 166.12 767.25" xmlns="http://www.w3.org/2000/svg" xmlns:xlink="http://www.w3.org/1999/xlink">
<g id="graph0" class="graph" transform="scale(1 1) rotate(0) translate(4 763.25)">
<title>stackchan::display::SpeechBalloon</title>
<!-- Node1 -->
<g id="Node000001" class="node">
<title>Node1</title>
<g id="a_Node000001"><a xlink:title=" ">
<polygon fill="#999999" stroke="none" points="126.88,-167.75 32.38,-167.75 32.38,0 126.88,0 126.88,-167.75"/>
<text text-anchor="start" x="39.88" y="-154.25" font-family="Helvetica,sans-Serif" font-size="10.00">stackchan::display</text>
<text text-anchor="start" x="44.75" y="-143" font-family="Helvetica,sans-Serif" font-size="10.00">::SpeechBalloon</text>
<text text-anchor="start" x="36.75" y="-127.75" font-family="Helvetica,sans-Serif" font-size="10.00">#</text>
<text text-anchor="start" x="46.38" y="-127.75" font-family="Helvetica,sans-Serif" font-size="10.00">text_</text>
<text text-anchor="start" x="36.75" y="-112.5" font-family="Helvetica,sans-Serif" font-size="10.00">#</text>
<text text-anchor="start" x="46.38" y="-112.5" font-family="Helvetica,sans-Serif" font-size="10.00">font_</text>
<text text-anchor="start" x="36.38" y="-97.25" font-family="Helvetica,sans-Serif" font-size="10.00">+</text>
<text text-anchor="start" x="46.38" y="-97.25" font-family="Helvetica,sans-Serif" font-size="10.00">SpeechBalloon()</text>
<text text-anchor="start" x="36.38" y="-82" font-family="Helvetica,sans-Serif" font-size="10.00">+</text>
<text text-anchor="start" x="46.38" y="-82" font-family="Helvetica,sans-Serif" font-size="10.00">~SpeechBalloon()</text>
<text text-anchor="start" x="36.38" y="-66.75" font-family="Helvetica,sans-Serif" font-size="10.00">+</text>
<text text-anchor="start" x="46.38" y="-66.75" font-family="Helvetica,sans-Serif" font-size="10.00">SpeechBalloon()</text>
<text text-anchor="start" x="36.38" y="-51.5" font-family="Helvetica,sans-Serif" font-size="10.00">+</text>
<text text-anchor="start" x="46.38" y="-51.5" font-family="Helvetica,sans-Serif" font-size="10.00">operator=()</text>
<text text-anchor="start" x="36.38" y="-36.25" font-family="Helvetica,sans-Serif" font-size="10.00">+</text>
<text text-anchor="start" x="46.38" y="-36.25" font-family="Helvetica,sans-Serif" font-size="10.00">setText()</text>
<text text-anchor="start" x="36.38" y="-21" font-family="Helvetica,sans-Serif" font-size="10.00">+</text>
<text text-anchor="start" x="46.38" y="-21" font-family="Helvetica,sans-Serif" font-size="10.00">draw()</text>
<text text-anchor="start" x="36.38" y="-5.75" font-family="Helvetica,sans-Serif" font-size="10.00">+</text>
<text text-anchor="start" x="46.38" y="-5.75" font-family="Helvetica,sans-Serif" font-size="10.00">draw()</text>
<polygon fill="#666666" stroke="#666666" points="32.38,-139.25 32.38,-139.25 126.88,-139.25 126.88,-139.25 32.38,-139.25"/>
<polygon fill="#666666" stroke="#666666" points="32.38,-108.75 32.38,-108.75 44.38,-108.75 44.38,-108.75 32.38,-108.75"/>
<polygon fill="#666666" stroke="#666666" points="44.38,-108.75 44.38,-108.75 126.88,-108.75 126.88,-108.75 44.38,-108.75"/>
<polygon fill="none" stroke="#666666" points="32.38,0 32.38,-167.75 126.88,-167.75 126.88,0 32.38,0"/>
</a>
</g>
</g>
<!-- Node2 -->
<g id="Node000002" class="node">
<title>Node2</title>
<g id="a_Node000002"><a xlink:href="classstackchan_1_1display_1_1_drawable.html" target="_top" xlink:title=" ">
<polygon fill="white" stroke="none" points="130.25,-448.75 29,-448.75 29,-204.75 130.25,-204.75 130.25,-448.75"/>
<text text-anchor="start" x="39.88" y="-435.25" font-family="Helvetica,sans-Serif" font-size="10.00">stackchan::display</text>
<text text-anchor="start" x="57.12" y="-424" font-family="Helvetica,sans-Serif" font-size="10.00">::Drawable</text>
<text text-anchor="start" x="33.38" y="-408.75" font-family="Helvetica,sans-Serif" font-size="10.00">#</text>
<text text-anchor="start" x="43" y="-408.75" font-family="Helvetica,sans-Serif" font-size="10.00">rotation_</text>
<text text-anchor="start" x="33.38" y="-393.5" font-family="Helvetica,sans-Serif" font-size="10.00">#</text>
<text text-anchor="start" x="43" y="-393.5" font-family="Helvetica,sans-Serif" font-size="10.00">visible_</text>
<text text-anchor="start" x="33.38" y="-378.25" font-family="Helvetica,sans-Serif" font-size="10.00">#</text>
<text text-anchor="start" x="43" y="-378.25" font-family="Helvetica,sans-Serif" font-size="10.00">ignore_expression_</text>
<text text-anchor="start" x="33" y="-363" font-family="Helvetica,sans-Serif" font-size="10.00">+</text>
<text text-anchor="start" x="43" y="-363" font-family="Helvetica,sans-Serif" font-size="10.00">Drawable()</text>
<text text-anchor="start" x="33" y="-347.75" font-family="Helvetica,sans-Serif" font-size="10.00">+</text>
<text text-anchor="start" x="43" y="-347.75" font-family="Helvetica,sans-Serif" font-size="10.00">Drawable()</text>
<text text-anchor="start" x="33" y="-332.5" font-family="Helvetica,sans-Serif" font-size="10.00">+</text>
<text text-anchor="start" x="43" y="-332.5" font-family="Helvetica,sans-Serif" font-size="10.00">~Drawable()</text>
<text text-anchor="start" x="33" y="-317.25" font-family="Helvetica,sans-Serif" font-size="10.00">+</text>
<text text-anchor="start" x="43" y="-317.25" font-family="Helvetica,sans-Serif" font-size="10.00">setPosition()</text>
<text text-anchor="start" x="33" y="-302" font-family="Helvetica,sans-Serif" font-size="10.00">+</text>
<text text-anchor="start" x="43" y="-302" font-family="Helvetica,sans-Serif" font-size="10.00">getPosition()</text>
<text text-anchor="start" x="33" y="-286.75" font-family="Helvetica,sans-Serif" font-size="10.00">+</text>
<text text-anchor="start" x="43" y="-286.75" font-family="Helvetica,sans-Serif" font-size="10.00">setRotation()</text>
<text text-anchor="start" x="33" y="-271.5" font-family="Helvetica,sans-Serif" font-size="10.00">+</text>
<text text-anchor="start" x="43" y="-271.5" font-family="Helvetica,sans-Serif" font-size="10.00">getRotation()</text>
<text text-anchor="start" x="33" y="-256.25" font-family="Helvetica,sans-Serif" font-size="10.00">+</text>
<text text-anchor="start" x="43" y="-256.25" font-family="Helvetica,sans-Serif" font-size="10.00">setSize()</text>
<text text-anchor="start" x="33" y="-241" font-family="Helvetica,sans-Serif" font-size="10.00">+</text>
<text text-anchor="start" x="43" y="-241" font-family="Helvetica,sans-Serif" font-size="10.00">getSize()</text>
<text text-anchor="start" x="33" y="-225.75" font-family="Helvetica,sans-Serif" font-size="10.00">+</text>
<text text-anchor="start" x="43" y="-225.75" font-family="Helvetica,sans-Serif" font-size="10.00">setVisible()</text>
<text text-anchor="start" x="43" y="-210.5" font-family="Helvetica,sans-Serif" font-size="10.00">and 7 more...</text>
<polygon fill="#bfbfbf" stroke="#bfbfbf" points="29,-420.25 29,-420.25 130.25,-420.25 130.25,-420.25 29,-420.25"/>
<polygon fill="#bfbfbf" stroke="#bfbfbf" points="29,-374.5 29,-374.5 41,-374.5 41,-374.5 29,-374.5"/>
<polygon fill="#bfbfbf" stroke="#bfbfbf" points="41,-374.5 41,-374.5 130.25,-374.5 130.25,-374.5 41,-374.5"/>
<polygon fill="none" stroke="#bfbfbf" points="29,-204.75 29,-448.75 130.25,-448.75 130.25,-204.75 29,-204.75"/>
</a>
</g>
</g>
<!-- Node2&#45;&gt;Node1 -->
<g id="edge1_Node000001_Node000002" class="edge">
<title>Node2&#45;&gt;Node1</title>
<g id="a_edge1_Node000001_Node000002"><a xlink:title=" ">
<path fill="none" stroke="#63b8ff" d="M79.62,-193.68C79.62,-184.81 79.62,-176.02 79.62,-167.5"/>
<polygon fill="none" stroke="#63b8ff" points="76.13,-193.45 79.63,-203.45 83.13,-193.45 76.13,-193.45"/>
</a>
</g>
</g>
<!-- Node3 -->
<g id="Node000003" class="node">
<title>Node3</title>
<g id="a_Node000003"><a xlink:href="classm5_1_1_vector2i.html" target="_top" xlink:title=" ">
<polygon fill="white" stroke="none" points="71.25,-759.25 0,-759.25 0,-496 71.25,-496 71.25,-759.25"/>
<text text-anchor="start" x="8.62" y="-745.75" font-family="Helvetica,sans-Serif" font-size="10.00">m5::Vector2i</text>
<text text-anchor="start" x="4" y="-730.5" font-family="Helvetica,sans-Serif" font-size="10.00">+</text>
<text text-anchor="start" x="14" y="-730.5" font-family="Helvetica,sans-Serif" font-size="10.00">x</text>
<text text-anchor="start" x="4" y="-715.25" font-family="Helvetica,sans-Serif" font-size="10.00">+</text>
<text text-anchor="start" x="14" y="-715.25" font-family="Helvetica,sans-Serif" font-size="10.00">y</text>
<text text-anchor="start" x="4" y="-700" font-family="Helvetica,sans-Serif" font-size="10.00">+</text>
<text text-anchor="start" x="14" y="-700" font-family="Helvetica,sans-Serif" font-size="10.00">Vector2i()</text>
<text text-anchor="start" x="4" y="-684.75" font-family="Helvetica,sans-Serif" font-size="10.00">+</text>
<text text-anchor="start" x="14" y="-684.75" font-family="Helvetica,sans-Serif" font-size="10.00">Vector2i()</text>
<text text-anchor="start" x="4" y="-669.5" font-family="Helvetica,sans-Serif" font-size="10.00">+</text>
<text text-anchor="start" x="14" y="-669.5" font-family="Helvetica,sans-Serif" font-size="10.00">operator+()</text>
<text text-anchor="start" x="4" y="-654.25" font-family="Helvetica,sans-Serif" font-size="10.00">+</text>
<text text-anchor="start" x="14" y="-654.25" font-family="Helvetica,sans-Serif" font-size="10.00">operator&#45;()</text>
<text text-anchor="start" x="4" y="-639" font-family="Helvetica,sans-Serif" font-size="10.00">+</text>
<text text-anchor="start" x="14" y="-639" font-family="Helvetica,sans-Serif" font-size="10.00">operator*()</text>
<text text-anchor="start" x="4" y="-623.75" font-family="Helvetica,sans-Serif" font-size="10.00">+</text>
<text text-anchor="start" x="14" y="-623.75" font-family="Helvetica,sans-Serif" font-size="10.00">operator/()</text>
<text text-anchor="start" x="4" y="-608.5" font-family="Helvetica,sans-Serif" font-size="10.00">+</text>
<text text-anchor="start" x="14" y="-608.5" font-family="Helvetica,sans-Serif" font-size="10.00">operator+=()</text>
<text text-anchor="start" x="4" y="-593.25" font-family="Helvetica,sans-Serif" font-size="10.00">+</text>
<text text-anchor="start" x="14" y="-593.25" font-family="Helvetica,sans-Serif" font-size="10.00">operator&#45;=()</text>
<text text-anchor="start" x="4" y="-578" font-family="Helvetica,sans-Serif" font-size="10.00">+</text>
<text text-anchor="start" x="14" y="-578" font-family="Helvetica,sans-Serif" font-size="10.00">operator*=()</text>
<text text-anchor="start" x="4" y="-562.75" font-family="Helvetica,sans-Serif" font-size="10.00">+</text>
<text text-anchor="start" x="14" y="-562.75" font-family="Helvetica,sans-Serif" font-size="10.00">operator/=()</text>
<text text-anchor="start" x="4" y="-547.5" font-family="Helvetica,sans-Serif" font-size="10.00">+</text>
<text text-anchor="start" x="14" y="-547.5" font-family="Helvetica,sans-Serif" font-size="10.00">operator==()</text>
<text text-anchor="start" x="4" y="-532.25" font-family="Helvetica,sans-Serif" font-size="10.00">+</text>
<text text-anchor="start" x="14" y="-532.25" font-family="Helvetica,sans-Serif" font-size="10.00">operator!=()</text>
<text text-anchor="start" x="4" y="-517" font-family="Helvetica,sans-Serif" font-size="10.00">+</text>
<text text-anchor="start" x="14" y="-517" font-family="Helvetica,sans-Serif" font-size="10.00">dot()</text>
<text text-anchor="start" x="4" y="-501.75" font-family="Helvetica,sans-Serif" font-size="10.00">+</text>
<text text-anchor="start" x="14" y="-501.75" font-family="Helvetica,sans-Serif" font-size="10.00">clamp()</text>
<polygon fill="#bfbfbf" stroke="#bfbfbf" points="0,-742 0,-742 71.25,-742 71.25,-742 0,-742"/>
<polygon fill="#bfbfbf" stroke="#bfbfbf" points="0,-711.5 0,-711.5 12,-711.5 12,-711.5 0,-711.5"/>
<polygon fill="#bfbfbf" stroke="#bfbfbf" points="12,-711.5 12,-711.5 71.25,-711.5 71.25,-711.5 12,-711.5"/>
<polygon fill="none" stroke="#bfbfbf" points="0,-496 0,-759.25 71.25,-759.25 71.25,-496 0,-496"/>
</a>
</g>
</g>
<!-- Node3&#45;&gt;Node2 -->
<g id="edge2_Node000002_Node000003" class="edge">
<title>Node3&#45;&gt;Node2</title>
<g id="a_edge2_Node000002_Node000003"><a xlink:title=" ">
<path fill="none" stroke="#63b8ff" d="M50.96,-496.11C52.31,-486.16 53.7,-476.29 55.12,-466.75 55.39,-464.99 55.66,-463.21 55.93,-461.43"/>
<polygon fill="none" stroke="#63b8ff" points="55.94,-461.35 52.91,-454.81 57.79,-449.5 60.81,-456.04 55.94,-461.35"/>
</a>
</g>
<text text-anchor="middle" x="78.38" y="-468.5" font-family="Helvetica,sans-Serif" font-size="10.00" fill="grey"> #position_</text>
</g>
<!-- Node4 -->
<g id="Node000004" class="node">
<title>Node4</title>
<g id="a_Node000004"><a xlink:href="classm5_1_1_size2i.html" target="_top" xlink:title=" ">
<polygon fill="white" stroke="none" points="158.12,-705.88 89.12,-705.88 89.12,-549.38 158.12,-549.38 158.12,-705.88"/>
<text text-anchor="start" x="101.5" y="-692.38" font-family="Helvetica,sans-Serif" font-size="10.00">m5::Size2i</text>
<text text-anchor="start" x="93.12" y="-677.12" font-family="Helvetica,sans-Serif" font-size="10.00">+</text>
<text text-anchor="start" x="103.12" y="-677.12" font-family="Helvetica,sans-Serif" font-size="10.00">width</text>
<text text-anchor="start" x="93.12" y="-661.88" font-family="Helvetica,sans-Serif" font-size="10.00">+</text>
<text text-anchor="start" x="103.12" y="-661.88" font-family="Helvetica,sans-Serif" font-size="10.00">height</text>
<text text-anchor="start" x="93.12" y="-646.62" font-family="Helvetica,sans-Serif" font-size="10.00">+</text>
<text text-anchor="start" x="103.12" y="-646.62" font-family="Helvetica,sans-Serif" font-size="10.00">Size2i()</text>
<text text-anchor="start" x="93.12" y="-631.38" font-family="Helvetica,sans-Serif" font-size="10.00">+</text>
<text text-anchor="start" x="103.12" y="-631.38" font-family="Helvetica,sans-Serif" font-size="10.00">Size2i()</text>
<text text-anchor="start" x="93.12" y="-616.12" font-family="Helvetica,sans-Serif" font-size="10.00">+</text>
<text text-anchor="start" x="103.12" y="-616.12" font-family="Helvetica,sans-Serif" font-size="10.00">operator*=()</text>
<text text-anchor="start" x="93.12" y="-600.88" font-family="Helvetica,sans-Serif" font-size="10.00">+</text>
<text text-anchor="start" x="103.12" y="-600.88" font-family="Helvetica,sans-Serif" font-size="10.00">operator*()</text>
<text text-anchor="start" x="93.12" y="-585.62" font-family="Helvetica,sans-Serif" font-size="10.00">+</text>
<text text-anchor="start" x="103.12" y="-585.62" font-family="Helvetica,sans-Serif" font-size="10.00">area()</text>
<text text-anchor="start" x="93.12" y="-570.38" font-family="Helvetica,sans-Serif" font-size="10.00">+</text>
<text text-anchor="start" x="103.12" y="-570.38" font-family="Helvetica,sans-Serif" font-size="10.00">max()</text>
<text text-anchor="start" x="93.12" y="-555.12" font-family="Helvetica,sans-Serif" font-size="10.00">+</text>
<text text-anchor="start" x="103.12" y="-555.12" font-family="Helvetica,sans-Serif" font-size="10.00">min()</text>
<polygon fill="#bfbfbf" stroke="#bfbfbf" points="89.12,-688.62 89.12,-688.62 158.12,-688.62 158.12,-688.62 89.12,-688.62"/>
<polygon fill="#bfbfbf" stroke="#bfbfbf" points="89.12,-658.12 89.12,-658.12 101.12,-658.12 101.12,-658.12 89.12,-658.12"/>
<polygon fill="#bfbfbf" stroke="#bfbfbf" points="101.12,-658.12 101.12,-658.12 158.12,-658.12 158.12,-658.12 101.12,-658.12"/>
<polygon fill="none" stroke="#bfbfbf" points="89.12,-549.38 89.12,-705.88 158.12,-705.88 158.12,-549.38 89.12,-549.38"/>
</a>
</g>
</g>
<!-- Node4&#45;&gt;Node2 -->
<g id="edge3_Node000002_Node000004" class="edge">
<title>Node4&#45;&gt;Node2</title>
<g id="a_edge3_Node000002_Node000004"><a xlink:title=" ">
<path fill="none" stroke="#63b8ff" d="M113.36,-549.73C109.77,-523.4 105.62,-493.77 101.62,-466.75 101.36,-464.99 101.1,-463.22 100.84,-461.44"/>
<polygon fill="none" stroke="#63b8ff" points="100.83,-461.41 95.98,-456.07 99.04,-449.54 103.89,-454.88 100.83,-461.41"/>
</a>
</g>
<text text-anchor="middle" x="117.89" y="-468.5" font-family="Helvetica,sans-Serif" font-size="10.00" fill="grey"> #size_</text>
</g>
</g>
</svg>
