<?xml version="1.0" encoding="UTF-8" standalone="no"?>
<!DOCTYPE svg PUBLIC "-//W3C//DTD SVG 1.1//EN"
 "http://www.w3.org/Graphics/SVG/1.1/DTD/svg11.dtd">
<!-- Generated by graphviz version 12.2.0 (20241103.1931)
 -->
<!-- Title: stackchan::display::EllipseEye Pages: 1 -->
<svg width="178pt" height="1023pt"
 viewBox="0.00 0.00 178.00 1022.50" xmlns="http://www.w3.org/2000/svg" xmlns:xlink="http://www.w3.org/1999/xlink">
<g id="graph0" class="graph" transform="scale(1 1) rotate(0) translate(4 1018.5)">
<title>stackchan::display::EllipseEye</title>
<!-- Node1 -->
<g id="Node000001" class="node">
<title>Node1</title>
<g id="a_Node000001"><a xlink:title=" ">
<polygon fill="#999999" stroke="none" points="98.12,-76.25 10.62,-76.25 10.62,0 98.12,0 98.12,-76.25"/>
<text text-anchor="start" x="14.62" y="-62.75" font-family="Helvetica,sans-Serif" font-size="10.00">stackchan::display</text>
<text text-anchor="start" x="30" y="-51.5" font-family="Helvetica,sans-Serif" font-size="10.00">::EllipseEye</text>
<text text-anchor="start" x="52.88" y="-36.25" font-family="Helvetica,sans-Serif" font-size="10.00"> </text>
<text text-anchor="start" x="20.94" y="-21" font-family="Helvetica,sans-Serif" font-size="10.00">+</text>
<text text-anchor="start" x="37.25" y="-21" font-family="Helvetica,sans-Serif" font-size="10.00">draw()</text>
<text text-anchor="start" x="20.94" y="-5.75" font-family="Helvetica,sans-Serif" font-size="10.00">+</text>
<text text-anchor="start" x="37.25" y="-5.75" font-family="Helvetica,sans-Serif" font-size="10.00">BaseEye()</text>
<polygon fill="#666666" stroke="#666666" points="10.62,-47.75 10.62,-47.75 98.12,-47.75 98.12,-47.75 10.62,-47.75"/>
<polygon fill="#666666" stroke="#666666" points="10.62,-32.5 10.62,-32.5 98.12,-32.5 98.12,-32.5 10.62,-32.5"/>
<polygon fill="none" stroke="#666666" points="10.62,0 10.62,-76.25 98.12,-76.25 98.12,0 10.62,0"/>
</a>
</g>
</g>
<!-- Node2 -->
<g id="Node000002" class="node">
<title>Node2</title>
<g id="a_Node000002"><a xlink:href="classstackchan_1_1display_1_1_base_eye.html" target="_top" xlink:title="Base class for Eye, draw nothing.">
<polygon fill="white" stroke="none" points="108.75,-250.5 0,-250.5 0,-113.25 108.75,-113.25 108.75,-250.5"/>
<text text-anchor="start" x="14.62" y="-237" font-family="Helvetica,sans-Serif" font-size="10.00">stackchan::display</text>
<text text-anchor="start" x="33" y="-225.75" font-family="Helvetica,sans-Serif" font-size="10.00">::BaseEye</text>
<text text-anchor="start" x="4.38" y="-210.5" font-family="Helvetica,sans-Serif" font-size="10.00">#</text>
<text text-anchor="start" x="14" y="-210.5" font-family="Helvetica,sans-Serif" font-size="10.00">is_left_</text>
<text text-anchor="start" x="4.38" y="-195.25" font-family="Helvetica,sans-Serif" font-size="10.00">#</text>
<text text-anchor="start" x="14" y="-195.25" font-family="Helvetica,sans-Serif" font-size="10.00">milli_sec_</text>
<text text-anchor="start" x="4.38" y="-180" font-family="Helvetica,sans-Serif" font-size="10.00">#</text>
<text text-anchor="start" x="14" y="-180" font-family="Helvetica,sans-Serif" font-size="10.00">last_saccade_millis_</text>
<text text-anchor="start" x="4.38" y="-164.75" font-family="Helvetica,sans-Serif" font-size="10.00">#</text>
<text text-anchor="start" x="14" y="-164.75" font-family="Helvetica,sans-Serif" font-size="10.00">saccade_interval_</text>
<text text-anchor="start" x="4" y="-149.5" font-family="Helvetica,sans-Serif" font-size="10.00">+</text>
<text text-anchor="start" x="14" y="-149.5" font-family="Helvetica,sans-Serif" font-size="10.00">BaseEye()</text>
<text text-anchor="start" x="4.38" y="-134.25" font-family="Helvetica,sans-Serif" font-size="10.00">#</text>
<text text-anchor="start" x="14" y="-134.25" font-family="Helvetica,sans-Serif" font-size="10.00">updateGaze()</text>
<text text-anchor="start" x="4.38" y="-119" font-family="Helvetica,sans-Serif" font-size="10.00">#</text>
<text text-anchor="start" x="14" y="-119" font-family="Helvetica,sans-Serif" font-size="10.00">updateSaccade()</text>
<polygon fill="#666666" stroke="#666666" points="0,-222 0,-222 108.75,-222 108.75,-222 0,-222"/>
<polygon fill="#666666" stroke="#666666" points="0,-161 0,-161 12,-161 12,-161 0,-161"/>
<polygon fill="#666666" stroke="#666666" points="12,-161 12,-161 108.75,-161 108.75,-161 12,-161"/>
<polygon fill="none" stroke="#666666" points="0,-113.25 0,-250.5 108.75,-250.5 108.75,-113.25 0,-113.25"/>
</a>
</g>
</g>
<!-- Node2&#45;&gt;Node1 -->
<g id="edge1_Node000001_Node000002" class="edge">
<title>Node2&#45;&gt;Node1</title>
<g id="a_edge1_Node000001_Node000002"><a xlink:title=" ">
<path fill="none" stroke="#63b8ff" d="M54.38,-101.9C54.38,-92.91 54.38,-84.11 54.38,-76.07"/>
<polygon fill="none" stroke="#63b8ff" points="50.88,-101.81 54.38,-111.81 57.88,-101.81 50.88,-101.81"/>
</a>
</g>
</g>
<!-- Node3 -->
<g id="Node000003" class="node">
<title>Node3</title>
<g id="a_Node000003"><a xlink:href="classstackchan_1_1display_1_1_facial_drawable.html" target="_top" xlink:title=" ">
<polygon fill="white" stroke="none" points="153.12,-379 65.62,-379 65.62,-287.5 153.12,-287.5 153.12,-379"/>
<text text-anchor="start" x="69.62" y="-365.5" font-family="Helvetica,sans-Serif" font-size="10.00">stackchan::display</text>
<text text-anchor="start" x="73.75" y="-354.25" font-family="Helvetica,sans-Serif" font-size="10.00">::FacialDrawable</text>
<text text-anchor="start" x="107.88" y="-339" font-family="Helvetica,sans-Serif" font-size="10.00"> </text>
<text text-anchor="start" x="75.38" y="-323.75" font-family="Helvetica,sans-Serif" font-size="10.00">+</text>
<text text-anchor="start" x="91.12" y="-323.75" font-family="Helvetica,sans-Serif" font-size="10.00">draw()</text>
<text text-anchor="start" x="75.38" y="-308.5" font-family="Helvetica,sans-Serif" font-size="10.00">+</text>
<text text-anchor="start" x="91.12" y="-308.5" font-family="Helvetica,sans-Serif" font-size="10.00">Drawable()</text>
<text text-anchor="start" x="75.38" y="-293.25" font-family="Helvetica,sans-Serif" font-size="10.00">+</text>
<text text-anchor="start" x="91.12" y="-293.25" font-family="Helvetica,sans-Serif" font-size="10.00">Drawable()</text>
<polygon fill="#bfbfbf" stroke="#bfbfbf" points="65.62,-350.5 65.62,-350.5 153.12,-350.5 153.12,-350.5 65.62,-350.5"/>
<polygon fill="#bfbfbf" stroke="#bfbfbf" points="65.62,-335.25 65.62,-335.25 153.12,-335.25 153.12,-335.25 65.62,-335.25"/>
<polygon fill="none" stroke="#bfbfbf" points="65.62,-287.5 65.62,-379 153.12,-379 153.12,-287.5 65.62,-287.5"/>
</a>
</g>
</g>
<!-- Node3&#45;&gt;Node2 -->
<g id="edge2_Node000002_Node000003" class="edge">
<title>Node3&#45;&gt;Node2</title>
<g id="a_edge2_Node000002_Node000003"><a xlink:title=" ">
<path fill="none" stroke="#63b8ff" d="M89.06,-277.06C85.85,-268.37 82.51,-259.29 79.22,-250.35"/>
<polygon fill="none" stroke="#63b8ff" points="85.76,-278.24 92.5,-286.42 92.33,-275.82 85.76,-278.24"/>
</a>
</g>
</g>
<!-- Node4 -->
<g id="Node000004" class="node">
<title>Node4</title>
<g id="a_Node000004"><a xlink:href="classstackchan_1_1display_1_1_drawable.html" target="_top" xlink:title=" ">
<polygon fill="white" stroke="none" points="170,-704 68.75,-704 68.75,-460 170,-460 170,-704"/>
<text text-anchor="start" x="79.62" y="-690.5" font-family="Helvetica,sans-Serif" font-size="10.00">stackchan::display</text>
<text text-anchor="start" x="96.88" y="-679.25" font-family="Helvetica,sans-Serif" font-size="10.00">::Drawable</text>
<text text-anchor="start" x="73.12" y="-664" font-family="Helvetica,sans-Serif" font-size="10.00">#</text>
<text text-anchor="start" x="82.75" y="-664" font-family="Helvetica,sans-Serif" font-size="10.00">rotation_</text>
<text text-anchor="start" x="73.12" y="-648.75" font-family="Helvetica,sans-Serif" font-size="10.00">#</text>
<text text-anchor="start" x="82.75" y="-648.75" font-family="Helvetica,sans-Serif" font-size="10.00">visible_</text>
<text text-anchor="start" x="73.12" y="-633.5" font-family="Helvetica,sans-Serif" font-size="10.00">#</text>
<text text-anchor="start" x="82.75" y="-633.5" font-family="Helvetica,sans-Serif" font-size="10.00">ignore_expression_</text>
<text text-anchor="start" x="72.75" y="-618.25" font-family="Helvetica,sans-Serif" font-size="10.00">+</text>
<text text-anchor="start" x="82.75" y="-618.25" font-family="Helvetica,sans-Serif" font-size="10.00">Drawable()</text>
<text text-anchor="start" x="72.75" y="-603" font-family="Helvetica,sans-Serif" font-size="10.00">+</text>
<text text-anchor="start" x="82.75" y="-603" font-family="Helvetica,sans-Serif" font-size="10.00">Drawable()</text>
<text text-anchor="start" x="72.75" y="-587.75" font-family="Helvetica,sans-Serif" font-size="10.00">+</text>
<text text-anchor="start" x="82.75" y="-587.75" font-family="Helvetica,sans-Serif" font-size="10.00">~Drawable()</text>
<text text-anchor="start" x="72.75" y="-572.5" font-family="Helvetica,sans-Serif" font-size="10.00">+</text>
<text text-anchor="start" x="82.75" y="-572.5" font-family="Helvetica,sans-Serif" font-size="10.00">setPosition()</text>
<text text-anchor="start" x="72.75" y="-557.25" font-family="Helvetica,sans-Serif" font-size="10.00">+</text>
<text text-anchor="start" x="82.75" y="-557.25" font-family="Helvetica,sans-Serif" font-size="10.00">getPosition()</text>
<text text-anchor="start" x="72.75" y="-542" font-family="Helvetica,sans-Serif" font-size="10.00">+</text>
<text text-anchor="start" x="82.75" y="-542" font-family="Helvetica,sans-Serif" font-size="10.00">setRotation()</text>
<text text-anchor="start" x="72.75" y="-526.75" font-family="Helvetica,sans-Serif" font-size="10.00">+</text>
<text text-anchor="start" x="82.75" y="-526.75" font-family="Helvetica,sans-Serif" font-size="10.00">getRotation()</text>
<text text-anchor="start" x="72.75" y="-511.5" font-family="Helvetica,sans-Serif" font-size="10.00">+</text>
<text text-anchor="start" x="82.75" y="-511.5" font-family="Helvetica,sans-Serif" font-size="10.00">setSize()</text>
<text text-anchor="start" x="72.75" y="-496.25" font-family="Helvetica,sans-Serif" font-size="10.00">+</text>
<text text-anchor="start" x="82.75" y="-496.25" font-family="Helvetica,sans-Serif" font-size="10.00">getSize()</text>
<text text-anchor="start" x="72.75" y="-481" font-family="Helvetica,sans-Serif" font-size="10.00">+</text>
<text text-anchor="start" x="82.75" y="-481" font-family="Helvetica,sans-Serif" font-size="10.00">setVisible()</text>
<text text-anchor="start" x="82.75" y="-465.75" font-family="Helvetica,sans-Serif" font-size="10.00">and 7 more...</text>
<polygon fill="#bfbfbf" stroke="#bfbfbf" points="68.75,-675.5 68.75,-675.5 170,-675.5 170,-675.5 68.75,-675.5"/>
<polygon fill="#bfbfbf" stroke="#bfbfbf" points="68.75,-629.75 68.75,-629.75 80.75,-629.75 80.75,-629.75 68.75,-629.75"/>
<polygon fill="#bfbfbf" stroke="#bfbfbf" points="80.75,-629.75 80.75,-629.75 170,-629.75 170,-629.75 80.75,-629.75"/>
<polygon fill="none" stroke="#bfbfbf" points="68.75,-460 68.75,-704 170,-704 170,-460 68.75,-460"/>
</a>
</g>
</g>
<!-- Node4&#45;&gt;Node3 -->
<g id="edge3_Node000003_Node000004" class="edge">
<title>Node4&#45;&gt;Node3</title>
<g id="a_edge3_Node000003_Node000004"><a xlink:title=" ">
<path fill="none" stroke="#63b8ff" d="M114.02,-448.92C113,-423.66 111.99,-398.88 111.18,-378.86"/>
<polygon fill="none" stroke="#63b8ff" points="110.51,-448.79 114.42,-458.64 117.51,-448.51 110.51,-448.79"/>
</a>
</g>
</g>
<!-- Node5 -->
<g id="Node000005" class="node">
<title>Node5</title>
<g id="a_Node000005"><a xlink:href="classm5_1_1_vector2i.html" target="_top" xlink:title=" ">
<polygon fill="white" stroke="none" points="72,-1014.5 0.75,-1014.5 0.75,-751.25 72,-751.25 72,-1014.5"/>
<text text-anchor="start" x="9.38" y="-1001" font-family="Helvetica,sans-Serif" font-size="10.00">m5::Vector2i</text>
<text text-anchor="start" x="4.75" y="-985.75" font-family="Helvetica,sans-Serif" font-size="10.00">+</text>
<text text-anchor="start" x="14.75" y="-985.75" font-family="Helvetica,sans-Serif" font-size="10.00">x</text>
<text text-anchor="start" x="4.75" y="-970.5" font-family="Helvetica,sans-Serif" font-size="10.00">+</text>
<text text-anchor="start" x="14.75" y="-970.5" font-family="Helvetica,sans-Serif" font-size="10.00">y</text>
<text text-anchor="start" x="4.75" y="-955.25" font-family="Helvetica,sans-Serif" font-size="10.00">+</text>
<text text-anchor="start" x="14.75" y="-955.25" font-family="Helvetica,sans-Serif" font-size="10.00">Vector2i()</text>
<text text-anchor="start" x="4.75" y="-940" font-family="Helvetica,sans-Serif" font-size="10.00">+</text>
<text text-anchor="start" x="14.75" y="-940" font-family="Helvetica,sans-Serif" font-size="10.00">Vector2i()</text>
<text text-anchor="start" x="4.75" y="-924.75" font-family="Helvetica,sans-Serif" font-size="10.00">+</text>
<text text-anchor="start" x="14.75" y="-924.75" font-family="Helvetica,sans-Serif" font-size="10.00">operator+()</text>
<text text-anchor="start" x="4.75" y="-909.5" font-family="Helvetica,sans-Serif" font-size="10.00">+</text>
<text text-anchor="start" x="14.75" y="-909.5" font-family="Helvetica,sans-Serif" font-size="10.00">operator&#45;()</text>
<text text-anchor="start" x="4.75" y="-894.25" font-family="Helvetica,sans-Serif" font-size="10.00">+</text>
<text text-anchor="start" x="14.75" y="-894.25" font-family="Helvetica,sans-Serif" font-size="10.00">operator*()</text>
<text text-anchor="start" x="4.75" y="-879" font-family="Helvetica,sans-Serif" font-size="10.00">+</text>
<text text-anchor="start" x="14.75" y="-879" font-family="Helvetica,sans-Serif" font-size="10.00">operator/()</text>
<text text-anchor="start" x="4.75" y="-863.75" font-family="Helvetica,sans-Serif" font-size="10.00">+</text>
<text text-anchor="start" x="14.75" y="-863.75" font-family="Helvetica,sans-Serif" font-size="10.00">operator+=()</text>
<text text-anchor="start" x="4.75" y="-848.5" font-family="Helvetica,sans-Serif" font-size="10.00">+</text>
<text text-anchor="start" x="14.75" y="-848.5" font-family="Helvetica,sans-Serif" font-size="10.00">operator&#45;=()</text>
<text text-anchor="start" x="4.75" y="-833.25" font-family="Helvetica,sans-Serif" font-size="10.00">+</text>
<text text-anchor="start" x="14.75" y="-833.25" font-family="Helvetica,sans-Serif" font-size="10.00">operator*=()</text>
<text text-anchor="start" x="4.75" y="-818" font-family="Helvetica,sans-Serif" font-size="10.00">+</text>
<text text-anchor="start" x="14.75" y="-818" font-family="Helvetica,sans-Serif" font-size="10.00">operator/=()</text>
<text text-anchor="start" x="4.75" y="-802.75" font-family="Helvetica,sans-Serif" font-size="10.00">+</text>
<text text-anchor="start" x="14.75" y="-802.75" font-family="Helvetica,sans-Serif" font-size="10.00">operator==()</text>
<text text-anchor="start" x="4.75" y="-787.5" font-family="Helvetica,sans-Serif" font-size="10.00">+</text>
<text text-anchor="start" x="14.75" y="-787.5" font-family="Helvetica,sans-Serif" font-size="10.00">operator!=()</text>
<text text-anchor="start" x="4.75" y="-772.25" font-family="Helvetica,sans-Serif" font-size="10.00">+</text>
<text text-anchor="start" x="14.75" y="-772.25" font-family="Helvetica,sans-Serif" font-size="10.00">dot()</text>
<text text-anchor="start" x="4.75" y="-757" font-family="Helvetica,sans-Serif" font-size="10.00">+</text>
<text text-anchor="start" x="14.75" y="-757" font-family="Helvetica,sans-Serif" font-size="10.00">clamp()</text>
<polygon fill="#bfbfbf" stroke="#bfbfbf" points="0.75,-997.25 0.75,-997.25 72,-997.25 72,-997.25 0.75,-997.25"/>
<polygon fill="#bfbfbf" stroke="#bfbfbf" points="0.75,-966.75 0.75,-966.75 12.75,-966.75 12.75,-966.75 0.75,-966.75"/>
<polygon fill="#bfbfbf" stroke="#bfbfbf" points="12.75,-966.75 12.75,-966.75 72,-966.75 72,-966.75 12.75,-966.75"/>
<polygon fill="none" stroke="#bfbfbf" points="0.75,-751.25 0.75,-1014.5 72,-1014.5 72,-751.25 0.75,-751.25"/>
</a>
</g>
</g>
<!-- Node5&#45;&gt;Node2 -->
<g id="edge6_Node000002_Node000005" class="edge">
<title>Node5&#45;&gt;Node2</title>
<g id="a_edge6_Node000002_Node000005"><a xlink:title=" ">
<path fill="none" stroke="#63b8ff" d="M31.25,-751.36C28.41,-653.71 26.55,-516.91 32.62,-397 34.87,-352.65 39.72,-303.32 44.27,-263.21"/>
<polygon fill="none" stroke="#63b8ff" points="44.29,-263.07 41,-256.65 45.66,-251.14 48.95,-257.56 44.29,-263.07"/>
</a>
</g>
<text text-anchor="middle" x="70.5" y="-432.5" font-family="Helvetica,sans-Serif" font-size="10.00" fill="grey"> #gaze_</text>
<text text-anchor="start" x="32.62" y="-421.25" font-family="Helvetica,sans-Serif" font-size="10.00" fill="grey">#iris_position</text>
<text text-anchor="middle" x="70.5" y="-410" font-family="Helvetica,sans-Serif" font-size="10.00" fill="grey">_</text>
<text text-anchor="middle" x="70.5" y="-398.75" font-family="Helvetica,sans-Serif" font-size="10.00" fill="grey">#saccade_noise_</text>
</g>
<!-- Node5&#45;&gt;Node4 -->
<g id="edge4_Node000004_Node000005" class="edge">
<title>Node5&#45;&gt;Node4</title>
<g id="a_edge4_Node000004_Node000005"><a xlink:title=" ">
<path fill="none" stroke="#63b8ff" d="M66.89,-751.66C69.5,-741.6 72.18,-731.62 74.88,-722 75.42,-720.04 75.98,-718.06 76.55,-716.08"/>
<polygon fill="none" stroke="#63b8ff" points="76.53,-716.15 74.36,-709.27 79.88,-704.62 82.04,-711.5 76.53,-716.15"/>
</a>
</g>
<text text-anchor="middle" x="98.12" y="-723.75" font-family="Helvetica,sans-Serif" font-size="10.00" fill="grey"> #position_</text>
</g>
<!-- Node6 -->
<g id="Node000006" class="node">
<title>Node6</title>
<g id="a_Node000006"><a xlink:href="classm5_1_1_size2i.html" target="_top" xlink:title=" ">
<polygon fill="white" stroke="none" points="165.88,-953.5 96.88,-953.5 96.88,-812.25 165.88,-812.25 165.88,-953.5"/>
<text text-anchor="start" x="109.25" y="-940" font-family="Helvetica,sans-Serif" font-size="10.00">m5::Size2i</text>
<text text-anchor="start" x="100.88" y="-924.75" font-family="Helvetica,sans-Serif" font-size="10.00">+</text>
<text text-anchor="start" x="110.88" y="-924.75" font-family="Helvetica,sans-Serif" font-size="10.00">width</text>
<text text-anchor="start" x="100.88" y="-909.5" font-family="Helvetica,sans-Serif" font-size="10.00">+</text>
<text text-anchor="start" x="110.88" y="-909.5" font-family="Helvetica,sans-Serif" font-size="10.00">height</text>
<text text-anchor="start" x="100.88" y="-894.25" font-family="Helvetica,sans-Serif" font-size="10.00">+</text>
<text text-anchor="start" x="110.88" y="-894.25" font-family="Helvetica,sans-Serif" font-size="10.00">Size2i()</text>
<text text-anchor="start" x="100.88" y="-879" font-family="Helvetica,sans-Serif" font-size="10.00">+</text>
<text text-anchor="start" x="110.88" y="-879" font-family="Helvetica,sans-Serif" font-size="10.00">Size2i()</text>
<text text-anchor="start" x="100.88" y="-863.75" font-family="Helvetica,sans-Serif" font-size="10.00">+</text>
<text text-anchor="start" x="110.88" y="-863.75" font-family="Helvetica,sans-Serif" font-size="10.00">operator*=()</text>
<text text-anchor="start" x="100.88" y="-848.5" font-family="Helvetica,sans-Serif" font-size="10.00">+</text>
<text text-anchor="start" x="110.88" y="-848.5" font-family="Helvetica,sans-Serif" font-size="10.00">area()</text>
<text text-anchor="start" x="100.88" y="-833.25" font-family="Helvetica,sans-Serif" font-size="10.00">+</text>
<text text-anchor="start" x="110.88" y="-833.25" font-family="Helvetica,sans-Serif" font-size="10.00">max()</text>
<text text-anchor="start" x="100.88" y="-818" font-family="Helvetica,sans-Serif" font-size="10.00">+</text>
<text text-anchor="start" x="110.88" y="-818" font-family="Helvetica,sans-Serif" font-size="10.00">min()</text>
<polygon fill="#bfbfbf" stroke="#bfbfbf" points="96.88,-936.25 96.88,-936.25 165.88,-936.25 165.88,-936.25 96.88,-936.25"/>
<polygon fill="#bfbfbf" stroke="#bfbfbf" points="96.88,-905.75 96.88,-905.75 108.88,-905.75 108.88,-905.75 96.88,-905.75"/>
<polygon fill="#bfbfbf" stroke="#bfbfbf" points="108.88,-905.75 108.88,-905.75 165.88,-905.75 165.88,-905.75 108.88,-905.75"/>
<polygon fill="none" stroke="#bfbfbf" points="96.88,-812.25 96.88,-953.5 165.88,-953.5 165.88,-812.25 96.88,-812.25"/>
</a>
</g>
</g>
<!-- Node6&#45;&gt;Node4 -->
<g id="edge5_Node000004_Node000006" class="edge">
<title>Node6&#45;&gt;Node4</title>
<g id="a_edge5_Node000004_Node000006"><a xlink:title=" ">
<path fill="none" stroke="#63b8ff" d="M128.59,-812.56C127.44,-783.89 126.07,-749.63 124.73,-716.44"/>
<polygon fill="none" stroke="#63b8ff" points="124.74,-716.67 120.5,-710.84 124.26,-704.68 128.5,-710.52 124.74,-716.67"/>
</a>
</g>
<text text-anchor="middle" x="140.38" y="-723.75" font-family="Helvetica,sans-Serif" font-size="10.00" fill="grey"> #size_</text>
</g>
</g>
</svg>
