<?xml version="1.0" encoding="UTF-8" standalone="no"?>
<!DOCTYPE svg PUBLIC "-//W3C//DTD SVG 1.1//EN"
 "http://www.w3.org/Graphics/SVG/1.1/DTD/svg11.dtd">
<!-- Generated by graphviz version 12.2.0 (20241103.1931)
 -->
<!-- Title: stackchan::display::ToonFace1 Pages: 1 -->
<svg width="255pt" height="1356pt"
 viewBox="0.00 0.00 255.12 1355.50" xmlns="http://www.w3.org/2000/svg" xmlns:xlink="http://www.w3.org/1999/xlink">
<g id="graph0" class="graph" transform="scale(1 1) rotate(0) translate(4 1351.5)">
<title>stackchan::display::ToonFace1</title>
<!-- Node1 -->
<g id="Node000001" class="node">
<title>Node1</title>
<g id="a_Node000001"><a xlink:title=" ">
<polygon fill="#999999" stroke="none" points="219.12,-61 131.62,-61 131.62,0 219.12,0 219.12,-61"/>
<text text-anchor="start" x="135.62" y="-47.5" font-family="Helvetica,sans-Serif" font-size="10.00">stackchan::display</text>
<text text-anchor="start" x="148.75" y="-36.25" font-family="Helvetica,sans-Serif" font-size="10.00">::ToonFace1</text>
<text text-anchor="start" x="173.88" y="-21" font-family="Helvetica,sans-Serif" font-size="10.00"> </text>
<text text-anchor="start" x="139.31" y="-5.75" font-family="Helvetica,sans-Serif" font-size="10.00">+</text>
<text text-anchor="start" x="153" y="-5.75" font-family="Helvetica,sans-Serif" font-size="10.00">ToonFace1()</text>
<polygon fill="#666666" stroke="#666666" points="131.62,-32.5 131.62,-32.5 219.12,-32.5 219.12,-32.5 131.62,-32.5"/>
<polygon fill="#666666" stroke="#666666" points="131.62,-17.25 131.62,-17.25 219.12,-17.25 219.12,-17.25 131.62,-17.25"/>
<polygon fill="none" stroke="#666666" points="131.62,0 131.62,-61 219.12,-61 219.12,0 131.62,0"/>
</a>
</g>
</g>
<!-- Node2 -->
<g id="Node000002" class="node">
<title>Node2</title>
<g id="a_Node000002"><a xlink:href="classstackchan_1_1display_1_1_face.html" target="_top" xlink:title=" ">
<polygon fill="white" stroke="none" points="230.88,-372.5 119.88,-372.5 119.88,-98 230.88,-98 230.88,-372.5"/>
<text text-anchor="start" x="135.62" y="-359" font-family="Helvetica,sans-Serif" font-size="10.00">stackchan::display</text>
<text text-anchor="start" x="162.25" y="-347.75" font-family="Helvetica,sans-Serif" font-size="10.00">::Face</text>
<text text-anchor="start" x="124.25" y="-332.5" font-family="Helvetica,sans-Serif" font-size="10.00">#</text>
<text text-anchor="start" x="133.88" y="-332.5" font-family="Helvetica,sans-Serif" font-size="10.00">is_auto_blink_</text>
<text text-anchor="start" x="124.25" y="-317.25" font-family="Helvetica,sans-Serif" font-size="10.00">#</text>
<text text-anchor="start" x="133.88" y="-317.25" font-family="Helvetica,sans-Serif" font-size="10.00">auto_blink_interval_</text>
<text text-anchor="start" x="124.25" y="-302" font-family="Helvetica,sans-Serif" font-size="10.00">#</text>
<text text-anchor="start" x="133.88" y="-302" font-family="Helvetica,sans-Serif" font-size="10.00">last_blink_time_</text>
<text text-anchor="start" x="124.25" y="-286.75" font-family="Helvetica,sans-Serif" font-size="10.00">#</text>
<text text-anchor="start" x="133.88" y="-286.75" font-family="Helvetica,sans-Serif" font-size="10.00">blink_duration_</text>
<text text-anchor="start" x="124.25" y="-271.5" font-family="Helvetica,sans-Serif" font-size="10.00">#</text>
<text text-anchor="start" x="133.88" y="-271.5" font-family="Helvetica,sans-Serif" font-size="10.00">breath_frequency_</text>
<text text-anchor="start" x="123.88" y="-256.25" font-family="Helvetica,sans-Serif" font-size="10.00">+</text>
<text text-anchor="start" x="133.88" y="-256.25" font-family="Helvetica,sans-Serif" font-size="10.00">Face()</text>
<text text-anchor="start" x="123.88" y="-241" font-family="Helvetica,sans-Serif" font-size="10.00">+</text>
<text text-anchor="start" x="133.88" y="-241" font-family="Helvetica,sans-Serif" font-size="10.00">Face()</text>
<text text-anchor="start" x="123.88" y="-225.75" font-family="Helvetica,sans-Serif" font-size="10.00">+</text>
<text text-anchor="start" x="133.88" y="-225.75" font-family="Helvetica,sans-Serif" font-size="10.00">getLeftEye()</text>
<text text-anchor="start" x="123.88" y="-210.5" font-family="Helvetica,sans-Serif" font-size="10.00">+</text>
<text text-anchor="start" x="133.88" y="-210.5" font-family="Helvetica,sans-Serif" font-size="10.00">getRightEye()</text>
<text text-anchor="start" x="123.88" y="-195.25" font-family="Helvetica,sans-Serif" font-size="10.00">+</text>
<text text-anchor="start" x="133.88" y="-195.25" font-family="Helvetica,sans-Serif" font-size="10.00">getMouth()</text>
<text text-anchor="start" x="123.88" y="-180" font-family="Helvetica,sans-Serif" font-size="10.00">+</text>
<text text-anchor="start" x="133.88" y="-180" font-family="Helvetica,sans-Serif" font-size="10.00">activateAutoBlink()</text>
<text text-anchor="start" x="123.88" y="-164.75" font-family="Helvetica,sans-Serif" font-size="10.00">+</text>
<text text-anchor="start" x="133.88" y="-164.75" font-family="Helvetica,sans-Serif" font-size="10.00">deactivateAutoBlink()</text>
<text text-anchor="start" x="123.88" y="-149.5" font-family="Helvetica,sans-Serif" font-size="10.00">+</text>
<text text-anchor="start" x="133.88" y="-149.5" font-family="Helvetica,sans-Serif" font-size="10.00">getIsAutoBlink()</text>
<text text-anchor="start" x="123.88" y="-134.25" font-family="Helvetica,sans-Serif" font-size="10.00">+</text>
<text text-anchor="start" x="133.88" y="-134.25" font-family="Helvetica,sans-Serif" font-size="10.00">autoScale()</text>
<text text-anchor="start" x="123.88" y="-119" font-family="Helvetica,sans-Serif" font-size="10.00">+</text>
<text text-anchor="start" x="133.88" y="-119" font-family="Helvetica,sans-Serif" font-size="10.00">updateState()</text>
<text text-anchor="start" x="123.88" y="-103.75" font-family="Helvetica,sans-Serif" font-size="10.00">+</text>
<text text-anchor="start" x="133.88" y="-103.75" font-family="Helvetica,sans-Serif" font-size="10.00">draw()</text>
<polygon fill="#bfbfbf" stroke="#bfbfbf" points="119.88,-344 119.88,-344 230.88,-344 230.88,-344 119.88,-344"/>
<polygon fill="#bfbfbf" stroke="#bfbfbf" points="119.88,-267.75 119.88,-267.75 131.88,-267.75 131.88,-267.75 119.88,-267.75"/>
<polygon fill="#bfbfbf" stroke="#bfbfbf" points="131.88,-267.75 131.88,-267.75 230.88,-267.75 230.88,-267.75 131.88,-267.75"/>
<polygon fill="none" stroke="#bfbfbf" points="119.88,-98 119.88,-372.5 230.88,-372.5 230.88,-98 119.88,-98"/>
</a>
</g>
</g>
<!-- Node2&#45;&gt;Node1 -->
<g id="edge1_Node000001_Node000002" class="edge">
<title>Node2&#45;&gt;Node1</title>
<g id="a_edge1_Node000001_Node000002"><a xlink:title=" ">
<path fill="none" stroke="#63b8ff" d="M175.38,-86.78C175.38,-77.33 175.38,-68.55 175.38,-60.9"/>
<polygon fill="none" stroke="#63b8ff" points="171.88,-86.66 175.38,-96.66 178.88,-86.66 171.88,-86.66"/>
</a>
</g>
</g>
<!-- Node3 -->
<g id="Node000003" class="node">
<title>Node3</title>
<g id="a_Node000003"><a xlink:href="classstackchan_1_1display_1_1_facial_drawable.html" target="_top" xlink:title=" ">
<polygon fill="white" stroke="none" points="209.12,-712 121.62,-712 121.62,-620.5 209.12,-620.5 209.12,-712"/>
<text text-anchor="start" x="125.62" y="-698.5" font-family="Helvetica,sans-Serif" font-size="10.00">stackchan::display</text>
<text text-anchor="start" x="129.75" y="-687.25" font-family="Helvetica,sans-Serif" font-size="10.00">::FacialDrawable</text>
<text text-anchor="start" x="163.88" y="-672" font-family="Helvetica,sans-Serif" font-size="10.00"> </text>
<text text-anchor="start" x="131.38" y="-656.75" font-family="Helvetica,sans-Serif" font-size="10.00">+</text>
<text text-anchor="start" x="147.12" y="-656.75" font-family="Helvetica,sans-Serif" font-size="10.00">draw()</text>
<text text-anchor="start" x="131.38" y="-641.5" font-family="Helvetica,sans-Serif" font-size="10.00">+</text>
<text text-anchor="start" x="147.12" y="-641.5" font-family="Helvetica,sans-Serif" font-size="10.00">Drawable()</text>
<text text-anchor="start" x="131.38" y="-626.25" font-family="Helvetica,sans-Serif" font-size="10.00">+</text>
<text text-anchor="start" x="147.12" y="-626.25" font-family="Helvetica,sans-Serif" font-size="10.00">Drawable()</text>
<polygon fill="#bfbfbf" stroke="#bfbfbf" points="121.62,-683.5 121.62,-683.5 209.12,-683.5 209.12,-683.5 121.62,-683.5"/>
<polygon fill="#bfbfbf" stroke="#bfbfbf" points="121.62,-668.25 121.62,-668.25 209.12,-668.25 209.12,-668.25 121.62,-668.25"/>
<polygon fill="none" stroke="#bfbfbf" points="121.62,-620.5 121.62,-712 209.12,-712 209.12,-620.5 121.62,-620.5"/>
</a>
</g>
</g>
<!-- Node3&#45;&gt;Node2 -->
<g id="edge2_Node000002_Node000003" class="edge">
<title>Node3&#45;&gt;Node2</title>
<g id="a_edge2_Node000002_Node000003"><a xlink:title=" ">
<path fill="none" stroke="#63b8ff" d="M215.6,-614.43C222.47,-604.83 228.49,-594.37 232.38,-583.5 256.48,-516.05 246.55,-437.54 228.7,-372.25"/>
<polygon fill="none" stroke="#63b8ff" points="212.99,-612.08 209.71,-622.15 218.56,-616.33 212.99,-612.08"/>
</a>
</g>
</g>
<!-- Node7 -->
<g id="Node000007" class="node">
<title>Node7</title>
<g id="a_Node000007"><a xlink:href="classstackchan_1_1display_1_1_base_eye.html" target="_top" xlink:title="Base class for Eye, draw nothing.">
<polygon fill="white" stroke="none" points="108.75,-583.5 0,-583.5 0,-431 108.75,-431 108.75,-583.5"/>
<text text-anchor="start" x="14.62" y="-570" font-family="Helvetica,sans-Serif" font-size="10.00">stackchan::display</text>
<text text-anchor="start" x="33" y="-558.75" font-family="Helvetica,sans-Serif" font-size="10.00">::BaseEye</text>
<text text-anchor="start" x="4.38" y="-543.5" font-family="Helvetica,sans-Serif" font-size="10.00">#</text>
<text text-anchor="start" x="14" y="-543.5" font-family="Helvetica,sans-Serif" font-size="10.00">is_left_</text>
<text text-anchor="start" x="4.38" y="-528.25" font-family="Helvetica,sans-Serif" font-size="10.00">#</text>
<text text-anchor="start" x="14" y="-528.25" font-family="Helvetica,sans-Serif" font-size="10.00">milli_sec_</text>
<text text-anchor="start" x="4.38" y="-513" font-family="Helvetica,sans-Serif" font-size="10.00">#</text>
<text text-anchor="start" x="14" y="-513" font-family="Helvetica,sans-Serif" font-size="10.00">last_saccade_millis_</text>
<text text-anchor="start" x="4.38" y="-497.75" font-family="Helvetica,sans-Serif" font-size="10.00">#</text>
<text text-anchor="start" x="14" y="-497.75" font-family="Helvetica,sans-Serif" font-size="10.00">saccade_interval_</text>
<text text-anchor="start" x="4" y="-482.5" font-family="Helvetica,sans-Serif" font-size="10.00">+</text>
<text text-anchor="start" x="14" y="-482.5" font-family="Helvetica,sans-Serif" font-size="10.00">BaseEye()</text>
<text text-anchor="start" x="4.38" y="-467.25" font-family="Helvetica,sans-Serif" font-size="10.00">#</text>
<text text-anchor="start" x="14" y="-467.25" font-family="Helvetica,sans-Serif" font-size="10.00">updateGaze()</text>
<text text-anchor="start" x="4.38" y="-452" font-family="Helvetica,sans-Serif" font-size="10.00">#</text>
<text text-anchor="start" x="14" y="-452" font-family="Helvetica,sans-Serif" font-size="10.00">updateSaccade()</text>
<text text-anchor="start" x="4.38" y="-436.75" font-family="Helvetica,sans-Serif" font-size="10.00">#</text>
<text text-anchor="start" x="14" y="-436.75" font-family="Helvetica,sans-Serif" font-size="10.00">calculateOpenRatio()</text>
<polygon fill="#666666" stroke="#666666" points="0,-555 0,-555 108.75,-555 108.75,-555 0,-555"/>
<polygon fill="#666666" stroke="#666666" points="0,-494 0,-494 12,-494 12,-494 0,-494"/>
<polygon fill="#666666" stroke="#666666" points="12,-494 12,-494 108.75,-494 108.75,-494 12,-494"/>
<polygon fill="none" stroke="#666666" points="0,-431 0,-583.5 108.75,-583.5 108.75,-431 0,-431"/>
</a>
</g>
</g>
<!-- Node3&#45;&gt;Node7 -->
<g id="edge7_Node000007_Node000003" class="edge">
<title>Node3&#45;&gt;Node7</title>
<g id="a_edge7_Node000007_Node000003"><a xlink:title=" ">
<path fill="none" stroke="#63b8ff" d="M127.31,-611.41C120.88,-602.32 114.11,-592.74 107.39,-583.23"/>
<polygon fill="none" stroke="#63b8ff" points="124.36,-613.3 132.99,-619.44 130.07,-609.26 124.36,-613.3"/>
</a>
</g>
</g>
<!-- Node8 -->
<g id="Node000008" class="node">
<title>Node8</title>
<g id="a_Node000008"><a xlink:href="classstackchan_1_1display_1_1_base_mouth.html" target="_top" xlink:title=" ">
<polygon fill="white" stroke="none" points="223.75,-537.75 127,-537.75 127,-476.75 223.75,-476.75 223.75,-537.75"/>
<text text-anchor="start" x="135.62" y="-524.25" font-family="Helvetica,sans-Serif" font-size="10.00">stackchan::display</text>
<text text-anchor="start" x="148.38" y="-513" font-family="Helvetica,sans-Serif" font-size="10.00">::BaseMouth</text>
<text text-anchor="start" x="131" y="-497.75" font-family="Helvetica,sans-Serif" font-size="10.00">#</text>
<text text-anchor="start" x="140.25" y="-497.75" font-family="Helvetica,sans-Serif" font-size="10.00">breath_amplitude_</text>
<text text-anchor="start" x="173.88" y="-482.5" font-family="Helvetica,sans-Serif" font-size="10.00"> </text>
<polygon fill="#bfbfbf" stroke="#bfbfbf" points="127,-509.25 127,-509.25 223.75,-509.25 223.75,-509.25 127,-509.25"/>
<polygon fill="#bfbfbf" stroke="#bfbfbf" points="127,-494 127,-494 138.25,-494 138.25,-494 127,-494"/>
<polygon fill="#bfbfbf" stroke="#bfbfbf" points="138.25,-494 138.25,-494 223.75,-494 223.75,-494 138.25,-494"/>
<polygon fill="none" stroke="#bfbfbf" points="127,-476.75 127,-537.75 223.75,-537.75 223.75,-476.75 127,-476.75"/>
</a>
</g>
</g>
<!-- Node3&#45;&gt;Node8 -->
<g id="edge10_Node000008_Node000003" class="edge">
<title>Node3&#45;&gt;Node8</title>
<g id="a_edge10_Node000008_Node000003"><a xlink:title=" ">
<path fill="none" stroke="#63b8ff" d="M168.93,-609.43C170.48,-585.15 172.22,-557.72 173.51,-537.54"/>
<polygon fill="none" stroke="#63b8ff" points="165.45,-608.97 168.31,-619.17 172.44,-609.41 165.45,-608.97"/>
</a>
</g>
</g>
<!-- Node4 -->
<g id="Node000004" class="node">
<title>Node4</title>
<g id="a_Node000004"><a xlink:href="classstackchan_1_1display_1_1_drawable.html" target="_top" xlink:title=" ">
<polygon fill="white" stroke="none" points="215,-1037 113.75,-1037 113.75,-793 215,-793 215,-1037"/>
<text text-anchor="start" x="124.62" y="-1023.5" font-family="Helvetica,sans-Serif" font-size="10.00">stackchan::display</text>
<text text-anchor="start" x="141.88" y="-1012.25" font-family="Helvetica,sans-Serif" font-size="10.00">::Drawable</text>
<text text-anchor="start" x="118.12" y="-997" font-family="Helvetica,sans-Serif" font-size="10.00">#</text>
<text text-anchor="start" x="127.75" y="-997" font-family="Helvetica,sans-Serif" font-size="10.00">rotation_</text>
<text text-anchor="start" x="118.12" y="-981.75" font-family="Helvetica,sans-Serif" font-size="10.00">#</text>
<text text-anchor="start" x="127.75" y="-981.75" font-family="Helvetica,sans-Serif" font-size="10.00">visible_</text>
<text text-anchor="start" x="118.12" y="-966.5" font-family="Helvetica,sans-Serif" font-size="10.00">#</text>
<text text-anchor="start" x="127.75" y="-966.5" font-family="Helvetica,sans-Serif" font-size="10.00">ignore_expression_</text>
<text text-anchor="start" x="117.75" y="-951.25" font-family="Helvetica,sans-Serif" font-size="10.00">+</text>
<text text-anchor="start" x="127.75" y="-951.25" font-family="Helvetica,sans-Serif" font-size="10.00">Drawable()</text>
<text text-anchor="start" x="117.75" y="-936" font-family="Helvetica,sans-Serif" font-size="10.00">+</text>
<text text-anchor="start" x="127.75" y="-936" font-family="Helvetica,sans-Serif" font-size="10.00">Drawable()</text>
<text text-anchor="start" x="117.75" y="-920.75" font-family="Helvetica,sans-Serif" font-size="10.00">+</text>
<text text-anchor="start" x="127.75" y="-920.75" font-family="Helvetica,sans-Serif" font-size="10.00">~Drawable()</text>
<text text-anchor="start" x="117.75" y="-905.5" font-family="Helvetica,sans-Serif" font-size="10.00">+</text>
<text text-anchor="start" x="127.75" y="-905.5" font-family="Helvetica,sans-Serif" font-size="10.00">setPosition()</text>
<text text-anchor="start" x="117.75" y="-890.25" font-family="Helvetica,sans-Serif" font-size="10.00">+</text>
<text text-anchor="start" x="127.75" y="-890.25" font-family="Helvetica,sans-Serif" font-size="10.00">getPosition()</text>
<text text-anchor="start" x="117.75" y="-875" font-family="Helvetica,sans-Serif" font-size="10.00">+</text>
<text text-anchor="start" x="127.75" y="-875" font-family="Helvetica,sans-Serif" font-size="10.00">setRotation()</text>
<text text-anchor="start" x="117.75" y="-859.75" font-family="Helvetica,sans-Serif" font-size="10.00">+</text>
<text text-anchor="start" x="127.75" y="-859.75" font-family="Helvetica,sans-Serif" font-size="10.00">getRotation()</text>
<text text-anchor="start" x="117.75" y="-844.5" font-family="Helvetica,sans-Serif" font-size="10.00">+</text>
<text text-anchor="start" x="127.75" y="-844.5" font-family="Helvetica,sans-Serif" font-size="10.00">setSize()</text>
<text text-anchor="start" x="117.75" y="-829.25" font-family="Helvetica,sans-Serif" font-size="10.00">+</text>
<text text-anchor="start" x="127.75" y="-829.25" font-family="Helvetica,sans-Serif" font-size="10.00">getSize()</text>
<text text-anchor="start" x="117.75" y="-814" font-family="Helvetica,sans-Serif" font-size="10.00">+</text>
<text text-anchor="start" x="127.75" y="-814" font-family="Helvetica,sans-Serif" font-size="10.00">setVisible()</text>
<text text-anchor="start" x="127.75" y="-798.75" font-family="Helvetica,sans-Serif" font-size="10.00">and 7 more...</text>
<polygon fill="#bfbfbf" stroke="#bfbfbf" points="113.75,-1008.5 113.75,-1008.5 215,-1008.5 215,-1008.5 113.75,-1008.5"/>
<polygon fill="#bfbfbf" stroke="#bfbfbf" points="113.75,-962.75 113.75,-962.75 125.75,-962.75 125.75,-962.75 113.75,-962.75"/>
<polygon fill="#bfbfbf" stroke="#bfbfbf" points="125.75,-962.75 125.75,-962.75 215,-962.75 215,-962.75 125.75,-962.75"/>
<polygon fill="none" stroke="#bfbfbf" points="113.75,-793 113.75,-1037 215,-1037 215,-793 113.75,-793"/>
</a>
</g>
</g>
<!-- Node4&#45;&gt;Node3 -->
<g id="edge3_Node000003_Node000004" class="edge">
<title>Node4&#45;&gt;Node3</title>
<g id="a_edge3_Node000003_Node000004"><a xlink:title=" ">
<path fill="none" stroke="#63b8ff" d="M164.91,-781.92C165.01,-756.66 165.11,-731.88 165.19,-711.86"/>
<polygon fill="none" stroke="#63b8ff" points="161.41,-781.63 164.87,-791.64 168.41,-781.66 161.41,-781.63"/>
</a>
</g>
</g>
<!-- Node5 -->
<g id="Node000005" class="node">
<title>Node5</title>
<g id="a_Node000005"><a xlink:href="classm5_1_1_vector2i.html" target="_top" xlink:title=" ">
<polygon fill="white" stroke="none" points="105,-1347.5 33.75,-1347.5 33.75,-1084.25 105,-1084.25 105,-1347.5"/>
<text text-anchor="start" x="42.38" y="-1334" font-family="Helvetica,sans-Serif" font-size="10.00">m5::Vector2i</text>
<text text-anchor="start" x="37.75" y="-1318.75" font-family="Helvetica,sans-Serif" font-size="10.00">+</text>
<text text-anchor="start" x="47.75" y="-1318.75" font-family="Helvetica,sans-Serif" font-size="10.00">x</text>
<text text-anchor="start" x="37.75" y="-1303.5" font-family="Helvetica,sans-Serif" font-size="10.00">+</text>
<text text-anchor="start" x="47.75" y="-1303.5" font-family="Helvetica,sans-Serif" font-size="10.00">y</text>
<text text-anchor="start" x="37.75" y="-1288.25" font-family="Helvetica,sans-Serif" font-size="10.00">+</text>
<text text-anchor="start" x="47.75" y="-1288.25" font-family="Helvetica,sans-Serif" font-size="10.00">Vector2i()</text>
<text text-anchor="start" x="37.75" y="-1273" font-family="Helvetica,sans-Serif" font-size="10.00">+</text>
<text text-anchor="start" x="47.75" y="-1273" font-family="Helvetica,sans-Serif" font-size="10.00">Vector2i()</text>
<text text-anchor="start" x="37.75" y="-1257.75" font-family="Helvetica,sans-Serif" font-size="10.00">+</text>
<text text-anchor="start" x="47.75" y="-1257.75" font-family="Helvetica,sans-Serif" font-size="10.00">operator+()</text>
<text text-anchor="start" x="37.75" y="-1242.5" font-family="Helvetica,sans-Serif" font-size="10.00">+</text>
<text text-anchor="start" x="47.75" y="-1242.5" font-family="Helvetica,sans-Serif" font-size="10.00">operator&#45;()</text>
<text text-anchor="start" x="37.75" y="-1227.25" font-family="Helvetica,sans-Serif" font-size="10.00">+</text>
<text text-anchor="start" x="47.75" y="-1227.25" font-family="Helvetica,sans-Serif" font-size="10.00">operator*()</text>
<text text-anchor="start" x="37.75" y="-1212" font-family="Helvetica,sans-Serif" font-size="10.00">+</text>
<text text-anchor="start" x="47.75" y="-1212" font-family="Helvetica,sans-Serif" font-size="10.00">operator/()</text>
<text text-anchor="start" x="37.75" y="-1196.75" font-family="Helvetica,sans-Serif" font-size="10.00">+</text>
<text text-anchor="start" x="47.75" y="-1196.75" font-family="Helvetica,sans-Serif" font-size="10.00">operator+=()</text>
<text text-anchor="start" x="37.75" y="-1181.5" font-family="Helvetica,sans-Serif" font-size="10.00">+</text>
<text text-anchor="start" x="47.75" y="-1181.5" font-family="Helvetica,sans-Serif" font-size="10.00">operator&#45;=()</text>
<text text-anchor="start" x="37.75" y="-1166.25" font-family="Helvetica,sans-Serif" font-size="10.00">+</text>
<text text-anchor="start" x="47.75" y="-1166.25" font-family="Helvetica,sans-Serif" font-size="10.00">operator*=()</text>
<text text-anchor="start" x="37.75" y="-1151" font-family="Helvetica,sans-Serif" font-size="10.00">+</text>
<text text-anchor="start" x="47.75" y="-1151" font-family="Helvetica,sans-Serif" font-size="10.00">operator/=()</text>
<text text-anchor="start" x="37.75" y="-1135.75" font-family="Helvetica,sans-Serif" font-size="10.00">+</text>
<text text-anchor="start" x="47.75" y="-1135.75" font-family="Helvetica,sans-Serif" font-size="10.00">operator==()</text>
<text text-anchor="start" x="37.75" y="-1120.5" font-family="Helvetica,sans-Serif" font-size="10.00">+</text>
<text text-anchor="start" x="47.75" y="-1120.5" font-family="Helvetica,sans-Serif" font-size="10.00">operator!=()</text>
<text text-anchor="start" x="37.75" y="-1105.25" font-family="Helvetica,sans-Serif" font-size="10.00">+</text>
<text text-anchor="start" x="47.75" y="-1105.25" font-family="Helvetica,sans-Serif" font-size="10.00">dot()</text>
<text text-anchor="start" x="37.75" y="-1090" font-family="Helvetica,sans-Serif" font-size="10.00">+</text>
<text text-anchor="start" x="47.75" y="-1090" font-family="Helvetica,sans-Serif" font-size="10.00">clamp()</text>
<polygon fill="#bfbfbf" stroke="#bfbfbf" points="33.75,-1330.25 33.75,-1330.25 105,-1330.25 105,-1330.25 33.75,-1330.25"/>
<polygon fill="#bfbfbf" stroke="#bfbfbf" points="33.75,-1299.75 33.75,-1299.75 45.75,-1299.75 45.75,-1299.75 33.75,-1299.75"/>
<polygon fill="#bfbfbf" stroke="#bfbfbf" points="45.75,-1299.75 45.75,-1299.75 105,-1299.75 105,-1299.75 45.75,-1299.75"/>
<polygon fill="none" stroke="#bfbfbf" points="33.75,-1084.25 33.75,-1347.5 105,-1347.5 105,-1084.25 33.75,-1084.25"/>
</a>
</g>
</g>
<!-- Node5&#45;&gt;Node4 -->
<g id="edge4_Node000004_Node000005" class="edge">
<title>Node5&#45;&gt;Node4</title>
<g id="a_edge4_Node000004_Node000005"><a xlink:title=" ">
<path fill="none" stroke="#63b8ff" d="M104.73,-1084.62C107.73,-1074.57 110.8,-1064.6 113.88,-1055 114.5,-1053.03 115.14,-1051.06 115.79,-1049.06"/>
<polygon fill="none" stroke="#63b8ff" points="115.82,-1048.97 113.91,-1042.02 119.6,-1037.58 121.51,-1044.54 115.82,-1048.97"/>
</a>
</g>
<text text-anchor="middle" x="137.12" y="-1056.75" font-family="Helvetica,sans-Serif" font-size="10.00" fill="grey"> #position_</text>
</g>
<!-- Node5&#45;&gt;Node7 -->
<g id="edge8_Node000007_Node000005" class="edge">
<title>Node5&#45;&gt;Node7</title>
<g id="a_edge8_Node000007_Node000005"><a xlink:title=" ">
<path fill="none" stroke="#63b8ff" d="M66.61,-1084.45C63.59,-942.28 58.84,-718.73 56.24,-596.06"/>
<polygon fill="none" stroke="#63b8ff" points="56.24,-595.96 52.11,-590.05 55.98,-583.96 60.11,-589.88 56.24,-595.96"/>
</a>
</g>
<text text-anchor="middle" x="97.91" y="-765.5" font-family="Helvetica,sans-Serif" font-size="10.00" fill="grey"> #gaze_</text>
<text text-anchor="start" x="60.03" y="-754.25" font-family="Helvetica,sans-Serif" font-size="10.00" fill="grey">#iris_position</text>
<text text-anchor="middle" x="97.91" y="-743" font-family="Helvetica,sans-Serif" font-size="10.00" fill="grey">_</text>
<text text-anchor="middle" x="97.91" y="-731.75" font-family="Helvetica,sans-Serif" font-size="10.00" fill="grey">#saccade_noise_</text>
</g>
<!-- Node6 -->
<g id="Node000006" class="node">
<title>Node6</title>
<g id="a_Node000006"><a xlink:href="classm5_1_1_size2i.html" target="_top" xlink:title=" ">
<polygon fill="white" stroke="none" points="198.88,-1294.12 129.88,-1294.12 129.88,-1137.62 198.88,-1137.62 198.88,-1294.12"/>
<text text-anchor="start" x="142.25" y="-1280.62" font-family="Helvetica,sans-Serif" font-size="10.00">m5::Size2i</text>
<text text-anchor="start" x="133.88" y="-1265.38" font-family="Helvetica,sans-Serif" font-size="10.00">+</text>
<text text-anchor="start" x="143.88" y="-1265.38" font-family="Helvetica,sans-Serif" font-size="10.00">width</text>
<text text-anchor="start" x="133.88" y="-1250.12" font-family="Helvetica,sans-Serif" font-size="10.00">+</text>
<text text-anchor="start" x="143.88" y="-1250.12" font-family="Helvetica,sans-Serif" font-size="10.00">height</text>
<text text-anchor="start" x="133.88" y="-1234.88" font-family="Helvetica,sans-Serif" font-size="10.00">+</text>
<text text-anchor="start" x="143.88" y="-1234.88" font-family="Helvetica,sans-Serif" font-size="10.00">Size2i()</text>
<text text-anchor="start" x="133.88" y="-1219.62" font-family="Helvetica,sans-Serif" font-size="10.00">+</text>
<text text-anchor="start" x="143.88" y="-1219.62" font-family="Helvetica,sans-Serif" font-size="10.00">Size2i()</text>
<text text-anchor="start" x="133.88" y="-1204.38" font-family="Helvetica,sans-Serif" font-size="10.00">+</text>
<text text-anchor="start" x="143.88" y="-1204.38" font-family="Helvetica,sans-Serif" font-size="10.00">operator*=()</text>
<text text-anchor="start" x="133.88" y="-1189.12" font-family="Helvetica,sans-Serif" font-size="10.00">+</text>
<text text-anchor="start" x="143.88" y="-1189.12" font-family="Helvetica,sans-Serif" font-size="10.00">operator*()</text>
<text text-anchor="start" x="133.88" y="-1173.88" font-family="Helvetica,sans-Serif" font-size="10.00">+</text>
<text text-anchor="start" x="143.88" y="-1173.88" font-family="Helvetica,sans-Serif" font-size="10.00">area()</text>
<text text-anchor="start" x="133.88" y="-1158.62" font-family="Helvetica,sans-Serif" font-size="10.00">+</text>
<text text-anchor="start" x="143.88" y="-1158.62" font-family="Helvetica,sans-Serif" font-size="10.00">max()</text>
<text text-anchor="start" x="133.88" y="-1143.38" font-family="Helvetica,sans-Serif" font-size="10.00">+</text>
<text text-anchor="start" x="143.88" y="-1143.38" font-family="Helvetica,sans-Serif" font-size="10.00">min()</text>
<polygon fill="#bfbfbf" stroke="#bfbfbf" points="129.88,-1276.88 129.88,-1276.88 198.88,-1276.88 198.88,-1276.88 129.88,-1276.88"/>
<polygon fill="#bfbfbf" stroke="#bfbfbf" points="129.88,-1246.38 129.88,-1246.38 141.88,-1246.38 141.88,-1246.38 129.88,-1246.38"/>
<polygon fill="#bfbfbf" stroke="#bfbfbf" points="141.88,-1246.38 141.88,-1246.38 198.88,-1246.38 198.88,-1246.38 141.88,-1246.38"/>
<polygon fill="none" stroke="#bfbfbf" points="129.88,-1137.62 129.88,-1294.12 198.88,-1294.12 198.88,-1137.62 129.88,-1137.62"/>
</a>
</g>
</g>
<!-- Node6&#45;&gt;Node4 -->
<g id="edge5_Node000004_Node000006" class="edge">
<title>Node6&#45;&gt;Node4</title>
<g id="a_edge5_Node000004_Node000006"><a xlink:title=" ">
<path fill="none" stroke="#63b8ff" d="M164.38,-1137.91C164.38,-1110.97 164.38,-1079.89 164.38,-1049.67"/>
<polygon fill="none" stroke="#63b8ff" points="164.38,-1049.69 160.38,-1043.69 164.38,-1037.69 168.38,-1043.69 164.38,-1049.69"/>
</a>
</g>
<text text-anchor="middle" x="179.38" y="-1056.75" font-family="Helvetica,sans-Serif" font-size="10.00" fill="grey"> #size_</text>
</g>
<!-- Node7&#45;&gt;Node2 -->
<g id="edge6_Node000002_Node000007" class="edge">
<title>Node7&#45;&gt;Node2</title>
<g id="a_edge6_Node000002_Node000007"><a xlink:title=" ">
<path fill="none" stroke="#63b8ff" d="M88.08,-431.04C96.39,-412.5 105.55,-392.07 114.71,-371.63"/>
<polygon fill="none" stroke="#63b8ff" points="114.67,-371.72 113.47,-364.61 119.57,-360.77 120.77,-367.88 114.67,-371.72"/>
</a>
</g>
<text text-anchor="middle" x="128.79" y="-403.5" font-family="Helvetica,sans-Serif" font-size="10.00" fill="grey"> #left_eye_</text>
<text text-anchor="middle" x="128.79" y="-392.25" font-family="Helvetica,sans-Serif" font-size="10.00" fill="grey">#right_eye_</text>
</g>
<!-- Node8&#45;&gt;Node2 -->
<g id="edge9_Node000002_Node000008" class="edge">
<title>Node8&#45;&gt;Node2</title>
<g id="a_edge9_Node000002_Node000008"><a xlink:title=" ">
<path fill="none" stroke="#63b8ff" d="M175.38,-476.84C175.38,-453.96 175.38,-420.31 175.38,-385.39"/>
<polygon fill="none" stroke="#63b8ff" points="175.38,-385.38 171.38,-379.38 175.38,-373.38 179.38,-379.38 175.38,-385.38"/>
</a>
</g>
<text text-anchor="middle" x="195.25" y="-397.88" font-family="Helvetica,sans-Serif" font-size="10.00" fill="grey"> #mouth_</text>
</g>
</g>
</svg>
