<?xml version="1.0" encoding="UTF-8" standalone="no"?>
<!DOCTYPE svg PUBLIC "-//W3C//DTD SVG 1.1//EN"
 "http://www.w3.org/Graphics/SVG/1.1/DTD/svg11.dtd">
<!-- Generated by graphviz version 12.2.0 (20241103.1931)
 -->
<!-- Title: stackchan::display::SpeechBalloon Pages: 1 -->
<svg width="109pt" height="486pt"
 viewBox="0.00 0.00 109.25 486.25" xmlns="http://www.w3.org/2000/svg" xmlns:xlink="http://www.w3.org/1999/xlink">
<g id="graph0" class="graph" transform="scale(1 1) rotate(0) translate(4 482.25)">
<title>stackchan::display::SpeechBalloon</title>
<!-- Node1 -->
<g id="Node000001" class="node">
<title>Node1</title>
<g id="a_Node000001"><a xlink:title=" ">
<polygon fill="#999999" stroke="none" points="97.88,-167.75 3.38,-167.75 3.38,0 97.88,0 97.88,-167.75"/>
<text text-anchor="start" x="10.88" y="-154.25" font-family="Helvetica,sans-Serif" font-size="10.00">stackchan::display</text>
<text text-anchor="start" x="15.75" y="-143" font-family="Helvetica,sans-Serif" font-size="10.00">::SpeechBalloon</text>
<text text-anchor="start" x="7.75" y="-127.75" font-family="Helvetica,sans-Serif" font-size="10.00">#</text>
<text text-anchor="start" x="17.38" y="-127.75" font-family="Helvetica,sans-Serif" font-size="10.00">text_</text>
<text text-anchor="start" x="7.75" y="-112.5" font-family="Helvetica,sans-Serif" font-size="10.00">#</text>
<text text-anchor="start" x="17.38" y="-112.5" font-family="Helvetica,sans-Serif" font-size="10.00">font_</text>
<text text-anchor="start" x="7.38" y="-97.25" font-family="Helvetica,sans-Serif" font-size="10.00">+</text>
<text text-anchor="start" x="17.38" y="-97.25" font-family="Helvetica,sans-Serif" font-size="10.00">SpeechBalloon()</text>
<text text-anchor="start" x="7.38" y="-82" font-family="Helvetica,sans-Serif" font-size="10.00">+</text>
<text text-anchor="start" x="17.38" y="-82" font-family="Helvetica,sans-Serif" font-size="10.00">~SpeechBalloon()</text>
<text text-anchor="start" x="7.38" y="-66.75" font-family="Helvetica,sans-Serif" font-size="10.00">+</text>
<text text-anchor="start" x="17.38" y="-66.75" font-family="Helvetica,sans-Serif" font-size="10.00">SpeechBalloon()</text>
<text text-anchor="start" x="7.38" y="-51.5" font-family="Helvetica,sans-Serif" font-size="10.00">+</text>
<text text-anchor="start" x="17.38" y="-51.5" font-family="Helvetica,sans-Serif" font-size="10.00">operator=()</text>
<text text-anchor="start" x="7.38" y="-36.25" font-family="Helvetica,sans-Serif" font-size="10.00">+</text>
<text text-anchor="start" x="17.38" y="-36.25" font-family="Helvetica,sans-Serif" font-size="10.00">setText()</text>
<text text-anchor="start" x="7.38" y="-21" font-family="Helvetica,sans-Serif" font-size="10.00">+</text>
<text text-anchor="start" x="17.38" y="-21" font-family="Helvetica,sans-Serif" font-size="10.00">draw()</text>
<text text-anchor="start" x="7.38" y="-5.75" font-family="Helvetica,sans-Serif" font-size="10.00">+</text>
<text text-anchor="start" x="17.38" y="-5.75" font-family="Helvetica,sans-Serif" font-size="10.00">draw()</text>
<polygon fill="#666666" stroke="#666666" points="3.38,-139.25 3.38,-139.25 97.88,-139.25 97.88,-139.25 3.38,-139.25"/>
<polygon fill="#666666" stroke="#666666" points="3.38,-108.75 3.38,-108.75 15.38,-108.75 15.38,-108.75 3.38,-108.75"/>
<polygon fill="#666666" stroke="#666666" points="15.38,-108.75 15.38,-108.75 97.88,-108.75 97.88,-108.75 15.38,-108.75"/>
<polygon fill="none" stroke="#666666" points="3.38,0 3.38,-167.75 97.88,-167.75 97.88,0 3.38,0"/>
</a>
</g>
</g>
<!-- Node2 -->
<g id="Node000002" class="node">
<title>Node2</title>
<g id="a_Node000002"><a xlink:href="classstackchan_1_1display_1_1_drawable.html" target="_top" xlink:title=" ">
<polygon fill="white" stroke="none" points="101.25,-478.25 0,-478.25 0,-203.75 101.25,-203.75 101.25,-478.25"/>
<text text-anchor="start" x="10.88" y="-464.75" font-family="Helvetica,sans-Serif" font-size="10.00">stackchan::display</text>
<text text-anchor="start" x="28.12" y="-453.5" font-family="Helvetica,sans-Serif" font-size="10.00">::Drawable</text>
<text text-anchor="start" x="4.38" y="-438.25" font-family="Helvetica,sans-Serif" font-size="10.00">#</text>
<text text-anchor="start" x="14" y="-438.25" font-family="Helvetica,sans-Serif" font-size="10.00">position_</text>
<text text-anchor="start" x="4.38" y="-423" font-family="Helvetica,sans-Serif" font-size="10.00">#</text>
<text text-anchor="start" x="14" y="-423" font-family="Helvetica,sans-Serif" font-size="10.00">rotation_</text>
<text text-anchor="start" x="4.38" y="-407.75" font-family="Helvetica,sans-Serif" font-size="10.00">#</text>
<text text-anchor="start" x="14" y="-407.75" font-family="Helvetica,sans-Serif" font-size="10.00">size_</text>
<text text-anchor="start" x="4.38" y="-392.5" font-family="Helvetica,sans-Serif" font-size="10.00">#</text>
<text text-anchor="start" x="14" y="-392.5" font-family="Helvetica,sans-Serif" font-size="10.00">visible_</text>
<text text-anchor="start" x="4.38" y="-377.25" font-family="Helvetica,sans-Serif" font-size="10.00">#</text>
<text text-anchor="start" x="14" y="-377.25" font-family="Helvetica,sans-Serif" font-size="10.00">ignore_expression_</text>
<text text-anchor="start" x="4" y="-362" font-family="Helvetica,sans-Serif" font-size="10.00">+</text>
<text text-anchor="start" x="14" y="-362" font-family="Helvetica,sans-Serif" font-size="10.00">Drawable()</text>
<text text-anchor="start" x="4" y="-346.75" font-family="Helvetica,sans-Serif" font-size="10.00">+</text>
<text text-anchor="start" x="14" y="-346.75" font-family="Helvetica,sans-Serif" font-size="10.00">Drawable()</text>
<text text-anchor="start" x="4" y="-331.5" font-family="Helvetica,sans-Serif" font-size="10.00">+</text>
<text text-anchor="start" x="14" y="-331.5" font-family="Helvetica,sans-Serif" font-size="10.00">~Drawable()</text>
<text text-anchor="start" x="4" y="-316.25" font-family="Helvetica,sans-Serif" font-size="10.00">+</text>
<text text-anchor="start" x="14" y="-316.25" font-family="Helvetica,sans-Serif" font-size="10.00">setPosition()</text>
<text text-anchor="start" x="4" y="-301" font-family="Helvetica,sans-Serif" font-size="10.00">+</text>
<text text-anchor="start" x="14" y="-301" font-family="Helvetica,sans-Serif" font-size="10.00">getPosition()</text>
<text text-anchor="start" x="4" y="-285.75" font-family="Helvetica,sans-Serif" font-size="10.00">+</text>
<text text-anchor="start" x="14" y="-285.75" font-family="Helvetica,sans-Serif" font-size="10.00">setRotation()</text>
<text text-anchor="start" x="4" y="-270.5" font-family="Helvetica,sans-Serif" font-size="10.00">+</text>
<text text-anchor="start" x="14" y="-270.5" font-family="Helvetica,sans-Serif" font-size="10.00">getRotation()</text>
<text text-anchor="start" x="4" y="-255.25" font-family="Helvetica,sans-Serif" font-size="10.00">+</text>
<text text-anchor="start" x="14" y="-255.25" font-family="Helvetica,sans-Serif" font-size="10.00">setSize()</text>
<text text-anchor="start" x="4" y="-240" font-family="Helvetica,sans-Serif" font-size="10.00">+</text>
<text text-anchor="start" x="14" y="-240" font-family="Helvetica,sans-Serif" font-size="10.00">getSize()</text>
<text text-anchor="start" x="4" y="-224.75" font-family="Helvetica,sans-Serif" font-size="10.00">+</text>
<text text-anchor="start" x="14" y="-224.75" font-family="Helvetica,sans-Serif" font-size="10.00">setVisible()</text>
<text text-anchor="start" x="14" y="-209.5" font-family="Helvetica,sans-Serif" font-size="10.00">and 7 more...</text>
<polygon fill="#bfbfbf" stroke="#bfbfbf" points="0,-449.75 0,-449.75 101.25,-449.75 101.25,-449.75 0,-449.75"/>
<polygon fill="#bfbfbf" stroke="#bfbfbf" points="0,-373.5 0,-373.5 12,-373.5 12,-373.5 0,-373.5"/>
<polygon fill="#bfbfbf" stroke="#bfbfbf" points="12,-373.5 12,-373.5 101.25,-373.5 101.25,-373.5 12,-373.5"/>
<polygon fill="none" stroke="#bfbfbf" points="0,-203.75 0,-478.25 101.25,-478.25 101.25,-203.75 0,-203.75"/>
</a>
</g>
</g>
<!-- Node2&#45;&gt;Node1 -->
<g id="edge1_Node000001_Node000002" class="edge">
<title>Node2&#45;&gt;Node1</title>
<g id="a_edge1_Node000001_Node000002"><a xlink:title=" ">
<path fill="none" stroke="#63b8ff" d="M50.62,-192.6C50.62,-184.09 50.62,-175.7 50.62,-167.59"/>
<polygon fill="none" stroke="#63b8ff" points="47.13,-192.33 50.63,-202.33 54.13,-192.33 47.13,-192.33"/>
</a>
</g>
</g>
</g>
</svg>
