<?xml version="1.0" encoding="UTF-8" standalone="no"?>
<!DOCTYPE svg PUBLIC "-//W3C//DTD SVG 1.1//EN"
 "http://www.w3.org/Graphics/SVG/1.1/DTD/svg11.dtd">
<!-- Generated by graphviz version 12.2.0 (20241103.1931)
 -->
<!-- Title: stackchan::display::BaseMouth Pages: 1 -->
<svg width="166pt" height="789pt"
 viewBox="0.00 0.00 166.12 789.00" xmlns="http://www.w3.org/2000/svg" xmlns:xlink="http://www.w3.org/1999/xlink">
<g id="graph0" class="graph" transform="scale(1 1) rotate(0) translate(4 785)">
<title>stackchan::display::BaseMouth</title>
<!-- Node1 -->
<g id="Node000001" class="node">
<title>Node1</title>
<g id="a_Node000001"><a xlink:title=" ">
<polygon fill="#999999" stroke="none" points="128,-61 31.25,-61 31.25,0 128,0 128,-61"/>
<text text-anchor="start" x="39.88" y="-47.5" font-family="Helvetica,sans-Serif" font-size="10.00">stackchan::display</text>
<text text-anchor="start" x="52.62" y="-36.25" font-family="Helvetica,sans-Serif" font-size="10.00">::BaseMouth</text>
<text text-anchor="start" x="35.25" y="-21" font-family="Helvetica,sans-Serif" font-size="10.00">#</text>
<text text-anchor="start" x="44.5" y="-21" font-family="Helvetica,sans-Serif" font-size="10.00">breath_amplitude_</text>
<text text-anchor="start" x="78.12" y="-5.75" font-family="Helvetica,sans-Serif" font-size="10.00"> </text>
<polygon fill="#666666" stroke="#666666" points="31.25,-32.5 31.25,-32.5 128,-32.5 128,-32.5 31.25,-32.5"/>
<polygon fill="#666666" stroke="#666666" points="31.25,-17.25 31.25,-17.25 42.5,-17.25 42.5,-17.25 31.25,-17.25"/>
<polygon fill="#666666" stroke="#666666" points="42.5,-17.25 42.5,-17.25 128,-17.25 128,-17.25 42.5,-17.25"/>
<polygon fill="none" stroke="#666666" points="31.25,0 31.25,-61 128,-61 128,0 31.25,0"/>
</a>
</g>
</g>
<!-- Node2 -->
<g id="Node000002" class="node">
<title>Node2</title>
<g id="a_Node000002"><a xlink:href="classstackchan_1_1display_1_1_facial_drawable.html" target="_top" xlink:title=" ">
<polygon fill="white" stroke="none" points="123.38,-189.5 35.88,-189.5 35.88,-98 123.38,-98 123.38,-189.5"/>
<text text-anchor="start" x="39.88" y="-176" font-family="Helvetica,sans-Serif" font-size="10.00">stackchan::display</text>
<text text-anchor="start" x="44" y="-164.75" font-family="Helvetica,sans-Serif" font-size="10.00">::FacialDrawable</text>
<text text-anchor="start" x="78.12" y="-149.5" font-family="Helvetica,sans-Serif" font-size="10.00"> </text>
<text text-anchor="start" x="45.62" y="-134.25" font-family="Helvetica,sans-Serif" font-size="10.00">+</text>
<text text-anchor="start" x="61.38" y="-134.25" font-family="Helvetica,sans-Serif" font-size="10.00">draw()</text>
<text text-anchor="start" x="45.62" y="-119" font-family="Helvetica,sans-Serif" font-size="10.00">+</text>
<text text-anchor="start" x="61.38" y="-119" font-family="Helvetica,sans-Serif" font-size="10.00">Drawable()</text>
<text text-anchor="start" x="45.62" y="-103.75" font-family="Helvetica,sans-Serif" font-size="10.00">+</text>
<text text-anchor="start" x="61.38" y="-103.75" font-family="Helvetica,sans-Serif" font-size="10.00">Drawable()</text>
<polygon fill="#bfbfbf" stroke="#bfbfbf" points="35.88,-161 35.88,-161 123.38,-161 123.38,-161 35.88,-161"/>
<polygon fill="#bfbfbf" stroke="#bfbfbf" points="35.88,-145.75 35.88,-145.75 123.38,-145.75 123.38,-145.75 35.88,-145.75"/>
<polygon fill="none" stroke="#bfbfbf" points="35.88,-98 35.88,-189.5 123.38,-189.5 123.38,-98 35.88,-98"/>
</a>
</g>
</g>
<!-- Node2&#45;&gt;Node1 -->
<g id="edge1_Node000001_Node000002" class="edge">
<title>Node2&#45;&gt;Node1</title>
<g id="a_edge1_Node000001_Node000002"><a xlink:title=" ">
<path fill="none" stroke="#63b8ff" d="M79.62,-86.81C79.62,-77.81 79.62,-68.82 79.62,-60.78"/>
<polygon fill="none" stroke="#63b8ff" points="76.13,-86.63 79.63,-96.63 83.13,-86.63 76.13,-86.63"/>
</a>
</g>
</g>
<!-- Node3 -->
<g id="Node000003" class="node">
<title>Node3</title>
<g id="a_Node000003"><a xlink:href="classstackchan_1_1display_1_1_drawable.html" target="_top" xlink:title=" ">
<polygon fill="white" stroke="none" points="130.25,-470.5 29,-470.5 29,-226.5 130.25,-226.5 130.25,-470.5"/>
<text text-anchor="start" x="39.88" y="-457" font-family="Helvetica,sans-Serif" font-size="10.00">stackchan::display</text>
<text text-anchor="start" x="57.12" y="-445.75" font-family="Helvetica,sans-Serif" font-size="10.00">::Drawable</text>
<text text-anchor="start" x="33.38" y="-430.5" font-family="Helvetica,sans-Serif" font-size="10.00">#</text>
<text text-anchor="start" x="43" y="-430.5" font-family="Helvetica,sans-Serif" font-size="10.00">rotation_</text>
<text text-anchor="start" x="33.38" y="-415.25" font-family="Helvetica,sans-Serif" font-size="10.00">#</text>
<text text-anchor="start" x="43" y="-415.25" font-family="Helvetica,sans-Serif" font-size="10.00">visible_</text>
<text text-anchor="start" x="33.38" y="-400" font-family="Helvetica,sans-Serif" font-size="10.00">#</text>
<text text-anchor="start" x="43" y="-400" font-family="Helvetica,sans-Serif" font-size="10.00">ignore_expression_</text>
<text text-anchor="start" x="33" y="-384.75" font-family="Helvetica,sans-Serif" font-size="10.00">+</text>
<text text-anchor="start" x="43" y="-384.75" font-family="Helvetica,sans-Serif" font-size="10.00">Drawable()</text>
<text text-anchor="start" x="33" y="-369.5" font-family="Helvetica,sans-Serif" font-size="10.00">+</text>
<text text-anchor="start" x="43" y="-369.5" font-family="Helvetica,sans-Serif" font-size="10.00">Drawable()</text>
<text text-anchor="start" x="33" y="-354.25" font-family="Helvetica,sans-Serif" font-size="10.00">+</text>
<text text-anchor="start" x="43" y="-354.25" font-family="Helvetica,sans-Serif" font-size="10.00">~Drawable()</text>
<text text-anchor="start" x="33" y="-339" font-family="Helvetica,sans-Serif" font-size="10.00">+</text>
<text text-anchor="start" x="43" y="-339" font-family="Helvetica,sans-Serif" font-size="10.00">setPosition()</text>
<text text-anchor="start" x="33" y="-323.75" font-family="Helvetica,sans-Serif" font-size="10.00">+</text>
<text text-anchor="start" x="43" y="-323.75" font-family="Helvetica,sans-Serif" font-size="10.00">getPosition()</text>
<text text-anchor="start" x="33" y="-308.5" font-family="Helvetica,sans-Serif" font-size="10.00">+</text>
<text text-anchor="start" x="43" y="-308.5" font-family="Helvetica,sans-Serif" font-size="10.00">setRotation()</text>
<text text-anchor="start" x="33" y="-293.25" font-family="Helvetica,sans-Serif" font-size="10.00">+</text>
<text text-anchor="start" x="43" y="-293.25" font-family="Helvetica,sans-Serif" font-size="10.00">getRotation()</text>
<text text-anchor="start" x="33" y="-278" font-family="Helvetica,sans-Serif" font-size="10.00">+</text>
<text text-anchor="start" x="43" y="-278" font-family="Helvetica,sans-Serif" font-size="10.00">setSize()</text>
<text text-anchor="start" x="33" y="-262.75" font-family="Helvetica,sans-Serif" font-size="10.00">+</text>
<text text-anchor="start" x="43" y="-262.75" font-family="Helvetica,sans-Serif" font-size="10.00">getSize()</text>
<text text-anchor="start" x="33" y="-247.5" font-family="Helvetica,sans-Serif" font-size="10.00">+</text>
<text text-anchor="start" x="43" y="-247.5" font-family="Helvetica,sans-Serif" font-size="10.00">setVisible()</text>
<text text-anchor="start" x="43" y="-232.25" font-family="Helvetica,sans-Serif" font-size="10.00">and 7 more...</text>
<polygon fill="#bfbfbf" stroke="#bfbfbf" points="29,-442 29,-442 130.25,-442 130.25,-442 29,-442"/>
<polygon fill="#bfbfbf" stroke="#bfbfbf" points="29,-396.25 29,-396.25 41,-396.25 41,-396.25 29,-396.25"/>
<polygon fill="#bfbfbf" stroke="#bfbfbf" points="41,-396.25 41,-396.25 130.25,-396.25 130.25,-396.25 41,-396.25"/>
<polygon fill="none" stroke="#bfbfbf" points="29,-226.5 29,-470.5 130.25,-470.5 130.25,-226.5 29,-226.5"/>
</a>
</g>
</g>
<!-- Node3&#45;&gt;Node2 -->
<g id="edge2_Node000002_Node000003" class="edge">
<title>Node3&#45;&gt;Node2</title>
<g id="a_edge2_Node000002_Node000003"><a xlink:title=" ">
<path fill="none" stroke="#63b8ff" d="M79.62,-215.3C79.62,-206.14 79.62,-197.35 79.62,-189.27"/>
<polygon fill="none" stroke="#63b8ff" points="76.13,-215.12 79.63,-225.12 83.13,-215.12 76.13,-215.12"/>
</a>
</g>
</g>
<!-- Node4 -->
<g id="Node000004" class="node">
<title>Node4</title>
<g id="a_Node000004"><a xlink:href="classm5_1_1_vector2i.html" target="_top" xlink:title=" ">
<polygon fill="white" stroke="none" points="71.25,-781 0,-781 0,-517.75 71.25,-517.75 71.25,-781"/>
<text text-anchor="start" x="8.62" y="-767.5" font-family="Helvetica,sans-Serif" font-size="10.00">m5::Vector2i</text>
<text text-anchor="start" x="4" y="-752.25" font-family="Helvetica,sans-Serif" font-size="10.00">+</text>
<text text-anchor="start" x="14" y="-752.25" font-family="Helvetica,sans-Serif" font-size="10.00">x</text>
<text text-anchor="start" x="4" y="-737" font-family="Helvetica,sans-Serif" font-size="10.00">+</text>
<text text-anchor="start" x="14" y="-737" font-family="Helvetica,sans-Serif" font-size="10.00">y</text>
<text text-anchor="start" x="4" y="-721.75" font-family="Helvetica,sans-Serif" font-size="10.00">+</text>
<text text-anchor="start" x="14" y="-721.75" font-family="Helvetica,sans-Serif" font-size="10.00">Vector2i()</text>
<text text-anchor="start" x="4" y="-706.5" font-family="Helvetica,sans-Serif" font-size="10.00">+</text>
<text text-anchor="start" x="14" y="-706.5" font-family="Helvetica,sans-Serif" font-size="10.00">Vector2i()</text>
<text text-anchor="start" x="4" y="-691.25" font-family="Helvetica,sans-Serif" font-size="10.00">+</text>
<text text-anchor="start" x="14" y="-691.25" font-family="Helvetica,sans-Serif" font-size="10.00">operator+()</text>
<text text-anchor="start" x="4" y="-676" font-family="Helvetica,sans-Serif" font-size="10.00">+</text>
<text text-anchor="start" x="14" y="-676" font-family="Helvetica,sans-Serif" font-size="10.00">operator&#45;()</text>
<text text-anchor="start" x="4" y="-660.75" font-family="Helvetica,sans-Serif" font-size="10.00">+</text>
<text text-anchor="start" x="14" y="-660.75" font-family="Helvetica,sans-Serif" font-size="10.00">operator*()</text>
<text text-anchor="start" x="4" y="-645.5" font-family="Helvetica,sans-Serif" font-size="10.00">+</text>
<text text-anchor="start" x="14" y="-645.5" font-family="Helvetica,sans-Serif" font-size="10.00">operator/()</text>
<text text-anchor="start" x="4" y="-630.25" font-family="Helvetica,sans-Serif" font-size="10.00">+</text>
<text text-anchor="start" x="14" y="-630.25" font-family="Helvetica,sans-Serif" font-size="10.00">operator+=()</text>
<text text-anchor="start" x="4" y="-615" font-family="Helvetica,sans-Serif" font-size="10.00">+</text>
<text text-anchor="start" x="14" y="-615" font-family="Helvetica,sans-Serif" font-size="10.00">operator&#45;=()</text>
<text text-anchor="start" x="4" y="-599.75" font-family="Helvetica,sans-Serif" font-size="10.00">+</text>
<text text-anchor="start" x="14" y="-599.75" font-family="Helvetica,sans-Serif" font-size="10.00">operator*=()</text>
<text text-anchor="start" x="4" y="-584.5" font-family="Helvetica,sans-Serif" font-size="10.00">+</text>
<text text-anchor="start" x="14" y="-584.5" font-family="Helvetica,sans-Serif" font-size="10.00">operator/=()</text>
<text text-anchor="start" x="4" y="-569.25" font-family="Helvetica,sans-Serif" font-size="10.00">+</text>
<text text-anchor="start" x="14" y="-569.25" font-family="Helvetica,sans-Serif" font-size="10.00">operator==()</text>
<text text-anchor="start" x="4" y="-554" font-family="Helvetica,sans-Serif" font-size="10.00">+</text>
<text text-anchor="start" x="14" y="-554" font-family="Helvetica,sans-Serif" font-size="10.00">operator!=()</text>
<text text-anchor="start" x="4" y="-538.75" font-family="Helvetica,sans-Serif" font-size="10.00">+</text>
<text text-anchor="start" x="14" y="-538.75" font-family="Helvetica,sans-Serif" font-size="10.00">dot()</text>
<text text-anchor="start" x="4" y="-523.5" font-family="Helvetica,sans-Serif" font-size="10.00">+</text>
<text text-anchor="start" x="14" y="-523.5" font-family="Helvetica,sans-Serif" font-size="10.00">clamp()</text>
<polygon fill="#bfbfbf" stroke="#bfbfbf" points="0,-763.75 0,-763.75 71.25,-763.75 71.25,-763.75 0,-763.75"/>
<polygon fill="#bfbfbf" stroke="#bfbfbf" points="0,-733.25 0,-733.25 12,-733.25 12,-733.25 0,-733.25"/>
<polygon fill="#bfbfbf" stroke="#bfbfbf" points="12,-733.25 12,-733.25 71.25,-733.25 71.25,-733.25 12,-733.25"/>
<polygon fill="none" stroke="#bfbfbf" points="0,-517.75 0,-781 71.25,-781 71.25,-517.75 0,-517.75"/>
</a>
</g>
</g>
<!-- Node4&#45;&gt;Node3 -->
<g id="edge3_Node000003_Node000004" class="edge">
<title>Node4&#45;&gt;Node3</title>
<g id="a_edge3_Node000003_Node000004"><a xlink:title=" ">
<path fill="none" stroke="#63b8ff" d="M50.96,-517.86C52.31,-507.91 53.7,-498.04 55.12,-488.5 55.39,-486.74 55.66,-484.96 55.93,-483.18"/>
<polygon fill="none" stroke="#63b8ff" points="55.94,-483.1 52.91,-476.56 57.79,-471.25 60.81,-477.79 55.94,-483.1"/>
</a>
</g>
<text text-anchor="middle" x="78.38" y="-490.25" font-family="Helvetica,sans-Serif" font-size="10.00" fill="grey"> #position_</text>
</g>
<!-- Node5 -->
<g id="Node000005" class="node">
<title>Node5</title>
<g id="a_Node000005"><a xlink:href="classm5_1_1_size2i.html" target="_top" xlink:title=" ">
<polygon fill="white" stroke="none" points="158.12,-720 89.12,-720 89.12,-578.75 158.12,-578.75 158.12,-720"/>
<text text-anchor="start" x="101.5" y="-706.5" font-family="Helvetica,sans-Serif" font-size="10.00">m5::Size2i</text>
<text text-anchor="start" x="93.12" y="-691.25" font-family="Helvetica,sans-Serif" font-size="10.00">+</text>
<text text-anchor="start" x="103.12" y="-691.25" font-family="Helvetica,sans-Serif" font-size="10.00">width</text>
<text text-anchor="start" x="93.12" y="-676" font-family="Helvetica,sans-Serif" font-size="10.00">+</text>
<text text-anchor="start" x="103.12" y="-676" font-family="Helvetica,sans-Serif" font-size="10.00">height</text>
<text text-anchor="start" x="93.12" y="-660.75" font-family="Helvetica,sans-Serif" font-size="10.00">+</text>
<text text-anchor="start" x="103.12" y="-660.75" font-family="Helvetica,sans-Serif" font-size="10.00">Size2i()</text>
<text text-anchor="start" x="93.12" y="-645.5" font-family="Helvetica,sans-Serif" font-size="10.00">+</text>
<text text-anchor="start" x="103.12" y="-645.5" font-family="Helvetica,sans-Serif" font-size="10.00">Size2i()</text>
<text text-anchor="start" x="93.12" y="-630.25" font-family="Helvetica,sans-Serif" font-size="10.00">+</text>
<text text-anchor="start" x="103.12" y="-630.25" font-family="Helvetica,sans-Serif" font-size="10.00">operator*=()</text>
<text text-anchor="start" x="93.12" y="-615" font-family="Helvetica,sans-Serif" font-size="10.00">+</text>
<text text-anchor="start" x="103.12" y="-615" font-family="Helvetica,sans-Serif" font-size="10.00">area()</text>
<text text-anchor="start" x="93.12" y="-599.75" font-family="Helvetica,sans-Serif" font-size="10.00">+</text>
<text text-anchor="start" x="103.12" y="-599.75" font-family="Helvetica,sans-Serif" font-size="10.00">max()</text>
<text text-anchor="start" x="93.12" y="-584.5" font-family="Helvetica,sans-Serif" font-size="10.00">+</text>
<text text-anchor="start" x="103.12" y="-584.5" font-family="Helvetica,sans-Serif" font-size="10.00">min()</text>
<polygon fill="#bfbfbf" stroke="#bfbfbf" points="89.12,-702.75 89.12,-702.75 158.12,-702.75 158.12,-702.75 89.12,-702.75"/>
<polygon fill="#bfbfbf" stroke="#bfbfbf" points="89.12,-672.25 89.12,-672.25 101.12,-672.25 101.12,-672.25 89.12,-672.25"/>
<polygon fill="#bfbfbf" stroke="#bfbfbf" points="101.12,-672.25 101.12,-672.25 158.12,-672.25 158.12,-672.25 101.12,-672.25"/>
<polygon fill="none" stroke="#bfbfbf" points="89.12,-578.75 89.12,-720 158.12,-720 158.12,-578.75 89.12,-578.75"/>
</a>
</g>
</g>
<!-- Node5&#45;&gt;Node3 -->
<g id="edge4_Node000003_Node000005" class="edge">
<title>Node5&#45;&gt;Node3</title>
<g id="a_edge4_Node000003_Node000005"><a xlink:title=" ">
<path fill="none" stroke="#63b8ff" d="M114.4,-579.08C110.57,-550.95 106.01,-518.16 101.62,-488.5 101.36,-486.74 101.1,-484.97 100.84,-483.19"/>
<polygon fill="none" stroke="#63b8ff" points="100.83,-483.16 95.98,-477.82 99.04,-471.29 103.89,-476.63 100.83,-483.16"/>
</a>
</g>
<text text-anchor="middle" x="117.89" y="-490.25" font-family="Helvetica,sans-Serif" font-size="10.00" fill="grey"> #size_</text>
</g>
</g>
</svg>
