<?xml version="1.0" encoding="UTF-8" standalone="no"?>
<!DOCTYPE svg PUBLIC "-//W3C//DTD SVG 1.1//EN"
 "http://www.w3.org/Graphics/SVG/1.1/DTD/svg11.dtd">
<!-- Generated by graphviz version 12.2.0 (20241103.1931)
 -->
<!-- Title: stackchan::display::BaseMouth Pages: 1 -->
<svg width="202pt" height="604pt"
 viewBox="0.00 0.00 201.50 604.00" xmlns="http://www.w3.org/2000/svg" xmlns:xlink="http://www.w3.org/1999/xlink">
<g id="graph0" class="graph" transform="scale(1 1) rotate(0) translate(4 600)">
<title>stackchan::display::BaseMouth</title>
<!-- Node1 -->
<g id="Node000001" class="node">
<title>Node1</title>
<g id="a_Node000001"><a xlink:title=" ">
<polygon fill="#999999" stroke="none" points="145.12,-158 48.38,-158 48.38,-97 145.12,-97 145.12,-158"/>
<text text-anchor="start" x="57" y="-144.5" font-family="Helvetica,sans-Serif" font-size="10.00">stackchan::display</text>
<text text-anchor="start" x="69.75" y="-133.25" font-family="Helvetica,sans-Serif" font-size="10.00">::BaseMouth</text>
<text text-anchor="start" x="52.38" y="-118" font-family="Helvetica,sans-Serif" font-size="10.00">#</text>
<text text-anchor="start" x="61.62" y="-118" font-family="Helvetica,sans-Serif" font-size="10.00">breath_amplitude_</text>
<text text-anchor="start" x="95.25" y="-102.75" font-family="Helvetica,sans-Serif" font-size="10.00"> </text>
<polygon fill="#666666" stroke="#666666" points="48.38,-129.5 48.38,-129.5 145.12,-129.5 145.12,-129.5 48.38,-129.5"/>
<polygon fill="#666666" stroke="#666666" points="48.38,-114.25 48.38,-114.25 59.62,-114.25 59.62,-114.25 48.38,-114.25"/>
<polygon fill="#666666" stroke="#666666" points="59.62,-114.25 59.62,-114.25 145.12,-114.25 145.12,-114.25 59.62,-114.25"/>
<polygon fill="none" stroke="#666666" points="48.38,-97 48.38,-158 145.12,-158 145.12,-97 48.38,-97"/>
</a>
</g>
</g>
<!-- Node4 -->
<g id="Node000004" class="node">
<title>Node4</title>
<g id="a_Node000004"><a xlink:href="classstackchan_1_1display_1_1_mouth.html" target="_top" xlink:title=" ">
<polygon fill="white" stroke="none" points="87.5,-61 0,-61 0,0 87.5,0 87.5,-61"/>
<text text-anchor="start" x="4" y="-47.5" font-family="Helvetica,sans-Serif" font-size="10.00">stackchan::display</text>
<text text-anchor="start" x="28" y="-36.25" font-family="Helvetica,sans-Serif" font-size="10.00">::Mouth</text>
<text text-anchor="start" x="42.25" y="-21" font-family="Helvetica,sans-Serif" font-size="10.00"> </text>
<text text-anchor="start" x="14.62" y="-5.75" font-family="Helvetica,sans-Serif" font-size="10.00">+</text>
<text text-anchor="start" x="35.25" y="-5.75" font-family="Helvetica,sans-Serif" font-size="10.00">draw()</text>
<polygon fill="#bfbfbf" stroke="#bfbfbf" points="0,-32.5 0,-32.5 87.5,-32.5 87.5,-32.5 0,-32.5"/>
<polygon fill="#bfbfbf" stroke="#bfbfbf" points="0,-17.25 0,-17.25 87.5,-17.25 87.5,-17.25 0,-17.25"/>
<polygon fill="none" stroke="#bfbfbf" points="0,0 0,-61 87.5,-61 87.5,0 0,0"/>
</a>
</g>
</g>
<!-- Node1&#45;&gt;Node4 -->
<g id="edge3_Node000001_Node000004" class="edge">
<title>Node1&#45;&gt;Node4</title>
<g id="a_edge3_Node000001_Node000004"><a xlink:title=" ">
<path fill="none" stroke="#63b8ff" d="M74.95,-87.43C69.99,-78.54 64.81,-69.25 60.12,-60.85"/>
<polygon fill="none" stroke="#63b8ff" points="71.75,-88.87 79.68,-95.9 77.86,-85.46 71.75,-88.87"/>
</a>
</g>
</g>
<!-- Node5 -->
<g id="Node000005" class="node">
<title>Node5</title>
<g id="a_Node000005"><a xlink:href="classstackchan_1_1display_1_1_omega_mouth.html" target="_top" xlink:title=" ">
<polygon fill="white" stroke="none" points="193.5,-61 106,-61 106,0 193.5,0 193.5,-61"/>
<text text-anchor="start" x="110" y="-47.5" font-family="Helvetica,sans-Serif" font-size="10.00">stackchan::display</text>
<text text-anchor="start" x="118.25" y="-36.25" font-family="Helvetica,sans-Serif" font-size="10.00">::OmegaMouth</text>
<text text-anchor="start" x="148.25" y="-21" font-family="Helvetica,sans-Serif" font-size="10.00"> </text>
<text text-anchor="start" x="120.62" y="-5.75" font-family="Helvetica,sans-Serif" font-size="10.00">+</text>
<text text-anchor="start" x="141.25" y="-5.75" font-family="Helvetica,sans-Serif" font-size="10.00">draw()</text>
<polygon fill="#bfbfbf" stroke="#bfbfbf" points="106,-32.5 106,-32.5 193.5,-32.5 193.5,-32.5 106,-32.5"/>
<polygon fill="#bfbfbf" stroke="#bfbfbf" points="106,-17.25 106,-17.25 193.5,-17.25 193.5,-17.25 106,-17.25"/>
<polygon fill="none" stroke="#bfbfbf" points="106,0 106,-61 193.5,-61 193.5,0 106,0"/>
</a>
</g>
</g>
<!-- Node1&#45;&gt;Node5 -->
<g id="edge4_Node000001_Node000005" class="edge">
<title>Node1&#45;&gt;Node5</title>
<g id="a_edge4_Node000001_Node000005"><a xlink:title=" ">
<path fill="none" stroke="#63b8ff" d="M118.55,-87.43C123.51,-78.54 128.69,-69.25 133.38,-60.85"/>
<polygon fill="none" stroke="#63b8ff" points="115.64,-85.46 113.82,-95.9 121.75,-88.87 115.64,-85.46"/>
</a>
</g>
</g>
<!-- Node2 -->
<g id="Node000002" class="node">
<title>Node2</title>
<g id="a_Node000002"><a xlink:href="classstackchan_1_1display_1_1_facial_drawable.html" target="_top" xlink:title=" ">
<polygon fill="white" stroke="none" points="140.5,-285.5 53,-285.5 53,-194 140.5,-194 140.5,-285.5"/>
<text text-anchor="start" x="57" y="-272" font-family="Helvetica,sans-Serif" font-size="10.00">stackchan::display</text>
<text text-anchor="start" x="61.12" y="-260.75" font-family="Helvetica,sans-Serif" font-size="10.00">::FacialDrawable</text>
<text text-anchor="start" x="95.25" y="-245.5" font-family="Helvetica,sans-Serif" font-size="10.00"> </text>
<text text-anchor="start" x="62.75" y="-230.25" font-family="Helvetica,sans-Serif" font-size="10.00">+</text>
<text text-anchor="start" x="78.5" y="-230.25" font-family="Helvetica,sans-Serif" font-size="10.00">draw()</text>
<text text-anchor="start" x="62.75" y="-215" font-family="Helvetica,sans-Serif" font-size="10.00">+</text>
<text text-anchor="start" x="78.5" y="-215" font-family="Helvetica,sans-Serif" font-size="10.00">Drawable()</text>
<text text-anchor="start" x="62.75" y="-199.75" font-family="Helvetica,sans-Serif" font-size="10.00">+</text>
<text text-anchor="start" x="78.5" y="-199.75" font-family="Helvetica,sans-Serif" font-size="10.00">Drawable()</text>
<polygon fill="#bfbfbf" stroke="#bfbfbf" points="53,-257 53,-257 140.5,-257 140.5,-257 53,-257"/>
<polygon fill="#bfbfbf" stroke="#bfbfbf" points="53,-241.75 53,-241.75 140.5,-241.75 140.5,-241.75 53,-241.75"/>
<polygon fill="none" stroke="#bfbfbf" points="53,-194 53,-285.5 140.5,-285.5 140.5,-194 53,-194"/>
</a>
</g>
</g>
<!-- Node2&#45;&gt;Node1 -->
<g id="edge1_Node000001_Node000002" class="edge">
<title>Node2&#45;&gt;Node1</title>
<g id="a_edge1_Node000001_Node000002"><a xlink:title=" ">
<path fill="none" stroke="#63b8ff" d="M96.75,-182.84C96.75,-174.14 96.75,-165.46 96.75,-157.68"/>
<polygon fill="none" stroke="#63b8ff" points="93.25,-182.71 96.75,-192.71 100.25,-182.71 93.25,-182.71"/>
</a>
</g>
</g>
<!-- Node3 -->
<g id="Node000003" class="node">
<title>Node3</title>
<g id="a_Node000003"><a xlink:href="classstackchan_1_1display_1_1_drawable.html" target="_top" xlink:title=" ">
<polygon fill="white" stroke="none" points="147.38,-596 46.12,-596 46.12,-321.5 147.38,-321.5 147.38,-596"/>
<text text-anchor="start" x="57" y="-582.5" font-family="Helvetica,sans-Serif" font-size="10.00">stackchan::display</text>
<text text-anchor="start" x="74.25" y="-571.25" font-family="Helvetica,sans-Serif" font-size="10.00">::Drawable</text>
<text text-anchor="start" x="50.5" y="-556" font-family="Helvetica,sans-Serif" font-size="10.00">#</text>
<text text-anchor="start" x="60.12" y="-556" font-family="Helvetica,sans-Serif" font-size="10.00">position_</text>
<text text-anchor="start" x="50.5" y="-540.75" font-family="Helvetica,sans-Serif" font-size="10.00">#</text>
<text text-anchor="start" x="60.12" y="-540.75" font-family="Helvetica,sans-Serif" font-size="10.00">rotation_</text>
<text text-anchor="start" x="50.5" y="-525.5" font-family="Helvetica,sans-Serif" font-size="10.00">#</text>
<text text-anchor="start" x="60.12" y="-525.5" font-family="Helvetica,sans-Serif" font-size="10.00">size_</text>
<text text-anchor="start" x="50.5" y="-510.25" font-family="Helvetica,sans-Serif" font-size="10.00">#</text>
<text text-anchor="start" x="60.12" y="-510.25" font-family="Helvetica,sans-Serif" font-size="10.00">visible_</text>
<text text-anchor="start" x="50.5" y="-495" font-family="Helvetica,sans-Serif" font-size="10.00">#</text>
<text text-anchor="start" x="60.12" y="-495" font-family="Helvetica,sans-Serif" font-size="10.00">ignore_expression_</text>
<text text-anchor="start" x="50.12" y="-479.75" font-family="Helvetica,sans-Serif" font-size="10.00">+</text>
<text text-anchor="start" x="60.12" y="-479.75" font-family="Helvetica,sans-Serif" font-size="10.00">Drawable()</text>
<text text-anchor="start" x="50.12" y="-464.5" font-family="Helvetica,sans-Serif" font-size="10.00">+</text>
<text text-anchor="start" x="60.12" y="-464.5" font-family="Helvetica,sans-Serif" font-size="10.00">Drawable()</text>
<text text-anchor="start" x="50.12" y="-449.25" font-family="Helvetica,sans-Serif" font-size="10.00">+</text>
<text text-anchor="start" x="60.12" y="-449.25" font-family="Helvetica,sans-Serif" font-size="10.00">~Drawable()</text>
<text text-anchor="start" x="50.12" y="-434" font-family="Helvetica,sans-Serif" font-size="10.00">+</text>
<text text-anchor="start" x="60.12" y="-434" font-family="Helvetica,sans-Serif" font-size="10.00">setPosition()</text>
<text text-anchor="start" x="50.12" y="-418.75" font-family="Helvetica,sans-Serif" font-size="10.00">+</text>
<text text-anchor="start" x="60.12" y="-418.75" font-family="Helvetica,sans-Serif" font-size="10.00">getPosition()</text>
<text text-anchor="start" x="50.12" y="-403.5" font-family="Helvetica,sans-Serif" font-size="10.00">+</text>
<text text-anchor="start" x="60.12" y="-403.5" font-family="Helvetica,sans-Serif" font-size="10.00">setRotation()</text>
<text text-anchor="start" x="50.12" y="-388.25" font-family="Helvetica,sans-Serif" font-size="10.00">+</text>
<text text-anchor="start" x="60.12" y="-388.25" font-family="Helvetica,sans-Serif" font-size="10.00">getRotation()</text>
<text text-anchor="start" x="50.12" y="-373" font-family="Helvetica,sans-Serif" font-size="10.00">+</text>
<text text-anchor="start" x="60.12" y="-373" font-family="Helvetica,sans-Serif" font-size="10.00">setSize()</text>
<text text-anchor="start" x="50.12" y="-357.75" font-family="Helvetica,sans-Serif" font-size="10.00">+</text>
<text text-anchor="start" x="60.12" y="-357.75" font-family="Helvetica,sans-Serif" font-size="10.00">getSize()</text>
<text text-anchor="start" x="50.12" y="-342.5" font-family="Helvetica,sans-Serif" font-size="10.00">+</text>
<text text-anchor="start" x="60.12" y="-342.5" font-family="Helvetica,sans-Serif" font-size="10.00">setVisible()</text>
<text text-anchor="start" x="60.12" y="-327.25" font-family="Helvetica,sans-Serif" font-size="10.00">and 7 more...</text>
<polygon fill="#bfbfbf" stroke="#bfbfbf" points="46.12,-567.5 46.12,-567.5 147.38,-567.5 147.38,-567.5 46.12,-567.5"/>
<polygon fill="#bfbfbf" stroke="#bfbfbf" points="46.12,-491.25 46.12,-491.25 58.12,-491.25 58.12,-491.25 46.12,-491.25"/>
<polygon fill="#bfbfbf" stroke="#bfbfbf" points="58.12,-491.25 58.12,-491.25 147.38,-491.25 147.38,-491.25 58.12,-491.25"/>
<polygon fill="none" stroke="#bfbfbf" points="46.12,-321.5 46.12,-596 147.38,-596 147.38,-321.5 46.12,-321.5"/>
</a>
</g>
</g>
<!-- Node3&#45;&gt;Node2 -->
<g id="edge2_Node000002_Node000003" class="edge">
<title>Node3&#45;&gt;Node2</title>
<g id="a_edge2_Node000002_Node000003"><a xlink:title=" ">
<path fill="none" stroke="#63b8ff" d="M96.75,-310.2C96.75,-301.38 96.75,-292.96 96.75,-285.22"/>
<polygon fill="none" stroke="#63b8ff" points="93.25,-310.04 96.75,-320.04 100.25,-310.04 93.25,-310.04"/>
</a>
</g>
</g>
</g>
</svg>
