<?xml version="1.0" encoding="UTF-8" standalone="no"?>
<!DOCTYPE svg PUBLIC "-//W3C//DTD SVG 1.1//EN"
 "http://www.w3.org/Graphics/SVG/1.1/DTD/svg11.dtd">
<!-- Generated by graphviz version 12.2.0 (20241103.1931)
 -->
<!-- Title: stackchan::display::ToonEye1 Pages: 1 -->
<svg width="205pt" height="1114pt"
 viewBox="0.00 0.00 205.00 1114.00" xmlns="http://www.w3.org/2000/svg" xmlns:xlink="http://www.w3.org/1999/xlink">
<g id="graph0" class="graph" transform="scale(1 1) rotate(0) translate(4 1110)">
<title>stackchan::display::ToonEye1</title>
<!-- Node1 -->
<g id="Node000001" class="node">
<title>Node1</title>
<g id="a_Node000001"><a xlink:title=" ">
<polygon fill="#999999" stroke="none" points="162.75,-152.5 0,-152.5 0,0 162.75,0 162.75,-152.5"/>
<text text-anchor="start" x="41.62" y="-139" font-family="Helvetica,sans-Serif" font-size="10.00">stackchan::display</text>
<text text-anchor="start" x="57.75" y="-127.75" font-family="Helvetica,sans-Serif" font-size="10.00">::ToonEye1</text>
<text text-anchor="start" x="79.88" y="-112.5" font-family="Helvetica,sans-Serif" font-size="10.00"> </text>
<text text-anchor="start" x="4" y="-97.25" font-family="Helvetica,sans-Serif" font-size="10.00">+</text>
<text text-anchor="start" x="14" y="-97.25" font-family="Helvetica,sans-Serif" font-size="10.00">drawIris()</text>
<text text-anchor="start" x="4" y="-82" font-family="Helvetica,sans-Serif" font-size="10.00">+</text>
<text text-anchor="start" x="14" y="-82" font-family="Helvetica,sans-Serif" font-size="10.00">drawEyelid()</text>
<text text-anchor="start" x="4" y="-66.75" font-family="Helvetica,sans-Serif" font-size="10.00">+</text>
<text text-anchor="start" x="14" y="-66.75" font-family="Helvetica,sans-Serif" font-size="10.00">drawEyeLash()</text>
<text text-anchor="start" x="4" y="-51.5" font-family="Helvetica,sans-Serif" font-size="10.00">+</text>
<text text-anchor="start" x="14" y="-51.5" font-family="Helvetica,sans-Serif" font-size="10.00">draw()</text>
<text text-anchor="start" x="4" y="-36.25" font-family="Helvetica,sans-Serif" font-size="10.00">+</text>
<text text-anchor="start" x="14" y="-36.25" font-family="Helvetica,sans-Serif" font-size="10.00">BaseEye()</text>
<text text-anchor="start" x="4.38" y="-21" font-family="Helvetica,sans-Serif" font-size="10.00">#</text>
<text text-anchor="start" x="14" y="-21" font-family="Helvetica,sans-Serif" font-size="10.00">computeEyelidBaseWaypoints()</text>
<text text-anchor="start" x="4.38" y="-5.75" font-family="Helvetica,sans-Serif" font-size="10.00">#</text>
<text text-anchor="start" x="14" y="-5.75" font-family="Helvetica,sans-Serif" font-size="10.00">computeEyelashBaseWaypoints()</text>
<polygon fill="#666666" stroke="#666666" points="0,-124 0,-124 162.75,-124 162.75,-124 0,-124"/>
<polygon fill="#666666" stroke="#666666" points="0,-108.75 0,-108.75 162.75,-108.75 162.75,-108.75 0,-108.75"/>
<polygon fill="none" stroke="#666666" points="0,0 0,-152.5 162.75,-152.5 162.75,0 0,0"/>
</a>
</g>
</g>
<!-- Node2 -->
<g id="Node000002" class="node">
<title>Node2</title>
<g id="a_Node000002"><a xlink:href="classstackchan_1_1display_1_1_base_eye.html" target="_top" xlink:title="Base class for Eye, draw nothing.">
<polygon fill="white" stroke="none" points="135.75,-342 27,-342 27,-189.5 135.75,-189.5 135.75,-342"/>
<text text-anchor="start" x="41.62" y="-328.5" font-family="Helvetica,sans-Serif" font-size="10.00">stackchan::display</text>
<text text-anchor="start" x="60" y="-317.25" font-family="Helvetica,sans-Serif" font-size="10.00">::BaseEye</text>
<text text-anchor="start" x="31.38" y="-302" font-family="Helvetica,sans-Serif" font-size="10.00">#</text>
<text text-anchor="start" x="41" y="-302" font-family="Helvetica,sans-Serif" font-size="10.00">is_left_</text>
<text text-anchor="start" x="31.38" y="-286.75" font-family="Helvetica,sans-Serif" font-size="10.00">#</text>
<text text-anchor="start" x="41" y="-286.75" font-family="Helvetica,sans-Serif" font-size="10.00">milli_sec_</text>
<text text-anchor="start" x="31.38" y="-271.5" font-family="Helvetica,sans-Serif" font-size="10.00">#</text>
<text text-anchor="start" x="41" y="-271.5" font-family="Helvetica,sans-Serif" font-size="10.00">last_saccade_millis_</text>
<text text-anchor="start" x="31.38" y="-256.25" font-family="Helvetica,sans-Serif" font-size="10.00">#</text>
<text text-anchor="start" x="41" y="-256.25" font-family="Helvetica,sans-Serif" font-size="10.00">saccade_interval_</text>
<text text-anchor="start" x="31" y="-241" font-family="Helvetica,sans-Serif" font-size="10.00">+</text>
<text text-anchor="start" x="41" y="-241" font-family="Helvetica,sans-Serif" font-size="10.00">BaseEye()</text>
<text text-anchor="start" x="31.38" y="-225.75" font-family="Helvetica,sans-Serif" font-size="10.00">#</text>
<text text-anchor="start" x="41" y="-225.75" font-family="Helvetica,sans-Serif" font-size="10.00">updateGaze()</text>
<text text-anchor="start" x="31.38" y="-210.5" font-family="Helvetica,sans-Serif" font-size="10.00">#</text>
<text text-anchor="start" x="41" y="-210.5" font-family="Helvetica,sans-Serif" font-size="10.00">updateSaccade()</text>
<text text-anchor="start" x="31.38" y="-195.25" font-family="Helvetica,sans-Serif" font-size="10.00">#</text>
<text text-anchor="start" x="41" y="-195.25" font-family="Helvetica,sans-Serif" font-size="10.00">calculateOpenRatio()</text>
<polygon fill="#666666" stroke="#666666" points="27,-313.5 27,-313.5 135.75,-313.5 135.75,-313.5 27,-313.5"/>
<polygon fill="#666666" stroke="#666666" points="27,-252.5 27,-252.5 39,-252.5 39,-252.5 27,-252.5"/>
<polygon fill="#666666" stroke="#666666" points="39,-252.5 39,-252.5 135.75,-252.5 135.75,-252.5 39,-252.5"/>
<polygon fill="none" stroke="#666666" points="27,-189.5 27,-342 135.75,-342 135.75,-189.5 27,-189.5"/>
</a>
</g>
</g>
<!-- Node2&#45;&gt;Node1 -->
<g id="edge1_Node000001_Node000002" class="edge">
<title>Node2&#45;&gt;Node1</title>
<g id="a_edge1_Node000001_Node000002"><a xlink:title=" ">
<path fill="none" stroke="#63b8ff" d="M81.38,-178.29C81.38,-169.66 81.38,-160.95 81.38,-152.45"/>
<polygon fill="none" stroke="#63b8ff" points="77.88,-178.05 81.38,-188.05 84.88,-178.05 77.88,-178.05"/>
</a>
</g>
</g>
<!-- Node3 -->
<g id="Node000003" class="node">
<title>Node3</title>
<g id="a_Node000003"><a xlink:href="classstackchan_1_1display_1_1_facial_drawable.html" target="_top" xlink:title=" ">
<polygon fill="white" stroke="none" points="180.12,-470.5 92.62,-470.5 92.62,-379 180.12,-379 180.12,-470.5"/>
<text text-anchor="start" x="96.62" y="-457" font-family="Helvetica,sans-Serif" font-size="10.00">stackchan::display</text>
<text text-anchor="start" x="100.75" y="-445.75" font-family="Helvetica,sans-Serif" font-size="10.00">::FacialDrawable</text>
<text text-anchor="start" x="134.88" y="-430.5" font-family="Helvetica,sans-Serif" font-size="10.00"> </text>
<text text-anchor="start" x="102.38" y="-415.25" font-family="Helvetica,sans-Serif" font-size="10.00">+</text>
<text text-anchor="start" x="118.12" y="-415.25" font-family="Helvetica,sans-Serif" font-size="10.00">draw()</text>
<text text-anchor="start" x="102.38" y="-400" font-family="Helvetica,sans-Serif" font-size="10.00">+</text>
<text text-anchor="start" x="118.12" y="-400" font-family="Helvetica,sans-Serif" font-size="10.00">Drawable()</text>
<text text-anchor="start" x="102.38" y="-384.75" font-family="Helvetica,sans-Serif" font-size="10.00">+</text>
<text text-anchor="start" x="118.12" y="-384.75" font-family="Helvetica,sans-Serif" font-size="10.00">Drawable()</text>
<polygon fill="#bfbfbf" stroke="#bfbfbf" points="92.62,-442 92.62,-442 180.12,-442 180.12,-442 92.62,-442"/>
<polygon fill="#bfbfbf" stroke="#bfbfbf" points="92.62,-426.75 92.62,-426.75 180.12,-426.75 180.12,-426.75 92.62,-426.75"/>
<polygon fill="none" stroke="#bfbfbf" points="92.62,-379 92.62,-470.5 180.12,-470.5 180.12,-379 92.62,-379"/>
</a>
</g>
</g>
<!-- Node3&#45;&gt;Node2 -->
<g id="edge2_Node000002_Node000003" class="edge">
<title>Node3&#45;&gt;Node2</title>
<g id="a_edge2_Node000002_Node000003"><a xlink:title=" ">
<path fill="none" stroke="#63b8ff" d="M117.01,-368.47C113.98,-359.81 110.8,-350.74 107.64,-341.73"/>
<polygon fill="none" stroke="#63b8ff" points="113.65,-369.47 120.26,-377.75 120.26,-367.16 113.65,-369.47"/>
</a>
</g>
</g>
<!-- Node4 -->
<g id="Node000004" class="node">
<title>Node4</title>
<g id="a_Node000004"><a xlink:href="classstackchan_1_1display_1_1_drawable.html" target="_top" xlink:title=" ">
<polygon fill="white" stroke="none" points="197,-795.5 95.75,-795.5 95.75,-551.5 197,-551.5 197,-795.5"/>
<text text-anchor="start" x="106.62" y="-782" font-family="Helvetica,sans-Serif" font-size="10.00">stackchan::display</text>
<text text-anchor="start" x="123.88" y="-770.75" font-family="Helvetica,sans-Serif" font-size="10.00">::Drawable</text>
<text text-anchor="start" x="100.12" y="-755.5" font-family="Helvetica,sans-Serif" font-size="10.00">#</text>
<text text-anchor="start" x="109.75" y="-755.5" font-family="Helvetica,sans-Serif" font-size="10.00">rotation_</text>
<text text-anchor="start" x="100.12" y="-740.25" font-family="Helvetica,sans-Serif" font-size="10.00">#</text>
<text text-anchor="start" x="109.75" y="-740.25" font-family="Helvetica,sans-Serif" font-size="10.00">visible_</text>
<text text-anchor="start" x="100.12" y="-725" font-family="Helvetica,sans-Serif" font-size="10.00">#</text>
<text text-anchor="start" x="109.75" y="-725" font-family="Helvetica,sans-Serif" font-size="10.00">ignore_expression_</text>
<text text-anchor="start" x="99.75" y="-709.75" font-family="Helvetica,sans-Serif" font-size="10.00">+</text>
<text text-anchor="start" x="109.75" y="-709.75" font-family="Helvetica,sans-Serif" font-size="10.00">Drawable()</text>
<text text-anchor="start" x="99.75" y="-694.5" font-family="Helvetica,sans-Serif" font-size="10.00">+</text>
<text text-anchor="start" x="109.75" y="-694.5" font-family="Helvetica,sans-Serif" font-size="10.00">Drawable()</text>
<text text-anchor="start" x="99.75" y="-679.25" font-family="Helvetica,sans-Serif" font-size="10.00">+</text>
<text text-anchor="start" x="109.75" y="-679.25" font-family="Helvetica,sans-Serif" font-size="10.00">~Drawable()</text>
<text text-anchor="start" x="99.75" y="-664" font-family="Helvetica,sans-Serif" font-size="10.00">+</text>
<text text-anchor="start" x="109.75" y="-664" font-family="Helvetica,sans-Serif" font-size="10.00">setPosition()</text>
<text text-anchor="start" x="99.75" y="-648.75" font-family="Helvetica,sans-Serif" font-size="10.00">+</text>
<text text-anchor="start" x="109.75" y="-648.75" font-family="Helvetica,sans-Serif" font-size="10.00">getPosition()</text>
<text text-anchor="start" x="99.75" y="-633.5" font-family="Helvetica,sans-Serif" font-size="10.00">+</text>
<text text-anchor="start" x="109.75" y="-633.5" font-family="Helvetica,sans-Serif" font-size="10.00">setRotation()</text>
<text text-anchor="start" x="99.75" y="-618.25" font-family="Helvetica,sans-Serif" font-size="10.00">+</text>
<text text-anchor="start" x="109.75" y="-618.25" font-family="Helvetica,sans-Serif" font-size="10.00">getRotation()</text>
<text text-anchor="start" x="99.75" y="-603" font-family="Helvetica,sans-Serif" font-size="10.00">+</text>
<text text-anchor="start" x="109.75" y="-603" font-family="Helvetica,sans-Serif" font-size="10.00">setSize()</text>
<text text-anchor="start" x="99.75" y="-587.75" font-family="Helvetica,sans-Serif" font-size="10.00">+</text>
<text text-anchor="start" x="109.75" y="-587.75" font-family="Helvetica,sans-Serif" font-size="10.00">getSize()</text>
<text text-anchor="start" x="99.75" y="-572.5" font-family="Helvetica,sans-Serif" font-size="10.00">+</text>
<text text-anchor="start" x="109.75" y="-572.5" font-family="Helvetica,sans-Serif" font-size="10.00">setVisible()</text>
<text text-anchor="start" x="109.75" y="-557.25" font-family="Helvetica,sans-Serif" font-size="10.00">and 7 more...</text>
<polygon fill="#bfbfbf" stroke="#bfbfbf" points="95.75,-767 95.75,-767 197,-767 197,-767 95.75,-767"/>
<polygon fill="#bfbfbf" stroke="#bfbfbf" points="95.75,-721.25 95.75,-721.25 107.75,-721.25 107.75,-721.25 95.75,-721.25"/>
<polygon fill="#bfbfbf" stroke="#bfbfbf" points="107.75,-721.25 107.75,-721.25 197,-721.25 197,-721.25 107.75,-721.25"/>
<polygon fill="none" stroke="#bfbfbf" points="95.75,-551.5 95.75,-795.5 197,-795.5 197,-551.5 95.75,-551.5"/>
</a>
</g>
</g>
<!-- Node4&#45;&gt;Node3 -->
<g id="edge3_Node000003_Node000004" class="edge">
<title>Node4&#45;&gt;Node3</title>
<g id="a_edge3_Node000003_Node000004"><a xlink:title=" ">
<path fill="none" stroke="#63b8ff" d="M141.02,-540.42C140,-515.16 138.99,-490.38 138.18,-470.36"/>
<polygon fill="none" stroke="#63b8ff" points="137.51,-540.29 141.42,-550.14 144.51,-540.01 137.51,-540.29"/>
</a>
</g>
</g>
<!-- Node5 -->
<g id="Node000005" class="node">
<title>Node5</title>
<g id="a_Node000005"><a xlink:href="classm5_1_1_vector2i.html" target="_top" xlink:title=" ">
<polygon fill="white" stroke="none" points="99,-1106 27.75,-1106 27.75,-842.75 99,-842.75 99,-1106"/>
<text text-anchor="start" x="36.38" y="-1092.5" font-family="Helvetica,sans-Serif" font-size="10.00">m5::Vector2i</text>
<text text-anchor="start" x="31.75" y="-1077.25" font-family="Helvetica,sans-Serif" font-size="10.00">+</text>
<text text-anchor="start" x="41.75" y="-1077.25" font-family="Helvetica,sans-Serif" font-size="10.00">x</text>
<text text-anchor="start" x="31.75" y="-1062" font-family="Helvetica,sans-Serif" font-size="10.00">+</text>
<text text-anchor="start" x="41.75" y="-1062" font-family="Helvetica,sans-Serif" font-size="10.00">y</text>
<text text-anchor="start" x="31.75" y="-1046.75" font-family="Helvetica,sans-Serif" font-size="10.00">+</text>
<text text-anchor="start" x="41.75" y="-1046.75" font-family="Helvetica,sans-Serif" font-size="10.00">Vector2i()</text>
<text text-anchor="start" x="31.75" y="-1031.5" font-family="Helvetica,sans-Serif" font-size="10.00">+</text>
<text text-anchor="start" x="41.75" y="-1031.5" font-family="Helvetica,sans-Serif" font-size="10.00">Vector2i()</text>
<text text-anchor="start" x="31.75" y="-1016.25" font-family="Helvetica,sans-Serif" font-size="10.00">+</text>
<text text-anchor="start" x="41.75" y="-1016.25" font-family="Helvetica,sans-Serif" font-size="10.00">operator+()</text>
<text text-anchor="start" x="31.75" y="-1001" font-family="Helvetica,sans-Serif" font-size="10.00">+</text>
<text text-anchor="start" x="41.75" y="-1001" font-family="Helvetica,sans-Serif" font-size="10.00">operator&#45;()</text>
<text text-anchor="start" x="31.75" y="-985.75" font-family="Helvetica,sans-Serif" font-size="10.00">+</text>
<text text-anchor="start" x="41.75" y="-985.75" font-family="Helvetica,sans-Serif" font-size="10.00">operator*()</text>
<text text-anchor="start" x="31.75" y="-970.5" font-family="Helvetica,sans-Serif" font-size="10.00">+</text>
<text text-anchor="start" x="41.75" y="-970.5" font-family="Helvetica,sans-Serif" font-size="10.00">operator/()</text>
<text text-anchor="start" x="31.75" y="-955.25" font-family="Helvetica,sans-Serif" font-size="10.00">+</text>
<text text-anchor="start" x="41.75" y="-955.25" font-family="Helvetica,sans-Serif" font-size="10.00">operator+=()</text>
<text text-anchor="start" x="31.75" y="-940" font-family="Helvetica,sans-Serif" font-size="10.00">+</text>
<text text-anchor="start" x="41.75" y="-940" font-family="Helvetica,sans-Serif" font-size="10.00">operator&#45;=()</text>
<text text-anchor="start" x="31.75" y="-924.75" font-family="Helvetica,sans-Serif" font-size="10.00">+</text>
<text text-anchor="start" x="41.75" y="-924.75" font-family="Helvetica,sans-Serif" font-size="10.00">operator*=()</text>
<text text-anchor="start" x="31.75" y="-909.5" font-family="Helvetica,sans-Serif" font-size="10.00">+</text>
<text text-anchor="start" x="41.75" y="-909.5" font-family="Helvetica,sans-Serif" font-size="10.00">operator/=()</text>
<text text-anchor="start" x="31.75" y="-894.25" font-family="Helvetica,sans-Serif" font-size="10.00">+</text>
<text text-anchor="start" x="41.75" y="-894.25" font-family="Helvetica,sans-Serif" font-size="10.00">operator==()</text>
<text text-anchor="start" x="31.75" y="-879" font-family="Helvetica,sans-Serif" font-size="10.00">+</text>
<text text-anchor="start" x="41.75" y="-879" font-family="Helvetica,sans-Serif" font-size="10.00">operator!=()</text>
<text text-anchor="start" x="31.75" y="-863.75" font-family="Helvetica,sans-Serif" font-size="10.00">+</text>
<text text-anchor="start" x="41.75" y="-863.75" font-family="Helvetica,sans-Serif" font-size="10.00">dot()</text>
<text text-anchor="start" x="31.75" y="-848.5" font-family="Helvetica,sans-Serif" font-size="10.00">+</text>
<text text-anchor="start" x="41.75" y="-848.5" font-family="Helvetica,sans-Serif" font-size="10.00">clamp()</text>
<polygon fill="#bfbfbf" stroke="#bfbfbf" points="27.75,-1088.75 27.75,-1088.75 99,-1088.75 99,-1088.75 27.75,-1088.75"/>
<polygon fill="#bfbfbf" stroke="#bfbfbf" points="27.75,-1058.25 27.75,-1058.25 39.75,-1058.25 39.75,-1058.25 27.75,-1058.25"/>
<polygon fill="#bfbfbf" stroke="#bfbfbf" points="39.75,-1058.25 39.75,-1058.25 99,-1058.25 99,-1058.25 39.75,-1058.25"/>
<polygon fill="none" stroke="#bfbfbf" points="27.75,-842.75 27.75,-1106 99,-1106 99,-842.75 27.75,-842.75"/>
</a>
</g>
</g>
<!-- Node5&#45;&gt;Node2 -->
<g id="edge6_Node000002_Node000005" class="edge">
<title>Node5&#45;&gt;Node2</title>
<g id="a_edge6_Node000002_Node000005"><a xlink:title=" ">
<path fill="none" stroke="#63b8ff" d="M58.37,-842.87C55.59,-745.22 53.76,-608.42 59.62,-488.5 61.79,-444.31 66.36,-395.34 70.75,-354.69"/>
<polygon fill="none" stroke="#63b8ff" points="70.76,-354.62 67.44,-348.22 72.07,-342.7 75.39,-349.1 70.76,-354.62"/>
</a>
</g>
<text text-anchor="middle" x="97.5" y="-524" font-family="Helvetica,sans-Serif" font-size="10.00" fill="grey"> #gaze_</text>
<text text-anchor="start" x="59.62" y="-512.75" font-family="Helvetica,sans-Serif" font-size="10.00" fill="grey">#iris_position</text>
<text text-anchor="middle" x="97.5" y="-501.5" font-family="Helvetica,sans-Serif" font-size="10.00" fill="grey">_</text>
<text text-anchor="middle" x="97.5" y="-490.25" font-family="Helvetica,sans-Serif" font-size="10.00" fill="grey">#saccade_noise_</text>
</g>
<!-- Node5&#45;&gt;Node4 -->
<g id="edge4_Node000004_Node000005" class="edge">
<title>Node5&#45;&gt;Node4</title>
<g id="a_edge4_Node000004_Node000005"><a xlink:title=" ">
<path fill="none" stroke="#63b8ff" d="M93.89,-843.16C96.5,-833.1 99.18,-823.12 101.88,-813.5 102.42,-811.54 102.98,-809.56 103.55,-807.58"/>
<polygon fill="none" stroke="#63b8ff" points="103.53,-807.65 101.36,-800.77 106.88,-796.12 109.04,-803 103.53,-807.65"/>
</a>
</g>
<text text-anchor="middle" x="125.12" y="-815.25" font-family="Helvetica,sans-Serif" font-size="10.00" fill="grey"> #position_</text>
</g>
<!-- Node6 -->
<g id="Node000006" class="node">
<title>Node6</title>
<g id="a_Node000006"><a xlink:href="classm5_1_1_size2i.html" target="_top" xlink:title=" ">
<polygon fill="white" stroke="none" points="192.88,-1052.62 123.88,-1052.62 123.88,-896.12 192.88,-896.12 192.88,-1052.62"/>
<text text-anchor="start" x="136.25" y="-1039.12" font-family="Helvetica,sans-Serif" font-size="10.00">m5::Size2i</text>
<text text-anchor="start" x="127.88" y="-1023.88" font-family="Helvetica,sans-Serif" font-size="10.00">+</text>
<text text-anchor="start" x="137.88" y="-1023.88" font-family="Helvetica,sans-Serif" font-size="10.00">width</text>
<text text-anchor="start" x="127.88" y="-1008.62" font-family="Helvetica,sans-Serif" font-size="10.00">+</text>
<text text-anchor="start" x="137.88" y="-1008.62" font-family="Helvetica,sans-Serif" font-size="10.00">height</text>
<text text-anchor="start" x="127.88" y="-993.38" font-family="Helvetica,sans-Serif" font-size="10.00">+</text>
<text text-anchor="start" x="137.88" y="-993.38" font-family="Helvetica,sans-Serif" font-size="10.00">Size2i()</text>
<text text-anchor="start" x="127.88" y="-978.12" font-family="Helvetica,sans-Serif" font-size="10.00">+</text>
<text text-anchor="start" x="137.88" y="-978.12" font-family="Helvetica,sans-Serif" font-size="10.00">Size2i()</text>
<text text-anchor="start" x="127.88" y="-962.88" font-family="Helvetica,sans-Serif" font-size="10.00">+</text>
<text text-anchor="start" x="137.88" y="-962.88" font-family="Helvetica,sans-Serif" font-size="10.00">operator*=()</text>
<text text-anchor="start" x="127.88" y="-947.62" font-family="Helvetica,sans-Serif" font-size="10.00">+</text>
<text text-anchor="start" x="137.88" y="-947.62" font-family="Helvetica,sans-Serif" font-size="10.00">operator*()</text>
<text text-anchor="start" x="127.88" y="-932.38" font-family="Helvetica,sans-Serif" font-size="10.00">+</text>
<text text-anchor="start" x="137.88" y="-932.38" font-family="Helvetica,sans-Serif" font-size="10.00">area()</text>
<text text-anchor="start" x="127.88" y="-917.12" font-family="Helvetica,sans-Serif" font-size="10.00">+</text>
<text text-anchor="start" x="137.88" y="-917.12" font-family="Helvetica,sans-Serif" font-size="10.00">max()</text>
<text text-anchor="start" x="127.88" y="-901.88" font-family="Helvetica,sans-Serif" font-size="10.00">+</text>
<text text-anchor="start" x="137.88" y="-901.88" font-family="Helvetica,sans-Serif" font-size="10.00">min()</text>
<polygon fill="#bfbfbf" stroke="#bfbfbf" points="123.88,-1035.38 123.88,-1035.38 192.88,-1035.38 192.88,-1035.38 123.88,-1035.38"/>
<polygon fill="#bfbfbf" stroke="#bfbfbf" points="123.88,-1004.88 123.88,-1004.88 135.88,-1004.88 135.88,-1004.88 123.88,-1004.88"/>
<polygon fill="#bfbfbf" stroke="#bfbfbf" points="135.88,-1004.88 135.88,-1004.88 192.88,-1004.88 192.88,-1004.88 135.88,-1004.88"/>
<polygon fill="none" stroke="#bfbfbf" points="123.88,-896.12 123.88,-1052.62 192.88,-1052.62 192.88,-896.12 123.88,-896.12"/>
</a>
</g>
</g>
<!-- Node6&#45;&gt;Node4 -->
<g id="edge5_Node000004_Node000006" class="edge">
<title>Node6&#45;&gt;Node4</title>
<g id="a_edge5_Node000004_Node000006"><a xlink:title=" ">
<path fill="none" stroke="#63b8ff" d="M155.28,-896.41C154.2,-869.47 152.96,-838.39 151.74,-808.17"/>
<polygon fill="none" stroke="#63b8ff" points="151.74,-808.18 147.5,-802.35 151.26,-796.19 155.5,-802.03 151.74,-808.18"/>
</a>
</g>
<text text-anchor="middle" x="167.38" y="-815.25" font-family="Helvetica,sans-Serif" font-size="10.00" fill="grey"> #size_</text>
</g>
</g>
</svg>
