<?xml version="1.0" encoding="UTF-8" standalone="no"?>
<!DOCTYPE svg PUBLIC "-//W3C//DTD SVG 1.1//EN"
 "http://www.w3.org/Graphics/SVG/1.1/DTD/svg11.dtd">
<!-- Generated by graphviz version 12.2.0 (20241103.1931)
 -->
<!-- Title: stackchan::display::Display Pages: 1 -->
<svg width="505pt" height="1655pt"
 viewBox="0.00 0.00 505.05 1654.50" xmlns="http://www.w3.org/2000/svg" xmlns:xlink="http://www.w3.org/1999/xlink">
<g id="graph0" class="graph" transform="scale(1 1) rotate(0) translate(4 1650.5)">
<title>stackchan::display::Display</title>
<!-- Node1 -->
<g id="Node000001" class="node">
<title>Node1</title>
<g id="a_Node000001"><a xlink:title=" ">
<polygon fill="#999999" stroke="none" points="363.25,-198.25 233.5,-198.25 233.5,0 363.25,0 363.25,-198.25"/>
<text text-anchor="start" x="258.62" y="-184.75" font-family="Helvetica,sans-Serif" font-size="10.00">stackchan::display</text>
<text text-anchor="start" x="280.38" y="-173.5" font-family="Helvetica,sans-Serif" font-size="10.00">::Display</text>
<text text-anchor="start" x="237.88" y="-158.25" font-family="Helvetica,sans-Serif" font-size="10.00">#</text>
<text text-anchor="start" x="247.5" y="-158.25" font-family="Helvetica,sans-Serif" font-size="10.00">canvas_</text>
<text text-anchor="start" x="237.5" y="-143" font-family="Helvetica,sans-Serif" font-size="10.00">+</text>
<text text-anchor="start" x="247.5" y="-143" font-family="Helvetica,sans-Serif" font-size="10.00">Display()</text>
<text text-anchor="start" x="237.5" y="-127.75" font-family="Helvetica,sans-Serif" font-size="10.00">+</text>
<text text-anchor="start" x="247.5" y="-127.75" font-family="Helvetica,sans-Serif" font-size="10.00">getFace()</text>
<text text-anchor="start" x="237.5" y="-112.5" font-family="Helvetica,sans-Serif" font-size="10.00">+</text>
<text text-anchor="start" x="247.5" y="-112.5" font-family="Helvetica,sans-Serif" font-size="10.00">setFace()</text>
<text text-anchor="start" x="237.5" y="-97.25" font-family="Helvetica,sans-Serif" font-size="10.00">+</text>
<text text-anchor="start" x="247.5" y="-97.25" font-family="Helvetica,sans-Serif" font-size="10.00">getExpressionWeight()</text>
<text text-anchor="start" x="237.5" y="-82" font-family="Helvetica,sans-Serif" font-size="10.00">+</text>
<text text-anchor="start" x="247.5" y="-82" font-family="Helvetica,sans-Serif" font-size="10.00">getSpeechBalloon()</text>
<text text-anchor="start" x="237.5" y="-66.75" font-family="Helvetica,sans-Serif" font-size="10.00">+</text>
<text text-anchor="start" x="247.5" y="-66.75" font-family="Helvetica,sans-Serif" font-size="10.00">getColorPalette()</text>
<text text-anchor="start" x="237.5" y="-51.5" font-family="Helvetica,sans-Serif" font-size="10.00">+</text>
<text text-anchor="start" x="247.5" y="-51.5" font-family="Helvetica,sans-Serif" font-size="10.00">getCanvas()</text>
<text text-anchor="start" x="237.5" y="-36.25" font-family="Helvetica,sans-Serif" font-size="10.00">+</text>
<text text-anchor="start" x="247.5" y="-36.25" font-family="Helvetica,sans-Serif" font-size="10.00">draw()</text>
<text text-anchor="start" x="237.5" y="-21" font-family="Helvetica,sans-Serif" font-size="10.00">+</text>
<text text-anchor="start" x="247.5" y="-21" font-family="Helvetica,sans-Serif" font-size="10.00">update()</text>
<text text-anchor="start" x="237.88" y="-5.75" font-family="Helvetica,sans-Serif" font-size="10.00">#</text>
<text text-anchor="start" x="247.5" y="-5.75" font-family="Helvetica,sans-Serif" font-size="10.00">drawEmotionalDecorator()</text>
<polygon fill="#666666" stroke="#666666" points="233.5,-169.75 233.5,-169.75 363.25,-169.75 363.25,-169.75 233.5,-169.75"/>
<polygon fill="#666666" stroke="#666666" points="233.5,-154.5 233.5,-154.5 245.5,-154.5 245.5,-154.5 233.5,-154.5"/>
<polygon fill="#666666" stroke="#666666" points="245.5,-154.5 245.5,-154.5 363.25,-154.5 363.25,-154.5 245.5,-154.5"/>
<polygon fill="none" stroke="#666666" points="233.5,0 233.5,-198.25 363.25,-198.25 363.25,0 233.5,0"/>
</a>
</g>
</g>
<!-- Node2 -->
<g id="Node000002" class="node">
<title>Node2</title>
<g id="a_Node000002"><a xlink:href="classstackchan_1_1display_1_1_face.html" target="_top" xlink:title=" ">
<polygon fill="white" stroke="none" points="158.88,-520 47.88,-520 47.88,-245.5 158.88,-245.5 158.88,-520"/>
<text text-anchor="start" x="63.62" y="-506.5" font-family="Helvetica,sans-Serif" font-size="10.00">stackchan::display</text>
<text text-anchor="start" x="90.25" y="-495.25" font-family="Helvetica,sans-Serif" font-size="10.00">::Face</text>
<text text-anchor="start" x="52.25" y="-480" font-family="Helvetica,sans-Serif" font-size="10.00">#</text>
<text text-anchor="start" x="61.88" y="-480" font-family="Helvetica,sans-Serif" font-size="10.00">is_auto_blink_</text>
<text text-anchor="start" x="52.25" y="-464.75" font-family="Helvetica,sans-Serif" font-size="10.00">#</text>
<text text-anchor="start" x="61.88" y="-464.75" font-family="Helvetica,sans-Serif" font-size="10.00">auto_blink_interval_</text>
<text text-anchor="start" x="52.25" y="-449.5" font-family="Helvetica,sans-Serif" font-size="10.00">#</text>
<text text-anchor="start" x="61.88" y="-449.5" font-family="Helvetica,sans-Serif" font-size="10.00">last_blink_time_</text>
<text text-anchor="start" x="52.25" y="-434.25" font-family="Helvetica,sans-Serif" font-size="10.00">#</text>
<text text-anchor="start" x="61.88" y="-434.25" font-family="Helvetica,sans-Serif" font-size="10.00">blink_duration_</text>
<text text-anchor="start" x="52.25" y="-419" font-family="Helvetica,sans-Serif" font-size="10.00">#</text>
<text text-anchor="start" x="61.88" y="-419" font-family="Helvetica,sans-Serif" font-size="10.00">breath_frequency_</text>
<text text-anchor="start" x="51.88" y="-403.75" font-family="Helvetica,sans-Serif" font-size="10.00">+</text>
<text text-anchor="start" x="61.88" y="-403.75" font-family="Helvetica,sans-Serif" font-size="10.00">Face()</text>
<text text-anchor="start" x="51.88" y="-388.5" font-family="Helvetica,sans-Serif" font-size="10.00">+</text>
<text text-anchor="start" x="61.88" y="-388.5" font-family="Helvetica,sans-Serif" font-size="10.00">Face()</text>
<text text-anchor="start" x="51.88" y="-373.25" font-family="Helvetica,sans-Serif" font-size="10.00">+</text>
<text text-anchor="start" x="61.88" y="-373.25" font-family="Helvetica,sans-Serif" font-size="10.00">getLeftEye()</text>
<text text-anchor="start" x="51.88" y="-358" font-family="Helvetica,sans-Serif" font-size="10.00">+</text>
<text text-anchor="start" x="61.88" y="-358" font-family="Helvetica,sans-Serif" font-size="10.00">getRightEye()</text>
<text text-anchor="start" x="51.88" y="-342.75" font-family="Helvetica,sans-Serif" font-size="10.00">+</text>
<text text-anchor="start" x="61.88" y="-342.75" font-family="Helvetica,sans-Serif" font-size="10.00">getMouth()</text>
<text text-anchor="start" x="51.88" y="-327.5" font-family="Helvetica,sans-Serif" font-size="10.00">+</text>
<text text-anchor="start" x="61.88" y="-327.5" font-family="Helvetica,sans-Serif" font-size="10.00">activateAutoBlink()</text>
<text text-anchor="start" x="51.88" y="-312.25" font-family="Helvetica,sans-Serif" font-size="10.00">+</text>
<text text-anchor="start" x="61.88" y="-312.25" font-family="Helvetica,sans-Serif" font-size="10.00">deactivateAutoBlink()</text>
<text text-anchor="start" x="51.88" y="-297" font-family="Helvetica,sans-Serif" font-size="10.00">+</text>
<text text-anchor="start" x="61.88" y="-297" font-family="Helvetica,sans-Serif" font-size="10.00">getIsAutoBlink()</text>
<text text-anchor="start" x="51.88" y="-281.75" font-family="Helvetica,sans-Serif" font-size="10.00">+</text>
<text text-anchor="start" x="61.88" y="-281.75" font-family="Helvetica,sans-Serif" font-size="10.00">autoScale()</text>
<text text-anchor="start" x="51.88" y="-266.5" font-family="Helvetica,sans-Serif" font-size="10.00">+</text>
<text text-anchor="start" x="61.88" y="-266.5" font-family="Helvetica,sans-Serif" font-size="10.00">updateState()</text>
<text text-anchor="start" x="51.88" y="-251.25" font-family="Helvetica,sans-Serif" font-size="10.00">+</text>
<text text-anchor="start" x="61.88" y="-251.25" font-family="Helvetica,sans-Serif" font-size="10.00">draw()</text>
<polygon fill="#bfbfbf" stroke="#bfbfbf" points="47.88,-491.5 47.88,-491.5 158.88,-491.5 158.88,-491.5 47.88,-491.5"/>
<polygon fill="#bfbfbf" stroke="#bfbfbf" points="47.88,-415.25 47.88,-415.25 59.88,-415.25 59.88,-415.25 47.88,-415.25"/>
<polygon fill="#bfbfbf" stroke="#bfbfbf" points="59.88,-415.25 59.88,-415.25 158.88,-415.25 158.88,-415.25 59.88,-415.25"/>
<polygon fill="none" stroke="#bfbfbf" points="47.88,-245.5 47.88,-520 158.88,-520 158.88,-245.5 47.88,-245.5"/>
</a>
</g>
</g>
<!-- Node2&#45;&gt;Node1 -->
<g id="edge1_Node000001_Node000002" class="edge">
<title>Node2&#45;&gt;Node1</title>
<g id="a_edge1_Node000001_Node000002"><a xlink:title=" ">
<path fill="none" stroke="#63b8ff" d="M158.68,-259.31C161.51,-254.58 164.41,-249.96 167.38,-245.5 184.07,-220.37 204.95,-195.17 225.1,-172.99"/>
<polygon fill="none" stroke="#63b8ff" points="224.93,-173.17 226.05,-166.04 233.06,-164.34 231.94,-171.46 224.93,-173.17"/>
</a>
</g>
<text text-anchor="middle" x="201.75" y="-218" font-family="Helvetica,sans-Serif" font-size="10.00" fill="grey"> #face_</text>
</g>
<!-- Node3 -->
<g id="Node000003" class="node">
<title>Node3</title>
<g id="a_Node000003"><a xlink:href="classstackchan_1_1display_1_1_facial_drawable.html" target="_top" xlink:title=" ">
<polygon fill="white" stroke="none" points="187.12,-1011 99.62,-1011 99.62,-919.5 187.12,-919.5 187.12,-1011"/>
<text text-anchor="start" x="103.62" y="-997.5" font-family="Helvetica,sans-Serif" font-size="10.00">stackchan::display</text>
<text text-anchor="start" x="107.75" y="-986.25" font-family="Helvetica,sans-Serif" font-size="10.00">::FacialDrawable</text>
<text text-anchor="start" x="141.88" y="-971" font-family="Helvetica,sans-Serif" font-size="10.00"> </text>
<text text-anchor="start" x="109.38" y="-955.75" font-family="Helvetica,sans-Serif" font-size="10.00">+</text>
<text text-anchor="start" x="125.12" y="-955.75" font-family="Helvetica,sans-Serif" font-size="10.00">draw()</text>
<text text-anchor="start" x="109.38" y="-940.5" font-family="Helvetica,sans-Serif" font-size="10.00">+</text>
<text text-anchor="start" x="125.12" y="-940.5" font-family="Helvetica,sans-Serif" font-size="10.00">Drawable()</text>
<text text-anchor="start" x="109.38" y="-925.25" font-family="Helvetica,sans-Serif" font-size="10.00">+</text>
<text text-anchor="start" x="125.12" y="-925.25" font-family="Helvetica,sans-Serif" font-size="10.00">Drawable()</text>
<polygon fill="#bfbfbf" stroke="#bfbfbf" points="99.62,-982.5 99.62,-982.5 187.12,-982.5 187.12,-982.5 99.62,-982.5"/>
<polygon fill="#bfbfbf" stroke="#bfbfbf" points="99.62,-967.25 99.62,-967.25 187.12,-967.25 187.12,-967.25 99.62,-967.25"/>
<polygon fill="none" stroke="#bfbfbf" points="99.62,-919.5 99.62,-1011 187.12,-1011 187.12,-919.5 99.62,-919.5"/>
</a>
</g>
</g>
<!-- Node3&#45;&gt;Node2 -->
<g id="edge2_Node000002_Node000003" class="edge">
<title>Node3&#45;&gt;Node2</title>
<g id="a_edge2_Node000002_Node000003"><a xlink:title=" ">
<path fill="none" stroke="#63b8ff" d="M141.92,-908.2C139.51,-826.63 133.78,-670.45 122.38,-538 121.87,-532.09 121.3,-526.05 120.7,-519.95"/>
<polygon fill="none" stroke="#63b8ff" points="138.42,-908.28 142.21,-918.18 145.42,-908.08 138.42,-908.28"/>
</a>
</g>
</g>
<!-- Node7 -->
<g id="Node000007" class="node">
<title>Node7</title>
<g id="a_Node000007"><a xlink:href="classstackchan_1_1display_1_1_base_eye.html" target="_top" xlink:title="Base class for Eye, draw nothing.">
<polygon fill="white" stroke="none" points="108.75,-715.75 0,-715.75 0,-578.5 108.75,-578.5 108.75,-715.75"/>
<text text-anchor="start" x="14.62" y="-702.25" font-family="Helvetica,sans-Serif" font-size="10.00">stackchan::display</text>
<text text-anchor="start" x="33" y="-691" font-family="Helvetica,sans-Serif" font-size="10.00">::BaseEye</text>
<text text-anchor="start" x="4.38" y="-675.75" font-family="Helvetica,sans-Serif" font-size="10.00">#</text>
<text text-anchor="start" x="14" y="-675.75" font-family="Helvetica,sans-Serif" font-size="10.00">is_left_</text>
<text text-anchor="start" x="4.38" y="-660.5" font-family="Helvetica,sans-Serif" font-size="10.00">#</text>
<text text-anchor="start" x="14" y="-660.5" font-family="Helvetica,sans-Serif" font-size="10.00">milli_sec_</text>
<text text-anchor="start" x="4.38" y="-645.25" font-family="Helvetica,sans-Serif" font-size="10.00">#</text>
<text text-anchor="start" x="14" y="-645.25" font-family="Helvetica,sans-Serif" font-size="10.00">last_saccade_millis_</text>
<text text-anchor="start" x="4.38" y="-630" font-family="Helvetica,sans-Serif" font-size="10.00">#</text>
<text text-anchor="start" x="14" y="-630" font-family="Helvetica,sans-Serif" font-size="10.00">saccade_interval_</text>
<text text-anchor="start" x="4" y="-614.75" font-family="Helvetica,sans-Serif" font-size="10.00">+</text>
<text text-anchor="start" x="14" y="-614.75" font-family="Helvetica,sans-Serif" font-size="10.00">BaseEye()</text>
<text text-anchor="start" x="4.38" y="-599.5" font-family="Helvetica,sans-Serif" font-size="10.00">#</text>
<text text-anchor="start" x="14" y="-599.5" font-family="Helvetica,sans-Serif" font-size="10.00">updateGaze()</text>
<text text-anchor="start" x="4.38" y="-584.25" font-family="Helvetica,sans-Serif" font-size="10.00">#</text>
<text text-anchor="start" x="14" y="-584.25" font-family="Helvetica,sans-Serif" font-size="10.00">updateSaccade()</text>
<polygon fill="#666666" stroke="#666666" points="0,-687.25 0,-687.25 108.75,-687.25 108.75,-687.25 0,-687.25"/>
<polygon fill="#666666" stroke="#666666" points="0,-626.25 0,-626.25 12,-626.25 12,-626.25 0,-626.25"/>
<polygon fill="#666666" stroke="#666666" points="12,-626.25 12,-626.25 108.75,-626.25 108.75,-626.25 12,-626.25"/>
<polygon fill="none" stroke="#666666" points="0,-578.5 0,-715.75 108.75,-715.75 108.75,-578.5 0,-578.5"/>
</a>
</g>
</g>
<!-- Node3&#45;&gt;Node7 -->
<g id="edge7_Node000007_Node000003" class="edge">
<title>Node3&#45;&gt;Node7</title>
<g id="a_edge7_Node000007_Node000003"><a xlink:title=" ">
<path fill="none" stroke="#63b8ff" d="M124.63,-908.86C123.86,-906.37 123.1,-903.91 122.38,-901.5 103.52,-838.92 84.44,-766.88 71.31,-715.66"/>
<polygon fill="none" stroke="#63b8ff" points="121.29,-909.89 127.67,-918.35 127.96,-907.76 121.29,-909.89"/>
</a>
</g>
</g>
<!-- Node8 -->
<g id="Node000008" class="node">
<title>Node8</title>
<g id="a_Node000008"><a xlink:href="classstackchan_1_1display_1_1_base_mouth.html" target="_top" xlink:title=" ">
<polygon fill="white" stroke="none" points="260.75,-677.62 164,-677.62 164,-616.62 260.75,-616.62 260.75,-677.62"/>
<text text-anchor="start" x="172.62" y="-664.12" font-family="Helvetica,sans-Serif" font-size="10.00">stackchan::display</text>
<text text-anchor="start" x="185.38" y="-652.88" font-family="Helvetica,sans-Serif" font-size="10.00">::BaseMouth</text>
<text text-anchor="start" x="168" y="-637.62" font-family="Helvetica,sans-Serif" font-size="10.00">#</text>
<text text-anchor="start" x="177.25" y="-637.62" font-family="Helvetica,sans-Serif" font-size="10.00">breath_amplitude_</text>
<text text-anchor="start" x="210.88" y="-622.38" font-family="Helvetica,sans-Serif" font-size="10.00"> </text>
<polygon fill="#bfbfbf" stroke="#bfbfbf" points="164,-649.12 164,-649.12 260.75,-649.12 260.75,-649.12 164,-649.12"/>
<polygon fill="#bfbfbf" stroke="#bfbfbf" points="164,-633.88 164,-633.88 175.25,-633.88 175.25,-633.88 164,-633.88"/>
<polygon fill="#bfbfbf" stroke="#bfbfbf" points="175.25,-633.88 175.25,-633.88 260.75,-633.88 260.75,-633.88 175.25,-633.88"/>
<polygon fill="none" stroke="#bfbfbf" points="164,-616.62 164,-677.62 260.75,-677.62 260.75,-616.62 164,-616.62"/>
</a>
</g>
</g>
<!-- Node3&#45;&gt;Node8 -->
<g id="edge10_Node000008_Node000003" class="edge">
<title>Node3&#45;&gt;Node8</title>
<g id="a_edge10_Node000008_Node000003"><a xlink:title=" ">
<path fill="none" stroke="#63b8ff" d="M155.48,-908.79C170.2,-841.36 194.49,-730.05 205.98,-677.42"/>
<polygon fill="none" stroke="#63b8ff" points="152.15,-907.63 153.44,-918.15 158.99,-909.13 152.15,-907.63"/>
</a>
</g>
</g>
<!-- Node4 -->
<g id="Node000004" class="node">
<title>Node4</title>
<g id="a_Node000004"><a xlink:href="classstackchan_1_1display_1_1_drawable.html" target="_top" xlink:title=" ">
<polygon fill="white" stroke="none" points="205,-1336 103.75,-1336 103.75,-1092 205,-1092 205,-1336"/>
<text text-anchor="start" x="114.62" y="-1322.5" font-family="Helvetica,sans-Serif" font-size="10.00">stackchan::display</text>
<text text-anchor="start" x="131.88" y="-1311.25" font-family="Helvetica,sans-Serif" font-size="10.00">::Drawable</text>
<text text-anchor="start" x="108.12" y="-1296" font-family="Helvetica,sans-Serif" font-size="10.00">#</text>
<text text-anchor="start" x="117.75" y="-1296" font-family="Helvetica,sans-Serif" font-size="10.00">rotation_</text>
<text text-anchor="start" x="108.12" y="-1280.75" font-family="Helvetica,sans-Serif" font-size="10.00">#</text>
<text text-anchor="start" x="117.75" y="-1280.75" font-family="Helvetica,sans-Serif" font-size="10.00">visible_</text>
<text text-anchor="start" x="108.12" y="-1265.5" font-family="Helvetica,sans-Serif" font-size="10.00">#</text>
<text text-anchor="start" x="117.75" y="-1265.5" font-family="Helvetica,sans-Serif" font-size="10.00">ignore_expression_</text>
<text text-anchor="start" x="107.75" y="-1250.25" font-family="Helvetica,sans-Serif" font-size="10.00">+</text>
<text text-anchor="start" x="117.75" y="-1250.25" font-family="Helvetica,sans-Serif" font-size="10.00">Drawable()</text>
<text text-anchor="start" x="107.75" y="-1235" font-family="Helvetica,sans-Serif" font-size="10.00">+</text>
<text text-anchor="start" x="117.75" y="-1235" font-family="Helvetica,sans-Serif" font-size="10.00">Drawable()</text>
<text text-anchor="start" x="107.75" y="-1219.75" font-family="Helvetica,sans-Serif" font-size="10.00">+</text>
<text text-anchor="start" x="117.75" y="-1219.75" font-family="Helvetica,sans-Serif" font-size="10.00">~Drawable()</text>
<text text-anchor="start" x="107.75" y="-1204.5" font-family="Helvetica,sans-Serif" font-size="10.00">+</text>
<text text-anchor="start" x="117.75" y="-1204.5" font-family="Helvetica,sans-Serif" font-size="10.00">setPosition()</text>
<text text-anchor="start" x="107.75" y="-1189.25" font-family="Helvetica,sans-Serif" font-size="10.00">+</text>
<text text-anchor="start" x="117.75" y="-1189.25" font-family="Helvetica,sans-Serif" font-size="10.00">getPosition()</text>
<text text-anchor="start" x="107.75" y="-1174" font-family="Helvetica,sans-Serif" font-size="10.00">+</text>
<text text-anchor="start" x="117.75" y="-1174" font-family="Helvetica,sans-Serif" font-size="10.00">setRotation()</text>
<text text-anchor="start" x="107.75" y="-1158.75" font-family="Helvetica,sans-Serif" font-size="10.00">+</text>
<text text-anchor="start" x="117.75" y="-1158.75" font-family="Helvetica,sans-Serif" font-size="10.00">getRotation()</text>
<text text-anchor="start" x="107.75" y="-1143.5" font-family="Helvetica,sans-Serif" font-size="10.00">+</text>
<text text-anchor="start" x="117.75" y="-1143.5" font-family="Helvetica,sans-Serif" font-size="10.00">setSize()</text>
<text text-anchor="start" x="107.75" y="-1128.25" font-family="Helvetica,sans-Serif" font-size="10.00">+</text>
<text text-anchor="start" x="117.75" y="-1128.25" font-family="Helvetica,sans-Serif" font-size="10.00">getSize()</text>
<text text-anchor="start" x="107.75" y="-1113" font-family="Helvetica,sans-Serif" font-size="10.00">+</text>
<text text-anchor="start" x="117.75" y="-1113" font-family="Helvetica,sans-Serif" font-size="10.00">setVisible()</text>
<text text-anchor="start" x="117.75" y="-1097.75" font-family="Helvetica,sans-Serif" font-size="10.00">and 7 more...</text>
<polygon fill="#bfbfbf" stroke="#bfbfbf" points="103.75,-1307.5 103.75,-1307.5 205,-1307.5 205,-1307.5 103.75,-1307.5"/>
<polygon fill="#bfbfbf" stroke="#bfbfbf" points="103.75,-1261.75 103.75,-1261.75 115.75,-1261.75 115.75,-1261.75 103.75,-1261.75"/>
<polygon fill="#bfbfbf" stroke="#bfbfbf" points="115.75,-1261.75 115.75,-1261.75 205,-1261.75 205,-1261.75 115.75,-1261.75"/>
<polygon fill="none" stroke="#bfbfbf" points="103.75,-1092 103.75,-1336 205,-1336 205,-1092 103.75,-1092"/>
</a>
</g>
</g>
<!-- Node4&#45;&gt;Node3 -->
<g id="edge3_Node000003_Node000004" class="edge">
<title>Node4&#45;&gt;Node3</title>
<g id="a_edge3_Node000003_Node000004"><a xlink:title=" ">
<path fill="none" stroke="#63b8ff" d="M148.49,-1080.92C147.36,-1055.66 146.26,-1030.88 145.36,-1010.86"/>
<polygon fill="none" stroke="#63b8ff" points="144.98,-1080.81 148.92,-1090.64 151.97,-1080.5 144.98,-1080.81"/>
</a>
</g>
</g>
<!-- Node11 -->
<g id="Node000011" class="node">
<title>Node11</title>
<g id="a_Node000011"><a xlink:href="classstackchan_1_1display_1_1_speech_balloon.html" target="_top" xlink:title=" ">
<polygon fill="white" stroke="none" points="390.62,-901.5 296.12,-901.5 296.12,-733.75 390.62,-733.75 390.62,-901.5"/>
<text text-anchor="start" x="303.62" y="-888" font-family="Helvetica,sans-Serif" font-size="10.00">stackchan::display</text>
<text text-anchor="start" x="308.5" y="-876.75" font-family="Helvetica,sans-Serif" font-size="10.00">::SpeechBalloon</text>
<text text-anchor="start" x="300.5" y="-861.5" font-family="Helvetica,sans-Serif" font-size="10.00">#</text>
<text text-anchor="start" x="310.12" y="-861.5" font-family="Helvetica,sans-Serif" font-size="10.00">text_</text>
<text text-anchor="start" x="300.5" y="-846.25" font-family="Helvetica,sans-Serif" font-size="10.00">#</text>
<text text-anchor="start" x="310.12" y="-846.25" font-family="Helvetica,sans-Serif" font-size="10.00">font_</text>
<text text-anchor="start" x="300.12" y="-831" font-family="Helvetica,sans-Serif" font-size="10.00">+</text>
<text text-anchor="start" x="310.12" y="-831" font-family="Helvetica,sans-Serif" font-size="10.00">SpeechBalloon()</text>
<text text-anchor="start" x="300.12" y="-815.75" font-family="Helvetica,sans-Serif" font-size="10.00">+</text>
<text text-anchor="start" x="310.12" y="-815.75" font-family="Helvetica,sans-Serif" font-size="10.00">~SpeechBalloon()</text>
<text text-anchor="start" x="300.12" y="-800.5" font-family="Helvetica,sans-Serif" font-size="10.00">+</text>
<text text-anchor="start" x="310.12" y="-800.5" font-family="Helvetica,sans-Serif" font-size="10.00">SpeechBalloon()</text>
<text text-anchor="start" x="300.12" y="-785.25" font-family="Helvetica,sans-Serif" font-size="10.00">+</text>
<text text-anchor="start" x="310.12" y="-785.25" font-family="Helvetica,sans-Serif" font-size="10.00">operator=()</text>
<text text-anchor="start" x="300.12" y="-770" font-family="Helvetica,sans-Serif" font-size="10.00">+</text>
<text text-anchor="start" x="310.12" y="-770" font-family="Helvetica,sans-Serif" font-size="10.00">setText()</text>
<text text-anchor="start" x="300.12" y="-754.75" font-family="Helvetica,sans-Serif" font-size="10.00">+</text>
<text text-anchor="start" x="310.12" y="-754.75" font-family="Helvetica,sans-Serif" font-size="10.00">draw()</text>
<text text-anchor="start" x="300.12" y="-739.5" font-family="Helvetica,sans-Serif" font-size="10.00">+</text>
<text text-anchor="start" x="310.12" y="-739.5" font-family="Helvetica,sans-Serif" font-size="10.00">draw()</text>
<polygon fill="#bfbfbf" stroke="#bfbfbf" points="296.12,-873 296.12,-873 390.62,-873 390.62,-873 296.12,-873"/>
<polygon fill="#bfbfbf" stroke="#bfbfbf" points="296.12,-842.5 296.12,-842.5 308.12,-842.5 308.12,-842.5 296.12,-842.5"/>
<polygon fill="#bfbfbf" stroke="#bfbfbf" points="308.12,-842.5 308.12,-842.5 390.62,-842.5 390.62,-842.5 308.12,-842.5"/>
<polygon fill="none" stroke="#bfbfbf" points="296.12,-733.75 296.12,-901.5 390.62,-901.5 390.62,-733.75 296.12,-733.75"/>
</a>
</g>
</g>
<!-- Node4&#45;&gt;Node11 -->
<g id="edge14_Node000011_Node000004" class="edge">
<title>Node4&#45;&gt;Node11</title>
<g id="a_edge14_Node000011_Node000004"><a xlink:title=" ">
<path fill="none" stroke="#63b8ff" d="M209.87,-1097.2C240,-1034.34 276.54,-958.08 303.77,-901.26"/>
<polygon fill="none" stroke="#63b8ff" points="206.72,-1095.68 205.55,-1106.21 213.03,-1098.7 206.72,-1095.68"/>
</a>
</g>
</g>
<!-- Node5 -->
<g id="Node000005" class="node">
<title>Node5</title>
<g id="a_Node000005"><a xlink:href="classm5_1_1_vector2i.html" target="_top" xlink:title=" ">
<polygon fill="white" stroke="none" points="98,-1646.5 26.75,-1646.5 26.75,-1383.25 98,-1383.25 98,-1646.5"/>
<text text-anchor="start" x="35.38" y="-1633" font-family="Helvetica,sans-Serif" font-size="10.00">m5::Vector2i</text>
<text text-anchor="start" x="30.75" y="-1617.75" font-family="Helvetica,sans-Serif" font-size="10.00">+</text>
<text text-anchor="start" x="40.75" y="-1617.75" font-family="Helvetica,sans-Serif" font-size="10.00">x</text>
<text text-anchor="start" x="30.75" y="-1602.5" font-family="Helvetica,sans-Serif" font-size="10.00">+</text>
<text text-anchor="start" x="40.75" y="-1602.5" font-family="Helvetica,sans-Serif" font-size="10.00">y</text>
<text text-anchor="start" x="30.75" y="-1587.25" font-family="Helvetica,sans-Serif" font-size="10.00">+</text>
<text text-anchor="start" x="40.75" y="-1587.25" font-family="Helvetica,sans-Serif" font-size="10.00">Vector2i()</text>
<text text-anchor="start" x="30.75" y="-1572" font-family="Helvetica,sans-Serif" font-size="10.00">+</text>
<text text-anchor="start" x="40.75" y="-1572" font-family="Helvetica,sans-Serif" font-size="10.00">Vector2i()</text>
<text text-anchor="start" x="30.75" y="-1556.75" font-family="Helvetica,sans-Serif" font-size="10.00">+</text>
<text text-anchor="start" x="40.75" y="-1556.75" font-family="Helvetica,sans-Serif" font-size="10.00">operator+()</text>
<text text-anchor="start" x="30.75" y="-1541.5" font-family="Helvetica,sans-Serif" font-size="10.00">+</text>
<text text-anchor="start" x="40.75" y="-1541.5" font-family="Helvetica,sans-Serif" font-size="10.00">operator&#45;()</text>
<text text-anchor="start" x="30.75" y="-1526.25" font-family="Helvetica,sans-Serif" font-size="10.00">+</text>
<text text-anchor="start" x="40.75" y="-1526.25" font-family="Helvetica,sans-Serif" font-size="10.00">operator*()</text>
<text text-anchor="start" x="30.75" y="-1511" font-family="Helvetica,sans-Serif" font-size="10.00">+</text>
<text text-anchor="start" x="40.75" y="-1511" font-family="Helvetica,sans-Serif" font-size="10.00">operator/()</text>
<text text-anchor="start" x="30.75" y="-1495.75" font-family="Helvetica,sans-Serif" font-size="10.00">+</text>
<text text-anchor="start" x="40.75" y="-1495.75" font-family="Helvetica,sans-Serif" font-size="10.00">operator+=()</text>
<text text-anchor="start" x="30.75" y="-1480.5" font-family="Helvetica,sans-Serif" font-size="10.00">+</text>
<text text-anchor="start" x="40.75" y="-1480.5" font-family="Helvetica,sans-Serif" font-size="10.00">operator&#45;=()</text>
<text text-anchor="start" x="30.75" y="-1465.25" font-family="Helvetica,sans-Serif" font-size="10.00">+</text>
<text text-anchor="start" x="40.75" y="-1465.25" font-family="Helvetica,sans-Serif" font-size="10.00">operator*=()</text>
<text text-anchor="start" x="30.75" y="-1450" font-family="Helvetica,sans-Serif" font-size="10.00">+</text>
<text text-anchor="start" x="40.75" y="-1450" font-family="Helvetica,sans-Serif" font-size="10.00">operator/=()</text>
<text text-anchor="start" x="30.75" y="-1434.75" font-family="Helvetica,sans-Serif" font-size="10.00">+</text>
<text text-anchor="start" x="40.75" y="-1434.75" font-family="Helvetica,sans-Serif" font-size="10.00">operator==()</text>
<text text-anchor="start" x="30.75" y="-1419.5" font-family="Helvetica,sans-Serif" font-size="10.00">+</text>
<text text-anchor="start" x="40.75" y="-1419.5" font-family="Helvetica,sans-Serif" font-size="10.00">operator!=()</text>
<text text-anchor="start" x="30.75" y="-1404.25" font-family="Helvetica,sans-Serif" font-size="10.00">+</text>
<text text-anchor="start" x="40.75" y="-1404.25" font-family="Helvetica,sans-Serif" font-size="10.00">dot()</text>
<text text-anchor="start" x="30.75" y="-1389" font-family="Helvetica,sans-Serif" font-size="10.00">+</text>
<text text-anchor="start" x="40.75" y="-1389" font-family="Helvetica,sans-Serif" font-size="10.00">clamp()</text>
<polygon fill="#bfbfbf" stroke="#bfbfbf" points="26.75,-1629.25 26.75,-1629.25 98,-1629.25 98,-1629.25 26.75,-1629.25"/>
<polygon fill="#bfbfbf" stroke="#bfbfbf" points="26.75,-1598.75 26.75,-1598.75 38.75,-1598.75 38.75,-1598.75 26.75,-1598.75"/>
<polygon fill="#bfbfbf" stroke="#bfbfbf" points="38.75,-1598.75 38.75,-1598.75 98,-1598.75 98,-1598.75 38.75,-1598.75"/>
<polygon fill="none" stroke="#bfbfbf" points="26.75,-1383.25 26.75,-1646.5 98,-1646.5 98,-1383.25 26.75,-1383.25"/>
</a>
</g>
</g>
<!-- Node5&#45;&gt;Node4 -->
<g id="edge4_Node000004_Node000005" class="edge">
<title>Node5&#45;&gt;Node4</title>
<g id="a_edge4_Node000004_Node000005"><a xlink:title=" ">
<path fill="none" stroke="#63b8ff" d="M96.05,-1383.61C98.94,-1373.56 101.9,-1363.6 104.88,-1354 105.49,-1352.03 106.11,-1350.05 106.74,-1348.06"/>
<polygon fill="none" stroke="#63b8ff" points="106.76,-1348 104.79,-1341.06 110.44,-1336.58 112.4,-1343.52 106.76,-1348"/>
</a>
</g>
<text text-anchor="middle" x="128.12" y="-1355.75" font-family="Helvetica,sans-Serif" font-size="10.00" fill="grey"> #position_</text>
</g>
<!-- Node5&#45;&gt;Node7 -->
<g id="edge8_Node000007_Node000005" class="edge">
<title>Node5&#45;&gt;Node7</title>
<g id="a_edge8_Node000007_Node000005"><a xlink:title=" ">
<path fill="none" stroke="#63b8ff" d="M61.17,-1383.33C59.49,-1201.68 56.5,-878.17 55.12,-728.35"/>
<polygon fill="none" stroke="#63b8ff" points="55.12,-728.61 51.06,-722.64 55.01,-716.61 59.06,-722.57 55.12,-728.61"/>
</a>
</g>
<text text-anchor="middle" x="96.16" y="-1064.5" font-family="Helvetica,sans-Serif" font-size="10.00" fill="grey"> #gaze_</text>
<text text-anchor="start" x="58.28" y="-1053.25" font-family="Helvetica,sans-Serif" font-size="10.00" fill="grey">#iris_position</text>
<text text-anchor="middle" x="96.16" y="-1042" font-family="Helvetica,sans-Serif" font-size="10.00" fill="grey">_</text>
<text text-anchor="middle" x="96.16" y="-1030.75" font-family="Helvetica,sans-Serif" font-size="10.00" fill="grey">#saccade_noise_</text>
</g>
<!-- Node6 -->
<g id="Node000006" class="node">
<title>Node6</title>
<g id="a_Node000006"><a xlink:href="classm5_1_1_size2i.html" target="_top" xlink:title=" ">
<polygon fill="white" stroke="none" points="191.88,-1593.12 122.88,-1593.12 122.88,-1436.62 191.88,-1436.62 191.88,-1593.12"/>
<text text-anchor="start" x="135.25" y="-1579.62" font-family="Helvetica,sans-Serif" font-size="10.00">m5::Size2i</text>
<text text-anchor="start" x="126.88" y="-1564.38" font-family="Helvetica,sans-Serif" font-size="10.00">+</text>
<text text-anchor="start" x="136.88" y="-1564.38" font-family="Helvetica,sans-Serif" font-size="10.00">width</text>
<text text-anchor="start" x="126.88" y="-1549.12" font-family="Helvetica,sans-Serif" font-size="10.00">+</text>
<text text-anchor="start" x="136.88" y="-1549.12" font-family="Helvetica,sans-Serif" font-size="10.00">height</text>
<text text-anchor="start" x="126.88" y="-1533.88" font-family="Helvetica,sans-Serif" font-size="10.00">+</text>
<text text-anchor="start" x="136.88" y="-1533.88" font-family="Helvetica,sans-Serif" font-size="10.00">Size2i()</text>
<text text-anchor="start" x="126.88" y="-1518.62" font-family="Helvetica,sans-Serif" font-size="10.00">+</text>
<text text-anchor="start" x="136.88" y="-1518.62" font-family="Helvetica,sans-Serif" font-size="10.00">Size2i()</text>
<text text-anchor="start" x="126.88" y="-1503.38" font-family="Helvetica,sans-Serif" font-size="10.00">+</text>
<text text-anchor="start" x="136.88" y="-1503.38" font-family="Helvetica,sans-Serif" font-size="10.00">operator*=()</text>
<text text-anchor="start" x="126.88" y="-1488.12" font-family="Helvetica,sans-Serif" font-size="10.00">+</text>
<text text-anchor="start" x="136.88" y="-1488.12" font-family="Helvetica,sans-Serif" font-size="10.00">operator*()</text>
<text text-anchor="start" x="126.88" y="-1472.88" font-family="Helvetica,sans-Serif" font-size="10.00">+</text>
<text text-anchor="start" x="136.88" y="-1472.88" font-family="Helvetica,sans-Serif" font-size="10.00">area()</text>
<text text-anchor="start" x="126.88" y="-1457.62" font-family="Helvetica,sans-Serif" font-size="10.00">+</text>
<text text-anchor="start" x="136.88" y="-1457.62" font-family="Helvetica,sans-Serif" font-size="10.00">max()</text>
<text text-anchor="start" x="126.88" y="-1442.38" font-family="Helvetica,sans-Serif" font-size="10.00">+</text>
<text text-anchor="start" x="136.88" y="-1442.38" font-family="Helvetica,sans-Serif" font-size="10.00">min()</text>
<polygon fill="#bfbfbf" stroke="#bfbfbf" points="122.88,-1575.88 122.88,-1575.88 191.88,-1575.88 191.88,-1575.88 122.88,-1575.88"/>
<polygon fill="#bfbfbf" stroke="#bfbfbf" points="122.88,-1545.38 122.88,-1545.38 134.88,-1545.38 134.88,-1545.38 122.88,-1545.38"/>
<polygon fill="#bfbfbf" stroke="#bfbfbf" points="134.88,-1545.38 134.88,-1545.38 191.88,-1545.38 191.88,-1545.38 134.88,-1545.38"/>
<polygon fill="none" stroke="#bfbfbf" points="122.88,-1436.62 122.88,-1593.12 191.88,-1593.12 191.88,-1436.62 122.88,-1436.62"/>
</a>
</g>
</g>
<!-- Node6&#45;&gt;Node4 -->
<g id="edge5_Node000004_Node000006" class="edge">
<title>Node6&#45;&gt;Node4</title>
<g id="a_edge5_Node000004_Node000006"><a xlink:title=" ">
<path fill="none" stroke="#63b8ff" d="M156.6,-1436.91C156.33,-1409.97 156.02,-1378.89 155.72,-1348.67"/>
<polygon fill="none" stroke="#63b8ff" points="155.72,-1348.69 151.66,-1342.73 155.6,-1336.69 159.66,-1342.65 155.72,-1348.69"/>
</a>
</g>
<text text-anchor="middle" x="170.88" y="-1355.75" font-family="Helvetica,sans-Serif" font-size="10.00" fill="grey"> #size_</text>
</g>
<!-- Node7&#45;&gt;Node2 -->
<g id="edge6_Node000002_Node000007" class="edge">
<title>Node7&#45;&gt;Node2</title>
<g id="a_edge6_Node000002_Node000007"><a xlink:title=" ">
<path fill="none" stroke="#63b8ff" d="M65.65,-578.59C67.98,-565.13 70.46,-551.11 72.88,-538 73.2,-536.25 73.52,-534.48 73.85,-532.71"/>
<polygon fill="none" stroke="#63b8ff" points="73.86,-532.66 71.04,-526.02 76.08,-520.86 78.9,-527.49 73.86,-532.66"/>
</a>
</g>
<text text-anchor="middle" x="97.62" y="-551" font-family="Helvetica,sans-Serif" font-size="10.00" fill="grey"> #left_eye_</text>
<text text-anchor="middle" x="97.62" y="-539.75" font-family="Helvetica,sans-Serif" font-size="10.00" fill="grey">#right_eye_</text>
</g>
<!-- Node8&#45;&gt;Node2 -->
<g id="edge9_Node000002_Node000008" class="edge">
<title>Node8&#45;&gt;Node2</title>
<g id="a_edge9_Node000002_Node000008"><a xlink:title=" ">
<path fill="none" stroke="#63b8ff" d="M200.19,-616.79C191,-594.66 177.63,-562.49 163.75,-529.08"/>
<polygon fill="none" stroke="#63b8ff" points="163.78,-529.14 157.78,-525.14 159.17,-518.06 165.17,-522.07 163.78,-529.14"/>
</a>
</g>
<text text-anchor="middle" x="193.88" y="-545.38" font-family="Helvetica,sans-Serif" font-size="10.00" fill="grey"> #mouth_</text>
</g>
<!-- Node9 -->
<g id="Node000009" class="node">
<title>Node9</title>
<g id="a_Node000009"><a xlink:href="classstackchan_1_1display_1_1_expression_weight.html" target="_top" xlink:title=" ">
<polygon fill="white" stroke="none" points="304.12,-451.38 176.62,-451.38 176.62,-314.12 304.12,-314.12 304.12,-451.38"/>
<text text-anchor="start" x="199.5" y="-437.88" font-family="Helvetica,sans-Serif" font-size="10.00">stackchan::display</text>
<text text-anchor="start" x="199.5" y="-426.62" font-family="Helvetica,sans-Serif" font-size="10.00">::ExpressionWeight</text>
<text text-anchor="start" x="238.88" y="-411.38" font-family="Helvetica,sans-Serif" font-size="10.00"> </text>
<text text-anchor="start" x="180.62" y="-396.12" font-family="Helvetica,sans-Serif" font-size="10.00">+</text>
<text text-anchor="start" x="190.62" y="-396.12" font-family="Helvetica,sans-Serif" font-size="10.00">ExpressionWeight()</text>
<text text-anchor="start" x="180.62" y="-380.88" font-family="Helvetica,sans-Serif" font-size="10.00">+</text>
<text text-anchor="start" x="190.62" y="-380.88" font-family="Helvetica,sans-Serif" font-size="10.00">set()</text>
<text text-anchor="start" x="180.62" y="-365.62" font-family="Helvetica,sans-Serif" font-size="10.00">+</text>
<text text-anchor="start" x="190.62" y="-365.62" font-family="Helvetica,sans-Serif" font-size="10.00">setEmotionalExpression()</text>
<text text-anchor="start" x="180.62" y="-350.38" font-family="Helvetica,sans-Serif" font-size="10.00">+</text>
<text text-anchor="start" x="190.62" y="-350.38" font-family="Helvetica,sans-Serif" font-size="10.00">get()</text>
<text text-anchor="start" x="180.62" y="-335.12" font-family="Helvetica,sans-Serif" font-size="10.00">+</text>
<text text-anchor="start" x="190.62" y="-335.12" font-family="Helvetica,sans-Serif" font-size="10.00">contains()</text>
<text text-anchor="start" x="180.62" y="-319.88" font-family="Helvetica,sans-Serif" font-size="10.00">+</text>
<text text-anchor="start" x="190.62" y="-319.88" font-family="Helvetica,sans-Serif" font-size="10.00">clear()</text>
<polygon fill="#bfbfbf" stroke="#bfbfbf" points="176.62,-422.88 176.62,-422.88 304.12,-422.88 304.12,-422.88 176.62,-422.88"/>
<polygon fill="#bfbfbf" stroke="#bfbfbf" points="176.62,-407.62 176.62,-407.62 304.12,-407.62 304.12,-407.62 176.62,-407.62"/>
<polygon fill="none" stroke="#bfbfbf" points="176.62,-314.12 176.62,-451.38 304.12,-451.38 304.12,-314.12 176.62,-314.12"/>
</a>
</g>
</g>
<!-- Node9&#45;&gt;Node1 -->
<g id="edge11_Node000001_Node000009" class="edge">
<title>Node9&#45;&gt;Node1</title>
<g id="a_edge11_Node000001_Node000009"><a xlink:title=" ">
<path fill="none" stroke="#63b8ff" d="M234.01,-314.51C232.86,-284.12 233.9,-247.99 241.38,-216.25 241.82,-214.37 242.29,-212.49 242.8,-210.6"/>
<polygon fill="none" stroke="#63b8ff" points="242.84,-210.49 240.75,-203.59 246.33,-199.01 248.41,-205.92 242.84,-210.49"/>
</a>
</g>
<text text-anchor="middle" x="287.88" y="-218" font-family="Helvetica,sans-Serif" font-size="10.00" fill="grey"> #expression_weight_</text>
</g>
<!-- Node10 -->
<g id="Node000010" class="node">
<title>Node10</title>
<g id="a_Node000010"><a xlink:href="classstackchan_1_1display_1_1_color_palette.html" target="_top" xlink:title=" ">
<polygon fill="white" stroke="none" points="410.12,-466.62 322.62,-466.62 322.62,-298.88 410.12,-298.88 410.12,-466.62"/>
<text text-anchor="start" x="326.62" y="-453.12" font-family="Helvetica,sans-Serif" font-size="10.00">stackchan::display</text>
<text text-anchor="start" x="337.5" y="-441.88" font-family="Helvetica,sans-Serif" font-size="10.00">::ColorPalette</text>
<text text-anchor="start" x="364.88" y="-426.62" font-family="Helvetica,sans-Serif" font-size="10.00"> </text>
<text text-anchor="start" x="327.88" y="-411.38" font-family="Helvetica,sans-Serif" font-size="10.00">+</text>
<text text-anchor="start" x="339.12" y="-411.38" font-family="Helvetica,sans-Serif" font-size="10.00">ColorPalette()</text>
<text text-anchor="start" x="327.88" y="-396.12" font-family="Helvetica,sans-Serif" font-size="10.00">+</text>
<text text-anchor="start" x="339.12" y="-396.12" font-family="Helvetica,sans-Serif" font-size="10.00">~ColorPalette()</text>
<text text-anchor="start" x="327.88" y="-380.88" font-family="Helvetica,sans-Serif" font-size="10.00">+</text>
<text text-anchor="start" x="339.12" y="-380.88" font-family="Helvetica,sans-Serif" font-size="10.00">ColorPalette()</text>
<text text-anchor="start" x="327.88" y="-365.62" font-family="Helvetica,sans-Serif" font-size="10.00">+</text>
<text text-anchor="start" x="339.12" y="-365.62" font-family="Helvetica,sans-Serif" font-size="10.00">operator=()</text>
<text text-anchor="start" x="327.88" y="-350.38" font-family="Helvetica,sans-Serif" font-size="10.00">+</text>
<text text-anchor="start" x="339.12" y="-350.38" font-family="Helvetica,sans-Serif" font-size="10.00">get()</text>
<text text-anchor="start" x="327.88" y="-335.12" font-family="Helvetica,sans-Serif" font-size="10.00">+</text>
<text text-anchor="start" x="339.12" y="-335.12" font-family="Helvetica,sans-Serif" font-size="10.00">set()</text>
<text text-anchor="start" x="327.88" y="-319.88" font-family="Helvetica,sans-Serif" font-size="10.00">+</text>
<text text-anchor="start" x="339.12" y="-319.88" font-family="Helvetica,sans-Serif" font-size="10.00">contains()</text>
<text text-anchor="start" x="327.88" y="-304.62" font-family="Helvetica,sans-Serif" font-size="10.00">+</text>
<text text-anchor="start" x="339.12" y="-304.62" font-family="Helvetica,sans-Serif" font-size="10.00">clear()</text>
<polygon fill="#666666" stroke="#666666" points="322.62,-438.12 322.62,-438.12 410.12,-438.12 410.12,-438.12 322.62,-438.12"/>
<polygon fill="#666666" stroke="#666666" points="322.62,-422.88 322.62,-422.88 410.12,-422.88 410.12,-422.88 322.62,-422.88"/>
<polygon fill="none" stroke="#666666" points="322.62,-298.88 322.62,-466.62 410.12,-466.62 410.12,-298.88 322.62,-298.88"/>
</a>
</g>
</g>
<!-- Node10&#45;&gt;Node1 -->
<g id="edge12_Node000001_Node000010" class="edge">
<title>Node10&#45;&gt;Node1</title>
<g id="a_edge12_Node000001_Node000010"><a xlink:title=" ">
<path fill="none" stroke="#63b8ff" d="M352.27,-299.28C347.23,-272.65 341.1,-243.07 334.38,-216.25 333.91,-214.39 333.43,-212.53 332.94,-210.64"/>
<polygon fill="none" stroke="#63b8ff" points="332.92,-210.57 327.51,-205.81 329.81,-198.98 335.23,-203.74 332.92,-210.57"/>
</a>
</g>
<text text-anchor="middle" x="370.67" y="-218" font-family="Helvetica,sans-Serif" font-size="10.00" fill="grey"> #color_palette_</text>
</g>
<!-- Node11&#45;&gt;Node1 -->
<g id="edge13_Node000001_Node000011" class="edge">
<title>Node11&#45;&gt;Node1</title>
<g id="a_edge13_Node000001_Node000011"><a xlink:title=" ">
<path fill="none" stroke="#63b8ff" d="M370.5,-733.96C388.36,-675.05 410.1,-593.58 419.38,-520 434.63,-398.96 441.2,-365.53 419.38,-245.5 413.52,-213.27 393.85,-184.08 372.03,-160.46"/>
<polygon fill="none" stroke="#63b8ff" points="372.2,-160.65 365.16,-159.1 363.87,-152.01 370.92,-153.55 372.2,-160.65"/>
</a>
</g>
<text text-anchor="middle" x="456.93" y="-545.38" font-family="Helvetica,sans-Serif" font-size="10.00" fill="grey"> #speech_balloon_</text>
</g>
</g>
</svg>
