<?xml version="1.0" encoding="UTF-8" standalone="no"?>
<!DOCTYPE svg PUBLIC "-//W3C//DTD SVG 1.1//EN"
 "http://www.w3.org/Graphics/SVG/1.1/DTD/svg11.dtd">
<!-- Generated by graphviz version 12.2.0 (20241103.1931)
 -->
<!-- Title: stackchan::display::BaseEye Pages: 1 -->
<svg width="222pt" height="741pt"
 viewBox="0.00 0.00 221.62 741.25" xmlns="http://www.w3.org/2000/svg" xmlns:xlink="http://www.w3.org/1999/xlink">
<g id="graph0" class="graph" transform="scale(1 1) rotate(0) translate(4 737.25)">
<title>stackchan::display::BaseEye</title>
<!-- Node1 -->
<g id="Node000001" class="node">
<title>Node1</title>
<g id="a_Node000001"><a xlink:title="Base class for Eye, draw nothing.">
<polygon fill="#999999" stroke="none" points="156.12,-295.25 47.37,-295.25 47.37,-112.25 156.12,-112.25 156.12,-295.25"/>
<text text-anchor="start" x="62" y="-281.75" font-family="Helvetica,sans-Serif" font-size="10.00">stackchan::display</text>
<text text-anchor="start" x="80.38" y="-270.5" font-family="Helvetica,sans-Serif" font-size="10.00">::BaseEye</text>
<text text-anchor="start" x="51.75" y="-255.25" font-family="Helvetica,sans-Serif" font-size="10.00">#</text>
<text text-anchor="start" x="61.38" y="-255.25" font-family="Helvetica,sans-Serif" font-size="10.00">is_left_</text>
<text text-anchor="start" x="51.75" y="-240" font-family="Helvetica,sans-Serif" font-size="10.00">#</text>
<text text-anchor="start" x="61.38" y="-240" font-family="Helvetica,sans-Serif" font-size="10.00">gaze_</text>
<text text-anchor="start" x="51.75" y="-224.75" font-family="Helvetica,sans-Serif" font-size="10.00">#</text>
<text text-anchor="start" x="61.38" y="-224.75" font-family="Helvetica,sans-Serif" font-size="10.00">iris_position_</text>
<text text-anchor="start" x="51.75" y="-209.5" font-family="Helvetica,sans-Serif" font-size="10.00">#</text>
<text text-anchor="start" x="61.38" y="-209.5" font-family="Helvetica,sans-Serif" font-size="10.00">milli_sec_</text>
<text text-anchor="start" x="51.75" y="-194.25" font-family="Helvetica,sans-Serif" font-size="10.00">#</text>
<text text-anchor="start" x="61.38" y="-194.25" font-family="Helvetica,sans-Serif" font-size="10.00">last_saccade_millis_</text>
<text text-anchor="start" x="51.75" y="-179" font-family="Helvetica,sans-Serif" font-size="10.00">#</text>
<text text-anchor="start" x="61.38" y="-179" font-family="Helvetica,sans-Serif" font-size="10.00">saccade_interval_</text>
<text text-anchor="start" x="51.75" y="-163.75" font-family="Helvetica,sans-Serif" font-size="10.00">#</text>
<text text-anchor="start" x="61.38" y="-163.75" font-family="Helvetica,sans-Serif" font-size="10.00">saccade_noise_</text>
<text text-anchor="start" x="51.38" y="-148.5" font-family="Helvetica,sans-Serif" font-size="10.00">+</text>
<text text-anchor="start" x="61.38" y="-148.5" font-family="Helvetica,sans-Serif" font-size="10.00">BaseEye()</text>
<text text-anchor="start" x="51.75" y="-133.25" font-family="Helvetica,sans-Serif" font-size="10.00">#</text>
<text text-anchor="start" x="61.38" y="-133.25" font-family="Helvetica,sans-Serif" font-size="10.00">updateGaze()</text>
<text text-anchor="start" x="51.75" y="-118" font-family="Helvetica,sans-Serif" font-size="10.00">#</text>
<text text-anchor="start" x="61.38" y="-118" font-family="Helvetica,sans-Serif" font-size="10.00">updateSaccade()</text>
<polygon fill="#666666" stroke="#666666" points="47.38,-266.75 47.38,-266.75 156.12,-266.75 156.12,-266.75 47.38,-266.75"/>
<polygon fill="#666666" stroke="#666666" points="47.38,-160 47.38,-160 59.38,-160 59.38,-160 47.38,-160"/>
<polygon fill="#666666" stroke="#666666" points="59.38,-160 59.38,-160 156.12,-160 156.12,-160 59.38,-160"/>
<polygon fill="none" stroke="#666666" points="47.38,-112.25 47.38,-295.25 156.12,-295.25 156.12,-112.25 47.38,-112.25"/>
</a>
</g>
</g>
<!-- Node4 -->
<g id="Node000004" class="node">
<title>Node4</title>
<g id="a_Node000004"><a xlink:href="classstackchan_1_1display_1_1_ellipse_eye.html" target="_top" xlink:title=" ">
<polygon fill="white" stroke="none" points="87.5,-76.25 0,-76.25 0,0 87.5,0 87.5,-76.25"/>
<text text-anchor="start" x="4" y="-62.75" font-family="Helvetica,sans-Serif" font-size="10.00">stackchan::display</text>
<text text-anchor="start" x="19.38" y="-51.5" font-family="Helvetica,sans-Serif" font-size="10.00">::EllipseEye</text>
<text text-anchor="start" x="42.25" y="-36.25" font-family="Helvetica,sans-Serif" font-size="10.00"> </text>
<text text-anchor="start" x="10.31" y="-21" font-family="Helvetica,sans-Serif" font-size="10.00">+</text>
<text text-anchor="start" x="26.62" y="-21" font-family="Helvetica,sans-Serif" font-size="10.00">draw()</text>
<text text-anchor="start" x="10.31" y="-5.75" font-family="Helvetica,sans-Serif" font-size="10.00">+</text>
<text text-anchor="start" x="26.62" y="-5.75" font-family="Helvetica,sans-Serif" font-size="10.00">BaseEye()</text>
<polygon fill="#bfbfbf" stroke="#bfbfbf" points="0,-47.75 0,-47.75 87.5,-47.75 87.5,-47.75 0,-47.75"/>
<polygon fill="#bfbfbf" stroke="#bfbfbf" points="0,-32.5 0,-32.5 87.5,-32.5 87.5,-32.5 0,-32.5"/>
<polygon fill="none" stroke="#bfbfbf" points="0,0 0,-76.25 87.5,-76.25 87.5,0 0,0"/>
</a>
</g>
</g>
<!-- Node1&#45;&gt;Node4 -->
<g id="edge3_Node000001_Node000004" class="edge">
<title>Node1&#45;&gt;Node4</title>
<g id="a_edge3_Node000001_Node000004"><a xlink:title=" ">
<path fill="none" stroke="#63b8ff" d="M65.88,-101.57C62.68,-92.51 59.58,-83.8 56.78,-75.89"/>
<polygon fill="none" stroke="#63b8ff" points="62.55,-102.64 69.19,-110.9 69.15,-100.3 62.55,-102.64"/>
</a>
</g>
</g>
<!-- Node5 -->
<g id="Node000005" class="node">
<title>Node5</title>
<g id="a_Node000005"><a xlink:href="classstackchan_1_1display_1_1_eye.html" target="_top" xlink:title=" ">
<polygon fill="white" stroke="none" points="213.62,-70.62 105.88,-70.62 105.88,-5.62 213.62,-5.62 213.62,-70.62"/>
<text text-anchor="start" x="109.88" y="-57.12" font-family="Helvetica,sans-Serif" font-size="10.00">stackchan::display::Eye</text>
<text text-anchor="start" x="158.25" y="-41.88" font-family="Helvetica,sans-Serif" font-size="10.00"> </text>
<text text-anchor="start" x="121.25" y="-26.62" font-family="Helvetica,sans-Serif" font-size="10.00">+</text>
<text text-anchor="start" x="142.62" y="-26.62" font-family="Helvetica,sans-Serif" font-size="10.00">draw()</text>
<text text-anchor="start" x="121.25" y="-11.38" font-family="Helvetica,sans-Serif" font-size="10.00">+</text>
<text text-anchor="start" x="142.62" y="-11.38" font-family="Helvetica,sans-Serif" font-size="10.00">BaseEye()</text>
<polygon fill="#bfbfbf" stroke="#bfbfbf" points="105.88,-53.38 105.88,-53.38 213.62,-53.38 213.62,-53.38 105.88,-53.38"/>
<polygon fill="#bfbfbf" stroke="#bfbfbf" points="105.88,-38.12 105.88,-38.12 213.62,-38.12 213.62,-38.12 105.88,-38.12"/>
<polygon fill="none" stroke="#bfbfbf" points="105.88,-5.62 105.88,-70.62 213.62,-70.62 213.62,-5.62 105.88,-5.62"/>
</a>
</g>
</g>
<!-- Node1&#45;&gt;Node5 -->
<g id="edge4_Node000001_Node000005" class="edge">
<title>Node1&#45;&gt;Node5</title>
<g id="a_edge4_Node000001_Node000005"><a xlink:title=" ">
<path fill="none" stroke="#63b8ff" d="M137.53,-101.81C141.54,-90.5 145.37,-79.7 148.68,-70.35"/>
<polygon fill="none" stroke="#63b8ff" points="134.35,-100.3 134.31,-110.9 140.95,-102.64 134.35,-100.3"/>
</a>
</g>
</g>
<!-- Node2 -->
<g id="Node000002" class="node">
<title>Node2</title>
<g id="a_Node000002"><a xlink:href="classstackchan_1_1display_1_1_facial_drawable.html" target="_top" xlink:title=" ">
<polygon fill="white" stroke="none" points="145.5,-422.75 58,-422.75 58,-331.25 145.5,-331.25 145.5,-422.75"/>
<text text-anchor="start" x="62" y="-409.25" font-family="Helvetica,sans-Serif" font-size="10.00">stackchan::display</text>
<text text-anchor="start" x="66.12" y="-398" font-family="Helvetica,sans-Serif" font-size="10.00">::FacialDrawable</text>
<text text-anchor="start" x="100.25" y="-382.75" font-family="Helvetica,sans-Serif" font-size="10.00"> </text>
<text text-anchor="start" x="67.75" y="-367.5" font-family="Helvetica,sans-Serif" font-size="10.00">+</text>
<text text-anchor="start" x="83.5" y="-367.5" font-family="Helvetica,sans-Serif" font-size="10.00">draw()</text>
<text text-anchor="start" x="67.75" y="-352.25" font-family="Helvetica,sans-Serif" font-size="10.00">+</text>
<text text-anchor="start" x="83.5" y="-352.25" font-family="Helvetica,sans-Serif" font-size="10.00">Drawable()</text>
<text text-anchor="start" x="67.75" y="-337" font-family="Helvetica,sans-Serif" font-size="10.00">+</text>
<text text-anchor="start" x="83.5" y="-337" font-family="Helvetica,sans-Serif" font-size="10.00">Drawable()</text>
<polygon fill="#bfbfbf" stroke="#bfbfbf" points="58,-394.25 58,-394.25 145.5,-394.25 145.5,-394.25 58,-394.25"/>
<polygon fill="#bfbfbf" stroke="#bfbfbf" points="58,-379 58,-379 145.5,-379 145.5,-379 58,-379"/>
<polygon fill="none" stroke="#bfbfbf" points="58,-331.25 58,-422.75 145.5,-422.75 145.5,-331.25 58,-331.25"/>
</a>
</g>
</g>
<!-- Node2&#45;&gt;Node1 -->
<g id="edge1_Node000001_Node000002" class="edge">
<title>Node2&#45;&gt;Node1</title>
<g id="a_edge1_Node000001_Node000002"><a xlink:title=" ">
<path fill="none" stroke="#63b8ff" d="M101.75,-319.97C101.75,-311.91 101.75,-303.45 101.75,-294.93"/>
<polygon fill="none" stroke="#63b8ff" points="98.25,-319.94 101.75,-329.94 105.25,-319.94 98.25,-319.94"/>
</a>
</g>
</g>
<!-- Node3 -->
<g id="Node000003" class="node">
<title>Node3</title>
<g id="a_Node000003"><a xlink:href="classstackchan_1_1display_1_1_drawable.html" target="_top" xlink:title=" ">
<polygon fill="white" stroke="none" points="152.38,-733.25 51.12,-733.25 51.12,-458.75 152.38,-458.75 152.38,-733.25"/>
<text text-anchor="start" x="62" y="-719.75" font-family="Helvetica,sans-Serif" font-size="10.00">stackchan::display</text>
<text text-anchor="start" x="79.25" y="-708.5" font-family="Helvetica,sans-Serif" font-size="10.00">::Drawable</text>
<text text-anchor="start" x="55.5" y="-693.25" font-family="Helvetica,sans-Serif" font-size="10.00">#</text>
<text text-anchor="start" x="65.12" y="-693.25" font-family="Helvetica,sans-Serif" font-size="10.00">position_</text>
<text text-anchor="start" x="55.5" y="-678" font-family="Helvetica,sans-Serif" font-size="10.00">#</text>
<text text-anchor="start" x="65.12" y="-678" font-family="Helvetica,sans-Serif" font-size="10.00">rotation_</text>
<text text-anchor="start" x="55.5" y="-662.75" font-family="Helvetica,sans-Serif" font-size="10.00">#</text>
<text text-anchor="start" x="65.12" y="-662.75" font-family="Helvetica,sans-Serif" font-size="10.00">size_</text>
<text text-anchor="start" x="55.5" y="-647.5" font-family="Helvetica,sans-Serif" font-size="10.00">#</text>
<text text-anchor="start" x="65.12" y="-647.5" font-family="Helvetica,sans-Serif" font-size="10.00">visible_</text>
<text text-anchor="start" x="55.5" y="-632.25" font-family="Helvetica,sans-Serif" font-size="10.00">#</text>
<text text-anchor="start" x="65.12" y="-632.25" font-family="Helvetica,sans-Serif" font-size="10.00">ignore_expression_</text>
<text text-anchor="start" x="55.12" y="-617" font-family="Helvetica,sans-Serif" font-size="10.00">+</text>
<text text-anchor="start" x="65.12" y="-617" font-family="Helvetica,sans-Serif" font-size="10.00">Drawable()</text>
<text text-anchor="start" x="55.12" y="-601.75" font-family="Helvetica,sans-Serif" font-size="10.00">+</text>
<text text-anchor="start" x="65.12" y="-601.75" font-family="Helvetica,sans-Serif" font-size="10.00">Drawable()</text>
<text text-anchor="start" x="55.12" y="-586.5" font-family="Helvetica,sans-Serif" font-size="10.00">+</text>
<text text-anchor="start" x="65.12" y="-586.5" font-family="Helvetica,sans-Serif" font-size="10.00">~Drawable()</text>
<text text-anchor="start" x="55.12" y="-571.25" font-family="Helvetica,sans-Serif" font-size="10.00">+</text>
<text text-anchor="start" x="65.12" y="-571.25" font-family="Helvetica,sans-Serif" font-size="10.00">setPosition()</text>
<text text-anchor="start" x="55.12" y="-556" font-family="Helvetica,sans-Serif" font-size="10.00">+</text>
<text text-anchor="start" x="65.12" y="-556" font-family="Helvetica,sans-Serif" font-size="10.00">getPosition()</text>
<text text-anchor="start" x="55.12" y="-540.75" font-family="Helvetica,sans-Serif" font-size="10.00">+</text>
<text text-anchor="start" x="65.12" y="-540.75" font-family="Helvetica,sans-Serif" font-size="10.00">setRotation()</text>
<text text-anchor="start" x="55.12" y="-525.5" font-family="Helvetica,sans-Serif" font-size="10.00">+</text>
<text text-anchor="start" x="65.12" y="-525.5" font-family="Helvetica,sans-Serif" font-size="10.00">getRotation()</text>
<text text-anchor="start" x="55.12" y="-510.25" font-family="Helvetica,sans-Serif" font-size="10.00">+</text>
<text text-anchor="start" x="65.12" y="-510.25" font-family="Helvetica,sans-Serif" font-size="10.00">setSize()</text>
<text text-anchor="start" x="55.12" y="-495" font-family="Helvetica,sans-Serif" font-size="10.00">+</text>
<text text-anchor="start" x="65.12" y="-495" font-family="Helvetica,sans-Serif" font-size="10.00">getSize()</text>
<text text-anchor="start" x="55.12" y="-479.75" font-family="Helvetica,sans-Serif" font-size="10.00">+</text>
<text text-anchor="start" x="65.12" y="-479.75" font-family="Helvetica,sans-Serif" font-size="10.00">setVisible()</text>
<text text-anchor="start" x="65.12" y="-464.5" font-family="Helvetica,sans-Serif" font-size="10.00">and 7 more...</text>
<polygon fill="#bfbfbf" stroke="#bfbfbf" points="51.12,-704.75 51.12,-704.75 152.38,-704.75 152.38,-704.75 51.12,-704.75"/>
<polygon fill="#bfbfbf" stroke="#bfbfbf" points="51.12,-628.5 51.12,-628.5 63.12,-628.5 63.12,-628.5 51.12,-628.5"/>
<polygon fill="#bfbfbf" stroke="#bfbfbf" points="63.12,-628.5 63.12,-628.5 152.38,-628.5 152.38,-628.5 63.12,-628.5"/>
<polygon fill="none" stroke="#bfbfbf" points="51.12,-458.75 51.12,-733.25 152.38,-733.25 152.38,-458.75 51.12,-458.75"/>
</a>
</g>
</g>
<!-- Node3&#45;&gt;Node2 -->
<g id="edge2_Node000002_Node000003" class="edge">
<title>Node3&#45;&gt;Node2</title>
<g id="a_edge2_Node000002_Node000003"><a xlink:title=" ">
<path fill="none" stroke="#63b8ff" d="M101.75,-447.45C101.75,-438.63 101.75,-430.21 101.75,-422.47"/>
<polygon fill="none" stroke="#63b8ff" points="98.25,-447.29 101.75,-457.29 105.25,-447.29 98.25,-447.29"/>
</a>
</g>
</g>
</g>
</svg>
