<?xml version="1.0" encoding="UTF-8" standalone="no"?>
<!DOCTYPE svg PUBLIC "-//W3C//DTD SVG 1.1//EN"
 "http://www.w3.org/Graphics/SVG/1.1/DTD/svg11.dtd">
<!-- Generated by graphviz version 12.2.0 (20241103.1931)
 -->
<!-- Title: stackchan::display::BaseMouth Pages: 1 -->
<svg width="308pt" height="604pt"
 viewBox="0.00 0.00 307.50 604.00" xmlns="http://www.w3.org/2000/svg" xmlns:xlink="http://www.w3.org/1999/xlink">
<g id="graph0" class="graph" transform="scale(1 1) rotate(0) translate(4 600)">
<title>stackchan::display::BaseMouth</title>
<!-- Node1 -->
<g id="Node000001" class="node">
<title>Node1</title>
<g id="a_Node000001"><a xlink:title=" ">
<polygon fill="#999999" stroke="none" points="198.12,-158 101.38,-158 101.38,-97 198.12,-97 198.12,-158"/>
<text text-anchor="start" x="110" y="-144.5" font-family="Helvetica,sans-Serif" font-size="10.00">stackchan::display</text>
<text text-anchor="start" x="122.75" y="-133.25" font-family="Helvetica,sans-Serif" font-size="10.00">::BaseMouth</text>
<text text-anchor="start" x="105.38" y="-118" font-family="Helvetica,sans-Serif" font-size="10.00">#</text>
<text text-anchor="start" x="114.62" y="-118" font-family="Helvetica,sans-Serif" font-size="10.00">breath_amplitude_</text>
<text text-anchor="start" x="148.25" y="-102.75" font-family="Helvetica,sans-Serif" font-size="10.00"> </text>
<polygon fill="#666666" stroke="#666666" points="101.38,-129.5 101.38,-129.5 198.12,-129.5 198.12,-129.5 101.38,-129.5"/>
<polygon fill="#666666" stroke="#666666" points="101.38,-114.25 101.38,-114.25 112.62,-114.25 112.62,-114.25 101.38,-114.25"/>
<polygon fill="#666666" stroke="#666666" points="112.62,-114.25 112.62,-114.25 198.12,-114.25 198.12,-114.25 112.62,-114.25"/>
<polygon fill="none" stroke="#666666" points="101.38,-97 101.38,-158 198.12,-158 198.12,-97 101.38,-97"/>
</a>
</g>
</g>
<!-- Node4 -->
<g id="Node000004" class="node">
<title>Node4</title>
<g id="a_Node000004"><a xlink:href="classstackchan_1_1display_1_1_mouth.html" target="_top" xlink:title=" ">
<polygon fill="white" stroke="none" points="87.5,-61 0,-61 0,0 87.5,0 87.5,-61"/>
<text text-anchor="start" x="4" y="-47.5" font-family="Helvetica,sans-Serif" font-size="10.00">stackchan::display</text>
<text text-anchor="start" x="28" y="-36.25" font-family="Helvetica,sans-Serif" font-size="10.00">::Mouth</text>
<text text-anchor="start" x="42.25" y="-21" font-family="Helvetica,sans-Serif" font-size="10.00"> </text>
<text text-anchor="start" x="14.62" y="-5.75" font-family="Helvetica,sans-Serif" font-size="10.00">+</text>
<text text-anchor="start" x="35.25" y="-5.75" font-family="Helvetica,sans-Serif" font-size="10.00">draw()</text>
<polygon fill="#bfbfbf" stroke="#bfbfbf" points="0,-32.5 0,-32.5 87.5,-32.5 87.5,-32.5 0,-32.5"/>
<polygon fill="#bfbfbf" stroke="#bfbfbf" points="0,-17.25 0,-17.25 87.5,-17.25 87.5,-17.25 0,-17.25"/>
<polygon fill="none" stroke="#bfbfbf" points="0,0 0,-61 87.5,-61 87.5,0 0,0"/>
</a>
</g>
</g>
<!-- Node1&#45;&gt;Node4 -->
<g id="edge3_Node000001_Node000004" class="edge">
<title>Node1&#45;&gt;Node4</title>
<g id="a_edge3_Node000001_Node000004"><a xlink:title=" ">
<path fill="none" stroke="#63b8ff" d="M108.7,-89.71C98.03,-80.15 86.67,-69.97 76.49,-60.85"/>
<polygon fill="none" stroke="#63b8ff" points="106.17,-92.14 115.95,-96.21 110.84,-86.93 106.17,-92.14"/>
</a>
</g>
</g>
<!-- Node5 -->
<g id="Node000005" class="node">
<title>Node5</title>
<g id="a_Node000005"><a xlink:href="classstackchan_1_1display_1_1_omega_mouth.html" target="_top" xlink:title=" ">
<polygon fill="white" stroke="none" points="193.5,-61 106,-61 106,0 193.5,0 193.5,-61"/>
<text text-anchor="start" x="110" y="-47.5" font-family="Helvetica,sans-Serif" font-size="10.00">stackchan::display</text>
<text text-anchor="start" x="118.25" y="-36.25" font-family="Helvetica,sans-Serif" font-size="10.00">::OmegaMouth</text>
<text text-anchor="start" x="148.25" y="-21" font-family="Helvetica,sans-Serif" font-size="10.00"> </text>
<text text-anchor="start" x="120.62" y="-5.75" font-family="Helvetica,sans-Serif" font-size="10.00">+</text>
<text text-anchor="start" x="141.25" y="-5.75" font-family="Helvetica,sans-Serif" font-size="10.00">draw()</text>
<polygon fill="#bfbfbf" stroke="#bfbfbf" points="106,-32.5 106,-32.5 193.5,-32.5 193.5,-32.5 106,-32.5"/>
<polygon fill="#bfbfbf" stroke="#bfbfbf" points="106,-17.25 106,-17.25 193.5,-17.25 193.5,-17.25 106,-17.25"/>
<polygon fill="none" stroke="#bfbfbf" points="106,0 106,-61 193.5,-61 193.5,0 106,0"/>
</a>
</g>
</g>
<!-- Node1&#45;&gt;Node5 -->
<g id="edge4_Node000001_Node000005" class="edge">
<title>Node1&#45;&gt;Node5</title>
<g id="a_edge4_Node000001_Node000005"><a xlink:title=" ">
<path fill="none" stroke="#63b8ff" d="M149.75,-85.99C149.75,-77.54 149.75,-68.8 149.75,-60.85"/>
<polygon fill="none" stroke="#63b8ff" points="146.25,-85.71 149.75,-95.71 153.25,-85.71 146.25,-85.71"/>
</a>
</g>
</g>
<!-- Node6 -->
<g id="Node000006" class="node">
<title>Node6</title>
<g id="a_Node000006"><a xlink:href="classstackchan_1_1display_1_1_toon_mouth1.html" target="_top" xlink:title=" ">
<polygon fill="white" stroke="none" points="299.5,-61 212,-61 212,0 299.5,0 299.5,-61"/>
<text text-anchor="start" x="216" y="-47.5" font-family="Helvetica,sans-Serif" font-size="10.00">stackchan::display</text>
<text text-anchor="start" x="226.5" y="-36.25" font-family="Helvetica,sans-Serif" font-size="10.00">::ToonMouth1</text>
<text text-anchor="start" x="254.25" y="-21" font-family="Helvetica,sans-Serif" font-size="10.00"> </text>
<text text-anchor="start" x="226.62" y="-5.75" font-family="Helvetica,sans-Serif" font-size="10.00">+</text>
<text text-anchor="start" x="247.25" y="-5.75" font-family="Helvetica,sans-Serif" font-size="10.00">draw()</text>
<polygon fill="#bfbfbf" stroke="#bfbfbf" points="212,-32.5 212,-32.5 299.5,-32.5 299.5,-32.5 212,-32.5"/>
<polygon fill="#bfbfbf" stroke="#bfbfbf" points="212,-17.25 212,-17.25 299.5,-17.25 299.5,-17.25 212,-17.25"/>
<polygon fill="none" stroke="#bfbfbf" points="212,0 212,-61 299.5,-61 299.5,0 212,0"/>
</a>
</g>
</g>
<!-- Node1&#45;&gt;Node6 -->
<g id="edge5_Node000001_Node000006" class="edge">
<title>Node1&#45;&gt;Node6</title>
<g id="a_edge5_Node000001_Node000006"><a xlink:title=" ">
<path fill="none" stroke="#63b8ff" d="M190.8,-89.71C201.47,-80.15 212.83,-69.97 223.01,-60.85"/>
<polygon fill="none" stroke="#63b8ff" points="188.66,-86.93 183.55,-96.21 193.33,-92.14 188.66,-86.93"/>
</a>
</g>
</g>
<!-- Node2 -->
<g id="Node000002" class="node">
<title>Node2</title>
<g id="a_Node000002"><a xlink:href="classstackchan_1_1display_1_1_facial_drawable.html" target="_top" xlink:title=" ">
<polygon fill="white" stroke="none" points="193.5,-285.5 106,-285.5 106,-194 193.5,-194 193.5,-285.5"/>
<text text-anchor="start" x="110" y="-272" font-family="Helvetica,sans-Serif" font-size="10.00">stackchan::display</text>
<text text-anchor="start" x="114.12" y="-260.75" font-family="Helvetica,sans-Serif" font-size="10.00">::FacialDrawable</text>
<text text-anchor="start" x="148.25" y="-245.5" font-family="Helvetica,sans-Serif" font-size="10.00"> </text>
<text text-anchor="start" x="115.75" y="-230.25" font-family="Helvetica,sans-Serif" font-size="10.00">+</text>
<text text-anchor="start" x="131.5" y="-230.25" font-family="Helvetica,sans-Serif" font-size="10.00">draw()</text>
<text text-anchor="start" x="115.75" y="-215" font-family="Helvetica,sans-Serif" font-size="10.00">+</text>
<text text-anchor="start" x="131.5" y="-215" font-family="Helvetica,sans-Serif" font-size="10.00">Drawable()</text>
<text text-anchor="start" x="115.75" y="-199.75" font-family="Helvetica,sans-Serif" font-size="10.00">+</text>
<text text-anchor="start" x="131.5" y="-199.75" font-family="Helvetica,sans-Serif" font-size="10.00">Drawable()</text>
<polygon fill="#bfbfbf" stroke="#bfbfbf" points="106,-257 106,-257 193.5,-257 193.5,-257 106,-257"/>
<polygon fill="#bfbfbf" stroke="#bfbfbf" points="106,-241.75 106,-241.75 193.5,-241.75 193.5,-241.75 106,-241.75"/>
<polygon fill="none" stroke="#bfbfbf" points="106,-194 106,-285.5 193.5,-285.5 193.5,-194 106,-194"/>
</a>
</g>
</g>
<!-- Node2&#45;&gt;Node1 -->
<g id="edge1_Node000001_Node000002" class="edge">
<title>Node2&#45;&gt;Node1</title>
<g id="a_edge1_Node000001_Node000002"><a xlink:title=" ">
<path fill="none" stroke="#63b8ff" d="M149.75,-182.84C149.75,-174.14 149.75,-165.46 149.75,-157.68"/>
<polygon fill="none" stroke="#63b8ff" points="146.25,-182.71 149.75,-192.71 153.25,-182.71 146.25,-182.71"/>
</a>
</g>
</g>
<!-- Node3 -->
<g id="Node000003" class="node">
<title>Node3</title>
<g id="a_Node000003"><a xlink:href="classstackchan_1_1display_1_1_drawable.html" target="_top" xlink:title=" ">
<polygon fill="white" stroke="none" points="200.38,-596 99.12,-596 99.12,-321.5 200.38,-321.5 200.38,-596"/>
<text text-anchor="start" x="110" y="-582.5" font-family="Helvetica,sans-Serif" font-size="10.00">stackchan::display</text>
<text text-anchor="start" x="127.25" y="-571.25" font-family="Helvetica,sans-Serif" font-size="10.00">::Drawable</text>
<text text-anchor="start" x="103.5" y="-556" font-family="Helvetica,sans-Serif" font-size="10.00">#</text>
<text text-anchor="start" x="113.12" y="-556" font-family="Helvetica,sans-Serif" font-size="10.00">position_</text>
<text text-anchor="start" x="103.5" y="-540.75" font-family="Helvetica,sans-Serif" font-size="10.00">#</text>
<text text-anchor="start" x="113.12" y="-540.75" font-family="Helvetica,sans-Serif" font-size="10.00">rotation_</text>
<text text-anchor="start" x="103.5" y="-525.5" font-family="Helvetica,sans-Serif" font-size="10.00">#</text>
<text text-anchor="start" x="113.12" y="-525.5" font-family="Helvetica,sans-Serif" font-size="10.00">size_</text>
<text text-anchor="start" x="103.5" y="-510.25" font-family="Helvetica,sans-Serif" font-size="10.00">#</text>
<text text-anchor="start" x="113.12" y="-510.25" font-family="Helvetica,sans-Serif" font-size="10.00">visible_</text>
<text text-anchor="start" x="103.5" y="-495" font-family="Helvetica,sans-Serif" font-size="10.00">#</text>
<text text-anchor="start" x="113.12" y="-495" font-family="Helvetica,sans-Serif" font-size="10.00">ignore_expression_</text>
<text text-anchor="start" x="103.12" y="-479.75" font-family="Helvetica,sans-Serif" font-size="10.00">+</text>
<text text-anchor="start" x="113.12" y="-479.75" font-family="Helvetica,sans-Serif" font-size="10.00">Drawable()</text>
<text text-anchor="start" x="103.12" y="-464.5" font-family="Helvetica,sans-Serif" font-size="10.00">+</text>
<text text-anchor="start" x="113.12" y="-464.5" font-family="Helvetica,sans-Serif" font-size="10.00">Drawable()</text>
<text text-anchor="start" x="103.12" y="-449.25" font-family="Helvetica,sans-Serif" font-size="10.00">+</text>
<text text-anchor="start" x="113.12" y="-449.25" font-family="Helvetica,sans-Serif" font-size="10.00">~Drawable()</text>
<text text-anchor="start" x="103.12" y="-434" font-family="Helvetica,sans-Serif" font-size="10.00">+</text>
<text text-anchor="start" x="113.12" y="-434" font-family="Helvetica,sans-Serif" font-size="10.00">setPosition()</text>
<text text-anchor="start" x="103.12" y="-418.75" font-family="Helvetica,sans-Serif" font-size="10.00">+</text>
<text text-anchor="start" x="113.12" y="-418.75" font-family="Helvetica,sans-Serif" font-size="10.00">getPosition()</text>
<text text-anchor="start" x="103.12" y="-403.5" font-family="Helvetica,sans-Serif" font-size="10.00">+</text>
<text text-anchor="start" x="113.12" y="-403.5" font-family="Helvetica,sans-Serif" font-size="10.00">setRotation()</text>
<text text-anchor="start" x="103.12" y="-388.25" font-family="Helvetica,sans-Serif" font-size="10.00">+</text>
<text text-anchor="start" x="113.12" y="-388.25" font-family="Helvetica,sans-Serif" font-size="10.00">getRotation()</text>
<text text-anchor="start" x="103.12" y="-373" font-family="Helvetica,sans-Serif" font-size="10.00">+</text>
<text text-anchor="start" x="113.12" y="-373" font-family="Helvetica,sans-Serif" font-size="10.00">setSize()</text>
<text text-anchor="start" x="103.12" y="-357.75" font-family="Helvetica,sans-Serif" font-size="10.00">+</text>
<text text-anchor="start" x="113.12" y="-357.75" font-family="Helvetica,sans-Serif" font-size="10.00">getSize()</text>
<text text-anchor="start" x="103.12" y="-342.5" font-family="Helvetica,sans-Serif" font-size="10.00">+</text>
<text text-anchor="start" x="113.12" y="-342.5" font-family="Helvetica,sans-Serif" font-size="10.00">setVisible()</text>
<text text-anchor="start" x="113.12" y="-327.25" font-family="Helvetica,sans-Serif" font-size="10.00">and 7 more...</text>
<polygon fill="#bfbfbf" stroke="#bfbfbf" points="99.12,-567.5 99.12,-567.5 200.38,-567.5 200.38,-567.5 99.12,-567.5"/>
<polygon fill="#bfbfbf" stroke="#bfbfbf" points="99.12,-491.25 99.12,-491.25 111.12,-491.25 111.12,-491.25 99.12,-491.25"/>
<polygon fill="#bfbfbf" stroke="#bfbfbf" points="111.12,-491.25 111.12,-491.25 200.38,-491.25 200.38,-491.25 111.12,-491.25"/>
<polygon fill="none" stroke="#bfbfbf" points="99.12,-321.5 99.12,-596 200.38,-596 200.38,-321.5 99.12,-321.5"/>
</a>
</g>
</g>
<!-- Node3&#45;&gt;Node2 -->
<g id="edge2_Node000002_Node000003" class="edge">
<title>Node3&#45;&gt;Node2</title>
<g id="a_edge2_Node000002_Node000003"><a xlink:title=" ">
<path fill="none" stroke="#63b8ff" d="M149.75,-310.2C149.75,-301.38 149.75,-292.96 149.75,-285.22"/>
<polygon fill="none" stroke="#63b8ff" points="146.25,-310.04 149.75,-320.04 153.25,-310.04 146.25,-310.04"/>
</a>
</g>
</g>
</g>
</svg>
