<?xml version="1.0" encoding="UTF-8" standalone="no"?>
<!DOCTYPE svg PUBLIC "-//W3C//DTD SVG 1.1//EN"
 "http://www.w3.org/Graphics/SVG/1.1/DTD/svg11.dtd">
<!-- Generated by graphviz version 12.2.0 (20241103.1931)
 -->
<!-- Title: stackchan::display::Face Pages: 1 -->
<svg width="520pt" height="863pt"
 viewBox="0.00 0.00 519.50 863.25" xmlns="http://www.w3.org/2000/svg" xmlns:xlink="http://www.w3.org/1999/xlink">
<g id="graph0" class="graph" transform="scale(1 1) rotate(0) translate(4 859.25)">
<title>stackchan::display::Face</title>
<!-- Node1 -->
<g id="Node000001" class="node">
<title>Node1</title>
<g id="a_Node000001"><a xlink:title=" ">
<polygon fill="#999999" stroke="none" points="311.25,-417.25 200.25,-417.25 200.25,-97 311.25,-97 311.25,-417.25"/>
<text text-anchor="start" x="216" y="-403.75" font-family="Helvetica,sans-Serif" font-size="10.00">stackchan::display</text>
<text text-anchor="start" x="242.62" y="-392.5" font-family="Helvetica,sans-Serif" font-size="10.00">::Face</text>
<text text-anchor="start" x="204.62" y="-377.25" font-family="Helvetica,sans-Serif" font-size="10.00">#</text>
<text text-anchor="start" x="214.25" y="-377.25" font-family="Helvetica,sans-Serif" font-size="10.00">is_auto_blink_</text>
<text text-anchor="start" x="204.62" y="-362" font-family="Helvetica,sans-Serif" font-size="10.00">#</text>
<text text-anchor="start" x="214.25" y="-362" font-family="Helvetica,sans-Serif" font-size="10.00">auto_blink_interval_</text>
<text text-anchor="start" x="204.62" y="-346.75" font-family="Helvetica,sans-Serif" font-size="10.00">#</text>
<text text-anchor="start" x="214.25" y="-346.75" font-family="Helvetica,sans-Serif" font-size="10.00">last_blink_time_</text>
<text text-anchor="start" x="204.62" y="-331.5" font-family="Helvetica,sans-Serif" font-size="10.00">#</text>
<text text-anchor="start" x="214.25" y="-331.5" font-family="Helvetica,sans-Serif" font-size="10.00">blink_duration_</text>
<text text-anchor="start" x="204.62" y="-316.25" font-family="Helvetica,sans-Serif" font-size="10.00">#</text>
<text text-anchor="start" x="214.25" y="-316.25" font-family="Helvetica,sans-Serif" font-size="10.00">breath_frequency_</text>
<text text-anchor="start" x="204.62" y="-301" font-family="Helvetica,sans-Serif" font-size="10.00">#</text>
<text text-anchor="start" x="214.25" y="-301" font-family="Helvetica,sans-Serif" font-size="10.00">left_eye_</text>
<text text-anchor="start" x="204.62" y="-285.75" font-family="Helvetica,sans-Serif" font-size="10.00">#</text>
<text text-anchor="start" x="214.25" y="-285.75" font-family="Helvetica,sans-Serif" font-size="10.00">right_eye_</text>
<text text-anchor="start" x="204.62" y="-270.5" font-family="Helvetica,sans-Serif" font-size="10.00">#</text>
<text text-anchor="start" x="214.25" y="-270.5" font-family="Helvetica,sans-Serif" font-size="10.00">mouth_</text>
<text text-anchor="start" x="204.25" y="-255.25" font-family="Helvetica,sans-Serif" font-size="10.00">+</text>
<text text-anchor="start" x="214.25" y="-255.25" font-family="Helvetica,sans-Serif" font-size="10.00">Face()</text>
<text text-anchor="start" x="204.25" y="-240" font-family="Helvetica,sans-Serif" font-size="10.00">+</text>
<text text-anchor="start" x="214.25" y="-240" font-family="Helvetica,sans-Serif" font-size="10.00">Face()</text>
<text text-anchor="start" x="204.25" y="-224.75" font-family="Helvetica,sans-Serif" font-size="10.00">+</text>
<text text-anchor="start" x="214.25" y="-224.75" font-family="Helvetica,sans-Serif" font-size="10.00">getLeftEye()</text>
<text text-anchor="start" x="204.25" y="-209.5" font-family="Helvetica,sans-Serif" font-size="10.00">+</text>
<text text-anchor="start" x="214.25" y="-209.5" font-family="Helvetica,sans-Serif" font-size="10.00">getRightEye()</text>
<text text-anchor="start" x="204.25" y="-194.25" font-family="Helvetica,sans-Serif" font-size="10.00">+</text>
<text text-anchor="start" x="214.25" y="-194.25" font-family="Helvetica,sans-Serif" font-size="10.00">getMouth()</text>
<text text-anchor="start" x="204.25" y="-179" font-family="Helvetica,sans-Serif" font-size="10.00">+</text>
<text text-anchor="start" x="214.25" y="-179" font-family="Helvetica,sans-Serif" font-size="10.00">activateAutoBlink()</text>
<text text-anchor="start" x="204.25" y="-163.75" font-family="Helvetica,sans-Serif" font-size="10.00">+</text>
<text text-anchor="start" x="214.25" y="-163.75" font-family="Helvetica,sans-Serif" font-size="10.00">deactivateAutoBlink()</text>
<text text-anchor="start" x="204.25" y="-148.5" font-family="Helvetica,sans-Serif" font-size="10.00">+</text>
<text text-anchor="start" x="214.25" y="-148.5" font-family="Helvetica,sans-Serif" font-size="10.00">getIsAutoBlink()</text>
<text text-anchor="start" x="204.25" y="-133.25" font-family="Helvetica,sans-Serif" font-size="10.00">+</text>
<text text-anchor="start" x="214.25" y="-133.25" font-family="Helvetica,sans-Serif" font-size="10.00">autoScale()</text>
<text text-anchor="start" x="204.25" y="-118" font-family="Helvetica,sans-Serif" font-size="10.00">+</text>
<text text-anchor="start" x="214.25" y="-118" font-family="Helvetica,sans-Serif" font-size="10.00">updateState()</text>
<text text-anchor="start" x="204.25" y="-102.75" font-family="Helvetica,sans-Serif" font-size="10.00">+</text>
<text text-anchor="start" x="214.25" y="-102.75" font-family="Helvetica,sans-Serif" font-size="10.00">draw()</text>
<polygon fill="#666666" stroke="#666666" points="200.25,-388.75 200.25,-388.75 311.25,-388.75 311.25,-388.75 200.25,-388.75"/>
<polygon fill="#666666" stroke="#666666" points="200.25,-266.75 200.25,-266.75 212.25,-266.75 212.25,-266.75 200.25,-266.75"/>
<polygon fill="#666666" stroke="#666666" points="212.25,-266.75 212.25,-266.75 311.25,-266.75 311.25,-266.75 212.25,-266.75"/>
<polygon fill="none" stroke="#666666" points="200.25,-97 200.25,-417.25 311.25,-417.25 311.25,-97 200.25,-97"/>
</a>
</g>
</g>
<!-- Node4 -->
<g id="Node000004" class="node">
<title>Node4</title>
<g id="a_Node000004"><a xlink:href="classstackchan_1_1display_1_1_ell_face.html" target="_top" xlink:title=" ">
<polygon fill="white" stroke="none" points="87.5,-61 0,-61 0,0 87.5,0 87.5,-61"/>
<text text-anchor="start" x="4" y="-47.5" font-family="Helvetica,sans-Serif" font-size="10.00">stackchan::display</text>
<text text-anchor="start" x="25.38" y="-36.25" font-family="Helvetica,sans-Serif" font-size="10.00">::EllFace</text>
<text text-anchor="start" x="42.25" y="-21" font-family="Helvetica,sans-Serif" font-size="10.00"> </text>
<text text-anchor="start" x="11.81" y="-5.75" font-family="Helvetica,sans-Serif" font-size="10.00">+</text>
<text text-anchor="start" x="29.62" y="-5.75" font-family="Helvetica,sans-Serif" font-size="10.00">EllFace()</text>
<polygon fill="#bfbfbf" stroke="#bfbfbf" points="0,-32.5 0,-32.5 87.5,-32.5 87.5,-32.5 0,-32.5"/>
<polygon fill="#bfbfbf" stroke="#bfbfbf" points="0,-17.25 0,-17.25 87.5,-17.25 87.5,-17.25 0,-17.25"/>
<polygon fill="none" stroke="#bfbfbf" points="0,0 0,-61 87.5,-61 87.5,0 0,0"/>
</a>
</g>
</g>
<!-- Node1&#45;&gt;Node4 -->
<g id="edge3_Node000001_Node000004" class="edge">
<title>Node1&#45;&gt;Node4</title>
<g id="a_edge3_Node000001_Node000004"><a xlink:title=" ">
<path fill="none" stroke="#63b8ff" d="M192.65,-189.27C152.29,-146.5 101.93,-93.15 71.34,-60.74"/>
<polygon fill="none" stroke="#63b8ff" points="189.88,-191.43 199.29,-196.3 194.97,-186.63 189.88,-191.43"/>
</a>
</g>
</g>
<!-- Node5 -->
<g id="Node000005" class="node">
<title>Node5</title>
<g id="a_Node000005"><a xlink:href="classstackchan_1_1display_1_1_omega_face.html" target="_top" xlink:title=" ">
<polygon fill="white" stroke="none" points="193.5,-61 106,-61 106,0 193.5,0 193.5,-61"/>
<text text-anchor="start" x="110" y="-47.5" font-family="Helvetica,sans-Serif" font-size="10.00">stackchan::display</text>
<text text-anchor="start" x="120.88" y="-36.25" font-family="Helvetica,sans-Serif" font-size="10.00">::OmegaFace</text>
<text text-anchor="start" x="148.25" y="-21" font-family="Helvetica,sans-Serif" font-size="10.00"> </text>
<text text-anchor="start" x="112.56" y="-5.75" font-family="Helvetica,sans-Serif" font-size="10.00">+</text>
<text text-anchor="start" x="125.12" y="-5.75" font-family="Helvetica,sans-Serif" font-size="10.00">OmegaFace()</text>
<polygon fill="#bfbfbf" stroke="#bfbfbf" points="106,-32.5 106,-32.5 193.5,-32.5 193.5,-32.5 106,-32.5"/>
<polygon fill="#bfbfbf" stroke="#bfbfbf" points="106,-17.25 106,-17.25 193.5,-17.25 193.5,-17.25 106,-17.25"/>
<polygon fill="none" stroke="#bfbfbf" points="106,0 106,-61 193.5,-61 193.5,0 106,0"/>
</a>
</g>
</g>
<!-- Node1&#45;&gt;Node5 -->
<g id="edge4_Node000001_Node000005" class="edge">
<title>Node1&#45;&gt;Node5</title>
<g id="a_edge4_Node000001_Node000005"><a xlink:title=" ">
<path fill="none" stroke="#63b8ff" d="M195.49,-128.43C183.55,-103.13 172.11,-78.89 163.66,-60.98"/>
<polygon fill="none" stroke="#63b8ff" points="192.19,-129.63 199.62,-137.18 198.52,-126.64 192.19,-129.63"/>
</a>
</g>
</g>
<!-- Node6 -->
<g id="Node000006" class="node">
<title>Node6</title>
<g id="a_Node000006"><a xlink:href="classstackchan_1_1display_1_1_rect_face.html" target="_top" xlink:title=" ">
<polygon fill="white" stroke="none" points="299.5,-61 212,-61 212,0 299.5,0 299.5,-61"/>
<text text-anchor="start" x="216" y="-47.5" font-family="Helvetica,sans-Serif" font-size="10.00">stackchan::display</text>
<text text-anchor="start" x="232.5" y="-36.25" font-family="Helvetica,sans-Serif" font-size="10.00">::RectFace</text>
<text text-anchor="start" x="254.25" y="-21" font-family="Helvetica,sans-Serif" font-size="10.00"> </text>
<text text-anchor="start" x="221.38" y="-5.75" font-family="Helvetica,sans-Serif" font-size="10.00">+</text>
<text text-anchor="start" x="236.75" y="-5.75" font-family="Helvetica,sans-Serif" font-size="10.00">RectFace()</text>
<polygon fill="#bfbfbf" stroke="#bfbfbf" points="212,-32.5 212,-32.5 299.5,-32.5 299.5,-32.5 212,-32.5"/>
<polygon fill="#bfbfbf" stroke="#bfbfbf" points="212,-17.25 212,-17.25 299.5,-17.25 299.5,-17.25 212,-17.25"/>
<polygon fill="none" stroke="#bfbfbf" points="212,0 212,-61 299.5,-61 299.5,0 212,0"/>
</a>
</g>
</g>
<!-- Node1&#45;&gt;Node6 -->
<g id="edge5_Node000001_Node000006" class="edge">
<title>Node1&#45;&gt;Node6</title>
<g id="a_edge5_Node000001_Node000006"><a xlink:title=" ">
<path fill="none" stroke="#63b8ff" d="M255.75,-85.63C255.75,-76.52 255.75,-68.11 255.75,-60.78"/>
<polygon fill="none" stroke="#63b8ff" points="252.25,-85.56 255.75,-95.56 259.25,-85.56 252.25,-85.56"/>
</a>
</g>
</g>
<!-- Node7 -->
<g id="Node000007" class="node">
<title>Node7</title>
<g id="a_Node000007"><a xlink:href="classstackchan_1_1display_1_1_toon_face1.html" target="_top" xlink:title=" ">
<polygon fill="white" stroke="none" points="405.5,-61 318,-61 318,0 405.5,0 405.5,-61"/>
<text text-anchor="start" x="322" y="-47.5" font-family="Helvetica,sans-Serif" font-size="10.00">stackchan::display</text>
<text text-anchor="start" x="335.12" y="-36.25" font-family="Helvetica,sans-Serif" font-size="10.00">::ToonFace1</text>
<text text-anchor="start" x="360.25" y="-21" font-family="Helvetica,sans-Serif" font-size="10.00"> </text>
<text text-anchor="start" x="325.69" y="-5.75" font-family="Helvetica,sans-Serif" font-size="10.00">+</text>
<text text-anchor="start" x="339.38" y="-5.75" font-family="Helvetica,sans-Serif" font-size="10.00">ToonFace1()</text>
<polygon fill="#bfbfbf" stroke="#bfbfbf" points="318,-32.5 318,-32.5 405.5,-32.5 405.5,-32.5 318,-32.5"/>
<polygon fill="#bfbfbf" stroke="#bfbfbf" points="318,-17.25 318,-17.25 405.5,-17.25 405.5,-17.25 318,-17.25"/>
<polygon fill="none" stroke="#bfbfbf" points="318,0 318,-61 405.5,-61 405.5,0 318,0"/>
</a>
</g>
</g>
<!-- Node1&#45;&gt;Node7 -->
<g id="edge6_Node000001_Node000007" class="edge">
<title>Node1&#45;&gt;Node7</title>
<g id="a_edge6_Node000001_Node000007"><a xlink:title=" ">
<path fill="none" stroke="#63b8ff" d="M316.01,-128.43C327.95,-103.13 339.39,-78.89 347.84,-60.98"/>
<polygon fill="none" stroke="#63b8ff" points="312.98,-126.64 311.88,-137.18 319.31,-129.63 312.98,-126.64"/>
</a>
</g>
</g>
<!-- Node8 -->
<g id="Node000008" class="node">
<title>Node8</title>
<g id="a_Node000008"><a xlink:href="classstackchan_1_1display_1_1_toon_face2.html" target="_top" xlink:title=" ">
<polygon fill="white" stroke="none" points="511.5,-61 424,-61 424,0 511.5,0 511.5,-61"/>
<text text-anchor="start" x="428" y="-47.5" font-family="Helvetica,sans-Serif" font-size="10.00">stackchan::display</text>
<text text-anchor="start" x="441.12" y="-36.25" font-family="Helvetica,sans-Serif" font-size="10.00">::ToonFace2</text>
<text text-anchor="start" x="466.25" y="-21" font-family="Helvetica,sans-Serif" font-size="10.00"> </text>
<text text-anchor="start" x="431.69" y="-5.75" font-family="Helvetica,sans-Serif" font-size="10.00">+</text>
<text text-anchor="start" x="445.38" y="-5.75" font-family="Helvetica,sans-Serif" font-size="10.00">ToonFace2()</text>
<polygon fill="#bfbfbf" stroke="#bfbfbf" points="424,-32.5 424,-32.5 511.5,-32.5 511.5,-32.5 424,-32.5"/>
<polygon fill="#bfbfbf" stroke="#bfbfbf" points="424,-17.25 424,-17.25 511.5,-17.25 511.5,-17.25 424,-17.25"/>
<polygon fill="none" stroke="#bfbfbf" points="424,0 424,-61 511.5,-61 511.5,0 424,0"/>
</a>
</g>
</g>
<!-- Node1&#45;&gt;Node8 -->
<g id="edge7_Node000001_Node000008" class="edge">
<title>Node1&#45;&gt;Node8</title>
<g id="a_edge7_Node000001_Node000008"><a xlink:title=" ">
<path fill="none" stroke="#63b8ff" d="M318.85,-189.27C359.21,-146.5 409.57,-93.15 440.16,-60.74"/>
<polygon fill="none" stroke="#63b8ff" points="316.53,-186.63 312.21,-196.3 321.62,-191.43 316.53,-186.63"/>
</a>
</g>
</g>
<!-- Node2 -->
<g id="Node000002" class="node">
<title>Node2</title>
<g id="a_Node000002"><a xlink:href="classstackchan_1_1display_1_1_facial_drawable.html" target="_top" xlink:title=" ">
<polygon fill="white" stroke="none" points="299.5,-544.75 212,-544.75 212,-453.25 299.5,-453.25 299.5,-544.75"/>
<text text-anchor="start" x="216" y="-531.25" font-family="Helvetica,sans-Serif" font-size="10.00">stackchan::display</text>
<text text-anchor="start" x="220.12" y="-520" font-family="Helvetica,sans-Serif" font-size="10.00">::FacialDrawable</text>
<text text-anchor="start" x="254.25" y="-504.75" font-family="Helvetica,sans-Serif" font-size="10.00"> </text>
<text text-anchor="start" x="221.75" y="-489.5" font-family="Helvetica,sans-Serif" font-size="10.00">+</text>
<text text-anchor="start" x="237.5" y="-489.5" font-family="Helvetica,sans-Serif" font-size="10.00">draw()</text>
<text text-anchor="start" x="221.75" y="-474.25" font-family="Helvetica,sans-Serif" font-size="10.00">+</text>
<text text-anchor="start" x="237.5" y="-474.25" font-family="Helvetica,sans-Serif" font-size="10.00">Drawable()</text>
<text text-anchor="start" x="221.75" y="-459" font-family="Helvetica,sans-Serif" font-size="10.00">+</text>
<text text-anchor="start" x="237.5" y="-459" font-family="Helvetica,sans-Serif" font-size="10.00">Drawable()</text>
<polygon fill="#bfbfbf" stroke="#bfbfbf" points="212,-516.25 212,-516.25 299.5,-516.25 299.5,-516.25 212,-516.25"/>
<polygon fill="#bfbfbf" stroke="#bfbfbf" points="212,-501 212,-501 299.5,-501 299.5,-501 212,-501"/>
<polygon fill="none" stroke="#bfbfbf" points="212,-453.25 212,-544.75 299.5,-544.75 299.5,-453.25 212,-453.25"/>
</a>
</g>
</g>
<!-- Node2&#45;&gt;Node1 -->
<g id="edge1_Node000001_Node000002" class="edge">
<title>Node2&#45;&gt;Node1</title>
<g id="a_edge1_Node000001_Node000002"><a xlink:title=" ">
<path fill="none" stroke="#63b8ff" d="M255.75,-441.93C255.75,-434.07 255.75,-425.68 255.75,-416.99"/>
<polygon fill="none" stroke="#63b8ff" points="252.25,-441.93 255.75,-451.93 259.25,-441.93 252.25,-441.93"/>
</a>
</g>
</g>
<!-- Node3 -->
<g id="Node000003" class="node">
<title>Node3</title>
<g id="a_Node000003"><a xlink:href="classstackchan_1_1display_1_1_drawable.html" target="_top" xlink:title=" ">
<polygon fill="white" stroke="none" points="306.38,-855.25 205.12,-855.25 205.12,-580.75 306.38,-580.75 306.38,-855.25"/>
<text text-anchor="start" x="216" y="-841.75" font-family="Helvetica,sans-Serif" font-size="10.00">stackchan::display</text>
<text text-anchor="start" x="233.25" y="-830.5" font-family="Helvetica,sans-Serif" font-size="10.00">::Drawable</text>
<text text-anchor="start" x="209.5" y="-815.25" font-family="Helvetica,sans-Serif" font-size="10.00">#</text>
<text text-anchor="start" x="219.12" y="-815.25" font-family="Helvetica,sans-Serif" font-size="10.00">position_</text>
<text text-anchor="start" x="209.5" y="-800" font-family="Helvetica,sans-Serif" font-size="10.00">#</text>
<text text-anchor="start" x="219.12" y="-800" font-family="Helvetica,sans-Serif" font-size="10.00">rotation_</text>
<text text-anchor="start" x="209.5" y="-784.75" font-family="Helvetica,sans-Serif" font-size="10.00">#</text>
<text text-anchor="start" x="219.12" y="-784.75" font-family="Helvetica,sans-Serif" font-size="10.00">size_</text>
<text text-anchor="start" x="209.5" y="-769.5" font-family="Helvetica,sans-Serif" font-size="10.00">#</text>
<text text-anchor="start" x="219.12" y="-769.5" font-family="Helvetica,sans-Serif" font-size="10.00">visible_</text>
<text text-anchor="start" x="209.5" y="-754.25" font-family="Helvetica,sans-Serif" font-size="10.00">#</text>
<text text-anchor="start" x="219.12" y="-754.25" font-family="Helvetica,sans-Serif" font-size="10.00">ignore_expression_</text>
<text text-anchor="start" x="209.12" y="-739" font-family="Helvetica,sans-Serif" font-size="10.00">+</text>
<text text-anchor="start" x="219.12" y="-739" font-family="Helvetica,sans-Serif" font-size="10.00">Drawable()</text>
<text text-anchor="start" x="209.12" y="-723.75" font-family="Helvetica,sans-Serif" font-size="10.00">+</text>
<text text-anchor="start" x="219.12" y="-723.75" font-family="Helvetica,sans-Serif" font-size="10.00">Drawable()</text>
<text text-anchor="start" x="209.12" y="-708.5" font-family="Helvetica,sans-Serif" font-size="10.00">+</text>
<text text-anchor="start" x="219.12" y="-708.5" font-family="Helvetica,sans-Serif" font-size="10.00">~Drawable()</text>
<text text-anchor="start" x="209.12" y="-693.25" font-family="Helvetica,sans-Serif" font-size="10.00">+</text>
<text text-anchor="start" x="219.12" y="-693.25" font-family="Helvetica,sans-Serif" font-size="10.00">setPosition()</text>
<text text-anchor="start" x="209.12" y="-678" font-family="Helvetica,sans-Serif" font-size="10.00">+</text>
<text text-anchor="start" x="219.12" y="-678" font-family="Helvetica,sans-Serif" font-size="10.00">getPosition()</text>
<text text-anchor="start" x="209.12" y="-662.75" font-family="Helvetica,sans-Serif" font-size="10.00">+</text>
<text text-anchor="start" x="219.12" y="-662.75" font-family="Helvetica,sans-Serif" font-size="10.00">setRotation()</text>
<text text-anchor="start" x="209.12" y="-647.5" font-family="Helvetica,sans-Serif" font-size="10.00">+</text>
<text text-anchor="start" x="219.12" y="-647.5" font-family="Helvetica,sans-Serif" font-size="10.00">getRotation()</text>
<text text-anchor="start" x="209.12" y="-632.25" font-family="Helvetica,sans-Serif" font-size="10.00">+</text>
<text text-anchor="start" x="219.12" y="-632.25" font-family="Helvetica,sans-Serif" font-size="10.00">setSize()</text>
<text text-anchor="start" x="209.12" y="-617" font-family="Helvetica,sans-Serif" font-size="10.00">+</text>
<text text-anchor="start" x="219.12" y="-617" font-family="Helvetica,sans-Serif" font-size="10.00">getSize()</text>
<text text-anchor="start" x="209.12" y="-601.75" font-family="Helvetica,sans-Serif" font-size="10.00">+</text>
<text text-anchor="start" x="219.12" y="-601.75" font-family="Helvetica,sans-Serif" font-size="10.00">setVisible()</text>
<text text-anchor="start" x="219.12" y="-586.5" font-family="Helvetica,sans-Serif" font-size="10.00">and 7 more...</text>
<polygon fill="#bfbfbf" stroke="#bfbfbf" points="205.12,-826.75 205.12,-826.75 306.38,-826.75 306.38,-826.75 205.12,-826.75"/>
<polygon fill="#bfbfbf" stroke="#bfbfbf" points="205.12,-750.5 205.12,-750.5 217.12,-750.5 217.12,-750.5 205.12,-750.5"/>
<polygon fill="#bfbfbf" stroke="#bfbfbf" points="217.12,-750.5 217.12,-750.5 306.38,-750.5 306.38,-750.5 217.12,-750.5"/>
<polygon fill="none" stroke="#bfbfbf" points="205.12,-580.75 205.12,-855.25 306.38,-855.25 306.38,-580.75 205.12,-580.75"/>
</a>
</g>
</g>
<!-- Node3&#45;&gt;Node2 -->
<g id="edge2_Node000002_Node000003" class="edge">
<title>Node3&#45;&gt;Node2</title>
<g id="a_edge2_Node000002_Node000003"><a xlink:title=" ">
<path fill="none" stroke="#63b8ff" d="M255.75,-569.45C255.75,-560.63 255.75,-552.21 255.75,-544.47"/>
<polygon fill="none" stroke="#63b8ff" points="252.25,-569.29 255.75,-579.29 259.25,-569.29 252.25,-569.29"/>
</a>
</g>
</g>
</g>
</svg>
