<?xml version="1.0" encoding="UTF-8" standalone="no"?>
<!DOCTYPE svg PUBLIC "-//W3C//DTD SVG 1.1//EN"
 "http://www.w3.org/Graphics/SVG/1.1/DTD/svg11.dtd">
<!-- Generated by graphviz version 12.2.0 (20241103.1931)
 -->
<!-- Title: stackchan::display::OmegaFace Pages: 1 -->
<svg width="254pt" height="1340pt"
 viewBox="0.00 0.00 254.24 1340.25" xmlns="http://www.w3.org/2000/svg" xmlns:xlink="http://www.w3.org/1999/xlink">
<g id="graph0" class="graph" transform="scale(1 1) rotate(0) translate(4 1336.25)">
<title>stackchan::display::OmegaFace</title>
<!-- Node1 -->
<g id="Node000001" class="node">
<title>Node1</title>
<g id="a_Node000001"><a xlink:title=" ">
<polygon fill="#999999" stroke="none" points="219.12,-61 131.62,-61 131.62,0 219.12,0 219.12,-61"/>
<text text-anchor="start" x="135.62" y="-47.5" font-family="Helvetica,sans-Serif" font-size="10.00">stackchan::display</text>
<text text-anchor="start" x="146.5" y="-36.25" font-family="Helvetica,sans-Serif" font-size="10.00">::OmegaFace</text>
<text text-anchor="start" x="173.88" y="-21" font-family="Helvetica,sans-Serif" font-size="10.00"> </text>
<text text-anchor="start" x="138.19" y="-5.75" font-family="Helvetica,sans-Serif" font-size="10.00">+</text>
<text text-anchor="start" x="150.75" y="-5.75" font-family="Helvetica,sans-Serif" font-size="10.00">OmegaFace()</text>
<polygon fill="#666666" stroke="#666666" points="131.62,-32.5 131.62,-32.5 219.12,-32.5 219.12,-32.5 131.62,-32.5"/>
<polygon fill="#666666" stroke="#666666" points="131.62,-17.25 131.62,-17.25 219.12,-17.25 219.12,-17.25 131.62,-17.25"/>
<polygon fill="none" stroke="#666666" points="131.62,0 131.62,-61 219.12,-61 219.12,0 131.62,0"/>
</a>
</g>
</g>
<!-- Node2 -->
<g id="Node000002" class="node">
<title>Node2</title>
<g id="a_Node000002"><a xlink:href="classstackchan_1_1display_1_1_face.html" target="_top" xlink:title=" ">
<polygon fill="white" stroke="none" points="230.88,-372.5 119.88,-372.5 119.88,-98 230.88,-98 230.88,-372.5"/>
<text text-anchor="start" x="135.62" y="-359" font-family="Helvetica,sans-Serif" font-size="10.00">stackchan::display</text>
<text text-anchor="start" x="162.25" y="-347.75" font-family="Helvetica,sans-Serif" font-size="10.00">::Face</text>
<text text-anchor="start" x="124.25" y="-332.5" font-family="Helvetica,sans-Serif" font-size="10.00">#</text>
<text text-anchor="start" x="133.88" y="-332.5" font-family="Helvetica,sans-Serif" font-size="10.00">is_auto_blink_</text>
<text text-anchor="start" x="124.25" y="-317.25" font-family="Helvetica,sans-Serif" font-size="10.00">#</text>
<text text-anchor="start" x="133.88" y="-317.25" font-family="Helvetica,sans-Serif" font-size="10.00">auto_blink_interval_</text>
<text text-anchor="start" x="124.25" y="-302" font-family="Helvetica,sans-Serif" font-size="10.00">#</text>
<text text-anchor="start" x="133.88" y="-302" font-family="Helvetica,sans-Serif" font-size="10.00">last_blink_time_</text>
<text text-anchor="start" x="124.25" y="-286.75" font-family="Helvetica,sans-Serif" font-size="10.00">#</text>
<text text-anchor="start" x="133.88" y="-286.75" font-family="Helvetica,sans-Serif" font-size="10.00">blink_duration_</text>
<text text-anchor="start" x="124.25" y="-271.5" font-family="Helvetica,sans-Serif" font-size="10.00">#</text>
<text text-anchor="start" x="133.88" y="-271.5" font-family="Helvetica,sans-Serif" font-size="10.00">breath_frequency_</text>
<text text-anchor="start" x="123.88" y="-256.25" font-family="Helvetica,sans-Serif" font-size="10.00">+</text>
<text text-anchor="start" x="133.88" y="-256.25" font-family="Helvetica,sans-Serif" font-size="10.00">Face()</text>
<text text-anchor="start" x="123.88" y="-241" font-family="Helvetica,sans-Serif" font-size="10.00">+</text>
<text text-anchor="start" x="133.88" y="-241" font-family="Helvetica,sans-Serif" font-size="10.00">Face()</text>
<text text-anchor="start" x="123.88" y="-225.75" font-family="Helvetica,sans-Serif" font-size="10.00">+</text>
<text text-anchor="start" x="133.88" y="-225.75" font-family="Helvetica,sans-Serif" font-size="10.00">getLeftEye()</text>
<text text-anchor="start" x="123.88" y="-210.5" font-family="Helvetica,sans-Serif" font-size="10.00">+</text>
<text text-anchor="start" x="133.88" y="-210.5" font-family="Helvetica,sans-Serif" font-size="10.00">getRightEye()</text>
<text text-anchor="start" x="123.88" y="-195.25" font-family="Helvetica,sans-Serif" font-size="10.00">+</text>
<text text-anchor="start" x="133.88" y="-195.25" font-family="Helvetica,sans-Serif" font-size="10.00">getMouth()</text>
<text text-anchor="start" x="123.88" y="-180" font-family="Helvetica,sans-Serif" font-size="10.00">+</text>
<text text-anchor="start" x="133.88" y="-180" font-family="Helvetica,sans-Serif" font-size="10.00">activateAutoBlink()</text>
<text text-anchor="start" x="123.88" y="-164.75" font-family="Helvetica,sans-Serif" font-size="10.00">+</text>
<text text-anchor="start" x="133.88" y="-164.75" font-family="Helvetica,sans-Serif" font-size="10.00">deactivateAutoBlink()</text>
<text text-anchor="start" x="123.88" y="-149.5" font-family="Helvetica,sans-Serif" font-size="10.00">+</text>
<text text-anchor="start" x="133.88" y="-149.5" font-family="Helvetica,sans-Serif" font-size="10.00">getIsAutoBlink()</text>
<text text-anchor="start" x="123.88" y="-134.25" font-family="Helvetica,sans-Serif" font-size="10.00">+</text>
<text text-anchor="start" x="133.88" y="-134.25" font-family="Helvetica,sans-Serif" font-size="10.00">autoScale()</text>
<text text-anchor="start" x="123.88" y="-119" font-family="Helvetica,sans-Serif" font-size="10.00">+</text>
<text text-anchor="start" x="133.88" y="-119" font-family="Helvetica,sans-Serif" font-size="10.00">updateState()</text>
<text text-anchor="start" x="123.88" y="-103.75" font-family="Helvetica,sans-Serif" font-size="10.00">+</text>
<text text-anchor="start" x="133.88" y="-103.75" font-family="Helvetica,sans-Serif" font-size="10.00">draw()</text>
<polygon fill="#bfbfbf" stroke="#bfbfbf" points="119.88,-344 119.88,-344 230.88,-344 230.88,-344 119.88,-344"/>
<polygon fill="#bfbfbf" stroke="#bfbfbf" points="119.88,-267.75 119.88,-267.75 131.88,-267.75 131.88,-267.75 119.88,-267.75"/>
<polygon fill="#bfbfbf" stroke="#bfbfbf" points="131.88,-267.75 131.88,-267.75 230.88,-267.75 230.88,-267.75 131.88,-267.75"/>
<polygon fill="none" stroke="#bfbfbf" points="119.88,-98 119.88,-372.5 230.88,-372.5 230.88,-98 119.88,-98"/>
</a>
</g>
</g>
<!-- Node2&#45;&gt;Node1 -->
<g id="edge1_Node000001_Node000002" class="edge">
<title>Node2&#45;&gt;Node1</title>
<g id="a_edge1_Node000001_Node000002"><a xlink:title=" ">
<path fill="none" stroke="#63b8ff" d="M175.38,-86.78C175.38,-77.33 175.38,-68.55 175.38,-60.9"/>
<polygon fill="none" stroke="#63b8ff" points="171.88,-86.66 175.38,-96.66 178.88,-86.66 171.88,-86.66"/>
</a>
</g>
</g>
<!-- Node3 -->
<g id="Node000003" class="node">
<title>Node3</title>
<g id="a_Node000003"><a xlink:href="classstackchan_1_1display_1_1_facial_drawable.html" target="_top" xlink:title=" ">
<polygon fill="white" stroke="none" points="209.12,-696.75 121.62,-696.75 121.62,-605.25 209.12,-605.25 209.12,-696.75"/>
<text text-anchor="start" x="125.62" y="-683.25" font-family="Helvetica,sans-Serif" font-size="10.00">stackchan::display</text>
<text text-anchor="start" x="129.75" y="-672" font-family="Helvetica,sans-Serif" font-size="10.00">::FacialDrawable</text>
<text text-anchor="start" x="163.88" y="-656.75" font-family="Helvetica,sans-Serif" font-size="10.00"> </text>
<text text-anchor="start" x="131.38" y="-641.5" font-family="Helvetica,sans-Serif" font-size="10.00">+</text>
<text text-anchor="start" x="147.12" y="-641.5" font-family="Helvetica,sans-Serif" font-size="10.00">draw()</text>
<text text-anchor="start" x="131.38" y="-626.25" font-family="Helvetica,sans-Serif" font-size="10.00">+</text>
<text text-anchor="start" x="147.12" y="-626.25" font-family="Helvetica,sans-Serif" font-size="10.00">Drawable()</text>
<text text-anchor="start" x="131.38" y="-611" font-family="Helvetica,sans-Serif" font-size="10.00">+</text>
<text text-anchor="start" x="147.12" y="-611" font-family="Helvetica,sans-Serif" font-size="10.00">Drawable()</text>
<polygon fill="#bfbfbf" stroke="#bfbfbf" points="121.62,-668.25 121.62,-668.25 209.12,-668.25 209.12,-668.25 121.62,-668.25"/>
<polygon fill="#bfbfbf" stroke="#bfbfbf" points="121.62,-653 121.62,-653 209.12,-653 209.12,-653 121.62,-653"/>
<polygon fill="none" stroke="#bfbfbf" points="121.62,-605.25 121.62,-696.75 209.12,-696.75 209.12,-605.25 121.62,-605.25"/>
</a>
</g>
</g>
<!-- Node3&#45;&gt;Node2 -->
<g id="edge2_Node000002_Node000003" class="edge">
<title>Node3&#45;&gt;Node2</title>
<g id="a_edge2_Node000002_Node000003"><a xlink:title=" ">
<path fill="none" stroke="#63b8ff" d="M215.6,-599.18C222.47,-589.58 228.49,-579.12 232.38,-568.25 254.72,-505.75 246.04,-433.4 229.46,-372.24"/>
<polygon fill="none" stroke="#63b8ff" points="212.99,-596.83 209.71,-606.9 218.56,-601.08 212.99,-596.83"/>
</a>
</g>
</g>
<!-- Node7 -->
<g id="Node000007" class="node">
<title>Node7</title>
<g id="a_Node000007"><a xlink:href="classstackchan_1_1display_1_1_base_eye.html" target="_top" xlink:title="Base class for Eye, draw nothing.">
<polygon fill="white" stroke="none" points="108.75,-568.25 0,-568.25 0,-431 108.75,-431 108.75,-568.25"/>
<text text-anchor="start" x="14.62" y="-554.75" font-family="Helvetica,sans-Serif" font-size="10.00">stackchan::display</text>
<text text-anchor="start" x="33" y="-543.5" font-family="Helvetica,sans-Serif" font-size="10.00">::BaseEye</text>
<text text-anchor="start" x="4.38" y="-528.25" font-family="Helvetica,sans-Serif" font-size="10.00">#</text>
<text text-anchor="start" x="14" y="-528.25" font-family="Helvetica,sans-Serif" font-size="10.00">is_left_</text>
<text text-anchor="start" x="4.38" y="-513" font-family="Helvetica,sans-Serif" font-size="10.00">#</text>
<text text-anchor="start" x="14" y="-513" font-family="Helvetica,sans-Serif" font-size="10.00">milli_sec_</text>
<text text-anchor="start" x="4.38" y="-497.75" font-family="Helvetica,sans-Serif" font-size="10.00">#</text>
<text text-anchor="start" x="14" y="-497.75" font-family="Helvetica,sans-Serif" font-size="10.00">last_saccade_millis_</text>
<text text-anchor="start" x="4.38" y="-482.5" font-family="Helvetica,sans-Serif" font-size="10.00">#</text>
<text text-anchor="start" x="14" y="-482.5" font-family="Helvetica,sans-Serif" font-size="10.00">saccade_interval_</text>
<text text-anchor="start" x="4" y="-467.25" font-family="Helvetica,sans-Serif" font-size="10.00">+</text>
<text text-anchor="start" x="14" y="-467.25" font-family="Helvetica,sans-Serif" font-size="10.00">BaseEye()</text>
<text text-anchor="start" x="4.38" y="-452" font-family="Helvetica,sans-Serif" font-size="10.00">#</text>
<text text-anchor="start" x="14" y="-452" font-family="Helvetica,sans-Serif" font-size="10.00">updateGaze()</text>
<text text-anchor="start" x="4.38" y="-436.75" font-family="Helvetica,sans-Serif" font-size="10.00">#</text>
<text text-anchor="start" x="14" y="-436.75" font-family="Helvetica,sans-Serif" font-size="10.00">updateSaccade()</text>
<polygon fill="#666666" stroke="#666666" points="0,-539.75 0,-539.75 108.75,-539.75 108.75,-539.75 0,-539.75"/>
<polygon fill="#666666" stroke="#666666" points="0,-478.75 0,-478.75 12,-478.75 12,-478.75 0,-478.75"/>
<polygon fill="#666666" stroke="#666666" points="12,-478.75 12,-478.75 108.75,-478.75 108.75,-478.75 12,-478.75"/>
<polygon fill="none" stroke="#666666" points="0,-431 0,-568.25 108.75,-568.25 108.75,-431 0,-431"/>
</a>
</g>
</g>
<!-- Node3&#45;&gt;Node7 -->
<g id="edge7_Node000007_Node000003" class="edge">
<title>Node3&#45;&gt;Node7</title>
<g id="a_edge7_Node000007_Node000003"><a xlink:title=" ">
<path fill="none" stroke="#63b8ff" d="M125.65,-596.55C118.8,-587.33 111.6,-577.64 104.52,-568.1"/>
<polygon fill="none" stroke="#63b8ff" points="122.7,-598.43 131.47,-604.37 128.31,-594.26 122.7,-598.43"/>
</a>
</g>
</g>
<!-- Node8 -->
<g id="Node000008" class="node">
<title>Node8</title>
<g id="a_Node000008"><a xlink:href="classstackchan_1_1display_1_1_base_mouth.html" target="_top" xlink:title=" ">
<polygon fill="white" stroke="none" points="223.75,-530.12 127,-530.12 127,-469.12 223.75,-469.12 223.75,-530.12"/>
<text text-anchor="start" x="135.62" y="-516.62" font-family="Helvetica,sans-Serif" font-size="10.00">stackchan::display</text>
<text text-anchor="start" x="148.38" y="-505.38" font-family="Helvetica,sans-Serif" font-size="10.00">::BaseMouth</text>
<text text-anchor="start" x="131" y="-490.12" font-family="Helvetica,sans-Serif" font-size="10.00">#</text>
<text text-anchor="start" x="140.25" y="-490.12" font-family="Helvetica,sans-Serif" font-size="10.00">breath_amplitude_</text>
<text text-anchor="start" x="173.88" y="-474.88" font-family="Helvetica,sans-Serif" font-size="10.00"> </text>
<polygon fill="#bfbfbf" stroke="#bfbfbf" points="127,-501.62 127,-501.62 223.75,-501.62 223.75,-501.62 127,-501.62"/>
<polygon fill="#bfbfbf" stroke="#bfbfbf" points="127,-486.38 127,-486.38 138.25,-486.38 138.25,-486.38 127,-486.38"/>
<polygon fill="#bfbfbf" stroke="#bfbfbf" points="138.25,-486.38 138.25,-486.38 223.75,-486.38 223.75,-486.38 138.25,-486.38"/>
<polygon fill="none" stroke="#bfbfbf" points="127,-469.12 127,-530.12 223.75,-530.12 223.75,-469.12 127,-469.12"/>
</a>
</g>
</g>
<!-- Node3&#45;&gt;Node8 -->
<g id="edge10_Node000008_Node000003" class="edge">
<title>Node3&#45;&gt;Node8</title>
<g id="a_edge10_Node000008_Node000003"><a xlink:title=" ">
<path fill="none" stroke="#63b8ff" d="M169.12,-594.11C170.58,-572.32 172.19,-548.26 173.41,-530"/>
<polygon fill="none" stroke="#63b8ff" points="165.63,-593.87 168.45,-604.08 172.61,-594.33 165.63,-593.87"/>
</a>
</g>
</g>
<!-- Node4 -->
<g id="Node000004" class="node">
<title>Node4</title>
<g id="a_Node000004"><a xlink:href="classstackchan_1_1display_1_1_drawable.html" target="_top" xlink:title=" ">
<polygon fill="white" stroke="none" points="215,-1021.75 113.75,-1021.75 113.75,-777.75 215,-777.75 215,-1021.75"/>
<text text-anchor="start" x="124.62" y="-1008.25" font-family="Helvetica,sans-Serif" font-size="10.00">stackchan::display</text>
<text text-anchor="start" x="141.88" y="-997" font-family="Helvetica,sans-Serif" font-size="10.00">::Drawable</text>
<text text-anchor="start" x="118.12" y="-981.75" font-family="Helvetica,sans-Serif" font-size="10.00">#</text>
<text text-anchor="start" x="127.75" y="-981.75" font-family="Helvetica,sans-Serif" font-size="10.00">rotation_</text>
<text text-anchor="start" x="118.12" y="-966.5" font-family="Helvetica,sans-Serif" font-size="10.00">#</text>
<text text-anchor="start" x="127.75" y="-966.5" font-family="Helvetica,sans-Serif" font-size="10.00">visible_</text>
<text text-anchor="start" x="118.12" y="-951.25" font-family="Helvetica,sans-Serif" font-size="10.00">#</text>
<text text-anchor="start" x="127.75" y="-951.25" font-family="Helvetica,sans-Serif" font-size="10.00">ignore_expression_</text>
<text text-anchor="start" x="117.75" y="-936" font-family="Helvetica,sans-Serif" font-size="10.00">+</text>
<text text-anchor="start" x="127.75" y="-936" font-family="Helvetica,sans-Serif" font-size="10.00">Drawable()</text>
<text text-anchor="start" x="117.75" y="-920.75" font-family="Helvetica,sans-Serif" font-size="10.00">+</text>
<text text-anchor="start" x="127.75" y="-920.75" font-family="Helvetica,sans-Serif" font-size="10.00">Drawable()</text>
<text text-anchor="start" x="117.75" y="-905.5" font-family="Helvetica,sans-Serif" font-size="10.00">+</text>
<text text-anchor="start" x="127.75" y="-905.5" font-family="Helvetica,sans-Serif" font-size="10.00">~Drawable()</text>
<text text-anchor="start" x="117.75" y="-890.25" font-family="Helvetica,sans-Serif" font-size="10.00">+</text>
<text text-anchor="start" x="127.75" y="-890.25" font-family="Helvetica,sans-Serif" font-size="10.00">setPosition()</text>
<text text-anchor="start" x="117.75" y="-875" font-family="Helvetica,sans-Serif" font-size="10.00">+</text>
<text text-anchor="start" x="127.75" y="-875" font-family="Helvetica,sans-Serif" font-size="10.00">getPosition()</text>
<text text-anchor="start" x="117.75" y="-859.75" font-family="Helvetica,sans-Serif" font-size="10.00">+</text>
<text text-anchor="start" x="127.75" y="-859.75" font-family="Helvetica,sans-Serif" font-size="10.00">setRotation()</text>
<text text-anchor="start" x="117.75" y="-844.5" font-family="Helvetica,sans-Serif" font-size="10.00">+</text>
<text text-anchor="start" x="127.75" y="-844.5" font-family="Helvetica,sans-Serif" font-size="10.00">getRotation()</text>
<text text-anchor="start" x="117.75" y="-829.25" font-family="Helvetica,sans-Serif" font-size="10.00">+</text>
<text text-anchor="start" x="127.75" y="-829.25" font-family="Helvetica,sans-Serif" font-size="10.00">setSize()</text>
<text text-anchor="start" x="117.75" y="-814" font-family="Helvetica,sans-Serif" font-size="10.00">+</text>
<text text-anchor="start" x="127.75" y="-814" font-family="Helvetica,sans-Serif" font-size="10.00">getSize()</text>
<text text-anchor="start" x="117.75" y="-798.75" font-family="Helvetica,sans-Serif" font-size="10.00">+</text>
<text text-anchor="start" x="127.75" y="-798.75" font-family="Helvetica,sans-Serif" font-size="10.00">setVisible()</text>
<text text-anchor="start" x="127.75" y="-783.5" font-family="Helvetica,sans-Serif" font-size="10.00">and 7 more...</text>
<polygon fill="#bfbfbf" stroke="#bfbfbf" points="113.75,-993.25 113.75,-993.25 215,-993.25 215,-993.25 113.75,-993.25"/>
<polygon fill="#bfbfbf" stroke="#bfbfbf" points="113.75,-947.5 113.75,-947.5 125.75,-947.5 125.75,-947.5 113.75,-947.5"/>
<polygon fill="#bfbfbf" stroke="#bfbfbf" points="125.75,-947.5 125.75,-947.5 215,-947.5 215,-947.5 125.75,-947.5"/>
<polygon fill="none" stroke="#bfbfbf" points="113.75,-777.75 113.75,-1021.75 215,-1021.75 215,-777.75 113.75,-777.75"/>
</a>
</g>
</g>
<!-- Node4&#45;&gt;Node3 -->
<g id="edge3_Node000003_Node000004" class="edge">
<title>Node4&#45;&gt;Node3</title>
<g id="a_edge3_Node000003_Node000004"><a xlink:title=" ">
<path fill="none" stroke="#63b8ff" d="M164.91,-766.67C165.01,-741.41 165.11,-716.63 165.19,-696.61"/>
<polygon fill="none" stroke="#63b8ff" points="161.41,-766.38 164.87,-776.39 168.41,-766.41 161.41,-766.38"/>
</a>
</g>
</g>
<!-- Node5 -->
<g id="Node000005" class="node">
<title>Node5</title>
<g id="a_Node000005"><a xlink:href="classm5_1_1_vector2i.html" target="_top" xlink:title=" ">
<polygon fill="white" stroke="none" points="105,-1332.25 33.75,-1332.25 33.75,-1069 105,-1069 105,-1332.25"/>
<text text-anchor="start" x="42.38" y="-1318.75" font-family="Helvetica,sans-Serif" font-size="10.00">m5::Vector2i</text>
<text text-anchor="start" x="37.75" y="-1303.5" font-family="Helvetica,sans-Serif" font-size="10.00">+</text>
<text text-anchor="start" x="47.75" y="-1303.5" font-family="Helvetica,sans-Serif" font-size="10.00">x</text>
<text text-anchor="start" x="37.75" y="-1288.25" font-family="Helvetica,sans-Serif" font-size="10.00">+</text>
<text text-anchor="start" x="47.75" y="-1288.25" font-family="Helvetica,sans-Serif" font-size="10.00">y</text>
<text text-anchor="start" x="37.75" y="-1273" font-family="Helvetica,sans-Serif" font-size="10.00">+</text>
<text text-anchor="start" x="47.75" y="-1273" font-family="Helvetica,sans-Serif" font-size="10.00">Vector2i()</text>
<text text-anchor="start" x="37.75" y="-1257.75" font-family="Helvetica,sans-Serif" font-size="10.00">+</text>
<text text-anchor="start" x="47.75" y="-1257.75" font-family="Helvetica,sans-Serif" font-size="10.00">Vector2i()</text>
<text text-anchor="start" x="37.75" y="-1242.5" font-family="Helvetica,sans-Serif" font-size="10.00">+</text>
<text text-anchor="start" x="47.75" y="-1242.5" font-family="Helvetica,sans-Serif" font-size="10.00">operator+()</text>
<text text-anchor="start" x="37.75" y="-1227.25" font-family="Helvetica,sans-Serif" font-size="10.00">+</text>
<text text-anchor="start" x="47.75" y="-1227.25" font-family="Helvetica,sans-Serif" font-size="10.00">operator&#45;()</text>
<text text-anchor="start" x="37.75" y="-1212" font-family="Helvetica,sans-Serif" font-size="10.00">+</text>
<text text-anchor="start" x="47.75" y="-1212" font-family="Helvetica,sans-Serif" font-size="10.00">operator*()</text>
<text text-anchor="start" x="37.75" y="-1196.75" font-family="Helvetica,sans-Serif" font-size="10.00">+</text>
<text text-anchor="start" x="47.75" y="-1196.75" font-family="Helvetica,sans-Serif" font-size="10.00">operator/()</text>
<text text-anchor="start" x="37.75" y="-1181.5" font-family="Helvetica,sans-Serif" font-size="10.00">+</text>
<text text-anchor="start" x="47.75" y="-1181.5" font-family="Helvetica,sans-Serif" font-size="10.00">operator+=()</text>
<text text-anchor="start" x="37.75" y="-1166.25" font-family="Helvetica,sans-Serif" font-size="10.00">+</text>
<text text-anchor="start" x="47.75" y="-1166.25" font-family="Helvetica,sans-Serif" font-size="10.00">operator&#45;=()</text>
<text text-anchor="start" x="37.75" y="-1151" font-family="Helvetica,sans-Serif" font-size="10.00">+</text>
<text text-anchor="start" x="47.75" y="-1151" font-family="Helvetica,sans-Serif" font-size="10.00">operator*=()</text>
<text text-anchor="start" x="37.75" y="-1135.75" font-family="Helvetica,sans-Serif" font-size="10.00">+</text>
<text text-anchor="start" x="47.75" y="-1135.75" font-family="Helvetica,sans-Serif" font-size="10.00">operator/=()</text>
<text text-anchor="start" x="37.75" y="-1120.5" font-family="Helvetica,sans-Serif" font-size="10.00">+</text>
<text text-anchor="start" x="47.75" y="-1120.5" font-family="Helvetica,sans-Serif" font-size="10.00">operator==()</text>
<text text-anchor="start" x="37.75" y="-1105.25" font-family="Helvetica,sans-Serif" font-size="10.00">+</text>
<text text-anchor="start" x="47.75" y="-1105.25" font-family="Helvetica,sans-Serif" font-size="10.00">operator!=()</text>
<text text-anchor="start" x="37.75" y="-1090" font-family="Helvetica,sans-Serif" font-size="10.00">+</text>
<text text-anchor="start" x="47.75" y="-1090" font-family="Helvetica,sans-Serif" font-size="10.00">dot()</text>
<text text-anchor="start" x="37.75" y="-1074.75" font-family="Helvetica,sans-Serif" font-size="10.00">+</text>
<text text-anchor="start" x="47.75" y="-1074.75" font-family="Helvetica,sans-Serif" font-size="10.00">clamp()</text>
<polygon fill="#bfbfbf" stroke="#bfbfbf" points="33.75,-1315 33.75,-1315 105,-1315 105,-1315 33.75,-1315"/>
<polygon fill="#bfbfbf" stroke="#bfbfbf" points="33.75,-1284.5 33.75,-1284.5 45.75,-1284.5 45.75,-1284.5 33.75,-1284.5"/>
<polygon fill="#bfbfbf" stroke="#bfbfbf" points="45.75,-1284.5 45.75,-1284.5 105,-1284.5 105,-1284.5 45.75,-1284.5"/>
<polygon fill="none" stroke="#bfbfbf" points="33.75,-1069 33.75,-1332.25 105,-1332.25 105,-1069 33.75,-1069"/>
</a>
</g>
</g>
<!-- Node5&#45;&gt;Node4 -->
<g id="edge4_Node000004_Node000005" class="edge">
<title>Node5&#45;&gt;Node4</title>
<g id="a_edge4_Node000004_Node000005"><a xlink:title=" ">
<path fill="none" stroke="#63b8ff" d="M104.73,-1069.37C107.73,-1059.32 110.8,-1049.35 113.88,-1039.75 114.5,-1037.78 115.14,-1035.81 115.79,-1033.81"/>
<polygon fill="none" stroke="#63b8ff" points="115.82,-1033.72 113.91,-1026.77 119.6,-1022.33 121.51,-1029.29 115.82,-1033.72"/>
</a>
</g>
<text text-anchor="middle" x="137.12" y="-1041.5" font-family="Helvetica,sans-Serif" font-size="10.00" fill="grey"> #position_</text>
</g>
<!-- Node5&#45;&gt;Node7 -->
<g id="edge8_Node000007_Node000005" class="edge">
<title>Node5&#45;&gt;Node7</title>
<g id="a_edge8_Node000007_Node000005"><a xlink:title=" ">
<path fill="none" stroke="#63b8ff" d="M66.58,-1069.38C63.5,-926.04 58.66,-700.17 56.09,-580.77"/>
<polygon fill="none" stroke="#63b8ff" points="56.09,-580.7 51.97,-574.78 55.84,-568.7 59.96,-574.61 56.09,-580.7"/>
</a>
</g>
<text text-anchor="middle" x="97.78" y="-750.25" font-family="Helvetica,sans-Serif" font-size="10.00" fill="grey"> #gaze_</text>
<text text-anchor="start" x="59.91" y="-739" font-family="Helvetica,sans-Serif" font-size="10.00" fill="grey">#iris_position</text>
<text text-anchor="middle" x="97.78" y="-727.75" font-family="Helvetica,sans-Serif" font-size="10.00" fill="grey">_</text>
<text text-anchor="middle" x="97.78" y="-716.5" font-family="Helvetica,sans-Serif" font-size="10.00" fill="grey">#saccade_noise_</text>
</g>
<!-- Node6 -->
<g id="Node000006" class="node">
<title>Node6</title>
<g id="a_Node000006"><a xlink:href="classm5_1_1_size2i.html" target="_top" xlink:title=" ">
<polygon fill="white" stroke="none" points="198.88,-1278.88 129.88,-1278.88 129.88,-1122.38 198.88,-1122.38 198.88,-1278.88"/>
<text text-anchor="start" x="142.25" y="-1265.38" font-family="Helvetica,sans-Serif" font-size="10.00">m5::Size2i</text>
<text text-anchor="start" x="133.88" y="-1250.12" font-family="Helvetica,sans-Serif" font-size="10.00">+</text>
<text text-anchor="start" x="143.88" y="-1250.12" font-family="Helvetica,sans-Serif" font-size="10.00">width</text>
<text text-anchor="start" x="133.88" y="-1234.88" font-family="Helvetica,sans-Serif" font-size="10.00">+</text>
<text text-anchor="start" x="143.88" y="-1234.88" font-family="Helvetica,sans-Serif" font-size="10.00">height</text>
<text text-anchor="start" x="133.88" y="-1219.62" font-family="Helvetica,sans-Serif" font-size="10.00">+</text>
<text text-anchor="start" x="143.88" y="-1219.62" font-family="Helvetica,sans-Serif" font-size="10.00">Size2i()</text>
<text text-anchor="start" x="133.88" y="-1204.38" font-family="Helvetica,sans-Serif" font-size="10.00">+</text>
<text text-anchor="start" x="143.88" y="-1204.38" font-family="Helvetica,sans-Serif" font-size="10.00">Size2i()</text>
<text text-anchor="start" x="133.88" y="-1189.12" font-family="Helvetica,sans-Serif" font-size="10.00">+</text>
<text text-anchor="start" x="143.88" y="-1189.12" font-family="Helvetica,sans-Serif" font-size="10.00">operator*=()</text>
<text text-anchor="start" x="133.88" y="-1173.88" font-family="Helvetica,sans-Serif" font-size="10.00">+</text>
<text text-anchor="start" x="143.88" y="-1173.88" font-family="Helvetica,sans-Serif" font-size="10.00">operator*()</text>
<text text-anchor="start" x="133.88" y="-1158.62" font-family="Helvetica,sans-Serif" font-size="10.00">+</text>
<text text-anchor="start" x="143.88" y="-1158.62" font-family="Helvetica,sans-Serif" font-size="10.00">area()</text>
<text text-anchor="start" x="133.88" y="-1143.38" font-family="Helvetica,sans-Serif" font-size="10.00">+</text>
<text text-anchor="start" x="143.88" y="-1143.38" font-family="Helvetica,sans-Serif" font-size="10.00">max()</text>
<text text-anchor="start" x="133.88" y="-1128.12" font-family="Helvetica,sans-Serif" font-size="10.00">+</text>
<text text-anchor="start" x="143.88" y="-1128.12" font-family="Helvetica,sans-Serif" font-size="10.00">min()</text>
<polygon fill="#bfbfbf" stroke="#bfbfbf" points="129.88,-1261.62 129.88,-1261.62 198.88,-1261.62 198.88,-1261.62 129.88,-1261.62"/>
<polygon fill="#bfbfbf" stroke="#bfbfbf" points="129.88,-1231.12 129.88,-1231.12 141.88,-1231.12 141.88,-1231.12 129.88,-1231.12"/>
<polygon fill="#bfbfbf" stroke="#bfbfbf" points="141.88,-1231.12 141.88,-1231.12 198.88,-1231.12 198.88,-1231.12 141.88,-1231.12"/>
<polygon fill="none" stroke="#bfbfbf" points="129.88,-1122.38 129.88,-1278.88 198.88,-1278.88 198.88,-1122.38 129.88,-1122.38"/>
</a>
</g>
</g>
<!-- Node6&#45;&gt;Node4 -->
<g id="edge5_Node000004_Node000006" class="edge">
<title>Node6&#45;&gt;Node4</title>
<g id="a_edge5_Node000004_Node000006"><a xlink:title=" ">
<path fill="none" stroke="#63b8ff" d="M164.38,-1122.66C164.38,-1095.72 164.38,-1064.64 164.38,-1034.42"/>
<polygon fill="none" stroke="#63b8ff" points="164.38,-1034.44 160.38,-1028.44 164.38,-1022.44 168.38,-1028.44 164.38,-1034.44"/>
</a>
</g>
<text text-anchor="middle" x="179.38" y="-1041.5" font-family="Helvetica,sans-Serif" font-size="10.00" fill="grey"> #size_</text>
</g>
<!-- Node7&#45;&gt;Node2 -->
<g id="edge6_Node000002_Node000007" class="edge">
<title>Node7&#45;&gt;Node2</title>
<g id="a_edge6_Node000002_Node000007"><a xlink:title=" ">
<path fill="none" stroke="#63b8ff" d="M85.54,-431.06C94.44,-411.75 104.46,-390.02 114.5,-368.26"/>
<polygon fill="none" stroke="#63b8ff" points="114.5,-368.25 113.38,-361.13 119.52,-357.36 120.64,-364.48 114.5,-368.25"/>
</a>
</g>
<text text-anchor="middle" x="128.79" y="-403.5" font-family="Helvetica,sans-Serif" font-size="10.00" fill="grey"> #left_eye_</text>
<text text-anchor="middle" x="128.79" y="-392.25" font-family="Helvetica,sans-Serif" font-size="10.00" fill="grey">#right_eye_</text>
</g>
<!-- Node8&#45;&gt;Node2 -->
<g id="edge9_Node000002_Node000008" class="edge">
<title>Node8&#45;&gt;Node2</title>
<g id="a_edge9_Node000002_Node000008"><a xlink:title=" ">
<path fill="none" stroke="#63b8ff" d="M175.38,-469.29C175.38,-447.98 175.38,-417.37 175.38,-385.3"/>
<polygon fill="none" stroke="#63b8ff" points="175.38,-385.37 171.38,-379.37 175.38,-373.37 179.38,-379.37 175.38,-385.37"/>
</a>
</g>
<text text-anchor="middle" x="195.25" y="-397.88" font-family="Helvetica,sans-Serif" font-size="10.00" fill="grey"> #mouth_</text>
</g>
</g>
</svg>
