<?xml version="1.0" encoding="UTF-8" standalone="no"?>
<!DOCTYPE svg PUBLIC "-//W3C//DTD SVG 1.1//EN"
 "http://www.w3.org/Graphics/SVG/1.1/DTD/svg11.dtd">
<!-- Generated by graphviz version 12.2.0 (20241103.1931)
 -->
<!-- Title: stackchan::display::Drawable Pages: 1 -->
<!--zoomable 1031 -->

<svg id="main" version="1.1" xmlns="http://www.w3.org/2000/svg" xmlns:xlink="http://www.w3.org/1999/xlink" xml:space="preserve" onload="init(evt)">

<style type="text/css"><![CDATA[
.node, .edge {opacity: 0.7;}
.node.selected, .edge.selected {opacity: 1;}
.edge:hover path { stroke: red; }
.edge:hover polygon { stroke: red; fill: red; }
]]></style>

<defs>
  <circle id="rim" cx="0" cy="0" r="7"/>
  <circle id="rim2" cx="0" cy="0" r="3.5"/>
  <g id="zoomPlus">
    <use xlink:href="#rim" fill="#404040"><set attributeName="fill" to="#808080" begin="zoomplus.mouseover" end="zoomplus.mouseout"/></use>
    <path d="M-4,0h8M0,-4v8" fill="none" stroke="white" stroke-width="1.5" pointer-events="none"/>
  </g>
  <g id="zoomMin">
    <use xlink:href="#rim" fill="#404040"><set attributeName="fill" to="#808080" begin="zoomminus.mouseover" end="zoomminus.mouseout"/></use>
    <path d="M-4,0h8" fill="none" stroke="white" stroke-width="1.5" pointer-events="none"/>
  </g>
  <g id="arrowUp" transform="translate(30 24)">
    <use xlink:href="#rim"/>
    <path pointer-events="none" fill="none" stroke="white" stroke-width="1.5" d="M0,-3.0v7 M-2.5,-0.5L0,-3.0L2.5,-0.5"/>
  </g>
  <g id="arrowRight" transform="rotate(90) translate(36 -43)">
    <use xlink:href="#rim"/>
    <path pointer-events="none" fill="none" stroke="white" stroke-width="1.5" d="M0,-3.0v7 M-2.5,-0.5L0,-3.0L2.5,-0.5"/>
  </g>
  <g id="arrowDown" transform="rotate(180) translate(-30 -48)">
    <use xlink:href="#rim"/>
    <path pointer-events="none" fill="none" stroke="white" stroke-width="1.5" d="M0,-3.0v7 M-2.5,-0.5L0,-3.0L2.5,-0.5"/>
  </g>
  <g id="arrowLeft" transform="rotate(270) translate(-36 17)">
    <use xlink:href="#rim"/>
    <path pointer-events="none" fill="none" stroke="white" stroke-width="1.5" d="M0,-3.0v7 M-2.5,-0.5L0,-3.0L2.5,-0.5"/>
  </g>
  <g id="resetDef">
    <use xlink:href="#rim2" fill="#404040"><set attributeName="fill" to="#808080" begin="reset.mouseover" end="reset.mouseout"/></use>
  </g>
</defs>
<script type="application/ecmascript">
var viewWidth = 1431;
var viewHeight = 1031;
var sectionId = 'dynsection-0';
</script>
<script type="application/ecmascript" xlink:href="svg.min.js"/>
<svg id="graph" class="graph">
<g id="viewport">
<title>stackchan::display::Drawable</title>
<!-- Node1 -->
<g id="Node000001" class="node">
<title>Node1</title>
<g id="a_Node000001"><a xlink:title=" ">
<polygon fill="#999999" stroke="none" points="900.38,-1023 799.12,-1023 799.12,-748.5 900.38,-748.5 900.38,-1023"/>
<text text-anchor="start" x="810" y="-1009.5" font-family="Helvetica,sans-Serif" font-size="10.00">stackchan::display</text>
<text text-anchor="start" x="827.25" y="-998.25" font-family="Helvetica,sans-Serif" font-size="10.00">::Drawable</text>
<text text-anchor="start" x="803.5" y="-983" font-family="Helvetica,sans-Serif" font-size="10.00">#</text>
<text text-anchor="start" x="813.12" y="-983" font-family="Helvetica,sans-Serif" font-size="10.00">position_</text>
<text text-anchor="start" x="803.5" y="-967.75" font-family="Helvetica,sans-Serif" font-size="10.00">#</text>
<text text-anchor="start" x="813.12" y="-967.75" font-family="Helvetica,sans-Serif" font-size="10.00">rotation_</text>
<text text-anchor="start" x="803.5" y="-952.5" font-family="Helvetica,sans-Serif" font-size="10.00">#</text>
<text text-anchor="start" x="813.12" y="-952.5" font-family="Helvetica,sans-Serif" font-size="10.00">size_</text>
<text text-anchor="start" x="803.5" y="-937.25" font-family="Helvetica,sans-Serif" font-size="10.00">#</text>
<text text-anchor="start" x="813.12" y="-937.25" font-family="Helvetica,sans-Serif" font-size="10.00">visible_</text>
<text text-anchor="start" x="803.5" y="-922" font-family="Helvetica,sans-Serif" font-size="10.00">#</text>
<text text-anchor="start" x="813.12" y="-922" font-family="Helvetica,sans-Serif" font-size="10.00">ignore_expression_</text>
<text text-anchor="start" x="803.12" y="-906.75" font-family="Helvetica,sans-Serif" font-size="10.00">+</text>
<text text-anchor="start" x="813.12" y="-906.75" font-family="Helvetica,sans-Serif" font-size="10.00">Drawable()</text>
<text text-anchor="start" x="803.12" y="-891.5" font-family="Helvetica,sans-Serif" font-size="10.00">+</text>
<text text-anchor="start" x="813.12" y="-891.5" font-family="Helvetica,sans-Serif" font-size="10.00">Drawable()</text>
<text text-anchor="start" x="803.12" y="-876.25" font-family="Helvetica,sans-Serif" font-size="10.00">+</text>
<text text-anchor="start" x="813.12" y="-876.25" font-family="Helvetica,sans-Serif" font-size="10.00">~Drawable()</text>
<text text-anchor="start" x="803.12" y="-861" font-family="Helvetica,sans-Serif" font-size="10.00">+</text>
<text text-anchor="start" x="813.12" y="-861" font-family="Helvetica,sans-Serif" font-size="10.00">setPosition()</text>
<text text-anchor="start" x="803.12" y="-845.75" font-family="Helvetica,sans-Serif" font-size="10.00">+</text>
<text text-anchor="start" x="813.12" y="-845.75" font-family="Helvetica,sans-Serif" font-size="10.00">getPosition()</text>
<text text-anchor="start" x="803.12" y="-830.5" font-family="Helvetica,sans-Serif" font-size="10.00">+</text>
<text text-anchor="start" x="813.12" y="-830.5" font-family="Helvetica,sans-Serif" font-size="10.00">setRotation()</text>
<text text-anchor="start" x="803.12" y="-815.25" font-family="Helvetica,sans-Serif" font-size="10.00">+</text>
<text text-anchor="start" x="813.12" y="-815.25" font-family="Helvetica,sans-Serif" font-size="10.00">getRotation()</text>
<text text-anchor="start" x="803.12" y="-800" font-family="Helvetica,sans-Serif" font-size="10.00">+</text>
<text text-anchor="start" x="813.12" y="-800" font-family="Helvetica,sans-Serif" font-size="10.00">setSize()</text>
<text text-anchor="start" x="803.12" y="-784.75" font-family="Helvetica,sans-Serif" font-size="10.00">+</text>
<text text-anchor="start" x="813.12" y="-784.75" font-family="Helvetica,sans-Serif" font-size="10.00">getSize()</text>
<text text-anchor="start" x="803.12" y="-769.5" font-family="Helvetica,sans-Serif" font-size="10.00">+</text>
<text text-anchor="start" x="813.12" y="-769.5" font-family="Helvetica,sans-Serif" font-size="10.00">setVisible()</text>
<text text-anchor="start" x="813.12" y="-754.25" font-family="Helvetica,sans-Serif" font-size="10.00">and 7 more...</text>
<polygon fill="#666666" stroke="#666666" points="799.12,-994.5 799.12,-994.5 900.38,-994.5 900.38,-994.5 799.12,-994.5"/>
<polygon fill="#666666" stroke="#666666" points="799.12,-918.25 799.12,-918.25 811.12,-918.25 811.12,-918.25 799.12,-918.25"/>
<polygon fill="#666666" stroke="#666666" points="811.12,-918.25 811.12,-918.25 900.38,-918.25 900.38,-918.25 811.12,-918.25"/>
<polygon fill="none" stroke="#666666" points="799.12,-748.5 799.12,-1023 900.38,-1023 900.38,-748.5 799.12,-748.5"/>
</a>
</g>
</g>
<!-- Node2 -->
<g id="Node000002" class="node">
<title>Node2</title>
<g id="a_Node000002"><a xlink:href="classstackchan_1_1display_1_1_facial_drawable.html" target="_top" xlink:title=" ">
<polygon fill="white" stroke="none" points="839.5,-674.38 752,-674.38 752,-582.88 839.5,-582.88 839.5,-674.38"/>
<text text-anchor="start" x="756" y="-660.88" font-family="Helvetica,sans-Serif" font-size="10.00">stackchan::display</text>
<text text-anchor="start" x="760.12" y="-649.62" font-family="Helvetica,sans-Serif" font-size="10.00">::FacialDrawable</text>
<text text-anchor="start" x="794.25" y="-634.38" font-family="Helvetica,sans-Serif" font-size="10.00"> </text>
<text text-anchor="start" x="761.75" y="-619.12" font-family="Helvetica,sans-Serif" font-size="10.00">+</text>
<text text-anchor="start" x="777.5" y="-619.12" font-family="Helvetica,sans-Serif" font-size="10.00">draw()</text>
<text text-anchor="start" x="761.75" y="-603.88" font-family="Helvetica,sans-Serif" font-size="10.00">+</text>
<text text-anchor="start" x="777.5" y="-603.88" font-family="Helvetica,sans-Serif" font-size="10.00">Drawable()</text>
<text text-anchor="start" x="761.75" y="-588.62" font-family="Helvetica,sans-Serif" font-size="10.00">+</text>
<text text-anchor="start" x="777.5" y="-588.62" font-family="Helvetica,sans-Serif" font-size="10.00">Drawable()</text>
<polygon fill="#bfbfbf" stroke="#bfbfbf" points="752,-645.88 752,-645.88 839.5,-645.88 839.5,-645.88 752,-645.88"/>
<polygon fill="#bfbfbf" stroke="#bfbfbf" points="752,-630.62 752,-630.62 839.5,-630.62 839.5,-630.62 752,-630.62"/>
<polygon fill="none" stroke="#bfbfbf" points="752,-582.88 752,-674.38 839.5,-674.38 839.5,-582.88 752,-582.88"/>
</a>
</g>
</g>
<!-- Node1&#45;&gt;Node2 -->
<g id="edge1_Node000001_Node000002" class="edge">
<title>Node1&#45;&gt;Node2</title>
<g id="a_edge1_Node000001_Node000002"><a xlink:title=" ">
<path fill="none" stroke="#63b8ff" d="M818.6,-737.58C813.72,-714.52 809.02,-692.32 805.17,-674.12"/>
<polygon fill="none" stroke="#63b8ff" points="815.12,-738.06 820.62,-747.12 821.97,-736.61 815.12,-738.06"/>
</a>
</g>
</g>
<!-- Node18 -->
<g id="Node000018" class="node">
<title>Node18</title>
<g id="a_Node000018"><a xlink:href="classstackchan_1_1display_1_1_speech_balloon.html" target="_top" xlink:title=" ">
<polygon fill="white" stroke="none" points="952,-712.5 857.5,-712.5 857.5,-544.75 952,-544.75 952,-712.5"/>
<text text-anchor="start" x="865" y="-699" font-family="Helvetica,sans-Serif" font-size="10.00">stackchan::display</text>
<text text-anchor="start" x="869.88" y="-687.75" font-family="Helvetica,sans-Serif" font-size="10.00">::SpeechBalloon</text>
<text text-anchor="start" x="861.88" y="-672.5" font-family="Helvetica,sans-Serif" font-size="10.00">#</text>
<text text-anchor="start" x="871.5" y="-672.5" font-family="Helvetica,sans-Serif" font-size="10.00">text_</text>
<text text-anchor="start" x="861.88" y="-657.25" font-family="Helvetica,sans-Serif" font-size="10.00">#</text>
<text text-anchor="start" x="871.5" y="-657.25" font-family="Helvetica,sans-Serif" font-size="10.00">font_</text>
<text text-anchor="start" x="861.5" y="-642" font-family="Helvetica,sans-Serif" font-size="10.00">+</text>
<text text-anchor="start" x="871.5" y="-642" font-family="Helvetica,sans-Serif" font-size="10.00">SpeechBalloon()</text>
<text text-anchor="start" x="861.5" y="-626.75" font-family="Helvetica,sans-Serif" font-size="10.00">+</text>
<text text-anchor="start" x="871.5" y="-626.75" font-family="Helvetica,sans-Serif" font-size="10.00">~SpeechBalloon()</text>
<text text-anchor="start" x="861.5" y="-611.5" font-family="Helvetica,sans-Serif" font-size="10.00">+</text>
<text text-anchor="start" x="871.5" y="-611.5" font-family="Helvetica,sans-Serif" font-size="10.00">SpeechBalloon()</text>
<text text-anchor="start" x="861.5" y="-596.25" font-family="Helvetica,sans-Serif" font-size="10.00">+</text>
<text text-anchor="start" x="871.5" y="-596.25" font-family="Helvetica,sans-Serif" font-size="10.00">operator=()</text>
<text text-anchor="start" x="861.5" y="-581" font-family="Helvetica,sans-Serif" font-size="10.00">+</text>
<text text-anchor="start" x="871.5" y="-581" font-family="Helvetica,sans-Serif" font-size="10.00">setText()</text>
<text text-anchor="start" x="861.5" y="-565.75" font-family="Helvetica,sans-Serif" font-size="10.00">+</text>
<text text-anchor="start" x="871.5" y="-565.75" font-family="Helvetica,sans-Serif" font-size="10.00">draw()</text>
<text text-anchor="start" x="861.5" y="-550.5" font-family="Helvetica,sans-Serif" font-size="10.00">+</text>
<text text-anchor="start" x="871.5" y="-550.5" font-family="Helvetica,sans-Serif" font-size="10.00">draw()</text>
<polygon fill="#bfbfbf" stroke="#bfbfbf" points="857.5,-684 857.5,-684 952,-684 952,-684 857.5,-684"/>
<polygon fill="#bfbfbf" stroke="#bfbfbf" points="857.5,-653.5 857.5,-653.5 869.5,-653.5 869.5,-653.5 857.5,-653.5"/>
<polygon fill="#bfbfbf" stroke="#bfbfbf" points="869.5,-653.5 869.5,-653.5 952,-653.5 952,-653.5 869.5,-653.5"/>
<polygon fill="none" stroke="#bfbfbf" points="857.5,-544.75 857.5,-712.5 952,-712.5 952,-544.75 857.5,-544.75"/>
</a>
</g>
</g>
<!-- Node1&#45;&gt;Node18 -->
<g id="edge17_Node000001_Node000018" class="edge">
<title>Node1&#45;&gt;Node18</title>
<g id="a_edge17_Node000001_Node000018"><a xlink:title=" ">
<path fill="none" stroke="#63b8ff" d="M881.53,-737.35C883.36,-728.84 885.17,-720.45 886.92,-712.34"/>
<polygon fill="none" stroke="#63b8ff" points="878.11,-736.61 879.42,-747.12 884.95,-738.08 878.11,-736.61"/>
</a>
</g>
</g>
<!-- Node3 -->
<g id="Node000003" class="node">
<title>Node3</title>
<g id="a_Node000003"><a xlink:href="classstackchan_1_1display_1_1_base_eye.html" target="_top" xlink:title="Base class for Eye, draw nothing.">
<polygon fill="white" stroke="none" points="402.12,-447.75 293.38,-447.75 293.38,-249.5 402.12,-249.5 402.12,-447.75"/>
<text text-anchor="start" x="308" y="-434.25" font-family="Helvetica,sans-Serif" font-size="10.00">stackchan::display</text>
<text text-anchor="start" x="326.38" y="-423" font-family="Helvetica,sans-Serif" font-size="10.00">::BaseEye</text>
<text text-anchor="start" x="297.75" y="-407.75" font-family="Helvetica,sans-Serif" font-size="10.00">#</text>
<text text-anchor="start" x="307.38" y="-407.75" font-family="Helvetica,sans-Serif" font-size="10.00">is_left_</text>
<text text-anchor="start" x="297.75" y="-392.5" font-family="Helvetica,sans-Serif" font-size="10.00">#</text>
<text text-anchor="start" x="307.38" y="-392.5" font-family="Helvetica,sans-Serif" font-size="10.00">gaze_</text>
<text text-anchor="start" x="297.75" y="-377.25" font-family="Helvetica,sans-Serif" font-size="10.00">#</text>
<text text-anchor="start" x="307.38" y="-377.25" font-family="Helvetica,sans-Serif" font-size="10.00">iris_position_</text>
<text text-anchor="start" x="297.75" y="-362" font-family="Helvetica,sans-Serif" font-size="10.00">#</text>
<text text-anchor="start" x="307.38" y="-362" font-family="Helvetica,sans-Serif" font-size="10.00">milli_sec_</text>
<text text-anchor="start" x="297.75" y="-346.75" font-family="Helvetica,sans-Serif" font-size="10.00">#</text>
<text text-anchor="start" x="307.38" y="-346.75" font-family="Helvetica,sans-Serif" font-size="10.00">last_saccade_millis_</text>
<text text-anchor="start" x="297.75" y="-331.5" font-family="Helvetica,sans-Serif" font-size="10.00">#</text>
<text text-anchor="start" x="307.38" y="-331.5" font-family="Helvetica,sans-Serif" font-size="10.00">saccade_interval_</text>
<text text-anchor="start" x="297.75" y="-316.25" font-family="Helvetica,sans-Serif" font-size="10.00">#</text>
<text text-anchor="start" x="307.38" y="-316.25" font-family="Helvetica,sans-Serif" font-size="10.00">saccade_noise_</text>
<text text-anchor="start" x="297.38" y="-301" font-family="Helvetica,sans-Serif" font-size="10.00">+</text>
<text text-anchor="start" x="307.38" y="-301" font-family="Helvetica,sans-Serif" font-size="10.00">BaseEye()</text>
<text text-anchor="start" x="297.75" y="-285.75" font-family="Helvetica,sans-Serif" font-size="10.00">#</text>
<text text-anchor="start" x="307.38" y="-285.75" font-family="Helvetica,sans-Serif" font-size="10.00">updateGaze()</text>
<text text-anchor="start" x="297.75" y="-270.5" font-family="Helvetica,sans-Serif" font-size="10.00">#</text>
<text text-anchor="start" x="307.38" y="-270.5" font-family="Helvetica,sans-Serif" font-size="10.00">updateSaccade()</text>
<text text-anchor="start" x="297.75" y="-255.25" font-family="Helvetica,sans-Serif" font-size="10.00">#</text>
<text text-anchor="start" x="307.38" y="-255.25" font-family="Helvetica,sans-Serif" font-size="10.00">calculateOpenRatio()</text>
<polygon fill="#666666" stroke="#666666" points="293.38,-419.25 293.38,-419.25 402.12,-419.25 402.12,-419.25 293.38,-419.25"/>
<polygon fill="#666666" stroke="#666666" points="293.38,-312.5 293.38,-312.5 305.38,-312.5 305.38,-312.5 293.38,-312.5"/>
<polygon fill="#666666" stroke="#666666" points="305.38,-312.5 305.38,-312.5 402.12,-312.5 402.12,-312.5 305.38,-312.5"/>
<polygon fill="none" stroke="#666666" points="293.38,-249.5 293.38,-447.75 402.12,-447.75 402.12,-249.5 293.38,-249.5"/>
</a>
</g>
</g>
<!-- Node2&#45;&gt;Node3 -->
<g id="edge2_Node000002_Node000003" class="edge">
<title>Node2&#45;&gt;Node3</title>
<g id="a_edge2_Node000002_Node000003"><a xlink:title=" ">
<path fill="none" stroke="#63b8ff" d="M742.84,-594.79C657.03,-541.54 488.39,-436.9 401.83,-383.18"/>
<polygon fill="none" stroke="#63b8ff" points="740.76,-597.62 751.1,-599.92 744.45,-591.67 740.76,-597.62"/>
</a>
</g>
</g>
<!-- Node9 -->
<g id="Node000009" class="node">
<title>Node9</title>
<g id="a_Node000009"><a xlink:href="classstackchan_1_1display_1_1_base_mouth.html" target="_top" xlink:title=" ">
<polygon fill="white" stroke="none" points="844.12,-379.12 747.38,-379.12 747.38,-318.12 844.12,-318.12 844.12,-379.12"/>
<text text-anchor="start" x="756" y="-365.62" font-family="Helvetica,sans-Serif" font-size="10.00">stackchan::display</text>
<text text-anchor="start" x="768.75" y="-354.38" font-family="Helvetica,sans-Serif" font-size="10.00">::BaseMouth</text>
<text text-anchor="start" x="751.38" y="-339.12" font-family="Helvetica,sans-Serif" font-size="10.00">#</text>
<text text-anchor="start" x="760.62" y="-339.12" font-family="Helvetica,sans-Serif" font-size="10.00">breath_amplitude_</text>
<text text-anchor="start" x="794.25" y="-323.88" font-family="Helvetica,sans-Serif" font-size="10.00"> </text>
<polygon fill="#bfbfbf" stroke="#bfbfbf" points="747.38,-350.62 747.38,-350.62 844.12,-350.62 844.12,-350.62 747.38,-350.62"/>
<polygon fill="#bfbfbf" stroke="#bfbfbf" points="747.38,-335.38 747.38,-335.38 758.62,-335.38 758.62,-335.38 747.38,-335.38"/>
<polygon fill="#bfbfbf" stroke="#bfbfbf" points="758.62,-335.38 758.62,-335.38 844.12,-335.38 844.12,-335.38 758.62,-335.38"/>
<polygon fill="none" stroke="#bfbfbf" points="747.38,-318.12 747.38,-379.12 844.12,-379.12 844.12,-318.12 747.38,-318.12"/>
</a>
</g>
</g>
<!-- Node2&#45;&gt;Node9 -->
<g id="edge8_Node000002_Node000009" class="edge">
<title>Node2&#45;&gt;Node9</title>
<g id="a_edge8_Node000002_Node000009"><a xlink:title=" ">
<path fill="none" stroke="#63b8ff" d="M795.75,-571.74C795.75,-513.49 795.75,-424.47 795.75,-378.83"/>
<polygon fill="none" stroke="#63b8ff" points="792.25,-571.45 795.75,-581.45 799.25,-571.45 792.25,-571.45"/>
</a>
</g>
</g>
<!-- Node12 -->
<g id="Node000012" class="node">
<title>Node12</title>
<g id="a_Node000012"><a xlink:href="classstackchan_1_1display_1_1_face.html" target="_top" xlink:title=" ">
<polygon fill="white" stroke="none" points="1169.25,-508.75 1058.25,-508.75 1058.25,-188.5 1169.25,-188.5 1169.25,-508.75"/>
<text text-anchor="start" x="1074" y="-495.25" font-family="Helvetica,sans-Serif" font-size="10.00">stackchan::display</text>
<text text-anchor="start" x="1100.62" y="-484" font-family="Helvetica,sans-Serif" font-size="10.00">::Face</text>
<text text-anchor="start" x="1062.62" y="-468.75" font-family="Helvetica,sans-Serif" font-size="10.00">#</text>
<text text-anchor="start" x="1072.25" y="-468.75" font-family="Helvetica,sans-Serif" font-size="10.00">is_auto_blink_</text>
<text text-anchor="start" x="1062.62" y="-453.5" font-family="Helvetica,sans-Serif" font-size="10.00">#</text>
<text text-anchor="start" x="1072.25" y="-453.5" font-family="Helvetica,sans-Serif" font-size="10.00">auto_blink_interval_</text>
<text text-anchor="start" x="1062.62" y="-438.25" font-family="Helvetica,sans-Serif" font-size="10.00">#</text>
<text text-anchor="start" x="1072.25" y="-438.25" font-family="Helvetica,sans-Serif" font-size="10.00">last_blink_time_</text>
<text text-anchor="start" x="1062.62" y="-423" font-family="Helvetica,sans-Serif" font-size="10.00">#</text>
<text text-anchor="start" x="1072.25" y="-423" font-family="Helvetica,sans-Serif" font-size="10.00">blink_duration_</text>
<text text-anchor="start" x="1062.62" y="-407.75" font-family="Helvetica,sans-Serif" font-size="10.00">#</text>
<text text-anchor="start" x="1072.25" y="-407.75" font-family="Helvetica,sans-Serif" font-size="10.00">breath_frequency_</text>
<text text-anchor="start" x="1062.62" y="-392.5" font-family="Helvetica,sans-Serif" font-size="10.00">#</text>
<text text-anchor="start" x="1072.25" y="-392.5" font-family="Helvetica,sans-Serif" font-size="10.00">left_eye_</text>
<text text-anchor="start" x="1062.62" y="-377.25" font-family="Helvetica,sans-Serif" font-size="10.00">#</text>
<text text-anchor="start" x="1072.25" y="-377.25" font-family="Helvetica,sans-Serif" font-size="10.00">right_eye_</text>
<text text-anchor="start" x="1062.62" y="-362" font-family="Helvetica,sans-Serif" font-size="10.00">#</text>
<text text-anchor="start" x="1072.25" y="-362" font-family="Helvetica,sans-Serif" font-size="10.00">mouth_</text>
<text text-anchor="start" x="1062.25" y="-346.75" font-family="Helvetica,sans-Serif" font-size="10.00">+</text>
<text text-anchor="start" x="1072.25" y="-346.75" font-family="Helvetica,sans-Serif" font-size="10.00">Face()</text>
<text text-anchor="start" x="1062.25" y="-331.5" font-family="Helvetica,sans-Serif" font-size="10.00">+</text>
<text text-anchor="start" x="1072.25" y="-331.5" font-family="Helvetica,sans-Serif" font-size="10.00">Face()</text>
<text text-anchor="start" x="1062.25" y="-316.25" font-family="Helvetica,sans-Serif" font-size="10.00">+</text>
<text text-anchor="start" x="1072.25" y="-316.25" font-family="Helvetica,sans-Serif" font-size="10.00">getLeftEye()</text>
<text text-anchor="start" x="1062.25" y="-301" font-family="Helvetica,sans-Serif" font-size="10.00">+</text>
<text text-anchor="start" x="1072.25" y="-301" font-family="Helvetica,sans-Serif" font-size="10.00">getRightEye()</text>
<text text-anchor="start" x="1062.25" y="-285.75" font-family="Helvetica,sans-Serif" font-size="10.00">+</text>
<text text-anchor="start" x="1072.25" y="-285.75" font-family="Helvetica,sans-Serif" font-size="10.00">getMouth()</text>
<text text-anchor="start" x="1062.25" y="-270.5" font-family="Helvetica,sans-Serif" font-size="10.00">+</text>
<text text-anchor="start" x="1072.25" y="-270.5" font-family="Helvetica,sans-Serif" font-size="10.00">activateAutoBlink()</text>
<text text-anchor="start" x="1062.25" y="-255.25" font-family="Helvetica,sans-Serif" font-size="10.00">+</text>
<text text-anchor="start" x="1072.25" y="-255.25" font-family="Helvetica,sans-Serif" font-size="10.00">deactivateAutoBlink()</text>
<text text-anchor="start" x="1062.25" y="-240" font-family="Helvetica,sans-Serif" font-size="10.00">+</text>
<text text-anchor="start" x="1072.25" y="-240" font-family="Helvetica,sans-Serif" font-size="10.00">getIsAutoBlink()</text>
<text text-anchor="start" x="1062.25" y="-224.75" font-family="Helvetica,sans-Serif" font-size="10.00">+</text>
<text text-anchor="start" x="1072.25" y="-224.75" font-family="Helvetica,sans-Serif" font-size="10.00">autoScale()</text>
<text text-anchor="start" x="1062.25" y="-209.5" font-family="Helvetica,sans-Serif" font-size="10.00">+</text>
<text text-anchor="start" x="1072.25" y="-209.5" font-family="Helvetica,sans-Serif" font-size="10.00">updateState()</text>
<text text-anchor="start" x="1062.25" y="-194.25" font-family="Helvetica,sans-Serif" font-size="10.00">+</text>
<text text-anchor="start" x="1072.25" y="-194.25" font-family="Helvetica,sans-Serif" font-size="10.00">draw()</text>
<polygon fill="#bfbfbf" stroke="#bfbfbf" points="1058.25,-480.25 1058.25,-480.25 1169.25,-480.25 1169.25,-480.25 1058.25,-480.25"/>
<polygon fill="#bfbfbf" stroke="#bfbfbf" points="1058.25,-358.25 1058.25,-358.25 1070.25,-358.25 1070.25,-358.25 1058.25,-358.25"/>
<polygon fill="#bfbfbf" stroke="#bfbfbf" points="1070.25,-358.25 1070.25,-358.25 1169.25,-358.25 1169.25,-358.25 1070.25,-358.25"/>
<polygon fill="none" stroke="#bfbfbf" points="1058.25,-188.5 1058.25,-508.75 1169.25,-508.75 1169.25,-188.5 1058.25,-188.5"/>
</a>
</g>
</g>
<!-- Node2&#45;&gt;Node12 -->
<g id="edge11_Node000002_Node000012" class="edge">
<title>Node2&#45;&gt;Node12</title>
<g id="a_edge11_Node000002_Node000012"><a xlink:title=" ">
<path fill="none" stroke="#63b8ff" d="M826.17,-573.65C832.98,-563.55 840.61,-553.44 848.75,-544.75 912.01,-477.19 1001.33,-417 1058.39,-381.9"/>
<polygon fill="none" stroke="#63b8ff" points="823.25,-571.73 820.74,-582.02 829.12,-575.54 823.25,-571.73"/>
</a>
</g>
</g>
<!-- Node4 -->
<g id="Node000004" class="node">
<title>Node4</title>
<g id="a_Node000004"><a xlink:href="classstackchan_1_1display_1_1_ellipse_eye.html" target="_top" xlink:title=" ">
<polygon fill="white" stroke="none" points="87.5,-114.38 0,-114.38 0,-38.12 87.5,-38.12 87.5,-114.38"/>
<text text-anchor="start" x="4" y="-100.88" font-family="Helvetica,sans-Serif" font-size="10.00">stackchan::display</text>
<text text-anchor="start" x="19.38" y="-89.62" font-family="Helvetica,sans-Serif" font-size="10.00">::EllipseEye</text>
<text text-anchor="start" x="42.25" y="-74.38" font-family="Helvetica,sans-Serif" font-size="10.00"> </text>
<text text-anchor="start" x="10.31" y="-59.12" font-family="Helvetica,sans-Serif" font-size="10.00">+</text>
<text text-anchor="start" x="26.62" y="-59.12" font-family="Helvetica,sans-Serif" font-size="10.00">draw()</text>
<text text-anchor="start" x="10.31" y="-43.88" font-family="Helvetica,sans-Serif" font-size="10.00">+</text>
<text text-anchor="start" x="26.62" y="-43.88" font-family="Helvetica,sans-Serif" font-size="10.00">BaseEye()</text>
<polygon fill="#bfbfbf" stroke="#bfbfbf" points="0,-85.88 0,-85.88 87.5,-85.88 87.5,-85.88 0,-85.88"/>
<polygon fill="#bfbfbf" stroke="#bfbfbf" points="0,-70.62 0,-70.62 87.5,-70.62 87.5,-70.62 0,-70.62"/>
<polygon fill="none" stroke="#bfbfbf" points="0,-38.12 0,-114.38 87.5,-114.38 87.5,-38.12 0,-38.12"/>
</a>
</g>
</g>
<!-- Node3&#45;&gt;Node4 -->
<g id="edge3_Node000003_Node000004" class="edge">
<title>Node3&#45;&gt;Node4</title>
<g id="a_edge3_Node000003_Node000004"><a xlink:title=" ">
<path fill="none" stroke="#63b8ff" d="M284.18,-306.12C230.72,-269.45 154.07,-212.59 96.75,-152.5 85.72,-140.94 75.22,-126.93 66.52,-114.14"/>
<polygon fill="none" stroke="#63b8ff" points="282.06,-308.91 292.29,-311.65 286,-303.13 282.06,-308.91"/>
</a>
</g>
</g>
<!-- Node5 -->
<g id="Node000005" class="node">
<title>Node5</title>
<g id="a_Node000005"><a xlink:href="classstackchan_1_1display_1_1_eye.html" target="_top" xlink:title=" ">
<polygon fill="white" stroke="none" points="213.62,-108.75 105.88,-108.75 105.88,-43.75 213.62,-43.75 213.62,-108.75"/>
<text text-anchor="start" x="109.88" y="-95.25" font-family="Helvetica,sans-Serif" font-size="10.00">stackchan::display::Eye</text>
<text text-anchor="start" x="158.25" y="-80" font-family="Helvetica,sans-Serif" font-size="10.00"> </text>
<text text-anchor="start" x="121.25" y="-64.75" font-family="Helvetica,sans-Serif" font-size="10.00">+</text>
<text text-anchor="start" x="142.62" y="-64.75" font-family="Helvetica,sans-Serif" font-size="10.00">draw()</text>
<text text-anchor="start" x="121.25" y="-49.5" font-family="Helvetica,sans-Serif" font-size="10.00">+</text>
<text text-anchor="start" x="142.62" y="-49.5" font-family="Helvetica,sans-Serif" font-size="10.00">BaseEye()</text>
<polygon fill="#bfbfbf" stroke="#bfbfbf" points="105.88,-91.5 105.88,-91.5 213.62,-91.5 213.62,-91.5 105.88,-91.5"/>
<polygon fill="#bfbfbf" stroke="#bfbfbf" points="105.88,-76.25 105.88,-76.25 213.62,-76.25 213.62,-76.25 105.88,-76.25"/>
<polygon fill="none" stroke="#bfbfbf" points="105.88,-43.75 105.88,-108.75 213.62,-108.75 213.62,-43.75 105.88,-43.75"/>
</a>
</g>
</g>
<!-- Node3&#45;&gt;Node5 -->
<g id="edge4_Node000003_Node000005" class="edge">
<title>Node3&#45;&gt;Node5</title>
<g id="a_edge4_Node000003_Node000005"><a xlink:title=" ">
<path fill="none" stroke="#63b8ff" d="M287.19,-260.53C250.98,-208.46 207.16,-145.44 181.48,-108.5"/>
<polygon fill="none" stroke="#63b8ff" points="284.18,-262.33 292.76,-268.54 289.93,-258.33 284.18,-262.33"/>
</a>
</g>
</g>
<!-- Node6 -->
<g id="Node000006" class="node">
<title>Node6</title>
<g id="a_Node000006"><a xlink:href="classstackchan_1_1display_1_1_round_rect_eye.html" target="_top" xlink:title=" ">
<polygon fill="white" stroke="none" points="319.5,-114.38 232,-114.38 232,-38.12 319.5,-38.12 319.5,-114.38"/>
<text text-anchor="start" x="236" y="-100.88" font-family="Helvetica,sans-Serif" font-size="10.00">stackchan::display</text>
<text text-anchor="start" x="241.62" y="-89.62" font-family="Helvetica,sans-Serif" font-size="10.00">::RoundRectEye</text>
<text text-anchor="start" x="274.25" y="-74.38" font-family="Helvetica,sans-Serif" font-size="10.00"> </text>
<text text-anchor="start" x="242.31" y="-59.12" font-family="Helvetica,sans-Serif" font-size="10.00">+</text>
<text text-anchor="start" x="258.62" y="-59.12" font-family="Helvetica,sans-Serif" font-size="10.00">draw()</text>
<text text-anchor="start" x="242.31" y="-43.88" font-family="Helvetica,sans-Serif" font-size="10.00">+</text>
<text text-anchor="start" x="258.62" y="-43.88" font-family="Helvetica,sans-Serif" font-size="10.00">BaseEye()</text>
<polygon fill="#bfbfbf" stroke="#bfbfbf" points="232,-85.88 232,-85.88 319.5,-85.88 319.5,-85.88 232,-85.88"/>
<polygon fill="#bfbfbf" stroke="#bfbfbf" points="232,-70.62 232,-70.62 319.5,-70.62 319.5,-70.62 232,-70.62"/>
<polygon fill="none" stroke="#bfbfbf" points="232,-38.12 232,-114.38 319.5,-114.38 319.5,-38.12 232,-38.12"/>
</a>
</g>
</g>
<!-- Node3&#45;&gt;Node6 -->
<g id="edge5_Node000003_Node000006" class="edge">
<title>Node3&#45;&gt;Node6</title>
<g id="a_edge5_Node000003_Node000006"><a xlink:title=" ">
<path fill="none" stroke="#63b8ff" d="M318.69,-238.51C306.94,-194.39 294.17,-146.41 285.63,-114.36"/>
<polygon fill="none" stroke="#63b8ff" points="315.31,-239.41 321.27,-248.17 322.07,-237.6 315.31,-239.41"/>
</a>
</g>
</g>
<!-- Node7 -->
<g id="Node000007" class="node">
<title>Node7</title>
<g id="a_Node000007"><a xlink:href="classstackchan_1_1display_1_1_toon_eye1.html" target="_top" xlink:title=" ">
<polygon fill="white" stroke="none" points="500.12,-152.5 337.38,-152.5 337.38,0 500.12,0 500.12,-152.5"/>
<text text-anchor="start" x="379" y="-139" font-family="Helvetica,sans-Serif" font-size="10.00">stackchan::display</text>
<text text-anchor="start" x="395.12" y="-127.75" font-family="Helvetica,sans-Serif" font-size="10.00">::ToonEye1</text>
<text text-anchor="start" x="417.25" y="-112.5" font-family="Helvetica,sans-Serif" font-size="10.00"> </text>
<text text-anchor="start" x="341.38" y="-97.25" font-family="Helvetica,sans-Serif" font-size="10.00">+</text>
<text text-anchor="start" x="351.38" y="-97.25" font-family="Helvetica,sans-Serif" font-size="10.00">drawIris()</text>
<text text-anchor="start" x="341.38" y="-82" font-family="Helvetica,sans-Serif" font-size="10.00">+</text>
<text text-anchor="start" x="351.38" y="-82" font-family="Helvetica,sans-Serif" font-size="10.00">drawEyelid()</text>
<text text-anchor="start" x="341.38" y="-66.75" font-family="Helvetica,sans-Serif" font-size="10.00">+</text>
<text text-anchor="start" x="351.38" y="-66.75" font-family="Helvetica,sans-Serif" font-size="10.00">drawEyeLash()</text>
<text text-anchor="start" x="341.38" y="-51.5" font-family="Helvetica,sans-Serif" font-size="10.00">+</text>
<text text-anchor="start" x="351.38" y="-51.5" font-family="Helvetica,sans-Serif" font-size="10.00">draw()</text>
<text text-anchor="start" x="341.38" y="-36.25" font-family="Helvetica,sans-Serif" font-size="10.00">+</text>
<text text-anchor="start" x="351.38" y="-36.25" font-family="Helvetica,sans-Serif" font-size="10.00">BaseEye()</text>
<text text-anchor="start" x="341.75" y="-21" font-family="Helvetica,sans-Serif" font-size="10.00">#</text>
<text text-anchor="start" x="351.38" y="-21" font-family="Helvetica,sans-Serif" font-size="10.00">computeEyelidBaseWaypoints()</text>
<text text-anchor="start" x="341.75" y="-5.75" font-family="Helvetica,sans-Serif" font-size="10.00">#</text>
<text text-anchor="start" x="351.38" y="-5.75" font-family="Helvetica,sans-Serif" font-size="10.00">computeEyelashBaseWaypoints()</text>
<polygon fill="#bfbfbf" stroke="#bfbfbf" points="337.38,-124 337.38,-124 500.12,-124 500.12,-124 337.38,-124"/>
<polygon fill="#bfbfbf" stroke="#bfbfbf" points="337.38,-108.75 337.38,-108.75 500.12,-108.75 500.12,-108.75 337.38,-108.75"/>
<polygon fill="none" stroke="#bfbfbf" points="337.38,0 337.38,-152.5 500.12,-152.5 500.12,0 337.38,0"/>
</a>
</g>
</g>
<!-- Node3&#45;&gt;Node7 -->
<g id="edge6_Node000003_Node000007" class="edge">
<title>Node3&#45;&gt;Node7</title>
<g id="a_edge6_Node000003_Node000007"><a xlink:title=" ">
<path fill="none" stroke="#63b8ff" d="M376.37,-238.64C383.97,-209.71 392,-179.12 399,-152.44"/>
<polygon fill="none" stroke="#63b8ff" points="373.02,-237.61 373.87,-248.17 379.79,-239.38 373.02,-237.61"/>
</a>
</g>
</g>
<!-- Node8 -->
<g id="Node000008" class="node">
<title>Node8</title>
<g id="a_Node000008"><a xlink:href="classstackchan_1_1display_1_1_toon_eye2.html" target="_top" xlink:title=" ">
<polygon fill="white" stroke="none" points="681.12,-152.5 518.38,-152.5 518.38,0 681.12,0 681.12,-152.5"/>
<text text-anchor="start" x="560" y="-139" font-family="Helvetica,sans-Serif" font-size="10.00">stackchan::display</text>
<text text-anchor="start" x="576.12" y="-127.75" font-family="Helvetica,sans-Serif" font-size="10.00">::ToonEye2</text>
<text text-anchor="start" x="598.25" y="-112.5" font-family="Helvetica,sans-Serif" font-size="10.00"> </text>
<text text-anchor="start" x="522.38" y="-97.25" font-family="Helvetica,sans-Serif" font-size="10.00">+</text>
<text text-anchor="start" x="532.38" y="-97.25" font-family="Helvetica,sans-Serif" font-size="10.00">drawIris()</text>
<text text-anchor="start" x="522.38" y="-82" font-family="Helvetica,sans-Serif" font-size="10.00">+</text>
<text text-anchor="start" x="532.38" y="-82" font-family="Helvetica,sans-Serif" font-size="10.00">drawEyelid()</text>
<text text-anchor="start" x="522.38" y="-66.75" font-family="Helvetica,sans-Serif" font-size="10.00">+</text>
<text text-anchor="start" x="532.38" y="-66.75" font-family="Helvetica,sans-Serif" font-size="10.00">drawEyeLash()</text>
<text text-anchor="start" x="522.38" y="-51.5" font-family="Helvetica,sans-Serif" font-size="10.00">+</text>
<text text-anchor="start" x="532.38" y="-51.5" font-family="Helvetica,sans-Serif" font-size="10.00">draw()</text>
<text text-anchor="start" x="522.38" y="-36.25" font-family="Helvetica,sans-Serif" font-size="10.00">+</text>
<text text-anchor="start" x="532.38" y="-36.25" font-family="Helvetica,sans-Serif" font-size="10.00">BaseEye()</text>
<text text-anchor="start" x="522.75" y="-21" font-family="Helvetica,sans-Serif" font-size="10.00">#</text>
<text text-anchor="start" x="532.38" y="-21" font-family="Helvetica,sans-Serif" font-size="10.00">computeEyelidBaseWaypoints()</text>
<text text-anchor="start" x="522.75" y="-5.75" font-family="Helvetica,sans-Serif" font-size="10.00">#</text>
<text text-anchor="start" x="532.38" y="-5.75" font-family="Helvetica,sans-Serif" font-size="10.00">computeEyelashBaseWaypoints()</text>
<polygon fill="#bfbfbf" stroke="#bfbfbf" points="518.38,-124 518.38,-124 681.12,-124 681.12,-124 518.38,-124"/>
<polygon fill="#bfbfbf" stroke="#bfbfbf" points="518.38,-108.75 518.38,-108.75 681.12,-108.75 681.12,-108.75 518.38,-108.75"/>
<polygon fill="none" stroke="#bfbfbf" points="518.38,0 518.38,-152.5 681.12,-152.5 681.12,0 518.38,0"/>
</a>
</g>
</g>
<!-- Node3&#45;&gt;Node8 -->
<g id="edge7_Node000003_Node000008" class="edge">
<title>Node3&#45;&gt;Node8</title>
<g id="a_edge7_Node000003_Node000008"><a xlink:title=" ">
<path fill="none" stroke="#63b8ff" d="M409.72,-281.14C446.03,-242.17 492.02,-192.84 529.65,-152.46"/>
<polygon fill="none" stroke="#63b8ff" points="407.41,-278.48 403.15,-288.18 412.53,-283.25 407.41,-278.48"/>
</a>
</g>
</g>
<!-- Node10 -->
<g id="Node000010" class="node">
<title>Node10</title>
<g id="a_Node000010"><a xlink:href="classstackchan_1_1display_1_1_mouth.html" target="_top" xlink:title=" ">
<polygon fill="white" stroke="none" points="786.5,-106.75 699,-106.75 699,-45.75 786.5,-45.75 786.5,-106.75"/>
<text text-anchor="start" x="703" y="-93.25" font-family="Helvetica,sans-Serif" font-size="10.00">stackchan::display</text>
<text text-anchor="start" x="727" y="-82" font-family="Helvetica,sans-Serif" font-size="10.00">::Mouth</text>
<text text-anchor="start" x="741.25" y="-66.75" font-family="Helvetica,sans-Serif" font-size="10.00"> </text>
<text text-anchor="start" x="713.62" y="-51.5" font-family="Helvetica,sans-Serif" font-size="10.00">+</text>
<text text-anchor="start" x="734.25" y="-51.5" font-family="Helvetica,sans-Serif" font-size="10.00">draw()</text>
<polygon fill="#bfbfbf" stroke="#bfbfbf" points="699,-78.25 699,-78.25 786.5,-78.25 786.5,-78.25 699,-78.25"/>
<polygon fill="#bfbfbf" stroke="#bfbfbf" points="699,-63 699,-63 786.5,-63 786.5,-63 699,-63"/>
<polygon fill="none" stroke="#bfbfbf" points="699,-45.75 699,-106.75 786.5,-106.75 786.5,-45.75 699,-45.75"/>
</a>
</g>
</g>
<!-- Node9&#45;&gt;Node10 -->
<g id="edge9_Node000009_Node000010" class="edge">
<title>Node9&#45;&gt;Node10</title>
<g id="a_edge9_Node000009_Node000010"><a xlink:title=" ">
<path fill="none" stroke="#63b8ff" d="M787.81,-307.11C777.03,-252.13 758.03,-155.19 748.52,-106.66"/>
<polygon fill="none" stroke="#63b8ff" points="784.33,-307.55 789.69,-316.69 791.2,-306.2 784.33,-307.55"/>
</a>
</g>
</g>
<!-- Node11 -->
<g id="Node000011" class="node">
<title>Node11</title>
<g id="a_Node000011"><a xlink:href="classstackchan_1_1display_1_1_omega_mouth.html" target="_top" xlink:title=" ">
<polygon fill="white" stroke="none" points="892.5,-106.75 805,-106.75 805,-45.75 892.5,-45.75 892.5,-106.75"/>
<text text-anchor="start" x="809" y="-93.25" font-family="Helvetica,sans-Serif" font-size="10.00">stackchan::display</text>
<text text-anchor="start" x="817.25" y="-82" font-family="Helvetica,sans-Serif" font-size="10.00">::OmegaMouth</text>
<text text-anchor="start" x="847.25" y="-66.75" font-family="Helvetica,sans-Serif" font-size="10.00"> </text>
<text text-anchor="start" x="819.62" y="-51.5" font-family="Helvetica,sans-Serif" font-size="10.00">+</text>
<text text-anchor="start" x="840.25" y="-51.5" font-family="Helvetica,sans-Serif" font-size="10.00">draw()</text>
<polygon fill="#bfbfbf" stroke="#bfbfbf" points="805,-78.25 805,-78.25 892.5,-78.25 892.5,-78.25 805,-78.25"/>
<polygon fill="#bfbfbf" stroke="#bfbfbf" points="805,-63 805,-63 892.5,-63 892.5,-63 805,-63"/>
<polygon fill="none" stroke="#bfbfbf" points="805,-45.75 805,-106.75 892.5,-106.75 892.5,-45.75 805,-45.75"/>
</a>
</g>
</g>
<!-- Node9&#45;&gt;Node11 -->
<g id="edge10_Node000009_Node000011" class="edge">
<title>Node9&#45;&gt;Node11</title>
<g id="a_edge10_Node000009_Node000011"><a xlink:title=" ">
<path fill="none" stroke="#63b8ff" d="M803.69,-307.11C814.47,-252.13 833.47,-155.19 842.98,-106.66"/>
<polygon fill="none" stroke="#63b8ff" points="800.3,-306.2 801.81,-316.69 807.17,-307.55 800.3,-306.2"/>
</a>
</g>
</g>
<!-- Node13 -->
<g id="Node000013" class="node">
<title>Node13</title>
<g id="a_Node000013"><a xlink:href="classstackchan_1_1display_1_1_ell_face.html" target="_top" xlink:title=" ">
<polygon fill="white" stroke="none" points="998.5,-106.75 911,-106.75 911,-45.75 998.5,-45.75 998.5,-106.75"/>
<text text-anchor="start" x="915" y="-93.25" font-family="Helvetica,sans-Serif" font-size="10.00">stackchan::display</text>
<text text-anchor="start" x="936.38" y="-82" font-family="Helvetica,sans-Serif" font-size="10.00">::EllFace</text>
<text text-anchor="start" x="953.25" y="-66.75" font-family="Helvetica,sans-Serif" font-size="10.00"> </text>
<text text-anchor="start" x="922.81" y="-51.5" font-family="Helvetica,sans-Serif" font-size="10.00">+</text>
<text text-anchor="start" x="940.62" y="-51.5" font-family="Helvetica,sans-Serif" font-size="10.00">EllFace()</text>
<polygon fill="#bfbfbf" stroke="#bfbfbf" points="911,-78.25 911,-78.25 998.5,-78.25 998.5,-78.25 911,-78.25"/>
<polygon fill="#bfbfbf" stroke="#bfbfbf" points="911,-63 911,-63 998.5,-63 998.5,-63 911,-63"/>
<polygon fill="none" stroke="#bfbfbf" points="911,-45.75 911,-106.75 998.5,-106.75 998.5,-45.75 911,-45.75"/>
</a>
</g>
</g>
<!-- Node12&#45;&gt;Node13 -->
<g id="edge12_Node000012_Node000013" class="edge">
<title>Node12&#45;&gt;Node13</title>
<g id="a_edge12_Node000012_Node000013"><a xlink:title=" ">
<path fill="none" stroke="#63b8ff" d="M1052.63,-243.69C1023.7,-194.49 991.33,-139.45 972.02,-106.62"/>
<polygon fill="none" stroke="#63b8ff" points="1049.51,-245.29 1057.6,-252.14 1055.54,-241.74 1049.51,-245.29"/>
</a>
</g>
</g>
<!-- Node14 -->
<g id="Node000014" class="node">
<title>Node14</title>
<g id="a_Node000014"><a xlink:href="classstackchan_1_1display_1_1_omega_face.html" target="_top" xlink:title=" ">
<polygon fill="white" stroke="none" points="1104.5,-106.75 1017,-106.75 1017,-45.75 1104.5,-45.75 1104.5,-106.75"/>
<text text-anchor="start" x="1021" y="-93.25" font-family="Helvetica,sans-Serif" font-size="10.00">stackchan::display</text>
<text text-anchor="start" x="1031.88" y="-82" font-family="Helvetica,sans-Serif" font-size="10.00">::OmegaFace</text>
<text text-anchor="start" x="1059.25" y="-66.75" font-family="Helvetica,sans-Serif" font-size="10.00"> </text>
<text text-anchor="start" x="1023.56" y="-51.5" font-family="Helvetica,sans-Serif" font-size="10.00">+</text>
<text text-anchor="start" x="1036.12" y="-51.5" font-family="Helvetica,sans-Serif" font-size="10.00">OmegaFace()</text>
<polygon fill="#bfbfbf" stroke="#bfbfbf" points="1017,-78.25 1017,-78.25 1104.5,-78.25 1104.5,-78.25 1017,-78.25"/>
<polygon fill="#bfbfbf" stroke="#bfbfbf" points="1017,-63 1017,-63 1104.5,-63 1104.5,-63 1017,-63"/>
<polygon fill="none" stroke="#bfbfbf" points="1017,-45.75 1017,-106.75 1104.5,-106.75 1104.5,-45.75 1017,-45.75"/>
</a>
</g>
</g>
<!-- Node12&#45;&gt;Node14 -->
<g id="edge13_Node000012_Node000014" class="edge">
<title>Node12&#45;&gt;Node14</title>
<g id="a_edge13_Node000012_Node000014"><a xlink:title=" ">
<path fill="none" stroke="#63b8ff" d="M1080.46,-177.79C1075.1,-150.44 1070.13,-125.12 1066.53,-106.73"/>
<polygon fill="none" stroke="#63b8ff" points="1076.96,-178.16 1082.32,-187.3 1083.83,-176.81 1076.96,-178.16"/>
</a>
</g>
</g>
<!-- Node15 -->
<g id="Node000015" class="node">
<title>Node15</title>
<g id="a_Node000015"><a xlink:href="classstackchan_1_1display_1_1_rect_face.html" target="_top" xlink:title=" ">
<polygon fill="white" stroke="none" points="1210.5,-106.75 1123,-106.75 1123,-45.75 1210.5,-45.75 1210.5,-106.75"/>
<text text-anchor="start" x="1127" y="-93.25" font-family="Helvetica,sans-Serif" font-size="10.00">stackchan::display</text>
<text text-anchor="start" x="1143.5" y="-82" font-family="Helvetica,sans-Serif" font-size="10.00">::RectFace</text>
<text text-anchor="start" x="1165.25" y="-66.75" font-family="Helvetica,sans-Serif" font-size="10.00"> </text>
<text text-anchor="start" x="1132.38" y="-51.5" font-family="Helvetica,sans-Serif" font-size="10.00">+</text>
<text text-anchor="start" x="1147.75" y="-51.5" font-family="Helvetica,sans-Serif" font-size="10.00">RectFace()</text>
<polygon fill="#bfbfbf" stroke="#bfbfbf" points="1123,-78.25 1123,-78.25 1210.5,-78.25 1210.5,-78.25 1123,-78.25"/>
<polygon fill="#bfbfbf" stroke="#bfbfbf" points="1123,-63 1123,-63 1210.5,-63 1210.5,-63 1123,-63"/>
<polygon fill="none" stroke="#bfbfbf" points="1123,-45.75 1123,-106.75 1210.5,-106.75 1210.5,-45.75 1123,-45.75"/>
</a>
</g>
</g>
<!-- Node12&#45;&gt;Node15 -->
<g id="edge14_Node000012_Node000015" class="edge">
<title>Node12&#45;&gt;Node15</title>
<g id="a_edge14_Node000012_Node000015"><a xlink:title=" ">
<path fill="none" stroke="#63b8ff" d="M1147.04,-177.79C1152.4,-150.44 1157.37,-125.12 1160.97,-106.73"/>
<polygon fill="none" stroke="#63b8ff" points="1143.67,-176.81 1145.18,-187.3 1150.54,-178.16 1143.67,-176.81"/>
</a>
</g>
</g>
<!-- Node16 -->
<g id="Node000016" class="node">
<title>Node16</title>
<g id="a_Node000016"><a xlink:href="classstackchan_1_1display_1_1_toon_face1.html" target="_top" xlink:title=" ">
<polygon fill="white" stroke="none" points="1316.5,-106.75 1229,-106.75 1229,-45.75 1316.5,-45.75 1316.5,-106.75"/>
<text text-anchor="start" x="1233" y="-93.25" font-family="Helvetica,sans-Serif" font-size="10.00">stackchan::display</text>
<text text-anchor="start" x="1246.12" y="-82" font-family="Helvetica,sans-Serif" font-size="10.00">::ToonFace1</text>
<text text-anchor="start" x="1271.25" y="-66.75" font-family="Helvetica,sans-Serif" font-size="10.00"> </text>
<text text-anchor="start" x="1236.69" y="-51.5" font-family="Helvetica,sans-Serif" font-size="10.00">+</text>
<text text-anchor="start" x="1250.38" y="-51.5" font-family="Helvetica,sans-Serif" font-size="10.00">ToonFace1()</text>
<polygon fill="#bfbfbf" stroke="#bfbfbf" points="1229,-78.25 1229,-78.25 1316.5,-78.25 1316.5,-78.25 1229,-78.25"/>
<polygon fill="#bfbfbf" stroke="#bfbfbf" points="1229,-63 1229,-63 1316.5,-63 1316.5,-63 1229,-63"/>
<polygon fill="none" stroke="#bfbfbf" points="1229,-45.75 1229,-106.75 1316.5,-106.75 1316.5,-45.75 1229,-45.75"/>
</a>
</g>
</g>
<!-- Node12&#45;&gt;Node16 -->
<g id="edge15_Node000012_Node000016" class="edge">
<title>Node12&#45;&gt;Node16</title>
<g id="a_edge15_Node000012_Node000016"><a xlink:title=" ">
<path fill="none" stroke="#63b8ff" d="M1174.87,-243.69C1203.8,-194.49 1236.17,-139.45 1255.48,-106.62"/>
<polygon fill="none" stroke="#63b8ff" points="1171.96,-241.74 1169.9,-252.14 1177.99,-245.29 1171.96,-241.74"/>
</a>
</g>
</g>
<!-- Node17 -->
<g id="Node000017" class="node">
<title>Node17</title>
<g id="a_Node000017"><a xlink:href="classstackchan_1_1display_1_1_toon_face2.html" target="_top" xlink:title=" ">
<polygon fill="white" stroke="none" points="1422.5,-106.75 1335,-106.75 1335,-45.75 1422.5,-45.75 1422.5,-106.75"/>
<text text-anchor="start" x="1339" y="-93.25" font-family="Helvetica,sans-Serif" font-size="10.00">stackchan::display</text>
<text text-anchor="start" x="1352.12" y="-82" font-family="Helvetica,sans-Serif" font-size="10.00">::ToonFace2</text>
<text text-anchor="start" x="1377.25" y="-66.75" font-family="Helvetica,sans-Serif" font-size="10.00"> </text>
<text text-anchor="start" x="1342.69" y="-51.5" font-family="Helvetica,sans-Serif" font-size="10.00">+</text>
<text text-anchor="start" x="1356.38" y="-51.5" font-family="Helvetica,sans-Serif" font-size="10.00">ToonFace2()</text>
<polygon fill="#bfbfbf" stroke="#bfbfbf" points="1335,-78.25 1335,-78.25 1422.5,-78.25 1422.5,-78.25 1335,-78.25"/>
<polygon fill="#bfbfbf" stroke="#bfbfbf" points="1335,-63 1335,-63 1422.5,-63 1422.5,-63 1335,-63"/>
<polygon fill="none" stroke="#bfbfbf" points="1335,-45.75 1335,-106.75 1422.5,-106.75 1422.5,-45.75 1335,-45.75"/>
</a>
</g>
</g>
<!-- Node12&#45;&gt;Node17 -->
<g id="edge16_Node000012_Node000017" class="edge">
<title>Node12&#45;&gt;Node17</title>
<g id="a_edge16_Node000012_Node000017"><a xlink:title=" ">
<path fill="none" stroke="#63b8ff" d="M1177.62,-295.16C1221.54,-257.61 1279.97,-204.67 1325.75,-152.5 1338.29,-138.21 1350.63,-120.94 1360.24,-106.56"/>
<polygon fill="none" stroke="#63b8ff" points="1175.54,-292.33 1170.19,-301.47 1180.08,-297.66 1175.54,-292.33"/>
</a>
</g>
</g>
</g>
</svg>

<g id="navigator" transform="translate(0 0)" fill="#404254">
  <rect fill="#f2f5e9" fill-opacity="0.5" stroke="#606060" stroke-width=".5" x="0" y="0" width="60" height="60"/>
  <use id="zoomplus" xlink:href="#zoomPlus" x="17" y="9" onmousedown="handleZoom(evt,'in')"/>
  <use id="zoomminus" xlink:href="#zoomMin" x="42" y="9" onmousedown="handleZoom(evt,'out')"/>
  <use id="reset" xlink:href="#resetDef" x="30" y="36" onmousedown="handleReset()"/>
   <use id="arrowup" xlink:href="#arrowUp" x="0" y="0" onmousedown="handlePan(0,-1)"/>
  <use id="arrowright" xlink:href="#arrowRight" x="0" y="0" onmousedown="handlePan(1,0)"/>
  <use id="arrowdown" xlink:href="#arrowDown" x="0" y="0" onmousedown="handlePan(0,1)"/>
  <use id="arrowleft" xlink:href="#arrowLeft" x="0" y="0" onmousedown="handlePan(-1,0)"/>
</g>
<svg viewBox="0 0 15 15" width="100%" height="30px" preserveAspectRatio="xMaxYMin meet">
 <g id="arrow_out" transform="scale(0.3 0.3)">
  <a xlink:href="classstackchan_1_1display_1_1_drawable__inherit__graph_org.svg" target="_base">
   <rect id="button" ry="5" rx="5" y="6" x="6" height="38" width="38"
        fill="#f2f5e9" fill-opacity="0.5" stroke="#606060" stroke-width="1.0"/>
   <path id="arrow"
     d="M 11.500037,31.436501 C 11.940474,20.09759 22.043105,11.32322 32.158766,21.979434 L 37.068811,17.246167 C 37.068811,17.246167 37.088388,32 37.088388,32 L 22.160133,31.978069 C 22.160133,31.978069 26.997745,27.140456 26.997745,27.140456 C 18.528582,18.264221 13.291696,25.230495 11.500037,31.436501 z"
     style="fill:#404040;"/>
  </a>
 </g>
</svg>

<style type='text/css'>
<![CDATA[
[data-mouse-over-selected='false'] { opacity: 0.7; }
[data-mouse-over-selected='true']  { opacity: 1.0; }
]]>
</style>
<script type="application/ecmascript"><![CDATA[
document.addEventListener('DOMContentLoaded', (event) => {
  highlightEdges();
  highlightAdjacentNodes();
});
]]></script>
</svg>
