<?xml version="1.0" encoding="UTF-8" standalone="no"?>
<!DOCTYPE svg PUBLIC "-//W3C//DTD SVG 1.1//EN"
 "http://www.w3.org/Graphics/SVG/1.1/DTD/svg11.dtd">
<!-- Generated by graphviz version 12.2.0 (20241103.1931)
 -->
<!-- Title: stackchan::display::Display Pages: 1 -->
<svg width="505pt" height="1685pt"
 viewBox="0.00 0.00 504.50 1685.00" xmlns="http://www.w3.org/2000/svg" xmlns:xlink="http://www.w3.org/1999/xlink">
<g id="graph0" class="graph" transform="scale(1 1) rotate(0) translate(4 1681)">
<title>stackchan::display::Display</title>
<!-- Node1 -->
<g id="Node000001" class="node">
<title>Node1</title>
<g id="a_Node000001"><a xlink:title=" ">
<polygon fill="#999999" stroke="none" points="363.25,-213.5 233.5,-213.5 233.5,0 363.25,0 363.25,-213.5"/>
<text text-anchor="start" x="258.62" y="-200" font-family="Helvetica,sans-Serif" font-size="10.00">stackchan::display</text>
<text text-anchor="start" x="280.38" y="-188.75" font-family="Helvetica,sans-Serif" font-size="10.00">::Display</text>
<text text-anchor="start" x="237.88" y="-173.5" font-family="Helvetica,sans-Serif" font-size="10.00">#</text>
<text text-anchor="start" x="247.5" y="-173.5" font-family="Helvetica,sans-Serif" font-size="10.00">canvas_</text>
<text text-anchor="start" x="237.5" y="-158.25" font-family="Helvetica,sans-Serif" font-size="10.00">+</text>
<text text-anchor="start" x="247.5" y="-158.25" font-family="Helvetica,sans-Serif" font-size="10.00">Display()</text>
<text text-anchor="start" x="237.5" y="-143" font-family="Helvetica,sans-Serif" font-size="10.00">+</text>
<text text-anchor="start" x="247.5" y="-143" font-family="Helvetica,sans-Serif" font-size="10.00">getFace()</text>
<text text-anchor="start" x="237.5" y="-127.75" font-family="Helvetica,sans-Serif" font-size="10.00">+</text>
<text text-anchor="start" x="247.5" y="-127.75" font-family="Helvetica,sans-Serif" font-size="10.00">setFace()</text>
<text text-anchor="start" x="237.5" y="-112.5" font-family="Helvetica,sans-Serif" font-size="10.00">+</text>
<text text-anchor="start" x="247.5" y="-112.5" font-family="Helvetica,sans-Serif" font-size="10.00">getExpressionWeight()</text>
<text text-anchor="start" x="237.5" y="-97.25" font-family="Helvetica,sans-Serif" font-size="10.00">+</text>
<text text-anchor="start" x="247.5" y="-97.25" font-family="Helvetica,sans-Serif" font-size="10.00">getSpeechBalloon()</text>
<text text-anchor="start" x="237.5" y="-82" font-family="Helvetica,sans-Serif" font-size="10.00">+</text>
<text text-anchor="start" x="247.5" y="-82" font-family="Helvetica,sans-Serif" font-size="10.00">getColorPalette()</text>
<text text-anchor="start" x="237.5" y="-66.75" font-family="Helvetica,sans-Serif" font-size="10.00">+</text>
<text text-anchor="start" x="247.5" y="-66.75" font-family="Helvetica,sans-Serif" font-size="10.00">setColorPalette()</text>
<text text-anchor="start" x="237.5" y="-51.5" font-family="Helvetica,sans-Serif" font-size="10.00">+</text>
<text text-anchor="start" x="247.5" y="-51.5" font-family="Helvetica,sans-Serif" font-size="10.00">getCanvas()</text>
<text text-anchor="start" x="237.5" y="-36.25" font-family="Helvetica,sans-Serif" font-size="10.00">+</text>
<text text-anchor="start" x="247.5" y="-36.25" font-family="Helvetica,sans-Serif" font-size="10.00">draw()</text>
<text text-anchor="start" x="237.5" y="-21" font-family="Helvetica,sans-Serif" font-size="10.00">+</text>
<text text-anchor="start" x="247.5" y="-21" font-family="Helvetica,sans-Serif" font-size="10.00">update()</text>
<text text-anchor="start" x="237.88" y="-5.75" font-family="Helvetica,sans-Serif" font-size="10.00">#</text>
<text text-anchor="start" x="247.5" y="-5.75" font-family="Helvetica,sans-Serif" font-size="10.00">drawEmotionalDecorator()</text>
<polygon fill="#666666" stroke="#666666" points="233.5,-185 233.5,-185 363.25,-185 363.25,-185 233.5,-185"/>
<polygon fill="#666666" stroke="#666666" points="233.5,-169.75 233.5,-169.75 245.5,-169.75 245.5,-169.75 233.5,-169.75"/>
<polygon fill="#666666" stroke="#666666" points="245.5,-169.75 245.5,-169.75 363.25,-169.75 363.25,-169.75 245.5,-169.75"/>
<polygon fill="none" stroke="#666666" points="233.5,0 233.5,-213.5 363.25,-213.5 363.25,0 233.5,0"/>
</a>
</g>
</g>
<!-- Node2 -->
<g id="Node000002" class="node">
<title>Node2</title>
<g id="a_Node000002"><a xlink:href="classstackchan_1_1display_1_1_face.html" target="_top" xlink:title=" ">
<polygon fill="white" stroke="none" points="158.88,-535.25 47.88,-535.25 47.88,-260.75 158.88,-260.75 158.88,-535.25"/>
<text text-anchor="start" x="63.62" y="-521.75" font-family="Helvetica,sans-Serif" font-size="10.00">stackchan::display</text>
<text text-anchor="start" x="90.25" y="-510.5" font-family="Helvetica,sans-Serif" font-size="10.00">::Face</text>
<text text-anchor="start" x="52.25" y="-495.25" font-family="Helvetica,sans-Serif" font-size="10.00">#</text>
<text text-anchor="start" x="61.88" y="-495.25" font-family="Helvetica,sans-Serif" font-size="10.00">is_auto_blink_</text>
<text text-anchor="start" x="52.25" y="-480" font-family="Helvetica,sans-Serif" font-size="10.00">#</text>
<text text-anchor="start" x="61.88" y="-480" font-family="Helvetica,sans-Serif" font-size="10.00">auto_blink_interval_</text>
<text text-anchor="start" x="52.25" y="-464.75" font-family="Helvetica,sans-Serif" font-size="10.00">#</text>
<text text-anchor="start" x="61.88" y="-464.75" font-family="Helvetica,sans-Serif" font-size="10.00">last_blink_time_</text>
<text text-anchor="start" x="52.25" y="-449.5" font-family="Helvetica,sans-Serif" font-size="10.00">#</text>
<text text-anchor="start" x="61.88" y="-449.5" font-family="Helvetica,sans-Serif" font-size="10.00">blink_duration_</text>
<text text-anchor="start" x="52.25" y="-434.25" font-family="Helvetica,sans-Serif" font-size="10.00">#</text>
<text text-anchor="start" x="61.88" y="-434.25" font-family="Helvetica,sans-Serif" font-size="10.00">breath_frequency_</text>
<text text-anchor="start" x="51.88" y="-419" font-family="Helvetica,sans-Serif" font-size="10.00">+</text>
<text text-anchor="start" x="61.88" y="-419" font-family="Helvetica,sans-Serif" font-size="10.00">Face()</text>
<text text-anchor="start" x="51.88" y="-403.75" font-family="Helvetica,sans-Serif" font-size="10.00">+</text>
<text text-anchor="start" x="61.88" y="-403.75" font-family="Helvetica,sans-Serif" font-size="10.00">Face()</text>
<text text-anchor="start" x="51.88" y="-388.5" font-family="Helvetica,sans-Serif" font-size="10.00">+</text>
<text text-anchor="start" x="61.88" y="-388.5" font-family="Helvetica,sans-Serif" font-size="10.00">getLeftEye()</text>
<text text-anchor="start" x="51.88" y="-373.25" font-family="Helvetica,sans-Serif" font-size="10.00">+</text>
<text text-anchor="start" x="61.88" y="-373.25" font-family="Helvetica,sans-Serif" font-size="10.00">getRightEye()</text>
<text text-anchor="start" x="51.88" y="-358" font-family="Helvetica,sans-Serif" font-size="10.00">+</text>
<text text-anchor="start" x="61.88" y="-358" font-family="Helvetica,sans-Serif" font-size="10.00">getMouth()</text>
<text text-anchor="start" x="51.88" y="-342.75" font-family="Helvetica,sans-Serif" font-size="10.00">+</text>
<text text-anchor="start" x="61.88" y="-342.75" font-family="Helvetica,sans-Serif" font-size="10.00">activateAutoBlink()</text>
<text text-anchor="start" x="51.88" y="-327.5" font-family="Helvetica,sans-Serif" font-size="10.00">+</text>
<text text-anchor="start" x="61.88" y="-327.5" font-family="Helvetica,sans-Serif" font-size="10.00">deactivateAutoBlink()</text>
<text text-anchor="start" x="51.88" y="-312.25" font-family="Helvetica,sans-Serif" font-size="10.00">+</text>
<text text-anchor="start" x="61.88" y="-312.25" font-family="Helvetica,sans-Serif" font-size="10.00">getIsAutoBlink()</text>
<text text-anchor="start" x="51.88" y="-297" font-family="Helvetica,sans-Serif" font-size="10.00">+</text>
<text text-anchor="start" x="61.88" y="-297" font-family="Helvetica,sans-Serif" font-size="10.00">autoScale()</text>
<text text-anchor="start" x="51.88" y="-281.75" font-family="Helvetica,sans-Serif" font-size="10.00">+</text>
<text text-anchor="start" x="61.88" y="-281.75" font-family="Helvetica,sans-Serif" font-size="10.00">updateState()</text>
<text text-anchor="start" x="51.88" y="-266.5" font-family="Helvetica,sans-Serif" font-size="10.00">+</text>
<text text-anchor="start" x="61.88" y="-266.5" font-family="Helvetica,sans-Serif" font-size="10.00">draw()</text>
<polygon fill="#bfbfbf" stroke="#bfbfbf" points="47.88,-506.75 47.88,-506.75 158.88,-506.75 158.88,-506.75 47.88,-506.75"/>
<polygon fill="#bfbfbf" stroke="#bfbfbf" points="47.88,-430.5 47.88,-430.5 59.88,-430.5 59.88,-430.5 47.88,-430.5"/>
<polygon fill="#bfbfbf" stroke="#bfbfbf" points="59.88,-430.5 59.88,-430.5 158.88,-430.5 158.88,-430.5 59.88,-430.5"/>
<polygon fill="none" stroke="#bfbfbf" points="47.88,-260.75 47.88,-535.25 158.88,-535.25 158.88,-260.75 47.88,-260.75"/>
</a>
</g>
</g>
<!-- Node2&#45;&gt;Node1 -->
<g id="edge1_Node000001_Node000002" class="edge">
<title>Node2&#45;&gt;Node1</title>
<g id="a_edge1_Node000001_Node000002"><a xlink:title=" ">
<path fill="none" stroke="#63b8ff" d="M158.83,-274.66C161.62,-269.9 164.47,-265.25 167.38,-260.75 184.15,-234.79 204.95,-208.52 225,-185.25"/>
<polygon fill="none" stroke="#63b8ff" points="225.05,-185.19 225.98,-178.04 232.94,-176.15 232.01,-183.3 225.05,-185.19"/>
</a>
</g>
<text text-anchor="middle" x="201.87" y="-233.25" font-family="Helvetica,sans-Serif" font-size="10.00" fill="grey"> #face_</text>
</g>
<!-- Node3 -->
<g id="Node000003" class="node">
<title>Node3</title>
<g id="a_Node000003"><a xlink:href="classstackchan_1_1display_1_1_facial_drawable.html" target="_top" xlink:title=" ">
<polygon fill="white" stroke="none" points="187.12,-1041.5 99.62,-1041.5 99.62,-950 187.12,-950 187.12,-1041.5"/>
<text text-anchor="start" x="103.62" y="-1028" font-family="Helvetica,sans-Serif" font-size="10.00">stackchan::display</text>
<text text-anchor="start" x="107.75" y="-1016.75" font-family="Helvetica,sans-Serif" font-size="10.00">::FacialDrawable</text>
<text text-anchor="start" x="141.88" y="-1001.5" font-family="Helvetica,sans-Serif" font-size="10.00"> </text>
<text text-anchor="start" x="109.38" y="-986.25" font-family="Helvetica,sans-Serif" font-size="10.00">+</text>
<text text-anchor="start" x="125.12" y="-986.25" font-family="Helvetica,sans-Serif" font-size="10.00">draw()</text>
<text text-anchor="start" x="109.38" y="-971" font-family="Helvetica,sans-Serif" font-size="10.00">+</text>
<text text-anchor="start" x="125.12" y="-971" font-family="Helvetica,sans-Serif" font-size="10.00">Drawable()</text>
<text text-anchor="start" x="109.38" y="-955.75" font-family="Helvetica,sans-Serif" font-size="10.00">+</text>
<text text-anchor="start" x="125.12" y="-955.75" font-family="Helvetica,sans-Serif" font-size="10.00">Drawable()</text>
<polygon fill="#bfbfbf" stroke="#bfbfbf" points="99.62,-1013 99.62,-1013 187.12,-1013 187.12,-1013 99.62,-1013"/>
<polygon fill="#bfbfbf" stroke="#bfbfbf" points="99.62,-997.75 99.62,-997.75 187.12,-997.75 187.12,-997.75 99.62,-997.75"/>
<polygon fill="none" stroke="#bfbfbf" points="99.62,-950 99.62,-1041.5 187.12,-1041.5 187.12,-950 99.62,-950"/>
</a>
</g>
</g>
<!-- Node3&#45;&gt;Node2 -->
<g id="edge2_Node000002_Node000003" class="edge">
<title>Node3&#45;&gt;Node2</title>
<g id="a_edge2_Node000002_Node000003"><a xlink:title=" ">
<path fill="none" stroke="#63b8ff" d="M142.06,-938.89C139.78,-855.02 134.17,-691.63 122.38,-553.25 121.87,-547.34 121.31,-541.3 120.71,-535.2"/>
<polygon fill="none" stroke="#63b8ff" points="138.56,-938.77 142.32,-948.67 145.55,-938.58 138.56,-938.77"/>
</a>
</g>
</g>
<!-- Node7 -->
<g id="Node000007" class="node">
<title>Node7</title>
<g id="a_Node000007"><a xlink:href="classstackchan_1_1display_1_1_base_eye.html" target="_top" xlink:title="Base class for Eye, draw nothing.">
<polygon fill="white" stroke="none" points="108.75,-746.25 0,-746.25 0,-593.75 108.75,-593.75 108.75,-746.25"/>
<text text-anchor="start" x="14.62" y="-732.75" font-family="Helvetica,sans-Serif" font-size="10.00">stackchan::display</text>
<text text-anchor="start" x="33" y="-721.5" font-family="Helvetica,sans-Serif" font-size="10.00">::BaseEye</text>
<text text-anchor="start" x="4.38" y="-706.25" font-family="Helvetica,sans-Serif" font-size="10.00">#</text>
<text text-anchor="start" x="14" y="-706.25" font-family="Helvetica,sans-Serif" font-size="10.00">is_left_</text>
<text text-anchor="start" x="4.38" y="-691" font-family="Helvetica,sans-Serif" font-size="10.00">#</text>
<text text-anchor="start" x="14" y="-691" font-family="Helvetica,sans-Serif" font-size="10.00">milli_sec_</text>
<text text-anchor="start" x="4.38" y="-675.75" font-family="Helvetica,sans-Serif" font-size="10.00">#</text>
<text text-anchor="start" x="14" y="-675.75" font-family="Helvetica,sans-Serif" font-size="10.00">last_saccade_millis_</text>
<text text-anchor="start" x="4.38" y="-660.5" font-family="Helvetica,sans-Serif" font-size="10.00">#</text>
<text text-anchor="start" x="14" y="-660.5" font-family="Helvetica,sans-Serif" font-size="10.00">saccade_interval_</text>
<text text-anchor="start" x="4" y="-645.25" font-family="Helvetica,sans-Serif" font-size="10.00">+</text>
<text text-anchor="start" x="14" y="-645.25" font-family="Helvetica,sans-Serif" font-size="10.00">BaseEye()</text>
<text text-anchor="start" x="4.38" y="-630" font-family="Helvetica,sans-Serif" font-size="10.00">#</text>
<text text-anchor="start" x="14" y="-630" font-family="Helvetica,sans-Serif" font-size="10.00">updateGaze()</text>
<text text-anchor="start" x="4.38" y="-614.75" font-family="Helvetica,sans-Serif" font-size="10.00">#</text>
<text text-anchor="start" x="14" y="-614.75" font-family="Helvetica,sans-Serif" font-size="10.00">updateSaccade()</text>
<text text-anchor="start" x="4.38" y="-599.5" font-family="Helvetica,sans-Serif" font-size="10.00">#</text>
<text text-anchor="start" x="14" y="-599.5" font-family="Helvetica,sans-Serif" font-size="10.00">calculateOpenRatio()</text>
<polygon fill="#666666" stroke="#666666" points="0,-717.75 0,-717.75 108.75,-717.75 108.75,-717.75 0,-717.75"/>
<polygon fill="#666666" stroke="#666666" points="0,-656.75 0,-656.75 12,-656.75 12,-656.75 0,-656.75"/>
<polygon fill="#666666" stroke="#666666" points="12,-656.75 12,-656.75 108.75,-656.75 108.75,-656.75 12,-656.75"/>
<polygon fill="none" stroke="#666666" points="0,-593.75 0,-746.25 108.75,-746.25 108.75,-593.75 0,-593.75"/>
</a>
</g>
</g>
<!-- Node3&#45;&gt;Node7 -->
<g id="edge7_Node000007_Node000003" class="edge">
<title>Node3&#45;&gt;Node7</title>
<g id="a_edge7_Node000007_Node000003"><a xlink:title=" ">
<path fill="none" stroke="#63b8ff" d="M124.61,-939.36C123.84,-936.88 123.09,-934.42 122.38,-932 103.9,-869.83 85.51,-798.54 72.52,-746.19"/>
<polygon fill="none" stroke="#63b8ff" points="121.27,-940.39 127.63,-948.86 127.94,-938.27 121.27,-940.39"/>
</a>
</g>
</g>
<!-- Node8 -->
<g id="Node000008" class="node">
<title>Node8</title>
<g id="a_Node000008"><a xlink:href="classstackchan_1_1display_1_1_base_mouth.html" target="_top" xlink:title=" ">
<polygon fill="white" stroke="none" points="260.75,-700.5 164,-700.5 164,-639.5 260.75,-639.5 260.75,-700.5"/>
<text text-anchor="start" x="172.62" y="-687" font-family="Helvetica,sans-Serif" font-size="10.00">stackchan::display</text>
<text text-anchor="start" x="185.38" y="-675.75" font-family="Helvetica,sans-Serif" font-size="10.00">::BaseMouth</text>
<text text-anchor="start" x="168" y="-660.5" font-family="Helvetica,sans-Serif" font-size="10.00">#</text>
<text text-anchor="start" x="177.25" y="-660.5" font-family="Helvetica,sans-Serif" font-size="10.00">breath_amplitude_</text>
<text text-anchor="start" x="210.88" y="-645.25" font-family="Helvetica,sans-Serif" font-size="10.00"> </text>
<polygon fill="#bfbfbf" stroke="#bfbfbf" points="164,-672 164,-672 260.75,-672 260.75,-672 164,-672"/>
<polygon fill="#bfbfbf" stroke="#bfbfbf" points="164,-656.75 164,-656.75 175.25,-656.75 175.25,-656.75 164,-656.75"/>
<polygon fill="#bfbfbf" stroke="#bfbfbf" points="175.25,-656.75 175.25,-656.75 260.75,-656.75 260.75,-656.75 175.25,-656.75"/>
<polygon fill="none" stroke="#bfbfbf" points="164,-639.5 164,-700.5 260.75,-700.5 260.75,-639.5 164,-639.5"/>
</a>
</g>
</g>
<!-- Node3&#45;&gt;Node8 -->
<g id="edge10_Node000008_Node000003" class="edge">
<title>Node3&#45;&gt;Node8</title>
<g id="a_edge10_Node000008_Node000003"><a xlink:title=" ">
<path fill="none" stroke="#63b8ff" d="M155.27,-938.96C170.02,-869.72 194.64,-754.21 206.12,-700.34"/>
<polygon fill="none" stroke="#63b8ff" points="151.87,-938.08 153.21,-948.59 158.72,-939.54 151.87,-938.08"/>
</a>
</g>
</g>
<!-- Node4 -->
<g id="Node000004" class="node">
<title>Node4</title>
<g id="a_Node000004"><a xlink:href="classstackchan_1_1display_1_1_drawable.html" target="_top" xlink:title=" ">
<polygon fill="white" stroke="none" points="205,-1366.5 103.75,-1366.5 103.75,-1122.5 205,-1122.5 205,-1366.5"/>
<text text-anchor="start" x="114.62" y="-1353" font-family="Helvetica,sans-Serif" font-size="10.00">stackchan::display</text>
<text text-anchor="start" x="131.88" y="-1341.75" font-family="Helvetica,sans-Serif" font-size="10.00">::Drawable</text>
<text text-anchor="start" x="108.12" y="-1326.5" font-family="Helvetica,sans-Serif" font-size="10.00">#</text>
<text text-anchor="start" x="117.75" y="-1326.5" font-family="Helvetica,sans-Serif" font-size="10.00">rotation_</text>
<text text-anchor="start" x="108.12" y="-1311.25" font-family="Helvetica,sans-Serif" font-size="10.00">#</text>
<text text-anchor="start" x="117.75" y="-1311.25" font-family="Helvetica,sans-Serif" font-size="10.00">visible_</text>
<text text-anchor="start" x="108.12" y="-1296" font-family="Helvetica,sans-Serif" font-size="10.00">#</text>
<text text-anchor="start" x="117.75" y="-1296" font-family="Helvetica,sans-Serif" font-size="10.00">ignore_expression_</text>
<text text-anchor="start" x="107.75" y="-1280.75" font-family="Helvetica,sans-Serif" font-size="10.00">+</text>
<text text-anchor="start" x="117.75" y="-1280.75" font-family="Helvetica,sans-Serif" font-size="10.00">Drawable()</text>
<text text-anchor="start" x="107.75" y="-1265.5" font-family="Helvetica,sans-Serif" font-size="10.00">+</text>
<text text-anchor="start" x="117.75" y="-1265.5" font-family="Helvetica,sans-Serif" font-size="10.00">Drawable()</text>
<text text-anchor="start" x="107.75" y="-1250.25" font-family="Helvetica,sans-Serif" font-size="10.00">+</text>
<text text-anchor="start" x="117.75" y="-1250.25" font-family="Helvetica,sans-Serif" font-size="10.00">~Drawable()</text>
<text text-anchor="start" x="107.75" y="-1235" font-family="Helvetica,sans-Serif" font-size="10.00">+</text>
<text text-anchor="start" x="117.75" y="-1235" font-family="Helvetica,sans-Serif" font-size="10.00">setPosition()</text>
<text text-anchor="start" x="107.75" y="-1219.75" font-family="Helvetica,sans-Serif" font-size="10.00">+</text>
<text text-anchor="start" x="117.75" y="-1219.75" font-family="Helvetica,sans-Serif" font-size="10.00">getPosition()</text>
<text text-anchor="start" x="107.75" y="-1204.5" font-family="Helvetica,sans-Serif" font-size="10.00">+</text>
<text text-anchor="start" x="117.75" y="-1204.5" font-family="Helvetica,sans-Serif" font-size="10.00">setRotation()</text>
<text text-anchor="start" x="107.75" y="-1189.25" font-family="Helvetica,sans-Serif" font-size="10.00">+</text>
<text text-anchor="start" x="117.75" y="-1189.25" font-family="Helvetica,sans-Serif" font-size="10.00">getRotation()</text>
<text text-anchor="start" x="107.75" y="-1174" font-family="Helvetica,sans-Serif" font-size="10.00">+</text>
<text text-anchor="start" x="117.75" y="-1174" font-family="Helvetica,sans-Serif" font-size="10.00">setSize()</text>
<text text-anchor="start" x="107.75" y="-1158.75" font-family="Helvetica,sans-Serif" font-size="10.00">+</text>
<text text-anchor="start" x="117.75" y="-1158.75" font-family="Helvetica,sans-Serif" font-size="10.00">getSize()</text>
<text text-anchor="start" x="107.75" y="-1143.5" font-family="Helvetica,sans-Serif" font-size="10.00">+</text>
<text text-anchor="start" x="117.75" y="-1143.5" font-family="Helvetica,sans-Serif" font-size="10.00">setVisible()</text>
<text text-anchor="start" x="117.75" y="-1128.25" font-family="Helvetica,sans-Serif" font-size="10.00">and 7 more...</text>
<polygon fill="#bfbfbf" stroke="#bfbfbf" points="103.75,-1338 103.75,-1338 205,-1338 205,-1338 103.75,-1338"/>
<polygon fill="#bfbfbf" stroke="#bfbfbf" points="103.75,-1292.25 103.75,-1292.25 115.75,-1292.25 115.75,-1292.25 103.75,-1292.25"/>
<polygon fill="#bfbfbf" stroke="#bfbfbf" points="115.75,-1292.25 115.75,-1292.25 205,-1292.25 205,-1292.25 115.75,-1292.25"/>
<polygon fill="none" stroke="#bfbfbf" points="103.75,-1122.5 103.75,-1366.5 205,-1366.5 205,-1122.5 103.75,-1122.5"/>
</a>
</g>
</g>
<!-- Node4&#45;&gt;Node3 -->
<g id="edge3_Node000003_Node000004" class="edge">
<title>Node4&#45;&gt;Node3</title>
<g id="a_edge3_Node000003_Node000004"><a xlink:title=" ">
<path fill="none" stroke="#63b8ff" d="M148.49,-1111.42C147.36,-1086.16 146.26,-1061.38 145.36,-1041.36"/>
<polygon fill="none" stroke="#63b8ff" points="144.98,-1111.31 148.92,-1121.14 151.97,-1111 144.98,-1111.31"/>
</a>
</g>
</g>
<!-- Node11 -->
<g id="Node000011" class="node">
<title>Node11</title>
<g id="a_Node000011"><a xlink:href="classstackchan_1_1display_1_1_speech_balloon.html" target="_top" xlink:title=" ">
<polygon fill="white" stroke="none" points="390.62,-932 296.12,-932 296.12,-764.25 390.62,-764.25 390.62,-932"/>
<text text-anchor="start" x="303.62" y="-918.5" font-family="Helvetica,sans-Serif" font-size="10.00">stackchan::display</text>
<text text-anchor="start" x="308.5" y="-907.25" font-family="Helvetica,sans-Serif" font-size="10.00">::SpeechBalloon</text>
<text text-anchor="start" x="300.5" y="-892" font-family="Helvetica,sans-Serif" font-size="10.00">#</text>
<text text-anchor="start" x="310.12" y="-892" font-family="Helvetica,sans-Serif" font-size="10.00">text_</text>
<text text-anchor="start" x="300.5" y="-876.75" font-family="Helvetica,sans-Serif" font-size="10.00">#</text>
<text text-anchor="start" x="310.12" y="-876.75" font-family="Helvetica,sans-Serif" font-size="10.00">font_</text>
<text text-anchor="start" x="300.12" y="-861.5" font-family="Helvetica,sans-Serif" font-size="10.00">+</text>
<text text-anchor="start" x="310.12" y="-861.5" font-family="Helvetica,sans-Serif" font-size="10.00">SpeechBalloon()</text>
<text text-anchor="start" x="300.12" y="-846.25" font-family="Helvetica,sans-Serif" font-size="10.00">+</text>
<text text-anchor="start" x="310.12" y="-846.25" font-family="Helvetica,sans-Serif" font-size="10.00">~SpeechBalloon()</text>
<text text-anchor="start" x="300.12" y="-831" font-family="Helvetica,sans-Serif" font-size="10.00">+</text>
<text text-anchor="start" x="310.12" y="-831" font-family="Helvetica,sans-Serif" font-size="10.00">SpeechBalloon()</text>
<text text-anchor="start" x="300.12" y="-815.75" font-family="Helvetica,sans-Serif" font-size="10.00">+</text>
<text text-anchor="start" x="310.12" y="-815.75" font-family="Helvetica,sans-Serif" font-size="10.00">operator=()</text>
<text text-anchor="start" x="300.12" y="-800.5" font-family="Helvetica,sans-Serif" font-size="10.00">+</text>
<text text-anchor="start" x="310.12" y="-800.5" font-family="Helvetica,sans-Serif" font-size="10.00">setText()</text>
<text text-anchor="start" x="300.12" y="-785.25" font-family="Helvetica,sans-Serif" font-size="10.00">+</text>
<text text-anchor="start" x="310.12" y="-785.25" font-family="Helvetica,sans-Serif" font-size="10.00">draw()</text>
<text text-anchor="start" x="300.12" y="-770" font-family="Helvetica,sans-Serif" font-size="10.00">+</text>
<text text-anchor="start" x="310.12" y="-770" font-family="Helvetica,sans-Serif" font-size="10.00">draw()</text>
<polygon fill="#bfbfbf" stroke="#bfbfbf" points="296.12,-903.5 296.12,-903.5 390.62,-903.5 390.62,-903.5 296.12,-903.5"/>
<polygon fill="#bfbfbf" stroke="#bfbfbf" points="296.12,-873 296.12,-873 308.12,-873 308.12,-873 296.12,-873"/>
<polygon fill="#bfbfbf" stroke="#bfbfbf" points="308.12,-873 308.12,-873 390.62,-873 390.62,-873 308.12,-873"/>
<polygon fill="none" stroke="#bfbfbf" points="296.12,-764.25 296.12,-932 390.62,-932 390.62,-764.25 296.12,-764.25"/>
</a>
</g>
</g>
<!-- Node4&#45;&gt;Node11 -->
<g id="edge14_Node000011_Node000004" class="edge">
<title>Node4&#45;&gt;Node11</title>
<g id="a_edge14_Node000011_Node000004"><a xlink:title=" ">
<path fill="none" stroke="#63b8ff" d="M209.87,-1127.7C240,-1064.84 276.54,-988.58 303.77,-931.76"/>
<polygon fill="none" stroke="#63b8ff" points="206.72,-1126.18 205.55,-1136.71 213.03,-1129.2 206.72,-1126.18"/>
</a>
</g>
</g>
<!-- Node5 -->
<g id="Node000005" class="node">
<title>Node5</title>
<g id="a_Node000005"><a xlink:href="classm5_1_1_vector2i.html" target="_top" xlink:title=" ">
<polygon fill="white" stroke="none" points="98,-1677 26.75,-1677 26.75,-1413.75 98,-1413.75 98,-1677"/>
<text text-anchor="start" x="35.38" y="-1663.5" font-family="Helvetica,sans-Serif" font-size="10.00">m5::Vector2i</text>
<text text-anchor="start" x="30.75" y="-1648.25" font-family="Helvetica,sans-Serif" font-size="10.00">+</text>
<text text-anchor="start" x="40.75" y="-1648.25" font-family="Helvetica,sans-Serif" font-size="10.00">x</text>
<text text-anchor="start" x="30.75" y="-1633" font-family="Helvetica,sans-Serif" font-size="10.00">+</text>
<text text-anchor="start" x="40.75" y="-1633" font-family="Helvetica,sans-Serif" font-size="10.00">y</text>
<text text-anchor="start" x="30.75" y="-1617.75" font-family="Helvetica,sans-Serif" font-size="10.00">+</text>
<text text-anchor="start" x="40.75" y="-1617.75" font-family="Helvetica,sans-Serif" font-size="10.00">Vector2i()</text>
<text text-anchor="start" x="30.75" y="-1602.5" font-family="Helvetica,sans-Serif" font-size="10.00">+</text>
<text text-anchor="start" x="40.75" y="-1602.5" font-family="Helvetica,sans-Serif" font-size="10.00">Vector2i()</text>
<text text-anchor="start" x="30.75" y="-1587.25" font-family="Helvetica,sans-Serif" font-size="10.00">+</text>
<text text-anchor="start" x="40.75" y="-1587.25" font-family="Helvetica,sans-Serif" font-size="10.00">operator+()</text>
<text text-anchor="start" x="30.75" y="-1572" font-family="Helvetica,sans-Serif" font-size="10.00">+</text>
<text text-anchor="start" x="40.75" y="-1572" font-family="Helvetica,sans-Serif" font-size="10.00">operator&#45;()</text>
<text text-anchor="start" x="30.75" y="-1556.75" font-family="Helvetica,sans-Serif" font-size="10.00">+</text>
<text text-anchor="start" x="40.75" y="-1556.75" font-family="Helvetica,sans-Serif" font-size="10.00">operator*()</text>
<text text-anchor="start" x="30.75" y="-1541.5" font-family="Helvetica,sans-Serif" font-size="10.00">+</text>
<text text-anchor="start" x="40.75" y="-1541.5" font-family="Helvetica,sans-Serif" font-size="10.00">operator/()</text>
<text text-anchor="start" x="30.75" y="-1526.25" font-family="Helvetica,sans-Serif" font-size="10.00">+</text>
<text text-anchor="start" x="40.75" y="-1526.25" font-family="Helvetica,sans-Serif" font-size="10.00">operator+=()</text>
<text text-anchor="start" x="30.75" y="-1511" font-family="Helvetica,sans-Serif" font-size="10.00">+</text>
<text text-anchor="start" x="40.75" y="-1511" font-family="Helvetica,sans-Serif" font-size="10.00">operator&#45;=()</text>
<text text-anchor="start" x="30.75" y="-1495.75" font-family="Helvetica,sans-Serif" font-size="10.00">+</text>
<text text-anchor="start" x="40.75" y="-1495.75" font-family="Helvetica,sans-Serif" font-size="10.00">operator*=()</text>
<text text-anchor="start" x="30.75" y="-1480.5" font-family="Helvetica,sans-Serif" font-size="10.00">+</text>
<text text-anchor="start" x="40.75" y="-1480.5" font-family="Helvetica,sans-Serif" font-size="10.00">operator/=()</text>
<text text-anchor="start" x="30.75" y="-1465.25" font-family="Helvetica,sans-Serif" font-size="10.00">+</text>
<text text-anchor="start" x="40.75" y="-1465.25" font-family="Helvetica,sans-Serif" font-size="10.00">operator==()</text>
<text text-anchor="start" x="30.75" y="-1450" font-family="Helvetica,sans-Serif" font-size="10.00">+</text>
<text text-anchor="start" x="40.75" y="-1450" font-family="Helvetica,sans-Serif" font-size="10.00">operator!=()</text>
<text text-anchor="start" x="30.75" y="-1434.75" font-family="Helvetica,sans-Serif" font-size="10.00">+</text>
<text text-anchor="start" x="40.75" y="-1434.75" font-family="Helvetica,sans-Serif" font-size="10.00">dot()</text>
<text text-anchor="start" x="30.75" y="-1419.5" font-family="Helvetica,sans-Serif" font-size="10.00">+</text>
<text text-anchor="start" x="40.75" y="-1419.5" font-family="Helvetica,sans-Serif" font-size="10.00">clamp()</text>
<polygon fill="#bfbfbf" stroke="#bfbfbf" points="26.75,-1659.75 26.75,-1659.75 98,-1659.75 98,-1659.75 26.75,-1659.75"/>
<polygon fill="#bfbfbf" stroke="#bfbfbf" points="26.75,-1629.25 26.75,-1629.25 38.75,-1629.25 38.75,-1629.25 26.75,-1629.25"/>
<polygon fill="#bfbfbf" stroke="#bfbfbf" points="38.75,-1629.25 38.75,-1629.25 98,-1629.25 98,-1629.25 38.75,-1629.25"/>
<polygon fill="none" stroke="#bfbfbf" points="26.75,-1413.75 26.75,-1677 98,-1677 98,-1413.75 26.75,-1413.75"/>
</a>
</g>
</g>
<!-- Node5&#45;&gt;Node4 -->
<g id="edge4_Node000004_Node000005" class="edge">
<title>Node5&#45;&gt;Node4</title>
<g id="a_edge4_Node000004_Node000005"><a xlink:title=" ">
<path fill="none" stroke="#63b8ff" d="M96.05,-1414.11C98.94,-1404.06 101.9,-1394.1 104.88,-1384.5 105.49,-1382.53 106.11,-1380.55 106.74,-1378.56"/>
<polygon fill="none" stroke="#63b8ff" points="106.76,-1378.5 104.79,-1371.56 110.44,-1367.08 112.4,-1374.02 106.76,-1378.5"/>
</a>
</g>
<text text-anchor="middle" x="128.12" y="-1386.25" font-family="Helvetica,sans-Serif" font-size="10.00" fill="grey"> #position_</text>
</g>
<!-- Node5&#45;&gt;Node7 -->
<g id="edge8_Node000007_Node000005" class="edge">
<title>Node5&#45;&gt;Node7</title>
<g id="a_edge8_Node000007_Node000005"><a xlink:title=" ">
<path fill="none" stroke="#63b8ff" d="M61.18,-1414.09C59.53,-1233.83 56.59,-913.13 55.18,-758.78"/>
<polygon fill="none" stroke="#63b8ff" points="55.18,-759.06 51.13,-753.1 55.07,-747.07 59.13,-753.03 55.18,-759.06"/>
</a>
</g>
<text text-anchor="middle" x="96.16" y="-1095" font-family="Helvetica,sans-Serif" font-size="10.00" fill="grey"> #gaze_</text>
<text text-anchor="start" x="58.28" y="-1083.75" font-family="Helvetica,sans-Serif" font-size="10.00" fill="grey">#iris_position</text>
<text text-anchor="middle" x="96.16" y="-1072.5" font-family="Helvetica,sans-Serif" font-size="10.00" fill="grey">_</text>
<text text-anchor="middle" x="96.16" y="-1061.25" font-family="Helvetica,sans-Serif" font-size="10.00" fill="grey">#saccade_noise_</text>
</g>
<!-- Node6 -->
<g id="Node000006" class="node">
<title>Node6</title>
<g id="a_Node000006"><a xlink:href="classm5_1_1_size2i.html" target="_top" xlink:title=" ">
<polygon fill="white" stroke="none" points="191.88,-1623.62 122.88,-1623.62 122.88,-1467.12 191.88,-1467.12 191.88,-1623.62"/>
<text text-anchor="start" x="135.25" y="-1610.12" font-family="Helvetica,sans-Serif" font-size="10.00">m5::Size2i</text>
<text text-anchor="start" x="126.88" y="-1594.88" font-family="Helvetica,sans-Serif" font-size="10.00">+</text>
<text text-anchor="start" x="136.88" y="-1594.88" font-family="Helvetica,sans-Serif" font-size="10.00">width</text>
<text text-anchor="start" x="126.88" y="-1579.62" font-family="Helvetica,sans-Serif" font-size="10.00">+</text>
<text text-anchor="start" x="136.88" y="-1579.62" font-family="Helvetica,sans-Serif" font-size="10.00">height</text>
<text text-anchor="start" x="126.88" y="-1564.38" font-family="Helvetica,sans-Serif" font-size="10.00">+</text>
<text text-anchor="start" x="136.88" y="-1564.38" font-family="Helvetica,sans-Serif" font-size="10.00">Size2i()</text>
<text text-anchor="start" x="126.88" y="-1549.12" font-family="Helvetica,sans-Serif" font-size="10.00">+</text>
<text text-anchor="start" x="136.88" y="-1549.12" font-family="Helvetica,sans-Serif" font-size="10.00">Size2i()</text>
<text text-anchor="start" x="126.88" y="-1533.88" font-family="Helvetica,sans-Serif" font-size="10.00">+</text>
<text text-anchor="start" x="136.88" y="-1533.88" font-family="Helvetica,sans-Serif" font-size="10.00">operator*=()</text>
<text text-anchor="start" x="126.88" y="-1518.62" font-family="Helvetica,sans-Serif" font-size="10.00">+</text>
<text text-anchor="start" x="136.88" y="-1518.62" font-family="Helvetica,sans-Serif" font-size="10.00">operator*()</text>
<text text-anchor="start" x="126.88" y="-1503.38" font-family="Helvetica,sans-Serif" font-size="10.00">+</text>
<text text-anchor="start" x="136.88" y="-1503.38" font-family="Helvetica,sans-Serif" font-size="10.00">area()</text>
<text text-anchor="start" x="126.88" y="-1488.12" font-family="Helvetica,sans-Serif" font-size="10.00">+</text>
<text text-anchor="start" x="136.88" y="-1488.12" font-family="Helvetica,sans-Serif" font-size="10.00">max()</text>
<text text-anchor="start" x="126.88" y="-1472.88" font-family="Helvetica,sans-Serif" font-size="10.00">+</text>
<text text-anchor="start" x="136.88" y="-1472.88" font-family="Helvetica,sans-Serif" font-size="10.00">min()</text>
<polygon fill="#bfbfbf" stroke="#bfbfbf" points="122.88,-1606.38 122.88,-1606.38 191.88,-1606.38 191.88,-1606.38 122.88,-1606.38"/>
<polygon fill="#bfbfbf" stroke="#bfbfbf" points="122.88,-1575.88 122.88,-1575.88 134.88,-1575.88 134.88,-1575.88 122.88,-1575.88"/>
<polygon fill="#bfbfbf" stroke="#bfbfbf" points="134.88,-1575.88 134.88,-1575.88 191.88,-1575.88 191.88,-1575.88 134.88,-1575.88"/>
<polygon fill="none" stroke="#bfbfbf" points="122.88,-1467.12 122.88,-1623.62 191.88,-1623.62 191.88,-1467.12 122.88,-1467.12"/>
</a>
</g>
</g>
<!-- Node6&#45;&gt;Node4 -->
<g id="edge5_Node000004_Node000006" class="edge">
<title>Node6&#45;&gt;Node4</title>
<g id="a_edge5_Node000004_Node000006"><a xlink:title=" ">
<path fill="none" stroke="#63b8ff" d="M156.6,-1467.41C156.33,-1440.47 156.02,-1409.39 155.72,-1379.17"/>
<polygon fill="none" stroke="#63b8ff" points="155.72,-1379.19 151.66,-1373.23 155.6,-1367.19 159.66,-1373.15 155.72,-1379.19"/>
</a>
</g>
<text text-anchor="middle" x="170.88" y="-1386.25" font-family="Helvetica,sans-Serif" font-size="10.00" fill="grey"> #size_</text>
</g>
<!-- Node7&#45;&gt;Node2 -->
<g id="edge6_Node000002_Node000007" class="edge">
<title>Node7&#45;&gt;Node2</title>
<g id="a_edge6_Node000002_Node000007"><a xlink:title=" ">
<path fill="none" stroke="#63b8ff" d="M65.97,-593.9C68.17,-580.36 70.53,-566.37 72.88,-553.25 73.19,-551.49 73.51,-549.73 73.83,-547.95"/>
<polygon fill="none" stroke="#63b8ff" points="73.84,-547.9 70.98,-541.28 76,-536.1 78.85,-542.72 73.84,-547.9"/>
</a>
</g>
<text text-anchor="middle" x="97.62" y="-566.25" font-family="Helvetica,sans-Serif" font-size="10.00" fill="grey"> #left_eye_</text>
<text text-anchor="middle" x="97.62" y="-555" font-family="Helvetica,sans-Serif" font-size="10.00" fill="grey">#right_eye_</text>
</g>
<!-- Node8&#45;&gt;Node2 -->
<g id="edge9_Node000002_Node000008" class="edge">
<title>Node8&#45;&gt;Node2</title>
<g id="a_edge9_Node000002_Node000008"><a xlink:title=" ">
<path fill="none" stroke="#63b8ff" d="M200.5,-639.59C191.18,-616.51 177.44,-582.47 163.21,-547.22"/>
<polygon fill="none" stroke="#63b8ff" points="163.2,-547.19 157.25,-543.13 158.71,-536.07 164.66,-540.13 163.2,-547.19"/>
</a>
</g>
<text text-anchor="middle" x="193.88" y="-560.62" font-family="Helvetica,sans-Serif" font-size="10.00" fill="grey"> #mouth_</text>
</g>
<!-- Node9 -->
<g id="Node000009" class="node">
<title>Node9</title>
<g id="a_Node000009"><a xlink:href="classstackchan_1_1display_1_1_expression_weight.html" target="_top" xlink:title=" ">
<polygon fill="white" stroke="none" points="304.12,-466.62 176.62,-466.62 176.62,-329.38 304.12,-329.38 304.12,-466.62"/>
<text text-anchor="start" x="199.5" y="-453.12" font-family="Helvetica,sans-Serif" font-size="10.00">stackchan::display</text>
<text text-anchor="start" x="199.5" y="-441.88" font-family="Helvetica,sans-Serif" font-size="10.00">::ExpressionWeight</text>
<text text-anchor="start" x="238.88" y="-426.62" font-family="Helvetica,sans-Serif" font-size="10.00"> </text>
<text text-anchor="start" x="180.62" y="-411.38" font-family="Helvetica,sans-Serif" font-size="10.00">+</text>
<text text-anchor="start" x="190.62" y="-411.38" font-family="Helvetica,sans-Serif" font-size="10.00">ExpressionWeight()</text>
<text text-anchor="start" x="180.62" y="-396.12" font-family="Helvetica,sans-Serif" font-size="10.00">+</text>
<text text-anchor="start" x="190.62" y="-396.12" font-family="Helvetica,sans-Serif" font-size="10.00">set()</text>
<text text-anchor="start" x="180.62" y="-380.88" font-family="Helvetica,sans-Serif" font-size="10.00">+</text>
<text text-anchor="start" x="190.62" y="-380.88" font-family="Helvetica,sans-Serif" font-size="10.00">setEmotionalExpression()</text>
<text text-anchor="start" x="180.62" y="-365.62" font-family="Helvetica,sans-Serif" font-size="10.00">+</text>
<text text-anchor="start" x="190.62" y="-365.62" font-family="Helvetica,sans-Serif" font-size="10.00">get()</text>
<text text-anchor="start" x="180.62" y="-350.38" font-family="Helvetica,sans-Serif" font-size="10.00">+</text>
<text text-anchor="start" x="190.62" y="-350.38" font-family="Helvetica,sans-Serif" font-size="10.00">contains()</text>
<text text-anchor="start" x="180.62" y="-335.12" font-family="Helvetica,sans-Serif" font-size="10.00">+</text>
<text text-anchor="start" x="190.62" y="-335.12" font-family="Helvetica,sans-Serif" font-size="10.00">clear()</text>
<polygon fill="#bfbfbf" stroke="#bfbfbf" points="176.62,-438.12 176.62,-438.12 304.12,-438.12 304.12,-438.12 176.62,-438.12"/>
<polygon fill="#bfbfbf" stroke="#bfbfbf" points="176.62,-422.88 176.62,-422.88 304.12,-422.88 304.12,-422.88 176.62,-422.88"/>
<polygon fill="none" stroke="#bfbfbf" points="176.62,-329.38 176.62,-466.62 304.12,-466.62 304.12,-329.38 176.62,-329.38"/>
</a>
</g>
</g>
<!-- Node9&#45;&gt;Node1 -->
<g id="edge11_Node000001_Node000009" class="edge">
<title>Node9&#45;&gt;Node1</title>
<g id="a_edge11_Node000001_Node000009"><a xlink:title=" ">
<path fill="none" stroke="#63b8ff" d="M234.36,-329.44C233.31,-299.15 234.33,-263.19 241.38,-231.5 241.79,-229.62 242.24,-227.74 242.72,-225.86"/>
<polygon fill="none" stroke="#63b8ff" points="242.73,-225.8 240.52,-218.94 246.01,-214.26 248.22,-221.12 242.73,-225.8"/>
</a>
</g>
<text text-anchor="middle" x="287.88" y="-233.25" font-family="Helvetica,sans-Serif" font-size="10.00" fill="grey"> #expression_weight_</text>
</g>
<!-- Node10 -->
<g id="Node000010" class="node">
<title>Node10</title>
<g id="a_Node000010"><a xlink:href="classstackchan_1_1display_1_1_color_palette.html" target="_top" xlink:title=" ">
<polygon fill="white" stroke="none" points="410.12,-481.88 322.62,-481.88 322.62,-314.12 410.12,-314.12 410.12,-481.88"/>
<text text-anchor="start" x="326.62" y="-468.38" font-family="Helvetica,sans-Serif" font-size="10.00">stackchan::display</text>
<text text-anchor="start" x="337.5" y="-457.12" font-family="Helvetica,sans-Serif" font-size="10.00">::ColorPalette</text>
<text text-anchor="start" x="364.88" y="-441.88" font-family="Helvetica,sans-Serif" font-size="10.00"> </text>
<text text-anchor="start" x="327.88" y="-426.62" font-family="Helvetica,sans-Serif" font-size="10.00">+</text>
<text text-anchor="start" x="339.12" y="-426.62" font-family="Helvetica,sans-Serif" font-size="10.00">ColorPalette()</text>
<text text-anchor="start" x="327.88" y="-411.38" font-family="Helvetica,sans-Serif" font-size="10.00">+</text>
<text text-anchor="start" x="339.12" y="-411.38" font-family="Helvetica,sans-Serif" font-size="10.00">~ColorPalette()</text>
<text text-anchor="start" x="327.88" y="-396.12" font-family="Helvetica,sans-Serif" font-size="10.00">+</text>
<text text-anchor="start" x="339.12" y="-396.12" font-family="Helvetica,sans-Serif" font-size="10.00">ColorPalette()</text>
<text text-anchor="start" x="327.88" y="-380.88" font-family="Helvetica,sans-Serif" font-size="10.00">+</text>
<text text-anchor="start" x="339.12" y="-380.88" font-family="Helvetica,sans-Serif" font-size="10.00">operator=()</text>
<text text-anchor="start" x="327.88" y="-365.62" font-family="Helvetica,sans-Serif" font-size="10.00">+</text>
<text text-anchor="start" x="339.12" y="-365.62" font-family="Helvetica,sans-Serif" font-size="10.00">get()</text>
<text text-anchor="start" x="327.88" y="-350.38" font-family="Helvetica,sans-Serif" font-size="10.00">+</text>
<text text-anchor="start" x="339.12" y="-350.38" font-family="Helvetica,sans-Serif" font-size="10.00">set()</text>
<text text-anchor="start" x="327.88" y="-335.12" font-family="Helvetica,sans-Serif" font-size="10.00">+</text>
<text text-anchor="start" x="339.12" y="-335.12" font-family="Helvetica,sans-Serif" font-size="10.00">contains()</text>
<text text-anchor="start" x="327.88" y="-319.88" font-family="Helvetica,sans-Serif" font-size="10.00">+</text>
<text text-anchor="start" x="339.12" y="-319.88" font-family="Helvetica,sans-Serif" font-size="10.00">clear()</text>
<polygon fill="#666666" stroke="#666666" points="322.62,-453.38 322.62,-453.38 410.12,-453.38 410.12,-453.38 322.62,-453.38"/>
<polygon fill="#666666" stroke="#666666" points="322.62,-438.12 322.62,-438.12 410.12,-438.12 410.12,-438.12 322.62,-438.12"/>
<polygon fill="none" stroke="#666666" points="322.62,-314.12 322.62,-481.88 410.12,-481.88 410.12,-314.12 322.62,-314.12"/>
</a>
</g>
</g>
<!-- Node10&#45;&gt;Node1 -->
<g id="edge12_Node000001_Node000010" class="edge">
<title>Node10&#45;&gt;Node1</title>
<g id="a_edge12_Node000001_Node000010"><a xlink:title=" ">
<path fill="none" stroke="#63b8ff" d="M351.91,-314.18C346.87,-287.66 340.83,-258.24 334.38,-231.5 333.92,-229.63 333.46,-227.75 332.99,-225.85"/>
<polygon fill="none" stroke="#63b8ff" points="332.96,-225.73 327.6,-220.9 329.99,-214.1 335.35,-218.92 332.96,-225.73"/>
</a>
</g>
<text text-anchor="middle" x="370.6" y="-233.25" font-family="Helvetica,sans-Serif" font-size="10.00" fill="grey"> #color_palette_</text>
</g>
<!-- Node11&#45;&gt;Node1 -->
<g id="edge13_Node000001_Node000011" class="edge">
<title>Node11&#45;&gt;Node1</title>
<g id="a_edge13_Node000001_Node000011"><a xlink:title=" ">
<path fill="none" stroke="#63b8ff" d="M370.05,-764.66C403.24,-650.8 451.83,-439.26 419.38,-260.75 413.33,-227.51 393.62,-196.94 371.82,-172.01"/>
<polygon fill="none" stroke="#63b8ff" points="371.74,-171.93 364.74,-170.19 363.66,-163.06 370.66,-164.8 371.74,-171.93"/>
</a>
</g>
<text text-anchor="middle" x="456.38" y="-560.62" font-family="Helvetica,sans-Serif" font-size="10.00" fill="grey"> #speech_balloon_</text>
</g>
</g>
</svg>
