<?xml version="1.0" encoding="UTF-8" standalone="no"?>
<!DOCTYPE svg PUBLIC "-//W3C//DTD SVG 1.1//EN"
 "http://www.w3.org/Graphics/SVG/1.1/DTD/svg11.dtd">
<!-- Generated by graphviz version 12.2.0 (20241103.1931)
 -->
<!-- Title: stackchan::display::BaseEye Pages: 1 -->
<svg width="689pt" height="833pt"
 viewBox="0.00 0.00 689.12 832.75" xmlns="http://www.w3.org/2000/svg" xmlns:xlink="http://www.w3.org/1999/xlink">
<g id="graph0" class="graph" transform="scale(1 1) rotate(0) translate(4 828.75)">
<title>stackchan::display::BaseEye</title>
<!-- Node1 -->
<g id="Node000001" class="node">
<title>Node1</title>
<g id="a_Node000001"><a xlink:title="Base class for Eye, draw nothing.">
<polygon fill="#999999" stroke="none" points="330.12,-386.75 221.38,-386.75 221.38,-188.5 330.12,-188.5 330.12,-386.75"/>
<text text-anchor="start" x="236" y="-373.25" font-family="Helvetica,sans-Serif" font-size="10.00">stackchan::display</text>
<text text-anchor="start" x="254.38" y="-362" font-family="Helvetica,sans-Serif" font-size="10.00">::BaseEye</text>
<text text-anchor="start" x="225.75" y="-346.75" font-family="Helvetica,sans-Serif" font-size="10.00">#</text>
<text text-anchor="start" x="235.38" y="-346.75" font-family="Helvetica,sans-Serif" font-size="10.00">is_left_</text>
<text text-anchor="start" x="225.75" y="-331.5" font-family="Helvetica,sans-Serif" font-size="10.00">#</text>
<text text-anchor="start" x="235.38" y="-331.5" font-family="Helvetica,sans-Serif" font-size="10.00">gaze_</text>
<text text-anchor="start" x="225.75" y="-316.25" font-family="Helvetica,sans-Serif" font-size="10.00">#</text>
<text text-anchor="start" x="235.38" y="-316.25" font-family="Helvetica,sans-Serif" font-size="10.00">iris_position_</text>
<text text-anchor="start" x="225.75" y="-301" font-family="Helvetica,sans-Serif" font-size="10.00">#</text>
<text text-anchor="start" x="235.38" y="-301" font-family="Helvetica,sans-Serif" font-size="10.00">milli_sec_</text>
<text text-anchor="start" x="225.75" y="-285.75" font-family="Helvetica,sans-Serif" font-size="10.00">#</text>
<text text-anchor="start" x="235.38" y="-285.75" font-family="Helvetica,sans-Serif" font-size="10.00">last_saccade_millis_</text>
<text text-anchor="start" x="225.75" y="-270.5" font-family="Helvetica,sans-Serif" font-size="10.00">#</text>
<text text-anchor="start" x="235.38" y="-270.5" font-family="Helvetica,sans-Serif" font-size="10.00">saccade_interval_</text>
<text text-anchor="start" x="225.75" y="-255.25" font-family="Helvetica,sans-Serif" font-size="10.00">#</text>
<text text-anchor="start" x="235.38" y="-255.25" font-family="Helvetica,sans-Serif" font-size="10.00">saccade_noise_</text>
<text text-anchor="start" x="225.38" y="-240" font-family="Helvetica,sans-Serif" font-size="10.00">+</text>
<text text-anchor="start" x="235.38" y="-240" font-family="Helvetica,sans-Serif" font-size="10.00">BaseEye()</text>
<text text-anchor="start" x="225.75" y="-224.75" font-family="Helvetica,sans-Serif" font-size="10.00">#</text>
<text text-anchor="start" x="235.38" y="-224.75" font-family="Helvetica,sans-Serif" font-size="10.00">updateGaze()</text>
<text text-anchor="start" x="225.75" y="-209.5" font-family="Helvetica,sans-Serif" font-size="10.00">#</text>
<text text-anchor="start" x="235.38" y="-209.5" font-family="Helvetica,sans-Serif" font-size="10.00">updateSaccade()</text>
<text text-anchor="start" x="225.75" y="-194.25" font-family="Helvetica,sans-Serif" font-size="10.00">#</text>
<text text-anchor="start" x="235.38" y="-194.25" font-family="Helvetica,sans-Serif" font-size="10.00">calculateOpenRatio()</text>
<polygon fill="#666666" stroke="#666666" points="221.38,-358.25 221.38,-358.25 330.12,-358.25 330.12,-358.25 221.38,-358.25"/>
<polygon fill="#666666" stroke="#666666" points="221.38,-251.5 221.38,-251.5 233.38,-251.5 233.38,-251.5 221.38,-251.5"/>
<polygon fill="#666666" stroke="#666666" points="233.38,-251.5 233.38,-251.5 330.12,-251.5 330.12,-251.5 233.38,-251.5"/>
<polygon fill="none" stroke="#666666" points="221.38,-188.5 221.38,-386.75 330.12,-386.75 330.12,-188.5 221.38,-188.5"/>
</a>
</g>
</g>
<!-- Node4 -->
<g id="Node000004" class="node">
<title>Node4</title>
<g id="a_Node000004"><a xlink:href="classstackchan_1_1display_1_1_ellipse_eye.html" target="_top" xlink:title=" ">
<polygon fill="white" stroke="none" points="87.5,-114.38 0,-114.38 0,-38.12 87.5,-38.12 87.5,-114.38"/>
<text text-anchor="start" x="4" y="-100.88" font-family="Helvetica,sans-Serif" font-size="10.00">stackchan::display</text>
<text text-anchor="start" x="19.38" y="-89.62" font-family="Helvetica,sans-Serif" font-size="10.00">::EllipseEye</text>
<text text-anchor="start" x="42.25" y="-74.38" font-family="Helvetica,sans-Serif" font-size="10.00"> </text>
<text text-anchor="start" x="10.31" y="-59.12" font-family="Helvetica,sans-Serif" font-size="10.00">+</text>
<text text-anchor="start" x="26.62" y="-59.12" font-family="Helvetica,sans-Serif" font-size="10.00">draw()</text>
<text text-anchor="start" x="10.31" y="-43.88" font-family="Helvetica,sans-Serif" font-size="10.00">+</text>
<text text-anchor="start" x="26.62" y="-43.88" font-family="Helvetica,sans-Serif" font-size="10.00">BaseEye()</text>
<polygon fill="#bfbfbf" stroke="#bfbfbf" points="0,-85.88 0,-85.88 87.5,-85.88 87.5,-85.88 0,-85.88"/>
<polygon fill="#bfbfbf" stroke="#bfbfbf" points="0,-70.62 0,-70.62 87.5,-70.62 87.5,-70.62 0,-70.62"/>
<polygon fill="none" stroke="#bfbfbf" points="0,-38.12 0,-114.38 87.5,-114.38 87.5,-38.12 0,-38.12"/>
</a>
</g>
</g>
<!-- Node1&#45;&gt;Node4 -->
<g id="edge3_Node000001_Node000004" class="edge">
<title>Node1&#45;&gt;Node4</title>
<g id="a_edge3_Node000001_Node000004"><a xlink:title=" ">
<path fill="none" stroke="#63b8ff" d="M212.27,-246.34C176.17,-221.72 131.39,-188.18 96.75,-152.5 85.62,-141.04 75.1,-127.05 66.41,-114.25"/>
<polygon fill="none" stroke="#63b8ff" points="210.22,-249.18 220.47,-251.88 214.14,-243.38 210.22,-249.18"/>
</a>
</g>
</g>
<!-- Node5 -->
<g id="Node000005" class="node">
<title>Node5</title>
<g id="a_Node000005"><a xlink:href="classstackchan_1_1display_1_1_eye.html" target="_top" xlink:title=" ">
<polygon fill="white" stroke="none" points="213.62,-108.75 105.88,-108.75 105.88,-43.75 213.62,-43.75 213.62,-108.75"/>
<text text-anchor="start" x="109.88" y="-95.25" font-family="Helvetica,sans-Serif" font-size="10.00">stackchan::display::Eye</text>
<text text-anchor="start" x="158.25" y="-80" font-family="Helvetica,sans-Serif" font-size="10.00"> </text>
<text text-anchor="start" x="121.25" y="-64.75" font-family="Helvetica,sans-Serif" font-size="10.00">+</text>
<text text-anchor="start" x="142.62" y="-64.75" font-family="Helvetica,sans-Serif" font-size="10.00">draw()</text>
<text text-anchor="start" x="121.25" y="-49.5" font-family="Helvetica,sans-Serif" font-size="10.00">+</text>
<text text-anchor="start" x="142.62" y="-49.5" font-family="Helvetica,sans-Serif" font-size="10.00">BaseEye()</text>
<polygon fill="#bfbfbf" stroke="#bfbfbf" points="105.88,-91.5 105.88,-91.5 213.62,-91.5 213.62,-91.5 105.88,-91.5"/>
<polygon fill="#bfbfbf" stroke="#bfbfbf" points="105.88,-76.25 105.88,-76.25 213.62,-76.25 213.62,-76.25 105.88,-76.25"/>
<polygon fill="none" stroke="#bfbfbf" points="105.88,-43.75 105.88,-108.75 213.62,-108.75 213.62,-43.75 105.88,-43.75"/>
</a>
</g>
</g>
<!-- Node1&#45;&gt;Node5 -->
<g id="edge4_Node000001_Node000005" class="edge">
<title>Node1&#45;&gt;Node5</title>
<g id="a_edge4_Node000001_Node000005"><a xlink:title=" ">
<path fill="none" stroke="#63b8ff" d="M216.03,-178.83C201.79,-153.12 187.68,-127.67 177.16,-108.67"/>
<polygon fill="none" stroke="#63b8ff" points="212.84,-180.31 220.75,-187.36 218.97,-176.91 212.84,-180.31"/>
</a>
</g>
</g>
<!-- Node6 -->
<g id="Node000006" class="node">
<title>Node6</title>
<g id="a_Node000006"><a xlink:href="classstackchan_1_1display_1_1_round_rect_eye.html" target="_top" xlink:title=" ">
<polygon fill="white" stroke="none" points="319.5,-114.38 232,-114.38 232,-38.12 319.5,-38.12 319.5,-114.38"/>
<text text-anchor="start" x="236" y="-100.88" font-family="Helvetica,sans-Serif" font-size="10.00">stackchan::display</text>
<text text-anchor="start" x="241.62" y="-89.62" font-family="Helvetica,sans-Serif" font-size="10.00">::RoundRectEye</text>
<text text-anchor="start" x="274.25" y="-74.38" font-family="Helvetica,sans-Serif" font-size="10.00"> </text>
<text text-anchor="start" x="242.31" y="-59.12" font-family="Helvetica,sans-Serif" font-size="10.00">+</text>
<text text-anchor="start" x="258.62" y="-59.12" font-family="Helvetica,sans-Serif" font-size="10.00">draw()</text>
<text text-anchor="start" x="242.31" y="-43.88" font-family="Helvetica,sans-Serif" font-size="10.00">+</text>
<text text-anchor="start" x="258.62" y="-43.88" font-family="Helvetica,sans-Serif" font-size="10.00">BaseEye()</text>
<polygon fill="#bfbfbf" stroke="#bfbfbf" points="232,-85.88 232,-85.88 319.5,-85.88 319.5,-85.88 232,-85.88"/>
<polygon fill="#bfbfbf" stroke="#bfbfbf" points="232,-70.62 232,-70.62 319.5,-70.62 319.5,-70.62 232,-70.62"/>
<polygon fill="none" stroke="#bfbfbf" points="232,-38.12 232,-114.38 319.5,-114.38 319.5,-38.12 232,-38.12"/>
</a>
</g>
</g>
<!-- Node1&#45;&gt;Node6 -->
<g id="edge5_Node000001_Node000006" class="edge">
<title>Node1&#45;&gt;Node6</title>
<g id="a_edge5_Node000001_Node000006"><a xlink:title=" ">
<path fill="none" stroke="#63b8ff" d="M275.75,-177.44C275.75,-154.55 275.75,-131.95 275.75,-114.02"/>
<polygon fill="none" stroke="#63b8ff" points="272.25,-177.17 275.75,-187.17 279.25,-177.17 272.25,-177.17"/>
</a>
</g>
</g>
<!-- Node7 -->
<g id="Node000007" class="node">
<title>Node7</title>
<g id="a_Node000007"><a xlink:href="classstackchan_1_1display_1_1_toon_eye1.html" target="_top" xlink:title=" ">
<polygon fill="white" stroke="none" points="500.12,-152.5 337.38,-152.5 337.38,0 500.12,0 500.12,-152.5"/>
<text text-anchor="start" x="379" y="-139" font-family="Helvetica,sans-Serif" font-size="10.00">stackchan::display</text>
<text text-anchor="start" x="395.12" y="-127.75" font-family="Helvetica,sans-Serif" font-size="10.00">::ToonEye1</text>
<text text-anchor="start" x="417.25" y="-112.5" font-family="Helvetica,sans-Serif" font-size="10.00"> </text>
<text text-anchor="start" x="341.38" y="-97.25" font-family="Helvetica,sans-Serif" font-size="10.00">+</text>
<text text-anchor="start" x="351.38" y="-97.25" font-family="Helvetica,sans-Serif" font-size="10.00">drawIris()</text>
<text text-anchor="start" x="341.38" y="-82" font-family="Helvetica,sans-Serif" font-size="10.00">+</text>
<text text-anchor="start" x="351.38" y="-82" font-family="Helvetica,sans-Serif" font-size="10.00">drawEyelid()</text>
<text text-anchor="start" x="341.38" y="-66.75" font-family="Helvetica,sans-Serif" font-size="10.00">+</text>
<text text-anchor="start" x="351.38" y="-66.75" font-family="Helvetica,sans-Serif" font-size="10.00">drawEyeLash()</text>
<text text-anchor="start" x="341.38" y="-51.5" font-family="Helvetica,sans-Serif" font-size="10.00">+</text>
<text text-anchor="start" x="351.38" y="-51.5" font-family="Helvetica,sans-Serif" font-size="10.00">draw()</text>
<text text-anchor="start" x="341.38" y="-36.25" font-family="Helvetica,sans-Serif" font-size="10.00">+</text>
<text text-anchor="start" x="351.38" y="-36.25" font-family="Helvetica,sans-Serif" font-size="10.00">BaseEye()</text>
<text text-anchor="start" x="341.75" y="-21" font-family="Helvetica,sans-Serif" font-size="10.00">#</text>
<text text-anchor="start" x="351.38" y="-21" font-family="Helvetica,sans-Serif" font-size="10.00">computeEyelidBaseWaypoints()</text>
<text text-anchor="start" x="341.75" y="-5.75" font-family="Helvetica,sans-Serif" font-size="10.00">#</text>
<text text-anchor="start" x="351.38" y="-5.75" font-family="Helvetica,sans-Serif" font-size="10.00">computeEyelashBaseWaypoints()</text>
<polygon fill="#bfbfbf" stroke="#bfbfbf" points="337.38,-124 337.38,-124 500.12,-124 500.12,-124 337.38,-124"/>
<polygon fill="#bfbfbf" stroke="#bfbfbf" points="337.38,-108.75 337.38,-108.75 500.12,-108.75 500.12,-108.75 337.38,-108.75"/>
<polygon fill="none" stroke="#bfbfbf" points="337.38,0 337.38,-152.5 500.12,-152.5 500.12,0 337.38,0"/>
</a>
</g>
</g>
<!-- Node1&#45;&gt;Node7 -->
<g id="edge6_Node000001_Node000007" class="edge">
<title>Node1&#45;&gt;Node7</title>
<g id="a_edge6_Node000001_Node000007"><a xlink:title=" ">
<path fill="none" stroke="#63b8ff" d="M336.43,-197.78C346.8,-182.59 357.49,-166.95 367.59,-152.16"/>
<polygon fill="none" stroke="#63b8ff" points="333.62,-195.69 330.87,-205.92 339.4,-199.64 333.62,-195.69"/>
</a>
</g>
</g>
<!-- Node8 -->
<g id="Node000008" class="node">
<title>Node8</title>
<g id="a_Node000008"><a xlink:href="classstackchan_1_1display_1_1_toon_eye2.html" target="_top" xlink:title=" ">
<polygon fill="white" stroke="none" points="681.12,-152.5 518.38,-152.5 518.38,0 681.12,0 681.12,-152.5"/>
<text text-anchor="start" x="560" y="-139" font-family="Helvetica,sans-Serif" font-size="10.00">stackchan::display</text>
<text text-anchor="start" x="576.12" y="-127.75" font-family="Helvetica,sans-Serif" font-size="10.00">::ToonEye2</text>
<text text-anchor="start" x="598.25" y="-112.5" font-family="Helvetica,sans-Serif" font-size="10.00"> </text>
<text text-anchor="start" x="522.38" y="-97.25" font-family="Helvetica,sans-Serif" font-size="10.00">+</text>
<text text-anchor="start" x="532.38" y="-97.25" font-family="Helvetica,sans-Serif" font-size="10.00">drawIris()</text>
<text text-anchor="start" x="522.38" y="-82" font-family="Helvetica,sans-Serif" font-size="10.00">+</text>
<text text-anchor="start" x="532.38" y="-82" font-family="Helvetica,sans-Serif" font-size="10.00">drawEyelid()</text>
<text text-anchor="start" x="522.38" y="-66.75" font-family="Helvetica,sans-Serif" font-size="10.00">+</text>
<text text-anchor="start" x="532.38" y="-66.75" font-family="Helvetica,sans-Serif" font-size="10.00">drawEyeLash()</text>
<text text-anchor="start" x="522.38" y="-51.5" font-family="Helvetica,sans-Serif" font-size="10.00">+</text>
<text text-anchor="start" x="532.38" y="-51.5" font-family="Helvetica,sans-Serif" font-size="10.00">draw()</text>
<text text-anchor="start" x="522.38" y="-36.25" font-family="Helvetica,sans-Serif" font-size="10.00">+</text>
<text text-anchor="start" x="532.38" y="-36.25" font-family="Helvetica,sans-Serif" font-size="10.00">BaseEye()</text>
<text text-anchor="start" x="522.75" y="-21" font-family="Helvetica,sans-Serif" font-size="10.00">#</text>
<text text-anchor="start" x="532.38" y="-21" font-family="Helvetica,sans-Serif" font-size="10.00">computeEyelidBaseWaypoints()</text>
<text text-anchor="start" x="522.75" y="-5.75" font-family="Helvetica,sans-Serif" font-size="10.00">#</text>
<text text-anchor="start" x="532.38" y="-5.75" font-family="Helvetica,sans-Serif" font-size="10.00">computeEyelashBaseWaypoints()</text>
<polygon fill="#bfbfbf" stroke="#bfbfbf" points="518.38,-124 518.38,-124 681.12,-124 681.12,-124 518.38,-124"/>
<polygon fill="#bfbfbf" stroke="#bfbfbf" points="518.38,-108.75 518.38,-108.75 681.12,-108.75 681.12,-108.75 518.38,-108.75"/>
<polygon fill="none" stroke="#bfbfbf" points="518.38,0 518.38,-152.5 681.12,-152.5 681.12,0 518.38,0"/>
</a>
</g>
</g>
<!-- Node1&#45;&gt;Node8 -->
<g id="edge7_Node000001_Node000008" class="edge">
<title>Node1&#45;&gt;Node8</title>
<g id="a_edge7_Node000001_Node000008"><a xlink:title=" ">
<path fill="none" stroke="#63b8ff" d="M339.97,-253.45C387.79,-227.86 453.98,-190.51 508.75,-152.5 511.95,-150.28 515.18,-147.97 518.41,-145.61"/>
<polygon fill="none" stroke="#63b8ff" points="338.58,-250.23 331.4,-258.02 341.87,-256.41 338.58,-250.23"/>
</a>
</g>
</g>
<!-- Node2 -->
<g id="Node000002" class="node">
<title>Node2</title>
<g id="a_Node000002"><a xlink:href="classstackchan_1_1display_1_1_facial_drawable.html" target="_top" xlink:title=" ">
<polygon fill="white" stroke="none" points="319.5,-514.25 232,-514.25 232,-422.75 319.5,-422.75 319.5,-514.25"/>
<text text-anchor="start" x="236" y="-500.75" font-family="Helvetica,sans-Serif" font-size="10.00">stackchan::display</text>
<text text-anchor="start" x="240.12" y="-489.5" font-family="Helvetica,sans-Serif" font-size="10.00">::FacialDrawable</text>
<text text-anchor="start" x="274.25" y="-474.25" font-family="Helvetica,sans-Serif" font-size="10.00"> </text>
<text text-anchor="start" x="241.75" y="-459" font-family="Helvetica,sans-Serif" font-size="10.00">+</text>
<text text-anchor="start" x="257.5" y="-459" font-family="Helvetica,sans-Serif" font-size="10.00">draw()</text>
<text text-anchor="start" x="241.75" y="-443.75" font-family="Helvetica,sans-Serif" font-size="10.00">+</text>
<text text-anchor="start" x="257.5" y="-443.75" font-family="Helvetica,sans-Serif" font-size="10.00">Drawable()</text>
<text text-anchor="start" x="241.75" y="-428.5" font-family="Helvetica,sans-Serif" font-size="10.00">+</text>
<text text-anchor="start" x="257.5" y="-428.5" font-family="Helvetica,sans-Serif" font-size="10.00">Drawable()</text>
<polygon fill="#bfbfbf" stroke="#bfbfbf" points="232,-485.75 232,-485.75 319.5,-485.75 319.5,-485.75 232,-485.75"/>
<polygon fill="#bfbfbf" stroke="#bfbfbf" points="232,-470.5 232,-470.5 319.5,-470.5 319.5,-470.5 232,-470.5"/>
<polygon fill="none" stroke="#bfbfbf" points="232,-422.75 232,-514.25 319.5,-514.25 319.5,-422.75 232,-422.75"/>
</a>
</g>
</g>
<!-- Node2&#45;&gt;Node1 -->
<g id="edge1_Node000001_Node000002" class="edge">
<title>Node2&#45;&gt;Node1</title>
<g id="a_edge1_Node000001_Node000002"><a xlink:title=" ">
<path fill="none" stroke="#63b8ff" d="M275.75,-411.45C275.75,-403.46 275.75,-395.06 275.75,-386.55"/>
<polygon fill="none" stroke="#63b8ff" points="272.25,-411.31 275.75,-421.31 279.25,-411.31 272.25,-411.31"/>
</a>
</g>
</g>
<!-- Node3 -->
<g id="Node000003" class="node">
<title>Node3</title>
<g id="a_Node000003"><a xlink:href="classstackchan_1_1display_1_1_drawable.html" target="_top" xlink:title=" ">
<polygon fill="white" stroke="none" points="326.38,-824.75 225.12,-824.75 225.12,-550.25 326.38,-550.25 326.38,-824.75"/>
<text text-anchor="start" x="236" y="-811.25" font-family="Helvetica,sans-Serif" font-size="10.00">stackchan::display</text>
<text text-anchor="start" x="253.25" y="-800" font-family="Helvetica,sans-Serif" font-size="10.00">::Drawable</text>
<text text-anchor="start" x="229.5" y="-784.75" font-family="Helvetica,sans-Serif" font-size="10.00">#</text>
<text text-anchor="start" x="239.12" y="-784.75" font-family="Helvetica,sans-Serif" font-size="10.00">position_</text>
<text text-anchor="start" x="229.5" y="-769.5" font-family="Helvetica,sans-Serif" font-size="10.00">#</text>
<text text-anchor="start" x="239.12" y="-769.5" font-family="Helvetica,sans-Serif" font-size="10.00">rotation_</text>
<text text-anchor="start" x="229.5" y="-754.25" font-family="Helvetica,sans-Serif" font-size="10.00">#</text>
<text text-anchor="start" x="239.12" y="-754.25" font-family="Helvetica,sans-Serif" font-size="10.00">size_</text>
<text text-anchor="start" x="229.5" y="-739" font-family="Helvetica,sans-Serif" font-size="10.00">#</text>
<text text-anchor="start" x="239.12" y="-739" font-family="Helvetica,sans-Serif" font-size="10.00">visible_</text>
<text text-anchor="start" x="229.5" y="-723.75" font-family="Helvetica,sans-Serif" font-size="10.00">#</text>
<text text-anchor="start" x="239.12" y="-723.75" font-family="Helvetica,sans-Serif" font-size="10.00">ignore_expression_</text>
<text text-anchor="start" x="229.12" y="-708.5" font-family="Helvetica,sans-Serif" font-size="10.00">+</text>
<text text-anchor="start" x="239.12" y="-708.5" font-family="Helvetica,sans-Serif" font-size="10.00">Drawable()</text>
<text text-anchor="start" x="229.12" y="-693.25" font-family="Helvetica,sans-Serif" font-size="10.00">+</text>
<text text-anchor="start" x="239.12" y="-693.25" font-family="Helvetica,sans-Serif" font-size="10.00">Drawable()</text>
<text text-anchor="start" x="229.12" y="-678" font-family="Helvetica,sans-Serif" font-size="10.00">+</text>
<text text-anchor="start" x="239.12" y="-678" font-family="Helvetica,sans-Serif" font-size="10.00">~Drawable()</text>
<text text-anchor="start" x="229.12" y="-662.75" font-family="Helvetica,sans-Serif" font-size="10.00">+</text>
<text text-anchor="start" x="239.12" y="-662.75" font-family="Helvetica,sans-Serif" font-size="10.00">setPosition()</text>
<text text-anchor="start" x="229.12" y="-647.5" font-family="Helvetica,sans-Serif" font-size="10.00">+</text>
<text text-anchor="start" x="239.12" y="-647.5" font-family="Helvetica,sans-Serif" font-size="10.00">getPosition()</text>
<text text-anchor="start" x="229.12" y="-632.25" font-family="Helvetica,sans-Serif" font-size="10.00">+</text>
<text text-anchor="start" x="239.12" y="-632.25" font-family="Helvetica,sans-Serif" font-size="10.00">setRotation()</text>
<text text-anchor="start" x="229.12" y="-617" font-family="Helvetica,sans-Serif" font-size="10.00">+</text>
<text text-anchor="start" x="239.12" y="-617" font-family="Helvetica,sans-Serif" font-size="10.00">getRotation()</text>
<text text-anchor="start" x="229.12" y="-601.75" font-family="Helvetica,sans-Serif" font-size="10.00">+</text>
<text text-anchor="start" x="239.12" y="-601.75" font-family="Helvetica,sans-Serif" font-size="10.00">setSize()</text>
<text text-anchor="start" x="229.12" y="-586.5" font-family="Helvetica,sans-Serif" font-size="10.00">+</text>
<text text-anchor="start" x="239.12" y="-586.5" font-family="Helvetica,sans-Serif" font-size="10.00">getSize()</text>
<text text-anchor="start" x="229.12" y="-571.25" font-family="Helvetica,sans-Serif" font-size="10.00">+</text>
<text text-anchor="start" x="239.12" y="-571.25" font-family="Helvetica,sans-Serif" font-size="10.00">setVisible()</text>
<text text-anchor="start" x="239.12" y="-556" font-family="Helvetica,sans-Serif" font-size="10.00">and 7 more...</text>
<polygon fill="#bfbfbf" stroke="#bfbfbf" points="225.12,-796.25 225.12,-796.25 326.38,-796.25 326.38,-796.25 225.12,-796.25"/>
<polygon fill="#bfbfbf" stroke="#bfbfbf" points="225.12,-720 225.12,-720 237.12,-720 237.12,-720 225.12,-720"/>
<polygon fill="#bfbfbf" stroke="#bfbfbf" points="237.12,-720 237.12,-720 326.38,-720 326.38,-720 237.12,-720"/>
<polygon fill="none" stroke="#bfbfbf" points="225.12,-550.25 225.12,-824.75 326.38,-824.75 326.38,-550.25 225.12,-550.25"/>
</a>
</g>
</g>
<!-- Node3&#45;&gt;Node2 -->
<g id="edge2_Node000002_Node000003" class="edge">
<title>Node3&#45;&gt;Node2</title>
<g id="a_edge2_Node000002_Node000003"><a xlink:title=" ">
<path fill="none" stroke="#63b8ff" d="M275.75,-538.95C275.75,-530.13 275.75,-521.71 275.75,-513.97"/>
<polygon fill="none" stroke="#63b8ff" points="272.25,-538.79 275.75,-548.79 279.25,-538.79 272.25,-538.79"/>
</a>
</g>
</g>
</g>
</svg>
