<?xml version="1.0" encoding="UTF-8" standalone="no"?>
<!DOCTYPE svg PUBLIC "-//W3C//DTD SVG 1.1//EN"
 "http://www.w3.org/Graphics/SVG/1.1/DTD/svg11.dtd">
<!-- Generated by graphviz version 12.2.0 (20241103.1931)
 -->
<!-- Title: stackchan::display::Face Pages: 1 -->
<svg width="254pt" height="1227pt"
 viewBox="0.00 0.00 253.84 1227.00" xmlns="http://www.w3.org/2000/svg" xmlns:xlink="http://www.w3.org/1999/xlink">
<g id="graph0" class="graph" transform="scale(1 1) rotate(0) translate(4 1223)">
<title>stackchan::display::Face</title>
<!-- Node1 -->
<g id="Node000001" class="node">
<title>Node1</title>
<g id="a_Node000001"><a xlink:title=" ">
<polygon fill="#999999" stroke="none" points="230.88,-259.25 119.88,-259.25 119.88,0 230.88,0 230.88,-259.25"/>
<text text-anchor="start" x="135.62" y="-245.75" font-family="Helvetica,sans-Serif" font-size="10.00">stackchan::display</text>
<text text-anchor="start" x="162.25" y="-234.5" font-family="Helvetica,sans-Serif" font-size="10.00">::Face</text>
<text text-anchor="start" x="124.25" y="-219.25" font-family="Helvetica,sans-Serif" font-size="10.00">#</text>
<text text-anchor="start" x="133.88" y="-219.25" font-family="Helvetica,sans-Serif" font-size="10.00">is_auto_blink_</text>
<text text-anchor="start" x="124.25" y="-204" font-family="Helvetica,sans-Serif" font-size="10.00">#</text>
<text text-anchor="start" x="133.88" y="-204" font-family="Helvetica,sans-Serif" font-size="10.00">auto_blink_interval_</text>
<text text-anchor="start" x="124.25" y="-188.75" font-family="Helvetica,sans-Serif" font-size="10.00">#</text>
<text text-anchor="start" x="133.88" y="-188.75" font-family="Helvetica,sans-Serif" font-size="10.00">last_blink_time_</text>
<text text-anchor="start" x="124.25" y="-173.5" font-family="Helvetica,sans-Serif" font-size="10.00">#</text>
<text text-anchor="start" x="133.88" y="-173.5" font-family="Helvetica,sans-Serif" font-size="10.00">blink_duration_</text>
<text text-anchor="start" x="124.25" y="-158.25" font-family="Helvetica,sans-Serif" font-size="10.00">#</text>
<text text-anchor="start" x="133.88" y="-158.25" font-family="Helvetica,sans-Serif" font-size="10.00">breath_frequency_</text>
<text text-anchor="start" x="123.88" y="-143" font-family="Helvetica,sans-Serif" font-size="10.00">+</text>
<text text-anchor="start" x="133.88" y="-143" font-family="Helvetica,sans-Serif" font-size="10.00">Face()</text>
<text text-anchor="start" x="123.88" y="-127.75" font-family="Helvetica,sans-Serif" font-size="10.00">+</text>
<text text-anchor="start" x="133.88" y="-127.75" font-family="Helvetica,sans-Serif" font-size="10.00">Face()</text>
<text text-anchor="start" x="123.88" y="-112.5" font-family="Helvetica,sans-Serif" font-size="10.00">+</text>
<text text-anchor="start" x="133.88" y="-112.5" font-family="Helvetica,sans-Serif" font-size="10.00">getLeftEye()</text>
<text text-anchor="start" x="123.88" y="-97.25" font-family="Helvetica,sans-Serif" font-size="10.00">+</text>
<text text-anchor="start" x="133.88" y="-97.25" font-family="Helvetica,sans-Serif" font-size="10.00">getRightEye()</text>
<text text-anchor="start" x="123.88" y="-82" font-family="Helvetica,sans-Serif" font-size="10.00">+</text>
<text text-anchor="start" x="133.88" y="-82" font-family="Helvetica,sans-Serif" font-size="10.00">getMouth()</text>
<text text-anchor="start" x="123.88" y="-66.75" font-family="Helvetica,sans-Serif" font-size="10.00">+</text>
<text text-anchor="start" x="133.88" y="-66.75" font-family="Helvetica,sans-Serif" font-size="10.00">activateAutoBlink()</text>
<text text-anchor="start" x="123.88" y="-51.5" font-family="Helvetica,sans-Serif" font-size="10.00">+</text>
<text text-anchor="start" x="133.88" y="-51.5" font-family="Helvetica,sans-Serif" font-size="10.00">deactivateAutoBlink()</text>
<text text-anchor="start" x="123.88" y="-36.25" font-family="Helvetica,sans-Serif" font-size="10.00">+</text>
<text text-anchor="start" x="133.88" y="-36.25" font-family="Helvetica,sans-Serif" font-size="10.00">getIsAutoBlink()</text>
<text text-anchor="start" x="123.88" y="-21" font-family="Helvetica,sans-Serif" font-size="10.00">+</text>
<text text-anchor="start" x="133.88" y="-21" font-family="Helvetica,sans-Serif" font-size="10.00">updateState()</text>
<text text-anchor="start" x="123.88" y="-5.75" font-family="Helvetica,sans-Serif" font-size="10.00">+</text>
<text text-anchor="start" x="133.88" y="-5.75" font-family="Helvetica,sans-Serif" font-size="10.00">draw()</text>
<polygon fill="#666666" stroke="#666666" points="119.88,-230.75 119.88,-230.75 230.88,-230.75 230.88,-230.75 119.88,-230.75"/>
<polygon fill="#666666" stroke="#666666" points="119.88,-154.5 119.88,-154.5 131.88,-154.5 131.88,-154.5 119.88,-154.5"/>
<polygon fill="#666666" stroke="#666666" points="131.88,-154.5 131.88,-154.5 230.88,-154.5 230.88,-154.5 131.88,-154.5"/>
<polygon fill="none" stroke="#666666" points="119.88,0 119.88,-259.25 230.88,-259.25 230.88,0 119.88,0"/>
</a>
</g>
</g>
<!-- Node2 -->
<g id="Node000002" class="node">
<title>Node2</title>
<g id="a_Node000002"><a xlink:href="classstackchan_1_1display_1_1_facial_drawable.html" target="_top" xlink:title=" ">
<polygon fill="white" stroke="none" points="209.12,-583.5 121.62,-583.5 121.62,-492 209.12,-492 209.12,-583.5"/>
<text text-anchor="start" x="125.62" y="-570" font-family="Helvetica,sans-Serif" font-size="10.00">stackchan::display</text>
<text text-anchor="start" x="129.75" y="-558.75" font-family="Helvetica,sans-Serif" font-size="10.00">::FacialDrawable</text>
<text text-anchor="start" x="163.88" y="-543.5" font-family="Helvetica,sans-Serif" font-size="10.00"> </text>
<text text-anchor="start" x="131.38" y="-528.25" font-family="Helvetica,sans-Serif" font-size="10.00">+</text>
<text text-anchor="start" x="147.12" y="-528.25" font-family="Helvetica,sans-Serif" font-size="10.00">draw()</text>
<text text-anchor="start" x="131.38" y="-513" font-family="Helvetica,sans-Serif" font-size="10.00">+</text>
<text text-anchor="start" x="147.12" y="-513" font-family="Helvetica,sans-Serif" font-size="10.00">Drawable()</text>
<text text-anchor="start" x="131.38" y="-497.75" font-family="Helvetica,sans-Serif" font-size="10.00">+</text>
<text text-anchor="start" x="147.12" y="-497.75" font-family="Helvetica,sans-Serif" font-size="10.00">Drawable()</text>
<polygon fill="#bfbfbf" stroke="#bfbfbf" points="121.62,-555 121.62,-555 209.12,-555 209.12,-555 121.62,-555"/>
<polygon fill="#bfbfbf" stroke="#bfbfbf" points="121.62,-539.75 121.62,-539.75 209.12,-539.75 209.12,-539.75 121.62,-539.75"/>
<polygon fill="none" stroke="#bfbfbf" points="121.62,-492 121.62,-583.5 209.12,-583.5 209.12,-492 121.62,-492"/>
</a>
</g>
</g>
<!-- Node2&#45;&gt;Node1 -->
<g id="edge1_Node000001_Node000002" class="edge">
<title>Node2&#45;&gt;Node1</title>
<g id="a_edge1_Node000001_Node000002"><a xlink:title=" ">
<path fill="none" stroke="#63b8ff" d="M215.6,-485.93C222.47,-476.33 228.49,-465.87 232.38,-455 254.75,-392.41 245.05,-319.77 227.79,-259.12"/>
<polygon fill="none" stroke="#63b8ff" points="212.99,-483.58 209.71,-493.65 218.56,-487.83 212.99,-483.58"/>
</a>
</g>
</g>
<!-- Node6 -->
<g id="Node000006" class="node">
<title>Node6</title>
<g id="a_Node000006"><a xlink:href="classstackchan_1_1display_1_1_base_eye.html" target="_top" xlink:title="Base class for Eye, draw nothing.">
<polygon fill="white" stroke="none" points="108.75,-455 0,-455 0,-317.75 108.75,-317.75 108.75,-455"/>
<text text-anchor="start" x="14.62" y="-441.5" font-family="Helvetica,sans-Serif" font-size="10.00">stackchan::display</text>
<text text-anchor="start" x="33" y="-430.25" font-family="Helvetica,sans-Serif" font-size="10.00">::BaseEye</text>
<text text-anchor="start" x="4.38" y="-415" font-family="Helvetica,sans-Serif" font-size="10.00">#</text>
<text text-anchor="start" x="14" y="-415" font-family="Helvetica,sans-Serif" font-size="10.00">is_left_</text>
<text text-anchor="start" x="4.38" y="-399.75" font-family="Helvetica,sans-Serif" font-size="10.00">#</text>
<text text-anchor="start" x="14" y="-399.75" font-family="Helvetica,sans-Serif" font-size="10.00">milli_sec_</text>
<text text-anchor="start" x="4.38" y="-384.5" font-family="Helvetica,sans-Serif" font-size="10.00">#</text>
<text text-anchor="start" x="14" y="-384.5" font-family="Helvetica,sans-Serif" font-size="10.00">last_saccade_millis_</text>
<text text-anchor="start" x="4.38" y="-369.25" font-family="Helvetica,sans-Serif" font-size="10.00">#</text>
<text text-anchor="start" x="14" y="-369.25" font-family="Helvetica,sans-Serif" font-size="10.00">saccade_interval_</text>
<text text-anchor="start" x="4" y="-354" font-family="Helvetica,sans-Serif" font-size="10.00">+</text>
<text text-anchor="start" x="14" y="-354" font-family="Helvetica,sans-Serif" font-size="10.00">BaseEye()</text>
<text text-anchor="start" x="4.38" y="-338.75" font-family="Helvetica,sans-Serif" font-size="10.00">#</text>
<text text-anchor="start" x="14" y="-338.75" font-family="Helvetica,sans-Serif" font-size="10.00">updateGaze()</text>
<text text-anchor="start" x="4.38" y="-323.5" font-family="Helvetica,sans-Serif" font-size="10.00">#</text>
<text text-anchor="start" x="14" y="-323.5" font-family="Helvetica,sans-Serif" font-size="10.00">updateSaccade()</text>
<polygon fill="#666666" stroke="#666666" points="0,-426.5 0,-426.5 108.75,-426.5 108.75,-426.5 0,-426.5"/>
<polygon fill="#666666" stroke="#666666" points="0,-365.5 0,-365.5 12,-365.5 12,-365.5 0,-365.5"/>
<polygon fill="#666666" stroke="#666666" points="12,-365.5 12,-365.5 108.75,-365.5 108.75,-365.5 12,-365.5"/>
<polygon fill="none" stroke="#666666" points="0,-317.75 0,-455 108.75,-455 108.75,-317.75 0,-317.75"/>
</a>
</g>
</g>
<!-- Node2&#45;&gt;Node6 -->
<g id="edge6_Node000006_Node000002" class="edge">
<title>Node2&#45;&gt;Node6</title>
<g id="a_edge6_Node000006_Node000002"><a xlink:title=" ">
<path fill="none" stroke="#63b8ff" d="M125.65,-483.3C118.8,-474.08 111.6,-464.39 104.52,-454.85"/>
<polygon fill="none" stroke="#63b8ff" points="122.7,-485.18 131.47,-491.12 128.31,-481.01 122.7,-485.18"/>
</a>
</g>
</g>
<!-- Node7 -->
<g id="Node000007" class="node">
<title>Node7</title>
<g id="a_Node000007"><a xlink:href="classstackchan_1_1display_1_1_base_mouth.html" target="_top" xlink:title=" ">
<polygon fill="white" stroke="none" points="223.75,-416.88 127,-416.88 127,-355.88 223.75,-355.88 223.75,-416.88"/>
<text text-anchor="start" x="135.62" y="-403.38" font-family="Helvetica,sans-Serif" font-size="10.00">stackchan::display</text>
<text text-anchor="start" x="148.38" y="-392.12" font-family="Helvetica,sans-Serif" font-size="10.00">::BaseMouth</text>
<text text-anchor="start" x="131" y="-376.88" font-family="Helvetica,sans-Serif" font-size="10.00">#</text>
<text text-anchor="start" x="140.25" y="-376.88" font-family="Helvetica,sans-Serif" font-size="10.00">breath_amplitude_</text>
<text text-anchor="start" x="173.88" y="-361.62" font-family="Helvetica,sans-Serif" font-size="10.00"> </text>
<polygon fill="#bfbfbf" stroke="#bfbfbf" points="127,-388.38 127,-388.38 223.75,-388.38 223.75,-388.38 127,-388.38"/>
<polygon fill="#bfbfbf" stroke="#bfbfbf" points="127,-373.12 127,-373.12 138.25,-373.12 138.25,-373.12 127,-373.12"/>
<polygon fill="#bfbfbf" stroke="#bfbfbf" points="138.25,-373.12 138.25,-373.12 223.75,-373.12 223.75,-373.12 138.25,-373.12"/>
<polygon fill="none" stroke="#bfbfbf" points="127,-355.88 127,-416.88 223.75,-416.88 223.75,-355.88 127,-355.88"/>
</a>
</g>
</g>
<!-- Node2&#45;&gt;Node7 -->
<g id="edge9_Node000007_Node000002" class="edge">
<title>Node2&#45;&gt;Node7</title>
<g id="a_edge9_Node000007_Node000002"><a xlink:title=" ">
<path fill="none" stroke="#63b8ff" d="M169.12,-480.86C170.58,-459.07 172.19,-435.01 173.41,-416.75"/>
<polygon fill="none" stroke="#63b8ff" points="165.63,-480.62 168.45,-490.83 172.61,-481.08 165.63,-480.62"/>
</a>
</g>
</g>
<!-- Node3 -->
<g id="Node000003" class="node">
<title>Node3</title>
<g id="a_Node000003"><a xlink:href="classstackchan_1_1display_1_1_drawable.html" target="_top" xlink:title=" ">
<polygon fill="white" stroke="none" points="215,-908.5 113.75,-908.5 113.75,-664.5 215,-664.5 215,-908.5"/>
<text text-anchor="start" x="124.62" y="-895" font-family="Helvetica,sans-Serif" font-size="10.00">stackchan::display</text>
<text text-anchor="start" x="141.88" y="-883.75" font-family="Helvetica,sans-Serif" font-size="10.00">::Drawable</text>
<text text-anchor="start" x="118.12" y="-868.5" font-family="Helvetica,sans-Serif" font-size="10.00">#</text>
<text text-anchor="start" x="127.75" y="-868.5" font-family="Helvetica,sans-Serif" font-size="10.00">rotation_</text>
<text text-anchor="start" x="118.12" y="-853.25" font-family="Helvetica,sans-Serif" font-size="10.00">#</text>
<text text-anchor="start" x="127.75" y="-853.25" font-family="Helvetica,sans-Serif" font-size="10.00">visible_</text>
<text text-anchor="start" x="118.12" y="-838" font-family="Helvetica,sans-Serif" font-size="10.00">#</text>
<text text-anchor="start" x="127.75" y="-838" font-family="Helvetica,sans-Serif" font-size="10.00">ignore_expression_</text>
<text text-anchor="start" x="117.75" y="-822.75" font-family="Helvetica,sans-Serif" font-size="10.00">+</text>
<text text-anchor="start" x="127.75" y="-822.75" font-family="Helvetica,sans-Serif" font-size="10.00">Drawable()</text>
<text text-anchor="start" x="117.75" y="-807.5" font-family="Helvetica,sans-Serif" font-size="10.00">+</text>
<text text-anchor="start" x="127.75" y="-807.5" font-family="Helvetica,sans-Serif" font-size="10.00">Drawable()</text>
<text text-anchor="start" x="117.75" y="-792.25" font-family="Helvetica,sans-Serif" font-size="10.00">+</text>
<text text-anchor="start" x="127.75" y="-792.25" font-family="Helvetica,sans-Serif" font-size="10.00">~Drawable()</text>
<text text-anchor="start" x="117.75" y="-777" font-family="Helvetica,sans-Serif" font-size="10.00">+</text>
<text text-anchor="start" x="127.75" y="-777" font-family="Helvetica,sans-Serif" font-size="10.00">setPosition()</text>
<text text-anchor="start" x="117.75" y="-761.75" font-family="Helvetica,sans-Serif" font-size="10.00">+</text>
<text text-anchor="start" x="127.75" y="-761.75" font-family="Helvetica,sans-Serif" font-size="10.00">getPosition()</text>
<text text-anchor="start" x="117.75" y="-746.5" font-family="Helvetica,sans-Serif" font-size="10.00">+</text>
<text text-anchor="start" x="127.75" y="-746.5" font-family="Helvetica,sans-Serif" font-size="10.00">setRotation()</text>
<text text-anchor="start" x="117.75" y="-731.25" font-family="Helvetica,sans-Serif" font-size="10.00">+</text>
<text text-anchor="start" x="127.75" y="-731.25" font-family="Helvetica,sans-Serif" font-size="10.00">getRotation()</text>
<text text-anchor="start" x="117.75" y="-716" font-family="Helvetica,sans-Serif" font-size="10.00">+</text>
<text text-anchor="start" x="127.75" y="-716" font-family="Helvetica,sans-Serif" font-size="10.00">setSize()</text>
<text text-anchor="start" x="117.75" y="-700.75" font-family="Helvetica,sans-Serif" font-size="10.00">+</text>
<text text-anchor="start" x="127.75" y="-700.75" font-family="Helvetica,sans-Serif" font-size="10.00">getSize()</text>
<text text-anchor="start" x="117.75" y="-685.5" font-family="Helvetica,sans-Serif" font-size="10.00">+</text>
<text text-anchor="start" x="127.75" y="-685.5" font-family="Helvetica,sans-Serif" font-size="10.00">setVisible()</text>
<text text-anchor="start" x="127.75" y="-670.25" font-family="Helvetica,sans-Serif" font-size="10.00">and 7 more...</text>
<polygon fill="#bfbfbf" stroke="#bfbfbf" points="113.75,-880 113.75,-880 215,-880 215,-880 113.75,-880"/>
<polygon fill="#bfbfbf" stroke="#bfbfbf" points="113.75,-834.25 113.75,-834.25 125.75,-834.25 125.75,-834.25 113.75,-834.25"/>
<polygon fill="#bfbfbf" stroke="#bfbfbf" points="125.75,-834.25 125.75,-834.25 215,-834.25 215,-834.25 125.75,-834.25"/>
<polygon fill="none" stroke="#bfbfbf" points="113.75,-664.5 113.75,-908.5 215,-908.5 215,-664.5 113.75,-664.5"/>
</a>
</g>
</g>
<!-- Node3&#45;&gt;Node2 -->
<g id="edge2_Node000002_Node000003" class="edge">
<title>Node3&#45;&gt;Node2</title>
<g id="a_edge2_Node000002_Node000003"><a xlink:title=" ">
<path fill="none" stroke="#63b8ff" d="M164.91,-653.42C165.01,-628.16 165.11,-603.38 165.19,-583.36"/>
<polygon fill="none" stroke="#63b8ff" points="161.41,-653.13 164.87,-663.14 168.41,-653.16 161.41,-653.13"/>
</a>
</g>
</g>
<!-- Node4 -->
<g id="Node000004" class="node">
<title>Node4</title>
<g id="a_Node000004"><a xlink:href="classm5_1_1_vector2i.html" target="_top" xlink:title=" ">
<polygon fill="white" stroke="none" points="105,-1219 33.75,-1219 33.75,-955.75 105,-955.75 105,-1219"/>
<text text-anchor="start" x="42.38" y="-1205.5" font-family="Helvetica,sans-Serif" font-size="10.00">m5::Vector2i</text>
<text text-anchor="start" x="37.75" y="-1190.25" font-family="Helvetica,sans-Serif" font-size="10.00">+</text>
<text text-anchor="start" x="47.75" y="-1190.25" font-family="Helvetica,sans-Serif" font-size="10.00">x</text>
<text text-anchor="start" x="37.75" y="-1175" font-family="Helvetica,sans-Serif" font-size="10.00">+</text>
<text text-anchor="start" x="47.75" y="-1175" font-family="Helvetica,sans-Serif" font-size="10.00">y</text>
<text text-anchor="start" x="37.75" y="-1159.75" font-family="Helvetica,sans-Serif" font-size="10.00">+</text>
<text text-anchor="start" x="47.75" y="-1159.75" font-family="Helvetica,sans-Serif" font-size="10.00">Vector2i()</text>
<text text-anchor="start" x="37.75" y="-1144.5" font-family="Helvetica,sans-Serif" font-size="10.00">+</text>
<text text-anchor="start" x="47.75" y="-1144.5" font-family="Helvetica,sans-Serif" font-size="10.00">Vector2i()</text>
<text text-anchor="start" x="37.75" y="-1129.25" font-family="Helvetica,sans-Serif" font-size="10.00">+</text>
<text text-anchor="start" x="47.75" y="-1129.25" font-family="Helvetica,sans-Serif" font-size="10.00">operator+()</text>
<text text-anchor="start" x="37.75" y="-1114" font-family="Helvetica,sans-Serif" font-size="10.00">+</text>
<text text-anchor="start" x="47.75" y="-1114" font-family="Helvetica,sans-Serif" font-size="10.00">operator&#45;()</text>
<text text-anchor="start" x="37.75" y="-1098.75" font-family="Helvetica,sans-Serif" font-size="10.00">+</text>
<text text-anchor="start" x="47.75" y="-1098.75" font-family="Helvetica,sans-Serif" font-size="10.00">operator*()</text>
<text text-anchor="start" x="37.75" y="-1083.5" font-family="Helvetica,sans-Serif" font-size="10.00">+</text>
<text text-anchor="start" x="47.75" y="-1083.5" font-family="Helvetica,sans-Serif" font-size="10.00">operator/()</text>
<text text-anchor="start" x="37.75" y="-1068.25" font-family="Helvetica,sans-Serif" font-size="10.00">+</text>
<text text-anchor="start" x="47.75" y="-1068.25" font-family="Helvetica,sans-Serif" font-size="10.00">operator+=()</text>
<text text-anchor="start" x="37.75" y="-1053" font-family="Helvetica,sans-Serif" font-size="10.00">+</text>
<text text-anchor="start" x="47.75" y="-1053" font-family="Helvetica,sans-Serif" font-size="10.00">operator&#45;=()</text>
<text text-anchor="start" x="37.75" y="-1037.75" font-family="Helvetica,sans-Serif" font-size="10.00">+</text>
<text text-anchor="start" x="47.75" y="-1037.75" font-family="Helvetica,sans-Serif" font-size="10.00">operator*=()</text>
<text text-anchor="start" x="37.75" y="-1022.5" font-family="Helvetica,sans-Serif" font-size="10.00">+</text>
<text text-anchor="start" x="47.75" y="-1022.5" font-family="Helvetica,sans-Serif" font-size="10.00">operator/=()</text>
<text text-anchor="start" x="37.75" y="-1007.25" font-family="Helvetica,sans-Serif" font-size="10.00">+</text>
<text text-anchor="start" x="47.75" y="-1007.25" font-family="Helvetica,sans-Serif" font-size="10.00">operator==()</text>
<text text-anchor="start" x="37.75" y="-992" font-family="Helvetica,sans-Serif" font-size="10.00">+</text>
<text text-anchor="start" x="47.75" y="-992" font-family="Helvetica,sans-Serif" font-size="10.00">operator!=()</text>
<text text-anchor="start" x="37.75" y="-976.75" font-family="Helvetica,sans-Serif" font-size="10.00">+</text>
<text text-anchor="start" x="47.75" y="-976.75" font-family="Helvetica,sans-Serif" font-size="10.00">dot()</text>
<text text-anchor="start" x="37.75" y="-961.5" font-family="Helvetica,sans-Serif" font-size="10.00">+</text>
<text text-anchor="start" x="47.75" y="-961.5" font-family="Helvetica,sans-Serif" font-size="10.00">clamp()</text>
<polygon fill="#bfbfbf" stroke="#bfbfbf" points="33.75,-1201.75 33.75,-1201.75 105,-1201.75 105,-1201.75 33.75,-1201.75"/>
<polygon fill="#bfbfbf" stroke="#bfbfbf" points="33.75,-1171.25 33.75,-1171.25 45.75,-1171.25 45.75,-1171.25 33.75,-1171.25"/>
<polygon fill="#bfbfbf" stroke="#bfbfbf" points="45.75,-1171.25 45.75,-1171.25 105,-1171.25 105,-1171.25 45.75,-1171.25"/>
<polygon fill="none" stroke="#bfbfbf" points="33.75,-955.75 33.75,-1219 105,-1219 105,-955.75 33.75,-955.75"/>
</a>
</g>
</g>
<!-- Node4&#45;&gt;Node3 -->
<g id="edge3_Node000003_Node000004" class="edge">
<title>Node4&#45;&gt;Node3</title>
<g id="a_edge3_Node000003_Node000004"><a xlink:title=" ">
<path fill="none" stroke="#63b8ff" d="M104.73,-956.12C107.73,-946.07 110.8,-936.1 113.88,-926.5 114.5,-924.53 115.14,-922.56 115.79,-920.56"/>
<polygon fill="none" stroke="#63b8ff" points="115.82,-920.47 113.91,-913.52 119.6,-909.08 121.51,-916.04 115.82,-920.47"/>
</a>
</g>
<text text-anchor="middle" x="137.12" y="-928.25" font-family="Helvetica,sans-Serif" font-size="10.00" fill="grey"> #position_</text>
</g>
<!-- Node4&#45;&gt;Node6 -->
<g id="edge7_Node000006_Node000004" class="edge">
<title>Node4&#45;&gt;Node6</title>
<g id="a_edge7_Node000006_Node000004"><a xlink:title=" ">
<path fill="none" stroke="#63b8ff" d="M66.58,-956.13C63.5,-812.79 58.66,-586.92 56.09,-467.52"/>
<polygon fill="none" stroke="#63b8ff" points="56.09,-467.45 51.97,-461.53 55.84,-455.45 59.96,-461.36 56.09,-467.45"/>
</a>
</g>
<text text-anchor="middle" x="97.78" y="-637" font-family="Helvetica,sans-Serif" font-size="10.00" fill="grey"> #gaze_</text>
<text text-anchor="start" x="59.91" y="-625.75" font-family="Helvetica,sans-Serif" font-size="10.00" fill="grey">#iris_position</text>
<text text-anchor="middle" x="97.78" y="-614.5" font-family="Helvetica,sans-Serif" font-size="10.00" fill="grey">_</text>
<text text-anchor="middle" x="97.78" y="-603.25" font-family="Helvetica,sans-Serif" font-size="10.00" fill="grey">#saccade_noise_</text>
</g>
<!-- Node5 -->
<g id="Node000005" class="node">
<title>Node5</title>
<g id="a_Node000005"><a xlink:href="classm5_1_1_size2i.html" target="_top" xlink:title=" ">
<polygon fill="white" stroke="none" points="198.88,-1158 129.88,-1158 129.88,-1016.75 198.88,-1016.75 198.88,-1158"/>
<text text-anchor="start" x="142.25" y="-1144.5" font-family="Helvetica,sans-Serif" font-size="10.00">m5::Size2i</text>
<text text-anchor="start" x="133.88" y="-1129.25" font-family="Helvetica,sans-Serif" font-size="10.00">+</text>
<text text-anchor="start" x="143.88" y="-1129.25" font-family="Helvetica,sans-Serif" font-size="10.00">width</text>
<text text-anchor="start" x="133.88" y="-1114" font-family="Helvetica,sans-Serif" font-size="10.00">+</text>
<text text-anchor="start" x="143.88" y="-1114" font-family="Helvetica,sans-Serif" font-size="10.00">height</text>
<text text-anchor="start" x="133.88" y="-1098.75" font-family="Helvetica,sans-Serif" font-size="10.00">+</text>
<text text-anchor="start" x="143.88" y="-1098.75" font-family="Helvetica,sans-Serif" font-size="10.00">Size2i()</text>
<text text-anchor="start" x="133.88" y="-1083.5" font-family="Helvetica,sans-Serif" font-size="10.00">+</text>
<text text-anchor="start" x="143.88" y="-1083.5" font-family="Helvetica,sans-Serif" font-size="10.00">Size2i()</text>
<text text-anchor="start" x="133.88" y="-1068.25" font-family="Helvetica,sans-Serif" font-size="10.00">+</text>
<text text-anchor="start" x="143.88" y="-1068.25" font-family="Helvetica,sans-Serif" font-size="10.00">operator*=()</text>
<text text-anchor="start" x="133.88" y="-1053" font-family="Helvetica,sans-Serif" font-size="10.00">+</text>
<text text-anchor="start" x="143.88" y="-1053" font-family="Helvetica,sans-Serif" font-size="10.00">area()</text>
<text text-anchor="start" x="133.88" y="-1037.75" font-family="Helvetica,sans-Serif" font-size="10.00">+</text>
<text text-anchor="start" x="143.88" y="-1037.75" font-family="Helvetica,sans-Serif" font-size="10.00">max()</text>
<text text-anchor="start" x="133.88" y="-1022.5" font-family="Helvetica,sans-Serif" font-size="10.00">+</text>
<text text-anchor="start" x="143.88" y="-1022.5" font-family="Helvetica,sans-Serif" font-size="10.00">min()</text>
<polygon fill="#bfbfbf" stroke="#bfbfbf" points="129.88,-1140.75 129.88,-1140.75 198.88,-1140.75 198.88,-1140.75 129.88,-1140.75"/>
<polygon fill="#bfbfbf" stroke="#bfbfbf" points="129.88,-1110.25 129.88,-1110.25 141.88,-1110.25 141.88,-1110.25 129.88,-1110.25"/>
<polygon fill="#bfbfbf" stroke="#bfbfbf" points="141.88,-1110.25 141.88,-1110.25 198.88,-1110.25 198.88,-1110.25 141.88,-1110.25"/>
<polygon fill="none" stroke="#bfbfbf" points="129.88,-1016.75 129.88,-1158 198.88,-1158 198.88,-1016.75 129.88,-1016.75"/>
</a>
</g>
</g>
<!-- Node5&#45;&gt;Node3 -->
<g id="edge4_Node000003_Node000005" class="edge">
<title>Node5&#45;&gt;Node3</title>
<g id="a_edge4_Node000003_Node000005"><a xlink:title=" ">
<path fill="none" stroke="#63b8ff" d="M164.38,-1017.06C164.38,-988.39 164.38,-954.13 164.38,-920.94"/>
<polygon fill="none" stroke="#63b8ff" points="164.38,-921.18 160.38,-915.18 164.38,-909.18 168.38,-915.18 164.38,-921.18"/>
</a>
</g>
<text text-anchor="middle" x="179.38" y="-928.25" font-family="Helvetica,sans-Serif" font-size="10.00" fill="grey"> #size_</text>
</g>
<!-- Node6&#45;&gt;Node1 -->
<g id="edge5_Node000001_Node000006" class="edge">
<title>Node6&#45;&gt;Node1</title>
<g id="a_edge5_Node000001_Node000006"><a xlink:title=" ">
<path fill="none" stroke="#63b8ff" d="M86.48,-317.78C95.13,-299.58 104.77,-279.27 114.43,-258.94"/>
<polygon fill="none" stroke="#63b8ff" points="114.41,-258.97 113.38,-251.83 119.56,-248.13 120.6,-255.27 114.41,-258.97"/>
</a>
</g>
<text text-anchor="middle" x="128.79" y="-290.25" font-family="Helvetica,sans-Serif" font-size="10.00" fill="grey"> #left_eye_</text>
<text text-anchor="middle" x="128.79" y="-279" font-family="Helvetica,sans-Serif" font-size="10.00" fill="grey">#right_eye_</text>
</g>
<!-- Node7&#45;&gt;Node1 -->
<g id="edge8_Node000001_Node000007" class="edge">
<title>Node7&#45;&gt;Node1</title>
<g id="a_edge8_Node000001_Node000007"><a xlink:title=" ">
<path fill="none" stroke="#63b8ff" d="M175.38,-355.9C175.38,-334.45 175.38,-303.68 175.38,-271.74"/>
<polygon fill="none" stroke="#63b8ff" points="175.38,-271.88 171.38,-265.88 175.38,-259.88 179.38,-265.88 175.38,-271.88"/>
</a>
</g>
<text text-anchor="middle" x="195.25" y="-284.62" font-family="Helvetica,sans-Serif" font-size="10.00" fill="grey"> #mouth_</text>
</g>
</g>
</svg>
