<?xml version="1.0" encoding="UTF-8" standalone="no"?>
<!DOCTYPE svg PUBLIC "-//W3C//DTD SVG 1.1//EN"
 "http://www.w3.org/Graphics/SVG/1.1/DTD/svg11.dtd">
<!-- Generated by graphviz version 12.2.0 (20241103.1931)
 -->
<!-- Title: stackchan::display::Drawable Pages: 1 -->
<!--zoomable 955 -->

<svg id="main" version="1.1" xmlns="http://www.w3.org/2000/svg" xmlns:xlink="http://www.w3.org/1999/xlink" xml:space="preserve" onload="init(evt)">

<style type="text/css"><![CDATA[
.node, .edge {opacity: 0.7;}
.node.selected, .edge.selected {opacity: 1;}
.edge:hover path { stroke: red; }
.edge:hover polygon { stroke: red; fill: red; }
]]></style>

<defs>
  <circle id="rim" cx="0" cy="0" r="7"/>
  <circle id="rim2" cx="0" cy="0" r="3.5"/>
  <g id="zoomPlus">
    <use xlink:href="#rim" fill="#404040"><set attributeName="fill" to="#808080" begin="zoomplus.mouseover" end="zoomplus.mouseout"/></use>
    <path d="M-4,0h8M0,-4v8" fill="none" stroke="white" stroke-width="1.5" pointer-events="none"/>
  </g>
  <g id="zoomMin">
    <use xlink:href="#rim" fill="#404040"><set attributeName="fill" to="#808080" begin="zoomminus.mouseover" end="zoomminus.mouseout"/></use>
    <path d="M-4,0h8" fill="none" stroke="white" stroke-width="1.5" pointer-events="none"/>
  </g>
  <g id="arrowUp" transform="translate(30 24)">
    <use xlink:href="#rim"/>
    <path pointer-events="none" fill="none" stroke="white" stroke-width="1.5" d="M0,-3.0v7 M-2.5,-0.5L0,-3.0L2.5,-0.5"/>
  </g>
  <g id="arrowRight" transform="rotate(90) translate(36 -43)">
    <use xlink:href="#rim"/>
    <path pointer-events="none" fill="none" stroke="white" stroke-width="1.5" d="M0,-3.0v7 M-2.5,-0.5L0,-3.0L2.5,-0.5"/>
  </g>
  <g id="arrowDown" transform="rotate(180) translate(-30 -48)">
    <use xlink:href="#rim"/>
    <path pointer-events="none" fill="none" stroke="white" stroke-width="1.5" d="M0,-3.0v7 M-2.5,-0.5L0,-3.0L2.5,-0.5"/>
  </g>
  <g id="arrowLeft" transform="rotate(270) translate(-36 17)">
    <use xlink:href="#rim"/>
    <path pointer-events="none" fill="none" stroke="white" stroke-width="1.5" d="M0,-3.0v7 M-2.5,-0.5L0,-3.0L2.5,-0.5"/>
  </g>
  <g id="resetDef">
    <use xlink:href="#rim2" fill="#404040"><set attributeName="fill" to="#808080" begin="reset.mouseover" end="reset.mouseout"/></use>
  </g>
</defs>
<script type="application/ecmascript">
var viewWidth = 646;
var viewHeight = 955;
var sectionId = 'dynsection-0';
</script>
<script type="application/ecmascript" xlink:href="svg.min.js"/>
<svg id="graph" class="graph">
<g id="viewport">
<title>stackchan::display::Drawable</title>
<!-- Node1 -->
<g id="Node000001" class="node">
<title>Node1</title>
<g id="a_Node000001"><a xlink:title=" ">
<polygon fill="#999999" stroke="none" points="428.38,-946.75 327.12,-946.75 327.12,-672.25 428.38,-672.25 428.38,-946.75"/>
<text text-anchor="start" x="338" y="-933.25" font-family="Helvetica,sans-Serif" font-size="10.00">stackchan::display</text>
<text text-anchor="start" x="355.25" y="-922" font-family="Helvetica,sans-Serif" font-size="10.00">::Drawable</text>
<text text-anchor="start" x="331.5" y="-906.75" font-family="Helvetica,sans-Serif" font-size="10.00">#</text>
<text text-anchor="start" x="341.12" y="-906.75" font-family="Helvetica,sans-Serif" font-size="10.00">position_</text>
<text text-anchor="start" x="331.5" y="-891.5" font-family="Helvetica,sans-Serif" font-size="10.00">#</text>
<text text-anchor="start" x="341.12" y="-891.5" font-family="Helvetica,sans-Serif" font-size="10.00">rotation_</text>
<text text-anchor="start" x="331.5" y="-876.25" font-family="Helvetica,sans-Serif" font-size="10.00">#</text>
<text text-anchor="start" x="341.12" y="-876.25" font-family="Helvetica,sans-Serif" font-size="10.00">size_</text>
<text text-anchor="start" x="331.5" y="-861" font-family="Helvetica,sans-Serif" font-size="10.00">#</text>
<text text-anchor="start" x="341.12" y="-861" font-family="Helvetica,sans-Serif" font-size="10.00">visible_</text>
<text text-anchor="start" x="331.5" y="-845.75" font-family="Helvetica,sans-Serif" font-size="10.00">#</text>
<text text-anchor="start" x="341.12" y="-845.75" font-family="Helvetica,sans-Serif" font-size="10.00">ignore_expression_</text>
<text text-anchor="start" x="331.12" y="-830.5" font-family="Helvetica,sans-Serif" font-size="10.00">+</text>
<text text-anchor="start" x="341.12" y="-830.5" font-family="Helvetica,sans-Serif" font-size="10.00">Drawable()</text>
<text text-anchor="start" x="331.12" y="-815.25" font-family="Helvetica,sans-Serif" font-size="10.00">+</text>
<text text-anchor="start" x="341.12" y="-815.25" font-family="Helvetica,sans-Serif" font-size="10.00">Drawable()</text>
<text text-anchor="start" x="331.12" y="-800" font-family="Helvetica,sans-Serif" font-size="10.00">+</text>
<text text-anchor="start" x="341.12" y="-800" font-family="Helvetica,sans-Serif" font-size="10.00">~Drawable()</text>
<text text-anchor="start" x="331.12" y="-784.75" font-family="Helvetica,sans-Serif" font-size="10.00">+</text>
<text text-anchor="start" x="341.12" y="-784.75" font-family="Helvetica,sans-Serif" font-size="10.00">setPosition()</text>
<text text-anchor="start" x="331.12" y="-769.5" font-family="Helvetica,sans-Serif" font-size="10.00">+</text>
<text text-anchor="start" x="341.12" y="-769.5" font-family="Helvetica,sans-Serif" font-size="10.00">getPosition()</text>
<text text-anchor="start" x="331.12" y="-754.25" font-family="Helvetica,sans-Serif" font-size="10.00">+</text>
<text text-anchor="start" x="341.12" y="-754.25" font-family="Helvetica,sans-Serif" font-size="10.00">setRotation()</text>
<text text-anchor="start" x="331.12" y="-739" font-family="Helvetica,sans-Serif" font-size="10.00">+</text>
<text text-anchor="start" x="341.12" y="-739" font-family="Helvetica,sans-Serif" font-size="10.00">getRotation()</text>
<text text-anchor="start" x="331.12" y="-723.75" font-family="Helvetica,sans-Serif" font-size="10.00">+</text>
<text text-anchor="start" x="341.12" y="-723.75" font-family="Helvetica,sans-Serif" font-size="10.00">setSize()</text>
<text text-anchor="start" x="331.12" y="-708.5" font-family="Helvetica,sans-Serif" font-size="10.00">+</text>
<text text-anchor="start" x="341.12" y="-708.5" font-family="Helvetica,sans-Serif" font-size="10.00">getSize()</text>
<text text-anchor="start" x="331.12" y="-693.25" font-family="Helvetica,sans-Serif" font-size="10.00">+</text>
<text text-anchor="start" x="341.12" y="-693.25" font-family="Helvetica,sans-Serif" font-size="10.00">setVisible()</text>
<text text-anchor="start" x="341.12" y="-678" font-family="Helvetica,sans-Serif" font-size="10.00">and 7 more...</text>
<polygon fill="#666666" stroke="#666666" points="327.12,-918.25 327.12,-918.25 428.38,-918.25 428.38,-918.25 327.12,-918.25"/>
<polygon fill="#666666" stroke="#666666" points="327.12,-842 327.12,-842 339.12,-842 339.12,-842 327.12,-842"/>
<polygon fill="#666666" stroke="#666666" points="339.12,-842 339.12,-842 428.38,-842 428.38,-842 339.12,-842"/>
<polygon fill="none" stroke="#666666" points="327.12,-672.25 327.12,-946.75 428.38,-946.75 428.38,-672.25 327.12,-672.25"/>
</a>
</g>
</g>
<!-- Node2 -->
<g id="Node000002" class="node">
<title>Node2</title>
<g id="a_Node000002"><a xlink:href="classstackchan_1_1display_1_1_facial_drawable.html" target="_top" xlink:title=" ">
<polygon fill="white" stroke="none" points="367.5,-598.12 280,-598.12 280,-506.62 367.5,-506.62 367.5,-598.12"/>
<text text-anchor="start" x="284" y="-584.62" font-family="Helvetica,sans-Serif" font-size="10.00">stackchan::display</text>
<text text-anchor="start" x="288.12" y="-573.38" font-family="Helvetica,sans-Serif" font-size="10.00">::FacialDrawable</text>
<text text-anchor="start" x="322.25" y="-558.12" font-family="Helvetica,sans-Serif" font-size="10.00"> </text>
<text text-anchor="start" x="289.75" y="-542.88" font-family="Helvetica,sans-Serif" font-size="10.00">+</text>
<text text-anchor="start" x="305.5" y="-542.88" font-family="Helvetica,sans-Serif" font-size="10.00">draw()</text>
<text text-anchor="start" x="289.75" y="-527.62" font-family="Helvetica,sans-Serif" font-size="10.00">+</text>
<text text-anchor="start" x="305.5" y="-527.62" font-family="Helvetica,sans-Serif" font-size="10.00">Drawable()</text>
<text text-anchor="start" x="289.75" y="-512.38" font-family="Helvetica,sans-Serif" font-size="10.00">+</text>
<text text-anchor="start" x="305.5" y="-512.38" font-family="Helvetica,sans-Serif" font-size="10.00">Drawable()</text>
<polygon fill="#bfbfbf" stroke="#bfbfbf" points="280,-569.62 280,-569.62 367.5,-569.62 367.5,-569.62 280,-569.62"/>
<polygon fill="#bfbfbf" stroke="#bfbfbf" points="280,-554.38 280,-554.38 367.5,-554.38 367.5,-554.38 280,-554.38"/>
<polygon fill="none" stroke="#bfbfbf" points="280,-506.62 280,-598.12 367.5,-598.12 367.5,-506.62 280,-506.62"/>
</a>
</g>
</g>
<!-- Node1&#45;&gt;Node2 -->
<g id="edge1_Node000001_Node000002" class="edge">
<title>Node1&#45;&gt;Node2</title>
<g id="a_edge1_Node000001_Node000002"><a xlink:title=" ">
<path fill="none" stroke="#63b8ff" d="M346.6,-661.33C341.72,-638.27 337.02,-616.07 333.17,-597.87"/>
<polygon fill="none" stroke="#63b8ff" points="343.12,-661.81 348.62,-670.87 349.97,-660.36 343.12,-661.81"/>
</a>
</g>
</g>
<!-- Node12 -->
<g id="Node000012" class="node">
<title>Node12</title>
<g id="a_Node000012"><a xlink:href="classstackchan_1_1display_1_1_speech_balloon.html" target="_top" xlink:title=" ">
<polygon fill="white" stroke="none" points="480,-636.25 385.5,-636.25 385.5,-468.5 480,-468.5 480,-636.25"/>
<text text-anchor="start" x="393" y="-622.75" font-family="Helvetica,sans-Serif" font-size="10.00">stackchan::display</text>
<text text-anchor="start" x="397.88" y="-611.5" font-family="Helvetica,sans-Serif" font-size="10.00">::SpeechBalloon</text>
<text text-anchor="start" x="389.88" y="-596.25" font-family="Helvetica,sans-Serif" font-size="10.00">#</text>
<text text-anchor="start" x="399.5" y="-596.25" font-family="Helvetica,sans-Serif" font-size="10.00">text_</text>
<text text-anchor="start" x="389.88" y="-581" font-family="Helvetica,sans-Serif" font-size="10.00">#</text>
<text text-anchor="start" x="399.5" y="-581" font-family="Helvetica,sans-Serif" font-size="10.00">font_</text>
<text text-anchor="start" x="389.5" y="-565.75" font-family="Helvetica,sans-Serif" font-size="10.00">+</text>
<text text-anchor="start" x="399.5" y="-565.75" font-family="Helvetica,sans-Serif" font-size="10.00">SpeechBalloon()</text>
<text text-anchor="start" x="389.5" y="-550.5" font-family="Helvetica,sans-Serif" font-size="10.00">+</text>
<text text-anchor="start" x="399.5" y="-550.5" font-family="Helvetica,sans-Serif" font-size="10.00">~SpeechBalloon()</text>
<text text-anchor="start" x="389.5" y="-535.25" font-family="Helvetica,sans-Serif" font-size="10.00">+</text>
<text text-anchor="start" x="399.5" y="-535.25" font-family="Helvetica,sans-Serif" font-size="10.00">SpeechBalloon()</text>
<text text-anchor="start" x="389.5" y="-520" font-family="Helvetica,sans-Serif" font-size="10.00">+</text>
<text text-anchor="start" x="399.5" y="-520" font-family="Helvetica,sans-Serif" font-size="10.00">operator=()</text>
<text text-anchor="start" x="389.5" y="-504.75" font-family="Helvetica,sans-Serif" font-size="10.00">+</text>
<text text-anchor="start" x="399.5" y="-504.75" font-family="Helvetica,sans-Serif" font-size="10.00">setText()</text>
<text text-anchor="start" x="389.5" y="-489.5" font-family="Helvetica,sans-Serif" font-size="10.00">+</text>
<text text-anchor="start" x="399.5" y="-489.5" font-family="Helvetica,sans-Serif" font-size="10.00">draw()</text>
<text text-anchor="start" x="389.5" y="-474.25" font-family="Helvetica,sans-Serif" font-size="10.00">+</text>
<text text-anchor="start" x="399.5" y="-474.25" font-family="Helvetica,sans-Serif" font-size="10.00">draw()</text>
<polygon fill="#bfbfbf" stroke="#bfbfbf" points="385.5,-607.75 385.5,-607.75 480,-607.75 480,-607.75 385.5,-607.75"/>
<polygon fill="#bfbfbf" stroke="#bfbfbf" points="385.5,-577.25 385.5,-577.25 397.5,-577.25 397.5,-577.25 385.5,-577.25"/>
<polygon fill="#bfbfbf" stroke="#bfbfbf" points="397.5,-577.25 397.5,-577.25 480,-577.25 480,-577.25 397.5,-577.25"/>
<polygon fill="none" stroke="#bfbfbf" points="385.5,-468.5 385.5,-636.25 480,-636.25 480,-468.5 385.5,-468.5"/>
</a>
</g>
</g>
<!-- Node1&#45;&gt;Node12 -->
<g id="edge11_Node000001_Node000012" class="edge">
<title>Node1&#45;&gt;Node12</title>
<g id="a_edge11_Node000001_Node000012"><a xlink:title=" ">
<path fill="none" stroke="#63b8ff" d="M409.53,-661.1C411.36,-652.59 413.17,-644.2 414.92,-636.09"/>
<polygon fill="none" stroke="#63b8ff" points="406.11,-660.36 407.42,-670.87 412.95,-661.83 406.11,-660.36"/>
</a>
</g>
</g>
<!-- Node3 -->
<g id="Node000003" class="node">
<title>Node3</title>
<g id="a_Node000003"><a xlink:href="classstackchan_1_1display_1_1_base_eye.html" target="_top" xlink:title="Base class for Eye, draw nothing.">
<polygon fill="white" stroke="none" points="214.12,-363.88 105.38,-363.88 105.38,-180.88 214.12,-180.88 214.12,-363.88"/>
<text text-anchor="start" x="120" y="-350.38" font-family="Helvetica,sans-Serif" font-size="10.00">stackchan::display</text>
<text text-anchor="start" x="138.38" y="-339.12" font-family="Helvetica,sans-Serif" font-size="10.00">::BaseEye</text>
<text text-anchor="start" x="109.75" y="-323.88" font-family="Helvetica,sans-Serif" font-size="10.00">#</text>
<text text-anchor="start" x="119.38" y="-323.88" font-family="Helvetica,sans-Serif" font-size="10.00">is_left_</text>
<text text-anchor="start" x="109.75" y="-308.62" font-family="Helvetica,sans-Serif" font-size="10.00">#</text>
<text text-anchor="start" x="119.38" y="-308.62" font-family="Helvetica,sans-Serif" font-size="10.00">gaze_</text>
<text text-anchor="start" x="109.75" y="-293.38" font-family="Helvetica,sans-Serif" font-size="10.00">#</text>
<text text-anchor="start" x="119.38" y="-293.38" font-family="Helvetica,sans-Serif" font-size="10.00">iris_position_</text>
<text text-anchor="start" x="109.75" y="-278.12" font-family="Helvetica,sans-Serif" font-size="10.00">#</text>
<text text-anchor="start" x="119.38" y="-278.12" font-family="Helvetica,sans-Serif" font-size="10.00">milli_sec_</text>
<text text-anchor="start" x="109.75" y="-262.88" font-family="Helvetica,sans-Serif" font-size="10.00">#</text>
<text text-anchor="start" x="119.38" y="-262.88" font-family="Helvetica,sans-Serif" font-size="10.00">last_saccade_millis_</text>
<text text-anchor="start" x="109.75" y="-247.62" font-family="Helvetica,sans-Serif" font-size="10.00">#</text>
<text text-anchor="start" x="119.38" y="-247.62" font-family="Helvetica,sans-Serif" font-size="10.00">saccade_interval_</text>
<text text-anchor="start" x="109.75" y="-232.38" font-family="Helvetica,sans-Serif" font-size="10.00">#</text>
<text text-anchor="start" x="119.38" y="-232.38" font-family="Helvetica,sans-Serif" font-size="10.00">saccade_noise_</text>
<text text-anchor="start" x="109.38" y="-217.12" font-family="Helvetica,sans-Serif" font-size="10.00">+</text>
<text text-anchor="start" x="119.38" y="-217.12" font-family="Helvetica,sans-Serif" font-size="10.00">BaseEye()</text>
<text text-anchor="start" x="109.75" y="-201.88" font-family="Helvetica,sans-Serif" font-size="10.00">#</text>
<text text-anchor="start" x="119.38" y="-201.88" font-family="Helvetica,sans-Serif" font-size="10.00">updateGaze()</text>
<text text-anchor="start" x="109.75" y="-186.62" font-family="Helvetica,sans-Serif" font-size="10.00">#</text>
<text text-anchor="start" x="119.38" y="-186.62" font-family="Helvetica,sans-Serif" font-size="10.00">updateSaccade()</text>
<polygon fill="#666666" stroke="#666666" points="105.38,-335.38 105.38,-335.38 214.12,-335.38 214.12,-335.38 105.38,-335.38"/>
<polygon fill="#666666" stroke="#666666" points="105.38,-228.62 105.38,-228.62 117.38,-228.62 117.38,-228.62 105.38,-228.62"/>
<polygon fill="#666666" stroke="#666666" points="117.38,-228.62 117.38,-228.62 214.12,-228.62 214.12,-228.62 117.38,-228.62"/>
<polygon fill="none" stroke="#666666" points="105.38,-180.88 105.38,-363.88 214.12,-363.88 214.12,-180.88 105.38,-180.88"/>
</a>
</g>
</g>
<!-- Node2&#45;&gt;Node3 -->
<g id="edge2_Node000002_Node000003" class="edge">
<title>Node2&#45;&gt;Node3</title>
<g id="a_edge2_Node000002_Node000003"><a xlink:title=" ">
<path fill="none" stroke="#63b8ff" d="M291.61,-496.89C269.27,-459.02 238.97,-407.65 213.04,-363.71"/>
<polygon fill="none" stroke="#63b8ff" points="288.54,-498.57 296.63,-505.41 294.56,-495.01 288.54,-498.57"/>
</a>
</g>
</g>
<!-- Node6 -->
<g id="Node000006" class="node">
<title>Node6</title>
<g id="a_Node000006"><a xlink:href="classstackchan_1_1display_1_1_base_mouth.html" target="_top" xlink:title=" ">
<polygon fill="white" stroke="none" points="372.12,-302.88 275.38,-302.88 275.38,-241.88 372.12,-241.88 372.12,-302.88"/>
<text text-anchor="start" x="284" y="-289.38" font-family="Helvetica,sans-Serif" font-size="10.00">stackchan::display</text>
<text text-anchor="start" x="296.75" y="-278.12" font-family="Helvetica,sans-Serif" font-size="10.00">::BaseMouth</text>
<text text-anchor="start" x="279.38" y="-262.88" font-family="Helvetica,sans-Serif" font-size="10.00">#</text>
<text text-anchor="start" x="288.62" y="-262.88" font-family="Helvetica,sans-Serif" font-size="10.00">breath_amplitude_</text>
<text text-anchor="start" x="322.25" y="-247.62" font-family="Helvetica,sans-Serif" font-size="10.00"> </text>
<polygon fill="#bfbfbf" stroke="#bfbfbf" points="275.38,-274.38 275.38,-274.38 372.12,-274.38 372.12,-274.38 275.38,-274.38"/>
<polygon fill="#bfbfbf" stroke="#bfbfbf" points="275.38,-259.12 275.38,-259.12 286.62,-259.12 286.62,-259.12 275.38,-259.12"/>
<polygon fill="#bfbfbf" stroke="#bfbfbf" points="286.62,-259.12 286.62,-259.12 372.12,-259.12 372.12,-259.12 286.62,-259.12"/>
<polygon fill="none" stroke="#bfbfbf" points="275.38,-241.88 275.38,-302.88 372.12,-302.88 372.12,-241.88 275.38,-241.88"/>
</a>
</g>
</g>
<!-- Node2&#45;&gt;Node6 -->
<g id="edge5_Node000002_Node000006" class="edge">
<title>Node2&#45;&gt;Node6</title>
<g id="a_edge5_Node000002_Node000006"><a xlink:title=" ">
<path fill="none" stroke="#63b8ff" d="M323.75,-495.49C323.75,-437.24 323.75,-348.22 323.75,-302.58"/>
<polygon fill="none" stroke="#63b8ff" points="320.25,-495.2 323.75,-505.2 327.25,-495.2 320.25,-495.2"/>
</a>
</g>
</g>
<!-- Node9 -->
<g id="Node000009" class="node">
<title>Node9</title>
<g id="a_Node000009"><a xlink:href="classstackchan_1_1display_1_1_face.html" target="_top" xlink:title=" ">
<polygon fill="white" stroke="none" points="543.25,-432.5 432.25,-432.5 432.25,-112.25 543.25,-112.25 543.25,-432.5"/>
<text text-anchor="start" x="448" y="-419" font-family="Helvetica,sans-Serif" font-size="10.00">stackchan::display</text>
<text text-anchor="start" x="474.62" y="-407.75" font-family="Helvetica,sans-Serif" font-size="10.00">::Face</text>
<text text-anchor="start" x="436.62" y="-392.5" font-family="Helvetica,sans-Serif" font-size="10.00">#</text>
<text text-anchor="start" x="446.25" y="-392.5" font-family="Helvetica,sans-Serif" font-size="10.00">is_auto_blink_</text>
<text text-anchor="start" x="436.62" y="-377.25" font-family="Helvetica,sans-Serif" font-size="10.00">#</text>
<text text-anchor="start" x="446.25" y="-377.25" font-family="Helvetica,sans-Serif" font-size="10.00">auto_blink_interval_</text>
<text text-anchor="start" x="436.62" y="-362" font-family="Helvetica,sans-Serif" font-size="10.00">#</text>
<text text-anchor="start" x="446.25" y="-362" font-family="Helvetica,sans-Serif" font-size="10.00">last_blink_time_</text>
<text text-anchor="start" x="436.62" y="-346.75" font-family="Helvetica,sans-Serif" font-size="10.00">#</text>
<text text-anchor="start" x="446.25" y="-346.75" font-family="Helvetica,sans-Serif" font-size="10.00">blink_duration_</text>
<text text-anchor="start" x="436.62" y="-331.5" font-family="Helvetica,sans-Serif" font-size="10.00">#</text>
<text text-anchor="start" x="446.25" y="-331.5" font-family="Helvetica,sans-Serif" font-size="10.00">breath_frequency_</text>
<text text-anchor="start" x="436.62" y="-316.25" font-family="Helvetica,sans-Serif" font-size="10.00">#</text>
<text text-anchor="start" x="446.25" y="-316.25" font-family="Helvetica,sans-Serif" font-size="10.00">left_eye_</text>
<text text-anchor="start" x="436.62" y="-301" font-family="Helvetica,sans-Serif" font-size="10.00">#</text>
<text text-anchor="start" x="446.25" y="-301" font-family="Helvetica,sans-Serif" font-size="10.00">right_eye_</text>
<text text-anchor="start" x="436.62" y="-285.75" font-family="Helvetica,sans-Serif" font-size="10.00">#</text>
<text text-anchor="start" x="446.25" y="-285.75" font-family="Helvetica,sans-Serif" font-size="10.00">mouth_</text>
<text text-anchor="start" x="436.25" y="-270.5" font-family="Helvetica,sans-Serif" font-size="10.00">+</text>
<text text-anchor="start" x="446.25" y="-270.5" font-family="Helvetica,sans-Serif" font-size="10.00">Face()</text>
<text text-anchor="start" x="436.25" y="-255.25" font-family="Helvetica,sans-Serif" font-size="10.00">+</text>
<text text-anchor="start" x="446.25" y="-255.25" font-family="Helvetica,sans-Serif" font-size="10.00">Face()</text>
<text text-anchor="start" x="436.25" y="-240" font-family="Helvetica,sans-Serif" font-size="10.00">+</text>
<text text-anchor="start" x="446.25" y="-240" font-family="Helvetica,sans-Serif" font-size="10.00">getLeftEye()</text>
<text text-anchor="start" x="436.25" y="-224.75" font-family="Helvetica,sans-Serif" font-size="10.00">+</text>
<text text-anchor="start" x="446.25" y="-224.75" font-family="Helvetica,sans-Serif" font-size="10.00">getRightEye()</text>
<text text-anchor="start" x="436.25" y="-209.5" font-family="Helvetica,sans-Serif" font-size="10.00">+</text>
<text text-anchor="start" x="446.25" y="-209.5" font-family="Helvetica,sans-Serif" font-size="10.00">getMouth()</text>
<text text-anchor="start" x="436.25" y="-194.25" font-family="Helvetica,sans-Serif" font-size="10.00">+</text>
<text text-anchor="start" x="446.25" y="-194.25" font-family="Helvetica,sans-Serif" font-size="10.00">activateAutoBlink()</text>
<text text-anchor="start" x="436.25" y="-179" font-family="Helvetica,sans-Serif" font-size="10.00">+</text>
<text text-anchor="start" x="446.25" y="-179" font-family="Helvetica,sans-Serif" font-size="10.00">deactivateAutoBlink()</text>
<text text-anchor="start" x="436.25" y="-163.75" font-family="Helvetica,sans-Serif" font-size="10.00">+</text>
<text text-anchor="start" x="446.25" y="-163.75" font-family="Helvetica,sans-Serif" font-size="10.00">getIsAutoBlink()</text>
<text text-anchor="start" x="436.25" y="-148.5" font-family="Helvetica,sans-Serif" font-size="10.00">+</text>
<text text-anchor="start" x="446.25" y="-148.5" font-family="Helvetica,sans-Serif" font-size="10.00">autoScale()</text>
<text text-anchor="start" x="436.25" y="-133.25" font-family="Helvetica,sans-Serif" font-size="10.00">+</text>
<text text-anchor="start" x="446.25" y="-133.25" font-family="Helvetica,sans-Serif" font-size="10.00">updateState()</text>
<text text-anchor="start" x="436.25" y="-118" font-family="Helvetica,sans-Serif" font-size="10.00">+</text>
<text text-anchor="start" x="446.25" y="-118" font-family="Helvetica,sans-Serif" font-size="10.00">draw()</text>
<polygon fill="#bfbfbf" stroke="#bfbfbf" points="432.25,-404 432.25,-404 543.25,-404 543.25,-404 432.25,-404"/>
<polygon fill="#bfbfbf" stroke="#bfbfbf" points="432.25,-282 432.25,-282 444.25,-282 444.25,-282 432.25,-282"/>
<polygon fill="#bfbfbf" stroke="#bfbfbf" points="444.25,-282 444.25,-282 543.25,-282 543.25,-282 444.25,-282"/>
<polygon fill="none" stroke="#bfbfbf" points="432.25,-112.25 432.25,-432.5 543.25,-432.5 543.25,-112.25 432.25,-112.25"/>
</a>
</g>
</g>
<!-- Node2&#45;&gt;Node9 -->
<g id="edge8_Node000002_Node000009" class="edge">
<title>Node2&#45;&gt;Node9</title>
<g id="a_edge8_Node000002_Node000009"><a xlink:title=" ">
<path fill="none" stroke="#63b8ff" d="M355.75,-497.14C377.52,-460.23 406.9,-410.42 432.42,-367.17"/>
<polygon fill="none" stroke="#63b8ff" points="352.94,-495.01 350.87,-505.41 358.96,-498.57 352.94,-495.01"/>
</a>
</g>
</g>
<!-- Node4 -->
<g id="Node000004" class="node">
<title>Node4</title>
<g id="a_Node000004"><a xlink:href="classstackchan_1_1display_1_1_ellipse_eye.html" target="_top" xlink:title=" ">
<polygon fill="white" stroke="none" points="87.5,-76.25 0,-76.25 0,0 87.5,0 87.5,-76.25"/>
<text text-anchor="start" x="4" y="-62.75" font-family="Helvetica,sans-Serif" font-size="10.00">stackchan::display</text>
<text text-anchor="start" x="19.38" y="-51.5" font-family="Helvetica,sans-Serif" font-size="10.00">::EllipseEye</text>
<text text-anchor="start" x="42.25" y="-36.25" font-family="Helvetica,sans-Serif" font-size="10.00"> </text>
<text text-anchor="start" x="10.31" y="-21" font-family="Helvetica,sans-Serif" font-size="10.00">+</text>
<text text-anchor="start" x="26.62" y="-21" font-family="Helvetica,sans-Serif" font-size="10.00">draw()</text>
<text text-anchor="start" x="10.31" y="-5.75" font-family="Helvetica,sans-Serif" font-size="10.00">+</text>
<text text-anchor="start" x="26.62" y="-5.75" font-family="Helvetica,sans-Serif" font-size="10.00">BaseEye()</text>
<polygon fill="#bfbfbf" stroke="#bfbfbf" points="0,-47.75 0,-47.75 87.5,-47.75 87.5,-47.75 0,-47.75"/>
<polygon fill="#bfbfbf" stroke="#bfbfbf" points="0,-32.5 0,-32.5 87.5,-32.5 87.5,-32.5 0,-32.5"/>
<polygon fill="none" stroke="#bfbfbf" points="0,0 0,-76.25 87.5,-76.25 87.5,0 0,0"/>
</a>
</g>
</g>
<!-- Node3&#45;&gt;Node4 -->
<g id="edge3_Node000003_Node000004" class="edge">
<title>Node3&#45;&gt;Node4</title>
<g id="a_edge3_Node000003_Node000004"><a xlink:title=" ">
<path fill="none" stroke="#63b8ff" d="M109.61,-170.99C92.76,-137.25 75,-101.7 62.18,-76.03"/>
<polygon fill="none" stroke="#63b8ff" points="106.29,-172.18 113.89,-179.56 112.56,-169.05 106.29,-172.18"/>
</a>
</g>
</g>
<!-- Node5 -->
<g id="Node000005" class="node">
<title>Node5</title>
<g id="a_Node000005"><a xlink:href="classstackchan_1_1display_1_1_eye.html" target="_top" xlink:title=" ">
<polygon fill="white" stroke="none" points="213.62,-70.62 105.88,-70.62 105.88,-5.62 213.62,-5.62 213.62,-70.62"/>
<text text-anchor="start" x="109.88" y="-57.12" font-family="Helvetica,sans-Serif" font-size="10.00">stackchan::display::Eye</text>
<text text-anchor="start" x="158.25" y="-41.88" font-family="Helvetica,sans-Serif" font-size="10.00"> </text>
<text text-anchor="start" x="121.25" y="-26.62" font-family="Helvetica,sans-Serif" font-size="10.00">+</text>
<text text-anchor="start" x="142.62" y="-26.62" font-family="Helvetica,sans-Serif" font-size="10.00">draw()</text>
<text text-anchor="start" x="121.25" y="-11.38" font-family="Helvetica,sans-Serif" font-size="10.00">+</text>
<text text-anchor="start" x="142.62" y="-11.38" font-family="Helvetica,sans-Serif" font-size="10.00">BaseEye()</text>
<polygon fill="#bfbfbf" stroke="#bfbfbf" points="105.88,-53.38 105.88,-53.38 213.62,-53.38 213.62,-53.38 105.88,-53.38"/>
<polygon fill="#bfbfbf" stroke="#bfbfbf" points="105.88,-38.12 105.88,-38.12 213.62,-38.12 213.62,-38.12 105.88,-38.12"/>
<polygon fill="none" stroke="#bfbfbf" points="105.88,-5.62 105.88,-70.62 213.62,-70.62 213.62,-5.62 105.88,-5.62"/>
</a>
</g>
</g>
<!-- Node3&#45;&gt;Node5 -->
<g id="edge4_Node000003_Node000005" class="edge">
<title>Node3&#45;&gt;Node5</title>
<g id="a_edge4_Node000003_Node000005"><a xlink:title=" ">
<path fill="none" stroke="#63b8ff" d="M159.75,-169.86C159.75,-134 159.75,-96.25 159.75,-70.59"/>
<polygon fill="none" stroke="#63b8ff" points="156.25,-169.4 159.75,-179.4 163.25,-169.4 156.25,-169.4"/>
</a>
</g>
</g>
<!-- Node7 -->
<g id="Node000007" class="node">
<title>Node7</title>
<g id="a_Node000007"><a xlink:href="classstackchan_1_1display_1_1_mouth.html" target="_top" xlink:title=" ">
<polygon fill="white" stroke="none" points="319.5,-68.62 232,-68.62 232,-7.62 319.5,-7.62 319.5,-68.62"/>
<text text-anchor="start" x="236" y="-55.12" font-family="Helvetica,sans-Serif" font-size="10.00">stackchan::display</text>
<text text-anchor="start" x="260" y="-43.88" font-family="Helvetica,sans-Serif" font-size="10.00">::Mouth</text>
<text text-anchor="start" x="274.25" y="-28.62" font-family="Helvetica,sans-Serif" font-size="10.00"> </text>
<text text-anchor="start" x="246.62" y="-13.38" font-family="Helvetica,sans-Serif" font-size="10.00">+</text>
<text text-anchor="start" x="267.25" y="-13.38" font-family="Helvetica,sans-Serif" font-size="10.00">draw()</text>
<polygon fill="#bfbfbf" stroke="#bfbfbf" points="232,-40.12 232,-40.12 319.5,-40.12 319.5,-40.12 232,-40.12"/>
<polygon fill="#bfbfbf" stroke="#bfbfbf" points="232,-24.88 232,-24.88 319.5,-24.88 319.5,-24.88 232,-24.88"/>
<polygon fill="none" stroke="#bfbfbf" points="232,-7.62 232,-68.62 319.5,-68.62 319.5,-7.62 232,-7.62"/>
</a>
</g>
</g>
<!-- Node6&#45;&gt;Node7 -->
<g id="edge6_Node000006_Node000007" class="edge">
<title>Node6&#45;&gt;Node7</title>
<g id="a_edge6_Node000006_Node000007"><a xlink:title=" ">
<path fill="none" stroke="#63b8ff" d="M315.36,-230.8C305.76,-184.33 290.26,-109.35 281.78,-68.3"/>
<polygon fill="none" stroke="#63b8ff" points="311.91,-231.39 317.36,-240.48 318.77,-229.98 311.91,-231.39"/>
</a>
</g>
</g>
<!-- Node8 -->
<g id="Node000008" class="node">
<title>Node8</title>
<g id="a_Node000008"><a xlink:href="classstackchan_1_1display_1_1_omega_mouth.html" target="_top" xlink:title=" ">
<polygon fill="white" stroke="none" points="425.5,-68.62 338,-68.62 338,-7.62 425.5,-7.62 425.5,-68.62"/>
<text text-anchor="start" x="342" y="-55.12" font-family="Helvetica,sans-Serif" font-size="10.00">stackchan::display</text>
<text text-anchor="start" x="350.25" y="-43.88" font-family="Helvetica,sans-Serif" font-size="10.00">::OmegaMouth</text>
<text text-anchor="start" x="380.25" y="-28.62" font-family="Helvetica,sans-Serif" font-size="10.00"> </text>
<text text-anchor="start" x="352.62" y="-13.38" font-family="Helvetica,sans-Serif" font-size="10.00">+</text>
<text text-anchor="start" x="373.25" y="-13.38" font-family="Helvetica,sans-Serif" font-size="10.00">draw()</text>
<polygon fill="#bfbfbf" stroke="#bfbfbf" points="338,-40.12 338,-40.12 425.5,-40.12 425.5,-40.12 338,-40.12"/>
<polygon fill="#bfbfbf" stroke="#bfbfbf" points="338,-24.88 338,-24.88 425.5,-24.88 425.5,-24.88 338,-24.88"/>
<polygon fill="none" stroke="#bfbfbf" points="338,-7.62 338,-68.62 425.5,-68.62 425.5,-7.62 338,-7.62"/>
</a>
</g>
</g>
<!-- Node6&#45;&gt;Node8 -->
<g id="edge7_Node000006_Node000008" class="edge">
<title>Node6&#45;&gt;Node8</title>
<g id="a_edge7_Node000006_Node000008"><a xlink:title=" ">
<path fill="none" stroke="#63b8ff" d="M333.88,-230.8C345.49,-184.33 364.21,-109.35 374.46,-68.3"/>
<polygon fill="none" stroke="#63b8ff" points="330.49,-229.94 331.46,-240.49 337.28,-231.64 330.49,-229.94"/>
</a>
</g>
</g>
<!-- Node10 -->
<g id="Node000010" class="node">
<title>Node10</title>
<g id="a_Node000010"><a xlink:href="classstackchan_1_1display_1_1_ell_face.html" target="_top" xlink:title=" ">
<polygon fill="white" stroke="none" points="531.5,-68.62 444,-68.62 444,-7.62 531.5,-7.62 531.5,-68.62"/>
<text text-anchor="start" x="448" y="-55.12" font-family="Helvetica,sans-Serif" font-size="10.00">stackchan::display</text>
<text text-anchor="start" x="469.38" y="-43.88" font-family="Helvetica,sans-Serif" font-size="10.00">::EllFace</text>
<text text-anchor="start" x="486.25" y="-28.62" font-family="Helvetica,sans-Serif" font-size="10.00"> </text>
<text text-anchor="start" x="455.81" y="-13.38" font-family="Helvetica,sans-Serif" font-size="10.00">+</text>
<text text-anchor="start" x="473.62" y="-13.38" font-family="Helvetica,sans-Serif" font-size="10.00">EllFace()</text>
<polygon fill="#bfbfbf" stroke="#bfbfbf" points="444,-40.12 444,-40.12 531.5,-40.12 531.5,-40.12 444,-40.12"/>
<polygon fill="#bfbfbf" stroke="#bfbfbf" points="444,-24.88 444,-24.88 531.5,-24.88 531.5,-24.88 444,-24.88"/>
<polygon fill="none" stroke="#bfbfbf" points="444,-7.62 444,-68.62 531.5,-68.62 531.5,-7.62 444,-7.62"/>
</a>
</g>
</g>
<!-- Node9&#45;&gt;Node10 -->
<g id="edge9_Node000009_Node000010" class="edge">
<title>Node9&#45;&gt;Node10</title>
<g id="a_edge9_Node000009_Node000010"><a xlink:title=" ">
<path fill="none" stroke="#63b8ff" d="M487.75,-100.92C487.75,-88.82 487.75,-77.74 487.75,-68.4"/>
<polygon fill="none" stroke="#63b8ff" points="484.25,-100.78 487.75,-110.78 491.25,-100.78 484.25,-100.78"/>
</a>
</g>
</g>
<!-- Node11 -->
<g id="Node000011" class="node">
<title>Node11</title>
<g id="a_Node000011"><a xlink:href="classstackchan_1_1display_1_1_omega_face.html" target="_top" xlink:title=" ">
<polygon fill="white" stroke="none" points="637.5,-68.62 550,-68.62 550,-7.62 637.5,-7.62 637.5,-68.62"/>
<text text-anchor="start" x="554" y="-55.12" font-family="Helvetica,sans-Serif" font-size="10.00">stackchan::display</text>
<text text-anchor="start" x="564.88" y="-43.88" font-family="Helvetica,sans-Serif" font-size="10.00">::OmegaFace</text>
<text text-anchor="start" x="592.25" y="-28.62" font-family="Helvetica,sans-Serif" font-size="10.00"> </text>
<text text-anchor="start" x="556.56" y="-13.38" font-family="Helvetica,sans-Serif" font-size="10.00">+</text>
<text text-anchor="start" x="569.12" y="-13.38" font-family="Helvetica,sans-Serif" font-size="10.00">OmegaFace()</text>
<polygon fill="#bfbfbf" stroke="#bfbfbf" points="550,-40.12 550,-40.12 637.5,-40.12 637.5,-40.12 550,-40.12"/>
<polygon fill="#bfbfbf" stroke="#bfbfbf" points="550,-24.88 550,-24.88 637.5,-24.88 637.5,-24.88 550,-24.88"/>
<polygon fill="none" stroke="#bfbfbf" points="550,-7.62 550,-68.62 637.5,-68.62 637.5,-7.62 550,-7.62"/>
</a>
</g>
</g>
<!-- Node9&#45;&gt;Node11 -->
<g id="edge10_Node000009_Node000011" class="edge">
<title>Node9&#45;&gt;Node11</title>
<g id="a_edge10_Node000009_Node000011"><a xlink:title=" ">
<path fill="none" stroke="#63b8ff" d="M547.95,-139.47C560.21,-112.61 571.94,-86.9 580.47,-68.23"/>
<polygon fill="none" stroke="#63b8ff" points="544.83,-137.88 543.86,-148.43 551.2,-140.79 544.83,-137.88"/>
</a>
</g>
</g>
</g>
</svg>

<g id="navigator" transform="translate(0 0)" fill="#404254">
  <rect fill="#f2f5e9" fill-opacity="0.5" stroke="#606060" stroke-width=".5" x="0" y="0" width="60" height="60"/>
  <use id="zoomplus" xlink:href="#zoomPlus" x="17" y="9" onmousedown="handleZoom(evt,'in')"/>
  <use id="zoomminus" xlink:href="#zoomMin" x="42" y="9" onmousedown="handleZoom(evt,'out')"/>
  <use id="reset" xlink:href="#resetDef" x="30" y="36" onmousedown="handleReset()"/>
   <use id="arrowup" xlink:href="#arrowUp" x="0" y="0" onmousedown="handlePan(0,-1)"/>
  <use id="arrowright" xlink:href="#arrowRight" x="0" y="0" onmousedown="handlePan(1,0)"/>
  <use id="arrowdown" xlink:href="#arrowDown" x="0" y="0" onmousedown="handlePan(0,1)"/>
  <use id="arrowleft" xlink:href="#arrowLeft" x="0" y="0" onmousedown="handlePan(-1,0)"/>
</g>
<svg viewBox="0 0 15 15" width="100%" height="30px" preserveAspectRatio="xMaxYMin meet">
 <g id="arrow_out" transform="scale(0.3 0.3)">
  <a xlink:href="classstackchan_1_1display_1_1_drawable__inherit__graph_org.svg" target="_base">
   <rect id="button" ry="5" rx="5" y="6" x="6" height="38" width="38"
        fill="#f2f5e9" fill-opacity="0.5" stroke="#606060" stroke-width="1.0"/>
   <path id="arrow"
     d="M 11.500037,31.436501 C 11.940474,20.09759 22.043105,11.32322 32.158766,21.979434 L 37.068811,17.246167 C 37.068811,17.246167 37.088388,32 37.088388,32 L 22.160133,31.978069 C 22.160133,31.978069 26.997745,27.140456 26.997745,27.140456 C 18.528582,18.264221 13.291696,25.230495 11.500037,31.436501 z"
     style="fill:#404040;"/>
  </a>
 </g>
</svg>

<style type='text/css'>
<![CDATA[
[data-mouse-over-selected='false'] { opacity: 0.7; }
[data-mouse-over-selected='true']  { opacity: 1.0; }
]]>
</style>
<script type="application/ecmascript"><![CDATA[
document.addEventListener('DOMContentLoaded', (event) => {
  highlightEdges();
  highlightAdjacentNodes();
});
]]></script>
</svg>
