<?xml version="1.0" encoding="UTF-8" standalone="no"?>
<!DOCTYPE svg PUBLIC "-//W3C//DTD SVG 1.1//EN"
 "http://www.w3.org/Graphics/SVG/1.1/DTD/svg11.dtd">
<!-- Generated by graphviz version 12.2.0 (20241103.1931)
 -->
<!-- Title: stackchan::display::EllipseEye Pages: 1 -->
<!--zoomable 1038 -->

<svg id="main" version="1.1" xmlns="http://www.w3.org/2000/svg" xmlns:xlink="http://www.w3.org/1999/xlink" xml:space="preserve" onload="init(evt)">

<style type="text/css"><![CDATA[
.node, .edge {opacity: 0.7;}
.node.selected, .edge.selected {opacity: 1;}
.edge:hover path { stroke: red; }
.edge:hover polygon { stroke: red; fill: red; }
]]></style>

<defs>
  <circle id="rim" cx="0" cy="0" r="7"/>
  <circle id="rim2" cx="0" cy="0" r="3.5"/>
  <g id="zoomPlus">
    <use xlink:href="#rim" fill="#404040"><set attributeName="fill" to="#808080" begin="zoomplus.mouseover" end="zoomplus.mouseout"/></use>
    <path d="M-4,0h8M0,-4v8" fill="none" stroke="white" stroke-width="1.5" pointer-events="none"/>
  </g>
  <g id="zoomMin">
    <use xlink:href="#rim" fill="#404040"><set attributeName="fill" to="#808080" begin="zoomminus.mouseover" end="zoomminus.mouseout"/></use>
    <path d="M-4,0h8" fill="none" stroke="white" stroke-width="1.5" pointer-events="none"/>
  </g>
  <g id="arrowUp" transform="translate(30 24)">
    <use xlink:href="#rim"/>
    <path pointer-events="none" fill="none" stroke="white" stroke-width="1.5" d="M0,-3.0v7 M-2.5,-0.5L0,-3.0L2.5,-0.5"/>
  </g>
  <g id="arrowRight" transform="rotate(90) translate(36 -43)">
    <use xlink:href="#rim"/>
    <path pointer-events="none" fill="none" stroke="white" stroke-width="1.5" d="M0,-3.0v7 M-2.5,-0.5L0,-3.0L2.5,-0.5"/>
  </g>
  <g id="arrowDown" transform="rotate(180) translate(-30 -48)">
    <use xlink:href="#rim"/>
    <path pointer-events="none" fill="none" stroke="white" stroke-width="1.5" d="M0,-3.0v7 M-2.5,-0.5L0,-3.0L2.5,-0.5"/>
  </g>
  <g id="arrowLeft" transform="rotate(270) translate(-36 17)">
    <use xlink:href="#rim"/>
    <path pointer-events="none" fill="none" stroke="white" stroke-width="1.5" d="M0,-3.0v7 M-2.5,-0.5L0,-3.0L2.5,-0.5"/>
  </g>
  <g id="resetDef">
    <use xlink:href="#rim2" fill="#404040"><set attributeName="fill" to="#808080" begin="reset.mouseover" end="reset.mouseout"/></use>
  </g>
</defs>
<script type="application/ecmascript">
var viewWidth = 178;
var viewHeight = 1038;
var sectionId = 'dynsection-1';
</script>
<script type="application/ecmascript" xlink:href="svg.min.js"/>
<svg id="graph" class="graph">
<g id="viewport">
<title>stackchan::display::EllipseEye</title>
<!-- Node1 -->
<g id="Node000001" class="node">
<title>Node1</title>
<g id="a_Node000001"><a xlink:title=" ">
<polygon fill="#999999" stroke="none" points="98.12,-76.25 10.62,-76.25 10.62,0 98.12,0 98.12,-76.25"/>
<text text-anchor="start" x="14.62" y="-62.75" font-family="Helvetica,sans-Serif" font-size="10.00">stackchan::display</text>
<text text-anchor="start" x="30" y="-51.5" font-family="Helvetica,sans-Serif" font-size="10.00">::EllipseEye</text>
<text text-anchor="start" x="52.88" y="-36.25" font-family="Helvetica,sans-Serif" font-size="10.00"> </text>
<text text-anchor="start" x="20.94" y="-21" font-family="Helvetica,sans-Serif" font-size="10.00">+</text>
<text text-anchor="start" x="37.25" y="-21" font-family="Helvetica,sans-Serif" font-size="10.00">draw()</text>
<text text-anchor="start" x="20.94" y="-5.75" font-family="Helvetica,sans-Serif" font-size="10.00">+</text>
<text text-anchor="start" x="37.25" y="-5.75" font-family="Helvetica,sans-Serif" font-size="10.00">BaseEye()</text>
<polygon fill="#666666" stroke="#666666" points="10.62,-47.75 10.62,-47.75 98.12,-47.75 98.12,-47.75 10.62,-47.75"/>
<polygon fill="#666666" stroke="#666666" points="10.62,-32.5 10.62,-32.5 98.12,-32.5 98.12,-32.5 10.62,-32.5"/>
<polygon fill="none" stroke="#666666" points="10.62,0 10.62,-76.25 98.12,-76.25 98.12,0 10.62,0"/>
</a>
</g>
</g>
<!-- Node2 -->
<g id="Node000002" class="node">
<title>Node2</title>
<g id="a_Node000002"><a xlink:href="classstackchan_1_1display_1_1_base_eye.html" target="_top" xlink:title="Base class for Eye, draw nothing.">
<polygon fill="white" stroke="none" points="108.75,-265.75 0,-265.75 0,-113.25 108.75,-113.25 108.75,-265.75"/>
<text text-anchor="start" x="14.62" y="-252.25" font-family="Helvetica,sans-Serif" font-size="10.00">stackchan::display</text>
<text text-anchor="start" x="33" y="-241" font-family="Helvetica,sans-Serif" font-size="10.00">::BaseEye</text>
<text text-anchor="start" x="4.38" y="-225.75" font-family="Helvetica,sans-Serif" font-size="10.00">#</text>
<text text-anchor="start" x="14" y="-225.75" font-family="Helvetica,sans-Serif" font-size="10.00">is_left_</text>
<text text-anchor="start" x="4.38" y="-210.5" font-family="Helvetica,sans-Serif" font-size="10.00">#</text>
<text text-anchor="start" x="14" y="-210.5" font-family="Helvetica,sans-Serif" font-size="10.00">milli_sec_</text>
<text text-anchor="start" x="4.38" y="-195.25" font-family="Helvetica,sans-Serif" font-size="10.00">#</text>
<text text-anchor="start" x="14" y="-195.25" font-family="Helvetica,sans-Serif" font-size="10.00">last_saccade_millis_</text>
<text text-anchor="start" x="4.38" y="-180" font-family="Helvetica,sans-Serif" font-size="10.00">#</text>
<text text-anchor="start" x="14" y="-180" font-family="Helvetica,sans-Serif" font-size="10.00">saccade_interval_</text>
<text text-anchor="start" x="4" y="-164.75" font-family="Helvetica,sans-Serif" font-size="10.00">+</text>
<text text-anchor="start" x="14" y="-164.75" font-family="Helvetica,sans-Serif" font-size="10.00">BaseEye()</text>
<text text-anchor="start" x="4.38" y="-149.5" font-family="Helvetica,sans-Serif" font-size="10.00">#</text>
<text text-anchor="start" x="14" y="-149.5" font-family="Helvetica,sans-Serif" font-size="10.00">updateGaze()</text>
<text text-anchor="start" x="4.38" y="-134.25" font-family="Helvetica,sans-Serif" font-size="10.00">#</text>
<text text-anchor="start" x="14" y="-134.25" font-family="Helvetica,sans-Serif" font-size="10.00">updateSaccade()</text>
<text text-anchor="start" x="4.38" y="-119" font-family="Helvetica,sans-Serif" font-size="10.00">#</text>
<text text-anchor="start" x="14" y="-119" font-family="Helvetica,sans-Serif" font-size="10.00">calculateOpenRatio()</text>
<polygon fill="#666666" stroke="#666666" points="0,-237.25 0,-237.25 108.75,-237.25 108.75,-237.25 0,-237.25"/>
<polygon fill="#666666" stroke="#666666" points="0,-176.25 0,-176.25 12,-176.25 12,-176.25 0,-176.25"/>
<polygon fill="#666666" stroke="#666666" points="12,-176.25 12,-176.25 108.75,-176.25 108.75,-176.25 12,-176.25"/>
<polygon fill="none" stroke="#666666" points="0,-113.25 0,-265.75 108.75,-265.75 108.75,-113.25 0,-113.25"/>
</a>
</g>
</g>
<!-- Node2&#45;&gt;Node1 -->
<g id="edge1_Node000001_Node000002" class="edge">
<title>Node2&#45;&gt;Node1</title>
<g id="a_edge1_Node000001_Node000002"><a xlink:title=" ">
<path fill="none" stroke="#63b8ff" d="M54.38,-101.9C54.38,-92.91 54.38,-84.16 54.38,-76.18"/>
<polygon fill="none" stroke="#63b8ff" points="50.88,-101.86 54.38,-111.86 57.88,-101.86 50.88,-101.86"/>
</a>
</g>
</g>
<!-- Node3 -->
<g id="Node000003" class="node">
<title>Node3</title>
<g id="a_Node000003"><a xlink:href="classstackchan_1_1display_1_1_facial_drawable.html" target="_top" xlink:title=" ">
<polygon fill="white" stroke="none" points="153.12,-394.25 65.62,-394.25 65.62,-302.75 153.12,-302.75 153.12,-394.25"/>
<text text-anchor="start" x="69.62" y="-380.75" font-family="Helvetica,sans-Serif" font-size="10.00">stackchan::display</text>
<text text-anchor="start" x="73.75" y="-369.5" font-family="Helvetica,sans-Serif" font-size="10.00">::FacialDrawable</text>
<text text-anchor="start" x="107.88" y="-354.25" font-family="Helvetica,sans-Serif" font-size="10.00"> </text>
<text text-anchor="start" x="75.38" y="-339" font-family="Helvetica,sans-Serif" font-size="10.00">+</text>
<text text-anchor="start" x="91.12" y="-339" font-family="Helvetica,sans-Serif" font-size="10.00">draw()</text>
<text text-anchor="start" x="75.38" y="-323.75" font-family="Helvetica,sans-Serif" font-size="10.00">+</text>
<text text-anchor="start" x="91.12" y="-323.75" font-family="Helvetica,sans-Serif" font-size="10.00">Drawable()</text>
<text text-anchor="start" x="75.38" y="-308.5" font-family="Helvetica,sans-Serif" font-size="10.00">+</text>
<text text-anchor="start" x="91.12" y="-308.5" font-family="Helvetica,sans-Serif" font-size="10.00">Drawable()</text>
<polygon fill="#bfbfbf" stroke="#bfbfbf" points="65.62,-365.75 65.62,-365.75 153.12,-365.75 153.12,-365.75 65.62,-365.75"/>
<polygon fill="#bfbfbf" stroke="#bfbfbf" points="65.62,-350.5 65.62,-350.5 153.12,-350.5 153.12,-350.5 65.62,-350.5"/>
<polygon fill="none" stroke="#bfbfbf" points="65.62,-302.75 65.62,-394.25 153.12,-394.25 153.12,-302.75 65.62,-302.75"/>
</a>
</g>
</g>
<!-- Node3&#45;&gt;Node2 -->
<g id="edge2_Node000002_Node000003" class="edge">
<title>Node3&#45;&gt;Node2</title>
<g id="a_edge2_Node000002_Node000003"><a xlink:title=" ">
<path fill="none" stroke="#63b8ff" d="M90.01,-292.22C86.98,-283.56 83.8,-274.49 80.64,-265.48"/>
<polygon fill="none" stroke="#63b8ff" points="86.65,-293.22 93.26,-301.5 93.26,-290.91 86.65,-293.22"/>
</a>
</g>
</g>
<!-- Node4 -->
<g id="Node000004" class="node">
<title>Node4</title>
<g id="a_Node000004"><a xlink:href="classstackchan_1_1display_1_1_drawable.html" target="_top" xlink:title=" ">
<polygon fill="white" stroke="none" points="170,-719.25 68.75,-719.25 68.75,-475.25 170,-475.25 170,-719.25"/>
<text text-anchor="start" x="79.62" y="-705.75" font-family="Helvetica,sans-Serif" font-size="10.00">stackchan::display</text>
<text text-anchor="start" x="96.88" y="-694.5" font-family="Helvetica,sans-Serif" font-size="10.00">::Drawable</text>
<text text-anchor="start" x="73.12" y="-679.25" font-family="Helvetica,sans-Serif" font-size="10.00">#</text>
<text text-anchor="start" x="82.75" y="-679.25" font-family="Helvetica,sans-Serif" font-size="10.00">rotation_</text>
<text text-anchor="start" x="73.12" y="-664" font-family="Helvetica,sans-Serif" font-size="10.00">#</text>
<text text-anchor="start" x="82.75" y="-664" font-family="Helvetica,sans-Serif" font-size="10.00">visible_</text>
<text text-anchor="start" x="73.12" y="-648.75" font-family="Helvetica,sans-Serif" font-size="10.00">#</text>
<text text-anchor="start" x="82.75" y="-648.75" font-family="Helvetica,sans-Serif" font-size="10.00">ignore_expression_</text>
<text text-anchor="start" x="72.75" y="-633.5" font-family="Helvetica,sans-Serif" font-size="10.00">+</text>
<text text-anchor="start" x="82.75" y="-633.5" font-family="Helvetica,sans-Serif" font-size="10.00">Drawable()</text>
<text text-anchor="start" x="72.75" y="-618.25" font-family="Helvetica,sans-Serif" font-size="10.00">+</text>
<text text-anchor="start" x="82.75" y="-618.25" font-family="Helvetica,sans-Serif" font-size="10.00">Drawable()</text>
<text text-anchor="start" x="72.75" y="-603" font-family="Helvetica,sans-Serif" font-size="10.00">+</text>
<text text-anchor="start" x="82.75" y="-603" font-family="Helvetica,sans-Serif" font-size="10.00">~Drawable()</text>
<text text-anchor="start" x="72.75" y="-587.75" font-family="Helvetica,sans-Serif" font-size="10.00">+</text>
<text text-anchor="start" x="82.75" y="-587.75" font-family="Helvetica,sans-Serif" font-size="10.00">setPosition()</text>
<text text-anchor="start" x="72.75" y="-572.5" font-family="Helvetica,sans-Serif" font-size="10.00">+</text>
<text text-anchor="start" x="82.75" y="-572.5" font-family="Helvetica,sans-Serif" font-size="10.00">getPosition()</text>
<text text-anchor="start" x="72.75" y="-557.25" font-family="Helvetica,sans-Serif" font-size="10.00">+</text>
<text text-anchor="start" x="82.75" y="-557.25" font-family="Helvetica,sans-Serif" font-size="10.00">setRotation()</text>
<text text-anchor="start" x="72.75" y="-542" font-family="Helvetica,sans-Serif" font-size="10.00">+</text>
<text text-anchor="start" x="82.75" y="-542" font-family="Helvetica,sans-Serif" font-size="10.00">getRotation()</text>
<text text-anchor="start" x="72.75" y="-526.75" font-family="Helvetica,sans-Serif" font-size="10.00">+</text>
<text text-anchor="start" x="82.75" y="-526.75" font-family="Helvetica,sans-Serif" font-size="10.00">setSize()</text>
<text text-anchor="start" x="72.75" y="-511.5" font-family="Helvetica,sans-Serif" font-size="10.00">+</text>
<text text-anchor="start" x="82.75" y="-511.5" font-family="Helvetica,sans-Serif" font-size="10.00">getSize()</text>
<text text-anchor="start" x="72.75" y="-496.25" font-family="Helvetica,sans-Serif" font-size="10.00">+</text>
<text text-anchor="start" x="82.75" y="-496.25" font-family="Helvetica,sans-Serif" font-size="10.00">setVisible()</text>
<text text-anchor="start" x="82.75" y="-481" font-family="Helvetica,sans-Serif" font-size="10.00">and 7 more...</text>
<polygon fill="#bfbfbf" stroke="#bfbfbf" points="68.75,-690.75 68.75,-690.75 170,-690.75 170,-690.75 68.75,-690.75"/>
<polygon fill="#bfbfbf" stroke="#bfbfbf" points="68.75,-645 68.75,-645 80.75,-645 80.75,-645 68.75,-645"/>
<polygon fill="#bfbfbf" stroke="#bfbfbf" points="80.75,-645 80.75,-645 170,-645 170,-645 80.75,-645"/>
<polygon fill="none" stroke="#bfbfbf" points="68.75,-475.25 68.75,-719.25 170,-719.25 170,-475.25 68.75,-475.25"/>
</a>
</g>
</g>
<!-- Node4&#45;&gt;Node3 -->
<g id="edge3_Node000003_Node000004" class="edge">
<title>Node4&#45;&gt;Node3</title>
<g id="a_edge3_Node000003_Node000004"><a xlink:title=" ">
<path fill="none" stroke="#63b8ff" d="M114.02,-464.17C113,-438.91 111.99,-414.13 111.18,-394.11"/>
<polygon fill="none" stroke="#63b8ff" points="110.51,-464.04 114.42,-473.89 117.51,-463.76 110.51,-464.04"/>
</a>
</g>
</g>
<!-- Node5 -->
<g id="Node000005" class="node">
<title>Node5</title>
<g id="a_Node000005"><a xlink:href="classm5_1_1_vector2i.html" target="_top" xlink:title=" ">
<polygon fill="white" stroke="none" points="72,-1029.75 0.75,-1029.75 0.75,-766.5 72,-766.5 72,-1029.75"/>
<text text-anchor="start" x="9.38" y="-1016.25" font-family="Helvetica,sans-Serif" font-size="10.00">m5::Vector2i</text>
<text text-anchor="start" x="4.75" y="-1001" font-family="Helvetica,sans-Serif" font-size="10.00">+</text>
<text text-anchor="start" x="14.75" y="-1001" font-family="Helvetica,sans-Serif" font-size="10.00">x</text>
<text text-anchor="start" x="4.75" y="-985.75" font-family="Helvetica,sans-Serif" font-size="10.00">+</text>
<text text-anchor="start" x="14.75" y="-985.75" font-family="Helvetica,sans-Serif" font-size="10.00">y</text>
<text text-anchor="start" x="4.75" y="-970.5" font-family="Helvetica,sans-Serif" font-size="10.00">+</text>
<text text-anchor="start" x="14.75" y="-970.5" font-family="Helvetica,sans-Serif" font-size="10.00">Vector2i()</text>
<text text-anchor="start" x="4.75" y="-955.25" font-family="Helvetica,sans-Serif" font-size="10.00">+</text>
<text text-anchor="start" x="14.75" y="-955.25" font-family="Helvetica,sans-Serif" font-size="10.00">Vector2i()</text>
<text text-anchor="start" x="4.75" y="-940" font-family="Helvetica,sans-Serif" font-size="10.00">+</text>
<text text-anchor="start" x="14.75" y="-940" font-family="Helvetica,sans-Serif" font-size="10.00">operator+()</text>
<text text-anchor="start" x="4.75" y="-924.75" font-family="Helvetica,sans-Serif" font-size="10.00">+</text>
<text text-anchor="start" x="14.75" y="-924.75" font-family="Helvetica,sans-Serif" font-size="10.00">operator&#45;()</text>
<text text-anchor="start" x="4.75" y="-909.5" font-family="Helvetica,sans-Serif" font-size="10.00">+</text>
<text text-anchor="start" x="14.75" y="-909.5" font-family="Helvetica,sans-Serif" font-size="10.00">operator*()</text>
<text text-anchor="start" x="4.75" y="-894.25" font-family="Helvetica,sans-Serif" font-size="10.00">+</text>
<text text-anchor="start" x="14.75" y="-894.25" font-family="Helvetica,sans-Serif" font-size="10.00">operator/()</text>
<text text-anchor="start" x="4.75" y="-879" font-family="Helvetica,sans-Serif" font-size="10.00">+</text>
<text text-anchor="start" x="14.75" y="-879" font-family="Helvetica,sans-Serif" font-size="10.00">operator+=()</text>
<text text-anchor="start" x="4.75" y="-863.75" font-family="Helvetica,sans-Serif" font-size="10.00">+</text>
<text text-anchor="start" x="14.75" y="-863.75" font-family="Helvetica,sans-Serif" font-size="10.00">operator&#45;=()</text>
<text text-anchor="start" x="4.75" y="-848.5" font-family="Helvetica,sans-Serif" font-size="10.00">+</text>
<text text-anchor="start" x="14.75" y="-848.5" font-family="Helvetica,sans-Serif" font-size="10.00">operator*=()</text>
<text text-anchor="start" x="4.75" y="-833.25" font-family="Helvetica,sans-Serif" font-size="10.00">+</text>
<text text-anchor="start" x="14.75" y="-833.25" font-family="Helvetica,sans-Serif" font-size="10.00">operator/=()</text>
<text text-anchor="start" x="4.75" y="-818" font-family="Helvetica,sans-Serif" font-size="10.00">+</text>
<text text-anchor="start" x="14.75" y="-818" font-family="Helvetica,sans-Serif" font-size="10.00">operator==()</text>
<text text-anchor="start" x="4.75" y="-802.75" font-family="Helvetica,sans-Serif" font-size="10.00">+</text>
<text text-anchor="start" x="14.75" y="-802.75" font-family="Helvetica,sans-Serif" font-size="10.00">operator!=()</text>
<text text-anchor="start" x="4.75" y="-787.5" font-family="Helvetica,sans-Serif" font-size="10.00">+</text>
<text text-anchor="start" x="14.75" y="-787.5" font-family="Helvetica,sans-Serif" font-size="10.00">dot()</text>
<text text-anchor="start" x="4.75" y="-772.25" font-family="Helvetica,sans-Serif" font-size="10.00">+</text>
<text text-anchor="start" x="14.75" y="-772.25" font-family="Helvetica,sans-Serif" font-size="10.00">clamp()</text>
<polygon fill="#bfbfbf" stroke="#bfbfbf" points="0.75,-1012.5 0.75,-1012.5 72,-1012.5 72,-1012.5 0.75,-1012.5"/>
<polygon fill="#bfbfbf" stroke="#bfbfbf" points="0.75,-982 0.75,-982 12.75,-982 12.75,-982 0.75,-982"/>
<polygon fill="#bfbfbf" stroke="#bfbfbf" points="12.75,-982 12.75,-982 72,-982 72,-982 12.75,-982"/>
<polygon fill="none" stroke="#bfbfbf" points="0.75,-766.5 0.75,-1029.75 72,-1029.75 72,-766.5 0.75,-766.5"/>
</a>
</g>
</g>
<!-- Node5&#45;&gt;Node2 -->
<g id="edge6_Node000002_Node000005" class="edge">
<title>Node5&#45;&gt;Node2</title>
<g id="a_edge6_Node000002_Node000005"><a xlink:title=" ">
<path fill="none" stroke="#63b8ff" d="M31.37,-766.62C28.59,-668.97 26.76,-532.17 32.62,-412.25 34.79,-368.06 39.36,-319.09 43.75,-278.44"/>
<polygon fill="none" stroke="#63b8ff" points="43.76,-278.37 40.44,-271.97 45.07,-266.45 48.39,-272.85 43.76,-278.37"/>
</a>
</g>
<text text-anchor="middle" x="70.5" y="-447.75" font-family="Helvetica,sans-Serif" font-size="10.00" fill="grey"> #gaze_</text>
<text text-anchor="start" x="32.62" y="-436.5" font-family="Helvetica,sans-Serif" font-size="10.00" fill="grey">#iris_position</text>
<text text-anchor="middle" x="70.5" y="-425.25" font-family="Helvetica,sans-Serif" font-size="10.00" fill="grey">_</text>
<text text-anchor="middle" x="70.5" y="-414" font-family="Helvetica,sans-Serif" font-size="10.00" fill="grey">#saccade_noise_</text>
</g>
<!-- Node5&#45;&gt;Node4 -->
<g id="edge4_Node000004_Node000005" class="edge">
<title>Node5&#45;&gt;Node4</title>
<g id="a_edge4_Node000004_Node000005"><a xlink:title=" ">
<path fill="none" stroke="#63b8ff" d="M66.89,-766.91C69.5,-756.85 72.18,-746.87 74.88,-737.25 75.42,-735.29 75.98,-733.31 76.55,-731.33"/>
<polygon fill="none" stroke="#63b8ff" points="76.53,-731.4 74.36,-724.52 79.88,-719.87 82.04,-726.75 76.53,-731.4"/>
</a>
</g>
<text text-anchor="middle" x="98.12" y="-739" font-family="Helvetica,sans-Serif" font-size="10.00" fill="grey"> #position_</text>
</g>
<!-- Node6 -->
<g id="Node000006" class="node">
<title>Node6</title>
<g id="a_Node000006"><a xlink:href="classm5_1_1_size2i.html" target="_top" xlink:title=" ">
<polygon fill="white" stroke="none" points="165.88,-976.38 96.88,-976.38 96.88,-819.88 165.88,-819.88 165.88,-976.38"/>
<text text-anchor="start" x="109.25" y="-962.88" font-family="Helvetica,sans-Serif" font-size="10.00">m5::Size2i</text>
<text text-anchor="start" x="100.88" y="-947.62" font-family="Helvetica,sans-Serif" font-size="10.00">+</text>
<text text-anchor="start" x="110.88" y="-947.62" font-family="Helvetica,sans-Serif" font-size="10.00">width</text>
<text text-anchor="start" x="100.88" y="-932.38" font-family="Helvetica,sans-Serif" font-size="10.00">+</text>
<text text-anchor="start" x="110.88" y="-932.38" font-family="Helvetica,sans-Serif" font-size="10.00">height</text>
<text text-anchor="start" x="100.88" y="-917.12" font-family="Helvetica,sans-Serif" font-size="10.00">+</text>
<text text-anchor="start" x="110.88" y="-917.12" font-family="Helvetica,sans-Serif" font-size="10.00">Size2i()</text>
<text text-anchor="start" x="100.88" y="-901.88" font-family="Helvetica,sans-Serif" font-size="10.00">+</text>
<text text-anchor="start" x="110.88" y="-901.88" font-family="Helvetica,sans-Serif" font-size="10.00">Size2i()</text>
<text text-anchor="start" x="100.88" y="-886.62" font-family="Helvetica,sans-Serif" font-size="10.00">+</text>
<text text-anchor="start" x="110.88" y="-886.62" font-family="Helvetica,sans-Serif" font-size="10.00">operator*=()</text>
<text text-anchor="start" x="100.88" y="-871.38" font-family="Helvetica,sans-Serif" font-size="10.00">+</text>
<text text-anchor="start" x="110.88" y="-871.38" font-family="Helvetica,sans-Serif" font-size="10.00">operator*()</text>
<text text-anchor="start" x="100.88" y="-856.12" font-family="Helvetica,sans-Serif" font-size="10.00">+</text>
<text text-anchor="start" x="110.88" y="-856.12" font-family="Helvetica,sans-Serif" font-size="10.00">area()</text>
<text text-anchor="start" x="100.88" y="-840.88" font-family="Helvetica,sans-Serif" font-size="10.00">+</text>
<text text-anchor="start" x="110.88" y="-840.88" font-family="Helvetica,sans-Serif" font-size="10.00">max()</text>
<text text-anchor="start" x="100.88" y="-825.62" font-family="Helvetica,sans-Serif" font-size="10.00">+</text>
<text text-anchor="start" x="110.88" y="-825.62" font-family="Helvetica,sans-Serif" font-size="10.00">min()</text>
<polygon fill="#bfbfbf" stroke="#bfbfbf" points="96.88,-959.12 96.88,-959.12 165.88,-959.12 165.88,-959.12 96.88,-959.12"/>
<polygon fill="#bfbfbf" stroke="#bfbfbf" points="96.88,-928.62 96.88,-928.62 108.88,-928.62 108.88,-928.62 96.88,-928.62"/>
<polygon fill="#bfbfbf" stroke="#bfbfbf" points="108.88,-928.62 108.88,-928.62 165.88,-928.62 165.88,-928.62 108.88,-928.62"/>
<polygon fill="none" stroke="#bfbfbf" points="96.88,-819.88 96.88,-976.38 165.88,-976.38 165.88,-819.88 96.88,-819.88"/>
</a>
</g>
</g>
<!-- Node6&#45;&gt;Node4 -->
<g id="edge5_Node000004_Node000006" class="edge">
<title>Node6&#45;&gt;Node4</title>
<g id="a_edge5_Node000004_Node000006"><a xlink:title=" ">
<path fill="none" stroke="#63b8ff" d="M128.28,-820.16C127.2,-793.22 125.96,-762.14 124.74,-731.92"/>
<polygon fill="none" stroke="#63b8ff" points="124.74,-731.93 120.5,-726.1 124.26,-719.94 128.5,-725.78 124.74,-731.93"/>
</a>
</g>
<text text-anchor="middle" x="140.38" y="-739" font-family="Helvetica,sans-Serif" font-size="10.00" fill="grey"> #size_</text>
</g>
</g>
</svg>

<g id="navigator" transform="translate(0 0)" fill="#404254">
  <rect fill="#f2f5e9" fill-opacity="0.5" stroke="#606060" stroke-width=".5" x="0" y="0" width="60" height="60"/>
  <use id="zoomplus" xlink:href="#zoomPlus" x="17" y="9" onmousedown="handleZoom(evt,'in')"/>
  <use id="zoomminus" xlink:href="#zoomMin" x="42" y="9" onmousedown="handleZoom(evt,'out')"/>
  <use id="reset" xlink:href="#resetDef" x="30" y="36" onmousedown="handleReset()"/>
   <use id="arrowup" xlink:href="#arrowUp" x="0" y="0" onmousedown="handlePan(0,-1)"/>
  <use id="arrowright" xlink:href="#arrowRight" x="0" y="0" onmousedown="handlePan(1,0)"/>
  <use id="arrowdown" xlink:href="#arrowDown" x="0" y="0" onmousedown="handlePan(0,1)"/>
  <use id="arrowleft" xlink:href="#arrowLeft" x="0" y="0" onmousedown="handlePan(-1,0)"/>
</g>
<svg viewBox="0 0 15 15" width="100%" height="30px" preserveAspectRatio="xMaxYMin meet">
 <g id="arrow_out" transform="scale(0.3 0.3)">
  <a xlink:href="classstackchan_1_1display_1_1_ellipse_eye__coll__graph_org.svg" target="_base">
   <rect id="button" ry="5" rx="5" y="6" x="6" height="38" width="38"
        fill="#f2f5e9" fill-opacity="0.5" stroke="#606060" stroke-width="1.0"/>
   <path id="arrow"
     d="M 11.500037,31.436501 C 11.940474,20.09759 22.043105,11.32322 32.158766,21.979434 L 37.068811,17.246167 C 37.068811,17.246167 37.088388,32 37.088388,32 L 22.160133,31.978069 C 22.160133,31.978069 26.997745,27.140456 26.997745,27.140456 C 18.528582,18.264221 13.291696,25.230495 11.500037,31.436501 z"
     style="fill:#404040;"/>
  </a>
 </g>
</svg>

<style type='text/css'>
<![CDATA[
[data-mouse-over-selected='false'] { opacity: 0.7; }
[data-mouse-over-selected='true']  { opacity: 1.0; }
]]>
</style>
<script type="application/ecmascript"><![CDATA[
document.addEventListener('DOMContentLoaded', (event) => {
  highlightEdges();
  highlightAdjacentNodes();
});
]]></script>
</svg>
