<?xml version="1.0" encoding="UTF-8" standalone="no"?>
<!DOCTYPE svg PUBLIC "-//W3C//DTD SVG 1.1//EN"
 "http://www.w3.org/Graphics/SVG/1.1/DTD/svg11.dtd">
<!-- Generated by graphviz version 12.2.0 (20241103.1931)
 -->
<!-- Title: stackchan::display::OmegaFace Pages: 1 -->
<svg width="254pt" height="1325pt"
 viewBox="0.00 0.00 253.84 1325.00" xmlns="http://www.w3.org/2000/svg" xmlns:xlink="http://www.w3.org/1999/xlink">
<g id="graph0" class="graph" transform="scale(1 1) rotate(0) translate(4 1321)">
<title>stackchan::display::OmegaFace</title>
<!-- Node1 -->
<g id="Node000001" class="node">
<title>Node1</title>
<g id="a_Node000001"><a xlink:title=" ">
<polygon fill="#999999" stroke="none" points="219.12,-61 131.62,-61 131.62,0 219.12,0 219.12,-61"/>
<text text-anchor="start" x="135.62" y="-47.5" font-family="Helvetica,sans-Serif" font-size="10.00">stackchan::display</text>
<text text-anchor="start" x="146.5" y="-36.25" font-family="Helvetica,sans-Serif" font-size="10.00">::OmegaFace</text>
<text text-anchor="start" x="173.88" y="-21" font-family="Helvetica,sans-Serif" font-size="10.00"> </text>
<text text-anchor="start" x="138.19" y="-5.75" font-family="Helvetica,sans-Serif" font-size="10.00">+</text>
<text text-anchor="start" x="150.75" y="-5.75" font-family="Helvetica,sans-Serif" font-size="10.00">OmegaFace()</text>
<polygon fill="#666666" stroke="#666666" points="131.62,-32.5 131.62,-32.5 219.12,-32.5 219.12,-32.5 131.62,-32.5"/>
<polygon fill="#666666" stroke="#666666" points="131.62,-17.25 131.62,-17.25 219.12,-17.25 219.12,-17.25 131.62,-17.25"/>
<polygon fill="none" stroke="#666666" points="131.62,0 131.62,-61 219.12,-61 219.12,0 131.62,0"/>
</a>
</g>
</g>
<!-- Node2 -->
<g id="Node000002" class="node">
<title>Node2</title>
<g id="a_Node000002"><a xlink:href="classstackchan_1_1display_1_1_face.html" target="_top" xlink:title=" ">
<polygon fill="white" stroke="none" points="230.88,-357.25 119.88,-357.25 119.88,-98 230.88,-98 230.88,-357.25"/>
<text text-anchor="start" x="135.62" y="-343.75" font-family="Helvetica,sans-Serif" font-size="10.00">stackchan::display</text>
<text text-anchor="start" x="162.25" y="-332.5" font-family="Helvetica,sans-Serif" font-size="10.00">::Face</text>
<text text-anchor="start" x="124.25" y="-317.25" font-family="Helvetica,sans-Serif" font-size="10.00">#</text>
<text text-anchor="start" x="133.88" y="-317.25" font-family="Helvetica,sans-Serif" font-size="10.00">is_auto_blink_</text>
<text text-anchor="start" x="124.25" y="-302" font-family="Helvetica,sans-Serif" font-size="10.00">#</text>
<text text-anchor="start" x="133.88" y="-302" font-family="Helvetica,sans-Serif" font-size="10.00">auto_blink_interval_</text>
<text text-anchor="start" x="124.25" y="-286.75" font-family="Helvetica,sans-Serif" font-size="10.00">#</text>
<text text-anchor="start" x="133.88" y="-286.75" font-family="Helvetica,sans-Serif" font-size="10.00">last_blink_time_</text>
<text text-anchor="start" x="124.25" y="-271.5" font-family="Helvetica,sans-Serif" font-size="10.00">#</text>
<text text-anchor="start" x="133.88" y="-271.5" font-family="Helvetica,sans-Serif" font-size="10.00">blink_duration_</text>
<text text-anchor="start" x="124.25" y="-256.25" font-family="Helvetica,sans-Serif" font-size="10.00">#</text>
<text text-anchor="start" x="133.88" y="-256.25" font-family="Helvetica,sans-Serif" font-size="10.00">breath_frequency_</text>
<text text-anchor="start" x="123.88" y="-241" font-family="Helvetica,sans-Serif" font-size="10.00">+</text>
<text text-anchor="start" x="133.88" y="-241" font-family="Helvetica,sans-Serif" font-size="10.00">Face()</text>
<text text-anchor="start" x="123.88" y="-225.75" font-family="Helvetica,sans-Serif" font-size="10.00">+</text>
<text text-anchor="start" x="133.88" y="-225.75" font-family="Helvetica,sans-Serif" font-size="10.00">Face()</text>
<text text-anchor="start" x="123.88" y="-210.5" font-family="Helvetica,sans-Serif" font-size="10.00">+</text>
<text text-anchor="start" x="133.88" y="-210.5" font-family="Helvetica,sans-Serif" font-size="10.00">getLeftEye()</text>
<text text-anchor="start" x="123.88" y="-195.25" font-family="Helvetica,sans-Serif" font-size="10.00">+</text>
<text text-anchor="start" x="133.88" y="-195.25" font-family="Helvetica,sans-Serif" font-size="10.00">getRightEye()</text>
<text text-anchor="start" x="123.88" y="-180" font-family="Helvetica,sans-Serif" font-size="10.00">+</text>
<text text-anchor="start" x="133.88" y="-180" font-family="Helvetica,sans-Serif" font-size="10.00">getMouth()</text>
<text text-anchor="start" x="123.88" y="-164.75" font-family="Helvetica,sans-Serif" font-size="10.00">+</text>
<text text-anchor="start" x="133.88" y="-164.75" font-family="Helvetica,sans-Serif" font-size="10.00">activateAutoBlink()</text>
<text text-anchor="start" x="123.88" y="-149.5" font-family="Helvetica,sans-Serif" font-size="10.00">+</text>
<text text-anchor="start" x="133.88" y="-149.5" font-family="Helvetica,sans-Serif" font-size="10.00">deactivateAutoBlink()</text>
<text text-anchor="start" x="123.88" y="-134.25" font-family="Helvetica,sans-Serif" font-size="10.00">+</text>
<text text-anchor="start" x="133.88" y="-134.25" font-family="Helvetica,sans-Serif" font-size="10.00">getIsAutoBlink()</text>
<text text-anchor="start" x="123.88" y="-119" font-family="Helvetica,sans-Serif" font-size="10.00">+</text>
<text text-anchor="start" x="133.88" y="-119" font-family="Helvetica,sans-Serif" font-size="10.00">updateState()</text>
<text text-anchor="start" x="123.88" y="-103.75" font-family="Helvetica,sans-Serif" font-size="10.00">+</text>
<text text-anchor="start" x="133.88" y="-103.75" font-family="Helvetica,sans-Serif" font-size="10.00">draw()</text>
<polygon fill="#bfbfbf" stroke="#bfbfbf" points="119.88,-328.75 119.88,-328.75 230.88,-328.75 230.88,-328.75 119.88,-328.75"/>
<polygon fill="#bfbfbf" stroke="#bfbfbf" points="119.88,-252.5 119.88,-252.5 131.88,-252.5 131.88,-252.5 119.88,-252.5"/>
<polygon fill="#bfbfbf" stroke="#bfbfbf" points="131.88,-252.5 131.88,-252.5 230.88,-252.5 230.88,-252.5 131.88,-252.5"/>
<polygon fill="none" stroke="#bfbfbf" points="119.88,-98 119.88,-357.25 230.88,-357.25 230.88,-98 119.88,-98"/>
</a>
</g>
</g>
<!-- Node2&#45;&gt;Node1 -->
<g id="edge1_Node000001_Node000002" class="edge">
<title>Node2&#45;&gt;Node1</title>
<g id="a_edge1_Node000001_Node000002"><a xlink:title=" ">
<path fill="none" stroke="#63b8ff" d="M175.38,-86.79C175.38,-77.38 175.38,-68.62 175.38,-60.98"/>
<polygon fill="none" stroke="#63b8ff" points="171.88,-86.59 175.38,-96.59 178.88,-86.59 171.88,-86.59"/>
</a>
</g>
</g>
<!-- Node3 -->
<g id="Node000003" class="node">
<title>Node3</title>
<g id="a_Node000003"><a xlink:href="classstackchan_1_1display_1_1_facial_drawable.html" target="_top" xlink:title=" ">
<polygon fill="white" stroke="none" points="209.12,-681.5 121.62,-681.5 121.62,-590 209.12,-590 209.12,-681.5"/>
<text text-anchor="start" x="125.62" y="-668" font-family="Helvetica,sans-Serif" font-size="10.00">stackchan::display</text>
<text text-anchor="start" x="129.75" y="-656.75" font-family="Helvetica,sans-Serif" font-size="10.00">::FacialDrawable</text>
<text text-anchor="start" x="163.88" y="-641.5" font-family="Helvetica,sans-Serif" font-size="10.00"> </text>
<text text-anchor="start" x="131.38" y="-626.25" font-family="Helvetica,sans-Serif" font-size="10.00">+</text>
<text text-anchor="start" x="147.12" y="-626.25" font-family="Helvetica,sans-Serif" font-size="10.00">draw()</text>
<text text-anchor="start" x="131.38" y="-611" font-family="Helvetica,sans-Serif" font-size="10.00">+</text>
<text text-anchor="start" x="147.12" y="-611" font-family="Helvetica,sans-Serif" font-size="10.00">Drawable()</text>
<text text-anchor="start" x="131.38" y="-595.75" font-family="Helvetica,sans-Serif" font-size="10.00">+</text>
<text text-anchor="start" x="147.12" y="-595.75" font-family="Helvetica,sans-Serif" font-size="10.00">Drawable()</text>
<polygon fill="#bfbfbf" stroke="#bfbfbf" points="121.62,-653 121.62,-653 209.12,-653 209.12,-653 121.62,-653"/>
<polygon fill="#bfbfbf" stroke="#bfbfbf" points="121.62,-637.75 121.62,-637.75 209.12,-637.75 209.12,-637.75 121.62,-637.75"/>
<polygon fill="none" stroke="#bfbfbf" points="121.62,-590 121.62,-681.5 209.12,-681.5 209.12,-590 121.62,-590"/>
</a>
</g>
</g>
<!-- Node3&#45;&gt;Node2 -->
<g id="edge2_Node000002_Node000003" class="edge">
<title>Node3&#45;&gt;Node2</title>
<g id="a_edge2_Node000002_Node000003"><a xlink:title=" ">
<path fill="none" stroke="#63b8ff" d="M215.6,-583.93C222.47,-574.33 228.49,-563.87 232.38,-553 254.75,-490.41 245.05,-417.77 227.79,-357.12"/>
<polygon fill="none" stroke="#63b8ff" points="212.99,-581.58 209.71,-591.65 218.56,-585.83 212.99,-581.58"/>
</a>
</g>
</g>
<!-- Node7 -->
<g id="Node000007" class="node">
<title>Node7</title>
<g id="a_Node000007"><a xlink:href="classstackchan_1_1display_1_1_base_eye.html" target="_top" xlink:title="Base class for Eye, draw nothing.">
<polygon fill="white" stroke="none" points="108.75,-553 0,-553 0,-415.75 108.75,-415.75 108.75,-553"/>
<text text-anchor="start" x="14.62" y="-539.5" font-family="Helvetica,sans-Serif" font-size="10.00">stackchan::display</text>
<text text-anchor="start" x="33" y="-528.25" font-family="Helvetica,sans-Serif" font-size="10.00">::BaseEye</text>
<text text-anchor="start" x="4.38" y="-513" font-family="Helvetica,sans-Serif" font-size="10.00">#</text>
<text text-anchor="start" x="14" y="-513" font-family="Helvetica,sans-Serif" font-size="10.00">is_left_</text>
<text text-anchor="start" x="4.38" y="-497.75" font-family="Helvetica,sans-Serif" font-size="10.00">#</text>
<text text-anchor="start" x="14" y="-497.75" font-family="Helvetica,sans-Serif" font-size="10.00">milli_sec_</text>
<text text-anchor="start" x="4.38" y="-482.5" font-family="Helvetica,sans-Serif" font-size="10.00">#</text>
<text text-anchor="start" x="14" y="-482.5" font-family="Helvetica,sans-Serif" font-size="10.00">last_saccade_millis_</text>
<text text-anchor="start" x="4.38" y="-467.25" font-family="Helvetica,sans-Serif" font-size="10.00">#</text>
<text text-anchor="start" x="14" y="-467.25" font-family="Helvetica,sans-Serif" font-size="10.00">saccade_interval_</text>
<text text-anchor="start" x="4" y="-452" font-family="Helvetica,sans-Serif" font-size="10.00">+</text>
<text text-anchor="start" x="14" y="-452" font-family="Helvetica,sans-Serif" font-size="10.00">BaseEye()</text>
<text text-anchor="start" x="4.38" y="-436.75" font-family="Helvetica,sans-Serif" font-size="10.00">#</text>
<text text-anchor="start" x="14" y="-436.75" font-family="Helvetica,sans-Serif" font-size="10.00">updateGaze()</text>
<text text-anchor="start" x="4.38" y="-421.5" font-family="Helvetica,sans-Serif" font-size="10.00">#</text>
<text text-anchor="start" x="14" y="-421.5" font-family="Helvetica,sans-Serif" font-size="10.00">updateSaccade()</text>
<polygon fill="#666666" stroke="#666666" points="0,-524.5 0,-524.5 108.75,-524.5 108.75,-524.5 0,-524.5"/>
<polygon fill="#666666" stroke="#666666" points="0,-463.5 0,-463.5 12,-463.5 12,-463.5 0,-463.5"/>
<polygon fill="#666666" stroke="#666666" points="12,-463.5 12,-463.5 108.75,-463.5 108.75,-463.5 12,-463.5"/>
<polygon fill="none" stroke="#666666" points="0,-415.75 0,-553 108.75,-553 108.75,-415.75 0,-415.75"/>
</a>
</g>
</g>
<!-- Node3&#45;&gt;Node7 -->
<g id="edge7_Node000007_Node000003" class="edge">
<title>Node3&#45;&gt;Node7</title>
<g id="a_edge7_Node000007_Node000003"><a xlink:title=" ">
<path fill="none" stroke="#63b8ff" d="M125.65,-581.3C118.8,-572.08 111.6,-562.39 104.52,-552.85"/>
<polygon fill="none" stroke="#63b8ff" points="122.7,-583.18 131.47,-589.12 128.31,-579.01 122.7,-583.18"/>
</a>
</g>
</g>
<!-- Node8 -->
<g id="Node000008" class="node">
<title>Node8</title>
<g id="a_Node000008"><a xlink:href="classstackchan_1_1display_1_1_base_mouth.html" target="_top" xlink:title=" ">
<polygon fill="white" stroke="none" points="223.75,-514.88 127,-514.88 127,-453.88 223.75,-453.88 223.75,-514.88"/>
<text text-anchor="start" x="135.62" y="-501.38" font-family="Helvetica,sans-Serif" font-size="10.00">stackchan::display</text>
<text text-anchor="start" x="148.38" y="-490.12" font-family="Helvetica,sans-Serif" font-size="10.00">::BaseMouth</text>
<text text-anchor="start" x="131" y="-474.88" font-family="Helvetica,sans-Serif" font-size="10.00">#</text>
<text text-anchor="start" x="140.25" y="-474.88" font-family="Helvetica,sans-Serif" font-size="10.00">breath_amplitude_</text>
<text text-anchor="start" x="173.88" y="-459.62" font-family="Helvetica,sans-Serif" font-size="10.00"> </text>
<polygon fill="#bfbfbf" stroke="#bfbfbf" points="127,-486.38 127,-486.38 223.75,-486.38 223.75,-486.38 127,-486.38"/>
<polygon fill="#bfbfbf" stroke="#bfbfbf" points="127,-471.12 127,-471.12 138.25,-471.12 138.25,-471.12 127,-471.12"/>
<polygon fill="#bfbfbf" stroke="#bfbfbf" points="138.25,-471.12 138.25,-471.12 223.75,-471.12 223.75,-471.12 138.25,-471.12"/>
<polygon fill="none" stroke="#bfbfbf" points="127,-453.88 127,-514.88 223.75,-514.88 223.75,-453.88 127,-453.88"/>
</a>
</g>
</g>
<!-- Node3&#45;&gt;Node8 -->
<g id="edge10_Node000008_Node000003" class="edge">
<title>Node3&#45;&gt;Node8</title>
<g id="a_edge10_Node000008_Node000003"><a xlink:title=" ">
<path fill="none" stroke="#63b8ff" d="M169.12,-578.86C170.58,-557.07 172.19,-533.01 173.41,-514.75"/>
<polygon fill="none" stroke="#63b8ff" points="165.63,-578.62 168.45,-588.83 172.61,-579.08 165.63,-578.62"/>
</a>
</g>
</g>
<!-- Node4 -->
<g id="Node000004" class="node">
<title>Node4</title>
<g id="a_Node000004"><a xlink:href="classstackchan_1_1display_1_1_drawable.html" target="_top" xlink:title=" ">
<polygon fill="white" stroke="none" points="215,-1006.5 113.75,-1006.5 113.75,-762.5 215,-762.5 215,-1006.5"/>
<text text-anchor="start" x="124.62" y="-993" font-family="Helvetica,sans-Serif" font-size="10.00">stackchan::display</text>
<text text-anchor="start" x="141.88" y="-981.75" font-family="Helvetica,sans-Serif" font-size="10.00">::Drawable</text>
<text text-anchor="start" x="118.12" y="-966.5" font-family="Helvetica,sans-Serif" font-size="10.00">#</text>
<text text-anchor="start" x="127.75" y="-966.5" font-family="Helvetica,sans-Serif" font-size="10.00">rotation_</text>
<text text-anchor="start" x="118.12" y="-951.25" font-family="Helvetica,sans-Serif" font-size="10.00">#</text>
<text text-anchor="start" x="127.75" y="-951.25" font-family="Helvetica,sans-Serif" font-size="10.00">visible_</text>
<text text-anchor="start" x="118.12" y="-936" font-family="Helvetica,sans-Serif" font-size="10.00">#</text>
<text text-anchor="start" x="127.75" y="-936" font-family="Helvetica,sans-Serif" font-size="10.00">ignore_expression_</text>
<text text-anchor="start" x="117.75" y="-920.75" font-family="Helvetica,sans-Serif" font-size="10.00">+</text>
<text text-anchor="start" x="127.75" y="-920.75" font-family="Helvetica,sans-Serif" font-size="10.00">Drawable()</text>
<text text-anchor="start" x="117.75" y="-905.5" font-family="Helvetica,sans-Serif" font-size="10.00">+</text>
<text text-anchor="start" x="127.75" y="-905.5" font-family="Helvetica,sans-Serif" font-size="10.00">Drawable()</text>
<text text-anchor="start" x="117.75" y="-890.25" font-family="Helvetica,sans-Serif" font-size="10.00">+</text>
<text text-anchor="start" x="127.75" y="-890.25" font-family="Helvetica,sans-Serif" font-size="10.00">~Drawable()</text>
<text text-anchor="start" x="117.75" y="-875" font-family="Helvetica,sans-Serif" font-size="10.00">+</text>
<text text-anchor="start" x="127.75" y="-875" font-family="Helvetica,sans-Serif" font-size="10.00">setPosition()</text>
<text text-anchor="start" x="117.75" y="-859.75" font-family="Helvetica,sans-Serif" font-size="10.00">+</text>
<text text-anchor="start" x="127.75" y="-859.75" font-family="Helvetica,sans-Serif" font-size="10.00">getPosition()</text>
<text text-anchor="start" x="117.75" y="-844.5" font-family="Helvetica,sans-Serif" font-size="10.00">+</text>
<text text-anchor="start" x="127.75" y="-844.5" font-family="Helvetica,sans-Serif" font-size="10.00">setRotation()</text>
<text text-anchor="start" x="117.75" y="-829.25" font-family="Helvetica,sans-Serif" font-size="10.00">+</text>
<text text-anchor="start" x="127.75" y="-829.25" font-family="Helvetica,sans-Serif" font-size="10.00">getRotation()</text>
<text text-anchor="start" x="117.75" y="-814" font-family="Helvetica,sans-Serif" font-size="10.00">+</text>
<text text-anchor="start" x="127.75" y="-814" font-family="Helvetica,sans-Serif" font-size="10.00">setSize()</text>
<text text-anchor="start" x="117.75" y="-798.75" font-family="Helvetica,sans-Serif" font-size="10.00">+</text>
<text text-anchor="start" x="127.75" y="-798.75" font-family="Helvetica,sans-Serif" font-size="10.00">getSize()</text>
<text text-anchor="start" x="117.75" y="-783.5" font-family="Helvetica,sans-Serif" font-size="10.00">+</text>
<text text-anchor="start" x="127.75" y="-783.5" font-family="Helvetica,sans-Serif" font-size="10.00">setVisible()</text>
<text text-anchor="start" x="127.75" y="-768.25" font-family="Helvetica,sans-Serif" font-size="10.00">and 7 more...</text>
<polygon fill="#bfbfbf" stroke="#bfbfbf" points="113.75,-978 113.75,-978 215,-978 215,-978 113.75,-978"/>
<polygon fill="#bfbfbf" stroke="#bfbfbf" points="113.75,-932.25 113.75,-932.25 125.75,-932.25 125.75,-932.25 113.75,-932.25"/>
<polygon fill="#bfbfbf" stroke="#bfbfbf" points="125.75,-932.25 125.75,-932.25 215,-932.25 215,-932.25 125.75,-932.25"/>
<polygon fill="none" stroke="#bfbfbf" points="113.75,-762.5 113.75,-1006.5 215,-1006.5 215,-762.5 113.75,-762.5"/>
</a>
</g>
</g>
<!-- Node4&#45;&gt;Node3 -->
<g id="edge3_Node000003_Node000004" class="edge">
<title>Node4&#45;&gt;Node3</title>
<g id="a_edge3_Node000003_Node000004"><a xlink:title=" ">
<path fill="none" stroke="#63b8ff" d="M164.91,-751.42C165.01,-726.16 165.11,-701.38 165.19,-681.36"/>
<polygon fill="none" stroke="#63b8ff" points="161.41,-751.13 164.87,-761.14 168.41,-751.16 161.41,-751.13"/>
</a>
</g>
</g>
<!-- Node5 -->
<g id="Node000005" class="node">
<title>Node5</title>
<g id="a_Node000005"><a xlink:href="classm5_1_1_vector2i.html" target="_top" xlink:title=" ">
<polygon fill="white" stroke="none" points="105,-1317 33.75,-1317 33.75,-1053.75 105,-1053.75 105,-1317"/>
<text text-anchor="start" x="42.38" y="-1303.5" font-family="Helvetica,sans-Serif" font-size="10.00">m5::Vector2i</text>
<text text-anchor="start" x="37.75" y="-1288.25" font-family="Helvetica,sans-Serif" font-size="10.00">+</text>
<text text-anchor="start" x="47.75" y="-1288.25" font-family="Helvetica,sans-Serif" font-size="10.00">x</text>
<text text-anchor="start" x="37.75" y="-1273" font-family="Helvetica,sans-Serif" font-size="10.00">+</text>
<text text-anchor="start" x="47.75" y="-1273" font-family="Helvetica,sans-Serif" font-size="10.00">y</text>
<text text-anchor="start" x="37.75" y="-1257.75" font-family="Helvetica,sans-Serif" font-size="10.00">+</text>
<text text-anchor="start" x="47.75" y="-1257.75" font-family="Helvetica,sans-Serif" font-size="10.00">Vector2i()</text>
<text text-anchor="start" x="37.75" y="-1242.5" font-family="Helvetica,sans-Serif" font-size="10.00">+</text>
<text text-anchor="start" x="47.75" y="-1242.5" font-family="Helvetica,sans-Serif" font-size="10.00">Vector2i()</text>
<text text-anchor="start" x="37.75" y="-1227.25" font-family="Helvetica,sans-Serif" font-size="10.00">+</text>
<text text-anchor="start" x="47.75" y="-1227.25" font-family="Helvetica,sans-Serif" font-size="10.00">operator+()</text>
<text text-anchor="start" x="37.75" y="-1212" font-family="Helvetica,sans-Serif" font-size="10.00">+</text>
<text text-anchor="start" x="47.75" y="-1212" font-family="Helvetica,sans-Serif" font-size="10.00">operator&#45;()</text>
<text text-anchor="start" x="37.75" y="-1196.75" font-family="Helvetica,sans-Serif" font-size="10.00">+</text>
<text text-anchor="start" x="47.75" y="-1196.75" font-family="Helvetica,sans-Serif" font-size="10.00">operator*()</text>
<text text-anchor="start" x="37.75" y="-1181.5" font-family="Helvetica,sans-Serif" font-size="10.00">+</text>
<text text-anchor="start" x="47.75" y="-1181.5" font-family="Helvetica,sans-Serif" font-size="10.00">operator/()</text>
<text text-anchor="start" x="37.75" y="-1166.25" font-family="Helvetica,sans-Serif" font-size="10.00">+</text>
<text text-anchor="start" x="47.75" y="-1166.25" font-family="Helvetica,sans-Serif" font-size="10.00">operator+=()</text>
<text text-anchor="start" x="37.75" y="-1151" font-family="Helvetica,sans-Serif" font-size="10.00">+</text>
<text text-anchor="start" x="47.75" y="-1151" font-family="Helvetica,sans-Serif" font-size="10.00">operator&#45;=()</text>
<text text-anchor="start" x="37.75" y="-1135.75" font-family="Helvetica,sans-Serif" font-size="10.00">+</text>
<text text-anchor="start" x="47.75" y="-1135.75" font-family="Helvetica,sans-Serif" font-size="10.00">operator*=()</text>
<text text-anchor="start" x="37.75" y="-1120.5" font-family="Helvetica,sans-Serif" font-size="10.00">+</text>
<text text-anchor="start" x="47.75" y="-1120.5" font-family="Helvetica,sans-Serif" font-size="10.00">operator/=()</text>
<text text-anchor="start" x="37.75" y="-1105.25" font-family="Helvetica,sans-Serif" font-size="10.00">+</text>
<text text-anchor="start" x="47.75" y="-1105.25" font-family="Helvetica,sans-Serif" font-size="10.00">operator==()</text>
<text text-anchor="start" x="37.75" y="-1090" font-family="Helvetica,sans-Serif" font-size="10.00">+</text>
<text text-anchor="start" x="47.75" y="-1090" font-family="Helvetica,sans-Serif" font-size="10.00">operator!=()</text>
<text text-anchor="start" x="37.75" y="-1074.75" font-family="Helvetica,sans-Serif" font-size="10.00">+</text>
<text text-anchor="start" x="47.75" y="-1074.75" font-family="Helvetica,sans-Serif" font-size="10.00">dot()</text>
<text text-anchor="start" x="37.75" y="-1059.5" font-family="Helvetica,sans-Serif" font-size="10.00">+</text>
<text text-anchor="start" x="47.75" y="-1059.5" font-family="Helvetica,sans-Serif" font-size="10.00">clamp()</text>
<polygon fill="#bfbfbf" stroke="#bfbfbf" points="33.75,-1299.75 33.75,-1299.75 105,-1299.75 105,-1299.75 33.75,-1299.75"/>
<polygon fill="#bfbfbf" stroke="#bfbfbf" points="33.75,-1269.25 33.75,-1269.25 45.75,-1269.25 45.75,-1269.25 33.75,-1269.25"/>
<polygon fill="#bfbfbf" stroke="#bfbfbf" points="45.75,-1269.25 45.75,-1269.25 105,-1269.25 105,-1269.25 45.75,-1269.25"/>
<polygon fill="none" stroke="#bfbfbf" points="33.75,-1053.75 33.75,-1317 105,-1317 105,-1053.75 33.75,-1053.75"/>
</a>
</g>
</g>
<!-- Node5&#45;&gt;Node4 -->
<g id="edge4_Node000004_Node000005" class="edge">
<title>Node5&#45;&gt;Node4</title>
<g id="a_edge4_Node000004_Node000005"><a xlink:title=" ">
<path fill="none" stroke="#63b8ff" d="M104.73,-1054.12C107.73,-1044.07 110.8,-1034.1 113.88,-1024.5 114.5,-1022.53 115.14,-1020.56 115.79,-1018.56"/>
<polygon fill="none" stroke="#63b8ff" points="115.82,-1018.47 113.91,-1011.52 119.6,-1007.08 121.51,-1014.04 115.82,-1018.47"/>
</a>
</g>
<text text-anchor="middle" x="137.12" y="-1026.25" font-family="Helvetica,sans-Serif" font-size="10.00" fill="grey"> #position_</text>
</g>
<!-- Node5&#45;&gt;Node7 -->
<g id="edge8_Node000007_Node000005" class="edge">
<title>Node5&#45;&gt;Node7</title>
<g id="a_edge8_Node000007_Node000005"><a xlink:title=" ">
<path fill="none" stroke="#63b8ff" d="M66.58,-1054.13C63.5,-910.79 58.66,-684.92 56.09,-565.52"/>
<polygon fill="none" stroke="#63b8ff" points="56.09,-565.45 51.97,-559.53 55.84,-553.45 59.96,-559.36 56.09,-565.45"/>
</a>
</g>
<text text-anchor="middle" x="97.78" y="-735" font-family="Helvetica,sans-Serif" font-size="10.00" fill="grey"> #gaze_</text>
<text text-anchor="start" x="59.91" y="-723.75" font-family="Helvetica,sans-Serif" font-size="10.00" fill="grey">#iris_position</text>
<text text-anchor="middle" x="97.78" y="-712.5" font-family="Helvetica,sans-Serif" font-size="10.00" fill="grey">_</text>
<text text-anchor="middle" x="97.78" y="-701.25" font-family="Helvetica,sans-Serif" font-size="10.00" fill="grey">#saccade_noise_</text>
</g>
<!-- Node6 -->
<g id="Node000006" class="node">
<title>Node6</title>
<g id="a_Node000006"><a xlink:href="classm5_1_1_size2i.html" target="_top" xlink:title=" ">
<polygon fill="white" stroke="none" points="198.88,-1256 129.88,-1256 129.88,-1114.75 198.88,-1114.75 198.88,-1256"/>
<text text-anchor="start" x="142.25" y="-1242.5" font-family="Helvetica,sans-Serif" font-size="10.00">m5::Size2i</text>
<text text-anchor="start" x="133.88" y="-1227.25" font-family="Helvetica,sans-Serif" font-size="10.00">+</text>
<text text-anchor="start" x="143.88" y="-1227.25" font-family="Helvetica,sans-Serif" font-size="10.00">width</text>
<text text-anchor="start" x="133.88" y="-1212" font-family="Helvetica,sans-Serif" font-size="10.00">+</text>
<text text-anchor="start" x="143.88" y="-1212" font-family="Helvetica,sans-Serif" font-size="10.00">height</text>
<text text-anchor="start" x="133.88" y="-1196.75" font-family="Helvetica,sans-Serif" font-size="10.00">+</text>
<text text-anchor="start" x="143.88" y="-1196.75" font-family="Helvetica,sans-Serif" font-size="10.00">Size2i()</text>
<text text-anchor="start" x="133.88" y="-1181.5" font-family="Helvetica,sans-Serif" font-size="10.00">+</text>
<text text-anchor="start" x="143.88" y="-1181.5" font-family="Helvetica,sans-Serif" font-size="10.00">Size2i()</text>
<text text-anchor="start" x="133.88" y="-1166.25" font-family="Helvetica,sans-Serif" font-size="10.00">+</text>
<text text-anchor="start" x="143.88" y="-1166.25" font-family="Helvetica,sans-Serif" font-size="10.00">operator*=()</text>
<text text-anchor="start" x="133.88" y="-1151" font-family="Helvetica,sans-Serif" font-size="10.00">+</text>
<text text-anchor="start" x="143.88" y="-1151" font-family="Helvetica,sans-Serif" font-size="10.00">area()</text>
<text text-anchor="start" x="133.88" y="-1135.75" font-family="Helvetica,sans-Serif" font-size="10.00">+</text>
<text text-anchor="start" x="143.88" y="-1135.75" font-family="Helvetica,sans-Serif" font-size="10.00">max()</text>
<text text-anchor="start" x="133.88" y="-1120.5" font-family="Helvetica,sans-Serif" font-size="10.00">+</text>
<text text-anchor="start" x="143.88" y="-1120.5" font-family="Helvetica,sans-Serif" font-size="10.00">min()</text>
<polygon fill="#bfbfbf" stroke="#bfbfbf" points="129.88,-1238.75 129.88,-1238.75 198.88,-1238.75 198.88,-1238.75 129.88,-1238.75"/>
<polygon fill="#bfbfbf" stroke="#bfbfbf" points="129.88,-1208.25 129.88,-1208.25 141.88,-1208.25 141.88,-1208.25 129.88,-1208.25"/>
<polygon fill="#bfbfbf" stroke="#bfbfbf" points="141.88,-1208.25 141.88,-1208.25 198.88,-1208.25 198.88,-1208.25 141.88,-1208.25"/>
<polygon fill="none" stroke="#bfbfbf" points="129.88,-1114.75 129.88,-1256 198.88,-1256 198.88,-1114.75 129.88,-1114.75"/>
</a>
</g>
</g>
<!-- Node6&#45;&gt;Node4 -->
<g id="edge5_Node000004_Node000006" class="edge">
<title>Node6&#45;&gt;Node4</title>
<g id="a_edge5_Node000004_Node000006"><a xlink:title=" ">
<path fill="none" stroke="#63b8ff" d="M164.38,-1115.06C164.38,-1086.39 164.38,-1052.13 164.38,-1018.94"/>
<polygon fill="none" stroke="#63b8ff" points="164.38,-1019.18 160.38,-1013.18 164.38,-1007.18 168.38,-1013.18 164.38,-1019.18"/>
</a>
</g>
<text text-anchor="middle" x="179.38" y="-1026.25" font-family="Helvetica,sans-Serif" font-size="10.00" fill="grey"> #size_</text>
</g>
<!-- Node7&#45;&gt;Node2 -->
<g id="edge6_Node000002_Node000007" class="edge">
<title>Node7&#45;&gt;Node2</title>
<g id="a_edge6_Node000002_Node000007"><a xlink:title=" ">
<path fill="none" stroke="#63b8ff" d="M86.48,-415.78C95.13,-397.58 104.77,-377.27 114.43,-356.94"/>
<polygon fill="none" stroke="#63b8ff" points="114.41,-356.97 113.38,-349.83 119.56,-346.13 120.6,-353.27 114.41,-356.97"/>
</a>
</g>
<text text-anchor="middle" x="128.79" y="-388.25" font-family="Helvetica,sans-Serif" font-size="10.00" fill="grey"> #left_eye_</text>
<text text-anchor="middle" x="128.79" y="-377" font-family="Helvetica,sans-Serif" font-size="10.00" fill="grey">#right_eye_</text>
</g>
<!-- Node8&#45;&gt;Node2 -->
<g id="edge9_Node000002_Node000008" class="edge">
<title>Node8&#45;&gt;Node2</title>
<g id="a_edge9_Node000002_Node000008"><a xlink:title=" ">
<path fill="none" stroke="#63b8ff" d="M175.38,-453.9C175.38,-432.45 175.38,-401.68 175.38,-369.74"/>
<polygon fill="none" stroke="#63b8ff" points="175.38,-369.88 171.38,-363.88 175.38,-357.88 179.38,-363.88 175.38,-369.88"/>
</a>
</g>
<text text-anchor="middle" x="195.25" y="-382.62" font-family="Helvetica,sans-Serif" font-size="10.00" fill="grey"> #mouth_</text>
</g>
</g>
</svg>
