<?xml version="1.0" encoding="UTF-8" standalone="no"?>
<!DOCTYPE svg PUBLIC "-//W3C//DTD SVG 1.1//EN"
 "http://www.w3.org/Graphics/SVG/1.1/DTD/svg11.dtd">
<!-- Generated by graphviz version 12.2.0 (20241103.1931)
 -->
<!-- Title: stackchan::display::Face Pages: 1 -->
<svg width="254pt" height="1242pt"
 viewBox="0.00 0.00 254.24 1242.25" xmlns="http://www.w3.org/2000/svg" xmlns:xlink="http://www.w3.org/1999/xlink">
<g id="graph0" class="graph" transform="scale(1 1) rotate(0) translate(4 1238.25)">
<title>stackchan::display::Face</title>
<!-- Node1 -->
<g id="Node000001" class="node">
<title>Node1</title>
<g id="a_Node000001"><a xlink:title=" ">
<polygon fill="#999999" stroke="none" points="230.88,-274.5 119.88,-274.5 119.88,0 230.88,0 230.88,-274.5"/>
<text text-anchor="start" x="135.62" y="-261" font-family="Helvetica,sans-Serif" font-size="10.00">stackchan::display</text>
<text text-anchor="start" x="162.25" y="-249.75" font-family="Helvetica,sans-Serif" font-size="10.00">::Face</text>
<text text-anchor="start" x="124.25" y="-234.5" font-family="Helvetica,sans-Serif" font-size="10.00">#</text>
<text text-anchor="start" x="133.88" y="-234.5" font-family="Helvetica,sans-Serif" font-size="10.00">is_auto_blink_</text>
<text text-anchor="start" x="124.25" y="-219.25" font-family="Helvetica,sans-Serif" font-size="10.00">#</text>
<text text-anchor="start" x="133.88" y="-219.25" font-family="Helvetica,sans-Serif" font-size="10.00">auto_blink_interval_</text>
<text text-anchor="start" x="124.25" y="-204" font-family="Helvetica,sans-Serif" font-size="10.00">#</text>
<text text-anchor="start" x="133.88" y="-204" font-family="Helvetica,sans-Serif" font-size="10.00">last_blink_time_</text>
<text text-anchor="start" x="124.25" y="-188.75" font-family="Helvetica,sans-Serif" font-size="10.00">#</text>
<text text-anchor="start" x="133.88" y="-188.75" font-family="Helvetica,sans-Serif" font-size="10.00">blink_duration_</text>
<text text-anchor="start" x="124.25" y="-173.5" font-family="Helvetica,sans-Serif" font-size="10.00">#</text>
<text text-anchor="start" x="133.88" y="-173.5" font-family="Helvetica,sans-Serif" font-size="10.00">breath_frequency_</text>
<text text-anchor="start" x="123.88" y="-158.25" font-family="Helvetica,sans-Serif" font-size="10.00">+</text>
<text text-anchor="start" x="133.88" y="-158.25" font-family="Helvetica,sans-Serif" font-size="10.00">Face()</text>
<text text-anchor="start" x="123.88" y="-143" font-family="Helvetica,sans-Serif" font-size="10.00">+</text>
<text text-anchor="start" x="133.88" y="-143" font-family="Helvetica,sans-Serif" font-size="10.00">Face()</text>
<text text-anchor="start" x="123.88" y="-127.75" font-family="Helvetica,sans-Serif" font-size="10.00">+</text>
<text text-anchor="start" x="133.88" y="-127.75" font-family="Helvetica,sans-Serif" font-size="10.00">getLeftEye()</text>
<text text-anchor="start" x="123.88" y="-112.5" font-family="Helvetica,sans-Serif" font-size="10.00">+</text>
<text text-anchor="start" x="133.88" y="-112.5" font-family="Helvetica,sans-Serif" font-size="10.00">getRightEye()</text>
<text text-anchor="start" x="123.88" y="-97.25" font-family="Helvetica,sans-Serif" font-size="10.00">+</text>
<text text-anchor="start" x="133.88" y="-97.25" font-family="Helvetica,sans-Serif" font-size="10.00">getMouth()</text>
<text text-anchor="start" x="123.88" y="-82" font-family="Helvetica,sans-Serif" font-size="10.00">+</text>
<text text-anchor="start" x="133.88" y="-82" font-family="Helvetica,sans-Serif" font-size="10.00">activateAutoBlink()</text>
<text text-anchor="start" x="123.88" y="-66.75" font-family="Helvetica,sans-Serif" font-size="10.00">+</text>
<text text-anchor="start" x="133.88" y="-66.75" font-family="Helvetica,sans-Serif" font-size="10.00">deactivateAutoBlink()</text>
<text text-anchor="start" x="123.88" y="-51.5" font-family="Helvetica,sans-Serif" font-size="10.00">+</text>
<text text-anchor="start" x="133.88" y="-51.5" font-family="Helvetica,sans-Serif" font-size="10.00">getIsAutoBlink()</text>
<text text-anchor="start" x="123.88" y="-36.25" font-family="Helvetica,sans-Serif" font-size="10.00">+</text>
<text text-anchor="start" x="133.88" y="-36.25" font-family="Helvetica,sans-Serif" font-size="10.00">autoScale()</text>
<text text-anchor="start" x="123.88" y="-21" font-family="Helvetica,sans-Serif" font-size="10.00">+</text>
<text text-anchor="start" x="133.88" y="-21" font-family="Helvetica,sans-Serif" font-size="10.00">updateState()</text>
<text text-anchor="start" x="123.88" y="-5.75" font-family="Helvetica,sans-Serif" font-size="10.00">+</text>
<text text-anchor="start" x="133.88" y="-5.75" font-family="Helvetica,sans-Serif" font-size="10.00">draw()</text>
<polygon fill="#666666" stroke="#666666" points="119.88,-246 119.88,-246 230.88,-246 230.88,-246 119.88,-246"/>
<polygon fill="#666666" stroke="#666666" points="119.88,-169.75 119.88,-169.75 131.88,-169.75 131.88,-169.75 119.88,-169.75"/>
<polygon fill="#666666" stroke="#666666" points="131.88,-169.75 131.88,-169.75 230.88,-169.75 230.88,-169.75 131.88,-169.75"/>
<polygon fill="none" stroke="#666666" points="119.88,0 119.88,-274.5 230.88,-274.5 230.88,0 119.88,0"/>
</a>
</g>
</g>
<!-- Node2 -->
<g id="Node000002" class="node">
<title>Node2</title>
<g id="a_Node000002"><a xlink:href="classstackchan_1_1display_1_1_facial_drawable.html" target="_top" xlink:title=" ">
<polygon fill="white" stroke="none" points="209.12,-598.75 121.62,-598.75 121.62,-507.25 209.12,-507.25 209.12,-598.75"/>
<text text-anchor="start" x="125.62" y="-585.25" font-family="Helvetica,sans-Serif" font-size="10.00">stackchan::display</text>
<text text-anchor="start" x="129.75" y="-574" font-family="Helvetica,sans-Serif" font-size="10.00">::FacialDrawable</text>
<text text-anchor="start" x="163.88" y="-558.75" font-family="Helvetica,sans-Serif" font-size="10.00"> </text>
<text text-anchor="start" x="131.38" y="-543.5" font-family="Helvetica,sans-Serif" font-size="10.00">+</text>
<text text-anchor="start" x="147.12" y="-543.5" font-family="Helvetica,sans-Serif" font-size="10.00">draw()</text>
<text text-anchor="start" x="131.38" y="-528.25" font-family="Helvetica,sans-Serif" font-size="10.00">+</text>
<text text-anchor="start" x="147.12" y="-528.25" font-family="Helvetica,sans-Serif" font-size="10.00">Drawable()</text>
<text text-anchor="start" x="131.38" y="-513" font-family="Helvetica,sans-Serif" font-size="10.00">+</text>
<text text-anchor="start" x="147.12" y="-513" font-family="Helvetica,sans-Serif" font-size="10.00">Drawable()</text>
<polygon fill="#bfbfbf" stroke="#bfbfbf" points="121.62,-570.25 121.62,-570.25 209.12,-570.25 209.12,-570.25 121.62,-570.25"/>
<polygon fill="#bfbfbf" stroke="#bfbfbf" points="121.62,-555 121.62,-555 209.12,-555 209.12,-555 121.62,-555"/>
<polygon fill="none" stroke="#bfbfbf" points="121.62,-507.25 121.62,-598.75 209.12,-598.75 209.12,-507.25 121.62,-507.25"/>
</a>
</g>
</g>
<!-- Node2&#45;&gt;Node1 -->
<g id="edge1_Node000001_Node000002" class="edge">
<title>Node2&#45;&gt;Node1</title>
<g id="a_edge1_Node000001_Node000002"><a xlink:title=" ">
<path fill="none" stroke="#63b8ff" d="M215.6,-501.18C222.47,-491.58 228.49,-481.12 232.38,-470.25 254.72,-407.75 246.04,-335.4 229.46,-274.24"/>
<polygon fill="none" stroke="#63b8ff" points="212.99,-498.83 209.71,-508.9 218.56,-503.08 212.99,-498.83"/>
</a>
</g>
</g>
<!-- Node6 -->
<g id="Node000006" class="node">
<title>Node6</title>
<g id="a_Node000006"><a xlink:href="classstackchan_1_1display_1_1_base_eye.html" target="_top" xlink:title="Base class for Eye, draw nothing.">
<polygon fill="white" stroke="none" points="108.75,-470.25 0,-470.25 0,-333 108.75,-333 108.75,-470.25"/>
<text text-anchor="start" x="14.62" y="-456.75" font-family="Helvetica,sans-Serif" font-size="10.00">stackchan::display</text>
<text text-anchor="start" x="33" y="-445.5" font-family="Helvetica,sans-Serif" font-size="10.00">::BaseEye</text>
<text text-anchor="start" x="4.38" y="-430.25" font-family="Helvetica,sans-Serif" font-size="10.00">#</text>
<text text-anchor="start" x="14" y="-430.25" font-family="Helvetica,sans-Serif" font-size="10.00">is_left_</text>
<text text-anchor="start" x="4.38" y="-415" font-family="Helvetica,sans-Serif" font-size="10.00">#</text>
<text text-anchor="start" x="14" y="-415" font-family="Helvetica,sans-Serif" font-size="10.00">milli_sec_</text>
<text text-anchor="start" x="4.38" y="-399.75" font-family="Helvetica,sans-Serif" font-size="10.00">#</text>
<text text-anchor="start" x="14" y="-399.75" font-family="Helvetica,sans-Serif" font-size="10.00">last_saccade_millis_</text>
<text text-anchor="start" x="4.38" y="-384.5" font-family="Helvetica,sans-Serif" font-size="10.00">#</text>
<text text-anchor="start" x="14" y="-384.5" font-family="Helvetica,sans-Serif" font-size="10.00">saccade_interval_</text>
<text text-anchor="start" x="4" y="-369.25" font-family="Helvetica,sans-Serif" font-size="10.00">+</text>
<text text-anchor="start" x="14" y="-369.25" font-family="Helvetica,sans-Serif" font-size="10.00">BaseEye()</text>
<text text-anchor="start" x="4.38" y="-354" font-family="Helvetica,sans-Serif" font-size="10.00">#</text>
<text text-anchor="start" x="14" y="-354" font-family="Helvetica,sans-Serif" font-size="10.00">updateGaze()</text>
<text text-anchor="start" x="4.38" y="-338.75" font-family="Helvetica,sans-Serif" font-size="10.00">#</text>
<text text-anchor="start" x="14" y="-338.75" font-family="Helvetica,sans-Serif" font-size="10.00">updateSaccade()</text>
<polygon fill="#666666" stroke="#666666" points="0,-441.75 0,-441.75 108.75,-441.75 108.75,-441.75 0,-441.75"/>
<polygon fill="#666666" stroke="#666666" points="0,-380.75 0,-380.75 12,-380.75 12,-380.75 0,-380.75"/>
<polygon fill="#666666" stroke="#666666" points="12,-380.75 12,-380.75 108.75,-380.75 108.75,-380.75 12,-380.75"/>
<polygon fill="none" stroke="#666666" points="0,-333 0,-470.25 108.75,-470.25 108.75,-333 0,-333"/>
</a>
</g>
</g>
<!-- Node2&#45;&gt;Node6 -->
<g id="edge6_Node000006_Node000002" class="edge">
<title>Node2&#45;&gt;Node6</title>
<g id="a_edge6_Node000006_Node000002"><a xlink:title=" ">
<path fill="none" stroke="#63b8ff" d="M125.65,-498.55C118.8,-489.33 111.6,-479.64 104.52,-470.1"/>
<polygon fill="none" stroke="#63b8ff" points="122.7,-500.43 131.47,-506.37 128.31,-496.26 122.7,-500.43"/>
</a>
</g>
</g>
<!-- Node7 -->
<g id="Node000007" class="node">
<title>Node7</title>
<g id="a_Node000007"><a xlink:href="classstackchan_1_1display_1_1_base_mouth.html" target="_top" xlink:title=" ">
<polygon fill="white" stroke="none" points="223.75,-432.12 127,-432.12 127,-371.12 223.75,-371.12 223.75,-432.12"/>
<text text-anchor="start" x="135.62" y="-418.62" font-family="Helvetica,sans-Serif" font-size="10.00">stackchan::display</text>
<text text-anchor="start" x="148.38" y="-407.38" font-family="Helvetica,sans-Serif" font-size="10.00">::BaseMouth</text>
<text text-anchor="start" x="131" y="-392.12" font-family="Helvetica,sans-Serif" font-size="10.00">#</text>
<text text-anchor="start" x="140.25" y="-392.12" font-family="Helvetica,sans-Serif" font-size="10.00">breath_amplitude_</text>
<text text-anchor="start" x="173.88" y="-376.88" font-family="Helvetica,sans-Serif" font-size="10.00"> </text>
<polygon fill="#bfbfbf" stroke="#bfbfbf" points="127,-403.62 127,-403.62 223.75,-403.62 223.75,-403.62 127,-403.62"/>
<polygon fill="#bfbfbf" stroke="#bfbfbf" points="127,-388.38 127,-388.38 138.25,-388.38 138.25,-388.38 127,-388.38"/>
<polygon fill="#bfbfbf" stroke="#bfbfbf" points="138.25,-388.38 138.25,-388.38 223.75,-388.38 223.75,-388.38 138.25,-388.38"/>
<polygon fill="none" stroke="#bfbfbf" points="127,-371.12 127,-432.12 223.75,-432.12 223.75,-371.12 127,-371.12"/>
</a>
</g>
</g>
<!-- Node2&#45;&gt;Node7 -->
<g id="edge9_Node000007_Node000002" class="edge">
<title>Node2&#45;&gt;Node7</title>
<g id="a_edge9_Node000007_Node000002"><a xlink:title=" ">
<path fill="none" stroke="#63b8ff" d="M169.12,-496.11C170.58,-474.32 172.19,-450.26 173.41,-432"/>
<polygon fill="none" stroke="#63b8ff" points="165.63,-495.87 168.45,-506.08 172.61,-496.33 165.63,-495.87"/>
</a>
</g>
</g>
<!-- Node3 -->
<g id="Node000003" class="node">
<title>Node3</title>
<g id="a_Node000003"><a xlink:href="classstackchan_1_1display_1_1_drawable.html" target="_top" xlink:title=" ">
<polygon fill="white" stroke="none" points="215,-923.75 113.75,-923.75 113.75,-679.75 215,-679.75 215,-923.75"/>
<text text-anchor="start" x="124.62" y="-910.25" font-family="Helvetica,sans-Serif" font-size="10.00">stackchan::display</text>
<text text-anchor="start" x="141.88" y="-899" font-family="Helvetica,sans-Serif" font-size="10.00">::Drawable</text>
<text text-anchor="start" x="118.12" y="-883.75" font-family="Helvetica,sans-Serif" font-size="10.00">#</text>
<text text-anchor="start" x="127.75" y="-883.75" font-family="Helvetica,sans-Serif" font-size="10.00">rotation_</text>
<text text-anchor="start" x="118.12" y="-868.5" font-family="Helvetica,sans-Serif" font-size="10.00">#</text>
<text text-anchor="start" x="127.75" y="-868.5" font-family="Helvetica,sans-Serif" font-size="10.00">visible_</text>
<text text-anchor="start" x="118.12" y="-853.25" font-family="Helvetica,sans-Serif" font-size="10.00">#</text>
<text text-anchor="start" x="127.75" y="-853.25" font-family="Helvetica,sans-Serif" font-size="10.00">ignore_expression_</text>
<text text-anchor="start" x="117.75" y="-838" font-family="Helvetica,sans-Serif" font-size="10.00">+</text>
<text text-anchor="start" x="127.75" y="-838" font-family="Helvetica,sans-Serif" font-size="10.00">Drawable()</text>
<text text-anchor="start" x="117.75" y="-822.75" font-family="Helvetica,sans-Serif" font-size="10.00">+</text>
<text text-anchor="start" x="127.75" y="-822.75" font-family="Helvetica,sans-Serif" font-size="10.00">Drawable()</text>
<text text-anchor="start" x="117.75" y="-807.5" font-family="Helvetica,sans-Serif" font-size="10.00">+</text>
<text text-anchor="start" x="127.75" y="-807.5" font-family="Helvetica,sans-Serif" font-size="10.00">~Drawable()</text>
<text text-anchor="start" x="117.75" y="-792.25" font-family="Helvetica,sans-Serif" font-size="10.00">+</text>
<text text-anchor="start" x="127.75" y="-792.25" font-family="Helvetica,sans-Serif" font-size="10.00">setPosition()</text>
<text text-anchor="start" x="117.75" y="-777" font-family="Helvetica,sans-Serif" font-size="10.00">+</text>
<text text-anchor="start" x="127.75" y="-777" font-family="Helvetica,sans-Serif" font-size="10.00">getPosition()</text>
<text text-anchor="start" x="117.75" y="-761.75" font-family="Helvetica,sans-Serif" font-size="10.00">+</text>
<text text-anchor="start" x="127.75" y="-761.75" font-family="Helvetica,sans-Serif" font-size="10.00">setRotation()</text>
<text text-anchor="start" x="117.75" y="-746.5" font-family="Helvetica,sans-Serif" font-size="10.00">+</text>
<text text-anchor="start" x="127.75" y="-746.5" font-family="Helvetica,sans-Serif" font-size="10.00">getRotation()</text>
<text text-anchor="start" x="117.75" y="-731.25" font-family="Helvetica,sans-Serif" font-size="10.00">+</text>
<text text-anchor="start" x="127.75" y="-731.25" font-family="Helvetica,sans-Serif" font-size="10.00">setSize()</text>
<text text-anchor="start" x="117.75" y="-716" font-family="Helvetica,sans-Serif" font-size="10.00">+</text>
<text text-anchor="start" x="127.75" y="-716" font-family="Helvetica,sans-Serif" font-size="10.00">getSize()</text>
<text text-anchor="start" x="117.75" y="-700.75" font-family="Helvetica,sans-Serif" font-size="10.00">+</text>
<text text-anchor="start" x="127.75" y="-700.75" font-family="Helvetica,sans-Serif" font-size="10.00">setVisible()</text>
<text text-anchor="start" x="127.75" y="-685.5" font-family="Helvetica,sans-Serif" font-size="10.00">and 7 more...</text>
<polygon fill="#bfbfbf" stroke="#bfbfbf" points="113.75,-895.25 113.75,-895.25 215,-895.25 215,-895.25 113.75,-895.25"/>
<polygon fill="#bfbfbf" stroke="#bfbfbf" points="113.75,-849.5 113.75,-849.5 125.75,-849.5 125.75,-849.5 113.75,-849.5"/>
<polygon fill="#bfbfbf" stroke="#bfbfbf" points="125.75,-849.5 125.75,-849.5 215,-849.5 215,-849.5 125.75,-849.5"/>
<polygon fill="none" stroke="#bfbfbf" points="113.75,-679.75 113.75,-923.75 215,-923.75 215,-679.75 113.75,-679.75"/>
</a>
</g>
</g>
<!-- Node3&#45;&gt;Node2 -->
<g id="edge2_Node000002_Node000003" class="edge">
<title>Node3&#45;&gt;Node2</title>
<g id="a_edge2_Node000002_Node000003"><a xlink:title=" ">
<path fill="none" stroke="#63b8ff" d="M164.91,-668.67C165.01,-643.41 165.11,-618.63 165.19,-598.61"/>
<polygon fill="none" stroke="#63b8ff" points="161.41,-668.38 164.87,-678.39 168.41,-668.41 161.41,-668.38"/>
</a>
</g>
</g>
<!-- Node4 -->
<g id="Node000004" class="node">
<title>Node4</title>
<g id="a_Node000004"><a xlink:href="classm5_1_1_vector2i.html" target="_top" xlink:title=" ">
<polygon fill="white" stroke="none" points="105,-1234.25 33.75,-1234.25 33.75,-971 105,-971 105,-1234.25"/>
<text text-anchor="start" x="42.38" y="-1220.75" font-family="Helvetica,sans-Serif" font-size="10.00">m5::Vector2i</text>
<text text-anchor="start" x="37.75" y="-1205.5" font-family="Helvetica,sans-Serif" font-size="10.00">+</text>
<text text-anchor="start" x="47.75" y="-1205.5" font-family="Helvetica,sans-Serif" font-size="10.00">x</text>
<text text-anchor="start" x="37.75" y="-1190.25" font-family="Helvetica,sans-Serif" font-size="10.00">+</text>
<text text-anchor="start" x="47.75" y="-1190.25" font-family="Helvetica,sans-Serif" font-size="10.00">y</text>
<text text-anchor="start" x="37.75" y="-1175" font-family="Helvetica,sans-Serif" font-size="10.00">+</text>
<text text-anchor="start" x="47.75" y="-1175" font-family="Helvetica,sans-Serif" font-size="10.00">Vector2i()</text>
<text text-anchor="start" x="37.75" y="-1159.75" font-family="Helvetica,sans-Serif" font-size="10.00">+</text>
<text text-anchor="start" x="47.75" y="-1159.75" font-family="Helvetica,sans-Serif" font-size="10.00">Vector2i()</text>
<text text-anchor="start" x="37.75" y="-1144.5" font-family="Helvetica,sans-Serif" font-size="10.00">+</text>
<text text-anchor="start" x="47.75" y="-1144.5" font-family="Helvetica,sans-Serif" font-size="10.00">operator+()</text>
<text text-anchor="start" x="37.75" y="-1129.25" font-family="Helvetica,sans-Serif" font-size="10.00">+</text>
<text text-anchor="start" x="47.75" y="-1129.25" font-family="Helvetica,sans-Serif" font-size="10.00">operator&#45;()</text>
<text text-anchor="start" x="37.75" y="-1114" font-family="Helvetica,sans-Serif" font-size="10.00">+</text>
<text text-anchor="start" x="47.75" y="-1114" font-family="Helvetica,sans-Serif" font-size="10.00">operator*()</text>
<text text-anchor="start" x="37.75" y="-1098.75" font-family="Helvetica,sans-Serif" font-size="10.00">+</text>
<text text-anchor="start" x="47.75" y="-1098.75" font-family="Helvetica,sans-Serif" font-size="10.00">operator/()</text>
<text text-anchor="start" x="37.75" y="-1083.5" font-family="Helvetica,sans-Serif" font-size="10.00">+</text>
<text text-anchor="start" x="47.75" y="-1083.5" font-family="Helvetica,sans-Serif" font-size="10.00">operator+=()</text>
<text text-anchor="start" x="37.75" y="-1068.25" font-family="Helvetica,sans-Serif" font-size="10.00">+</text>
<text text-anchor="start" x="47.75" y="-1068.25" font-family="Helvetica,sans-Serif" font-size="10.00">operator&#45;=()</text>
<text text-anchor="start" x="37.75" y="-1053" font-family="Helvetica,sans-Serif" font-size="10.00">+</text>
<text text-anchor="start" x="47.75" y="-1053" font-family="Helvetica,sans-Serif" font-size="10.00">operator*=()</text>
<text text-anchor="start" x="37.75" y="-1037.75" font-family="Helvetica,sans-Serif" font-size="10.00">+</text>
<text text-anchor="start" x="47.75" y="-1037.75" font-family="Helvetica,sans-Serif" font-size="10.00">operator/=()</text>
<text text-anchor="start" x="37.75" y="-1022.5" font-family="Helvetica,sans-Serif" font-size="10.00">+</text>
<text text-anchor="start" x="47.75" y="-1022.5" font-family="Helvetica,sans-Serif" font-size="10.00">operator==()</text>
<text text-anchor="start" x="37.75" y="-1007.25" font-family="Helvetica,sans-Serif" font-size="10.00">+</text>
<text text-anchor="start" x="47.75" y="-1007.25" font-family="Helvetica,sans-Serif" font-size="10.00">operator!=()</text>
<text text-anchor="start" x="37.75" y="-992" font-family="Helvetica,sans-Serif" font-size="10.00">+</text>
<text text-anchor="start" x="47.75" y="-992" font-family="Helvetica,sans-Serif" font-size="10.00">dot()</text>
<text text-anchor="start" x="37.75" y="-976.75" font-family="Helvetica,sans-Serif" font-size="10.00">+</text>
<text text-anchor="start" x="47.75" y="-976.75" font-family="Helvetica,sans-Serif" font-size="10.00">clamp()</text>
<polygon fill="#bfbfbf" stroke="#bfbfbf" points="33.75,-1217 33.75,-1217 105,-1217 105,-1217 33.75,-1217"/>
<polygon fill="#bfbfbf" stroke="#bfbfbf" points="33.75,-1186.5 33.75,-1186.5 45.75,-1186.5 45.75,-1186.5 33.75,-1186.5"/>
<polygon fill="#bfbfbf" stroke="#bfbfbf" points="45.75,-1186.5 45.75,-1186.5 105,-1186.5 105,-1186.5 45.75,-1186.5"/>
<polygon fill="none" stroke="#bfbfbf" points="33.75,-971 33.75,-1234.25 105,-1234.25 105,-971 33.75,-971"/>
</a>
</g>
</g>
<!-- Node4&#45;&gt;Node3 -->
<g id="edge3_Node000003_Node000004" class="edge">
<title>Node4&#45;&gt;Node3</title>
<g id="a_edge3_Node000003_Node000004"><a xlink:title=" ">
<path fill="none" stroke="#63b8ff" d="M104.73,-971.37C107.73,-961.32 110.8,-951.35 113.88,-941.75 114.5,-939.78 115.14,-937.81 115.79,-935.81"/>
<polygon fill="none" stroke="#63b8ff" points="115.82,-935.72 113.91,-928.77 119.6,-924.33 121.51,-931.29 115.82,-935.72"/>
</a>
</g>
<text text-anchor="middle" x="137.12" y="-943.5" font-family="Helvetica,sans-Serif" font-size="10.00" fill="grey"> #position_</text>
</g>
<!-- Node4&#45;&gt;Node6 -->
<g id="edge7_Node000006_Node000004" class="edge">
<title>Node4&#45;&gt;Node6</title>
<g id="a_edge7_Node000006_Node000004"><a xlink:title=" ">
<path fill="none" stroke="#63b8ff" d="M66.58,-971.38C63.5,-828.04 58.66,-602.17 56.09,-482.77"/>
<polygon fill="none" stroke="#63b8ff" points="56.09,-482.7 51.97,-476.78 55.84,-470.7 59.96,-476.61 56.09,-482.7"/>
</a>
</g>
<text text-anchor="middle" x="97.78" y="-652.25" font-family="Helvetica,sans-Serif" font-size="10.00" fill="grey"> #gaze_</text>
<text text-anchor="start" x="59.91" y="-641" font-family="Helvetica,sans-Serif" font-size="10.00" fill="grey">#iris_position</text>
<text text-anchor="middle" x="97.78" y="-629.75" font-family="Helvetica,sans-Serif" font-size="10.00" fill="grey">_</text>
<text text-anchor="middle" x="97.78" y="-618.5" font-family="Helvetica,sans-Serif" font-size="10.00" fill="grey">#saccade_noise_</text>
</g>
<!-- Node5 -->
<g id="Node000005" class="node">
<title>Node5</title>
<g id="a_Node000005"><a xlink:href="classm5_1_1_size2i.html" target="_top" xlink:title=" ">
<polygon fill="white" stroke="none" points="198.88,-1180.88 129.88,-1180.88 129.88,-1024.38 198.88,-1024.38 198.88,-1180.88"/>
<text text-anchor="start" x="142.25" y="-1167.38" font-family="Helvetica,sans-Serif" font-size="10.00">m5::Size2i</text>
<text text-anchor="start" x="133.88" y="-1152.12" font-family="Helvetica,sans-Serif" font-size="10.00">+</text>
<text text-anchor="start" x="143.88" y="-1152.12" font-family="Helvetica,sans-Serif" font-size="10.00">width</text>
<text text-anchor="start" x="133.88" y="-1136.88" font-family="Helvetica,sans-Serif" font-size="10.00">+</text>
<text text-anchor="start" x="143.88" y="-1136.88" font-family="Helvetica,sans-Serif" font-size="10.00">height</text>
<text text-anchor="start" x="133.88" y="-1121.62" font-family="Helvetica,sans-Serif" font-size="10.00">+</text>
<text text-anchor="start" x="143.88" y="-1121.62" font-family="Helvetica,sans-Serif" font-size="10.00">Size2i()</text>
<text text-anchor="start" x="133.88" y="-1106.38" font-family="Helvetica,sans-Serif" font-size="10.00">+</text>
<text text-anchor="start" x="143.88" y="-1106.38" font-family="Helvetica,sans-Serif" font-size="10.00">Size2i()</text>
<text text-anchor="start" x="133.88" y="-1091.12" font-family="Helvetica,sans-Serif" font-size="10.00">+</text>
<text text-anchor="start" x="143.88" y="-1091.12" font-family="Helvetica,sans-Serif" font-size="10.00">operator*=()</text>
<text text-anchor="start" x="133.88" y="-1075.88" font-family="Helvetica,sans-Serif" font-size="10.00">+</text>
<text text-anchor="start" x="143.88" y="-1075.88" font-family="Helvetica,sans-Serif" font-size="10.00">operator*()</text>
<text text-anchor="start" x="133.88" y="-1060.62" font-family="Helvetica,sans-Serif" font-size="10.00">+</text>
<text text-anchor="start" x="143.88" y="-1060.62" font-family="Helvetica,sans-Serif" font-size="10.00">area()</text>
<text text-anchor="start" x="133.88" y="-1045.38" font-family="Helvetica,sans-Serif" font-size="10.00">+</text>
<text text-anchor="start" x="143.88" y="-1045.38" font-family="Helvetica,sans-Serif" font-size="10.00">max()</text>
<text text-anchor="start" x="133.88" y="-1030.12" font-family="Helvetica,sans-Serif" font-size="10.00">+</text>
<text text-anchor="start" x="143.88" y="-1030.12" font-family="Helvetica,sans-Serif" font-size="10.00">min()</text>
<polygon fill="#bfbfbf" stroke="#bfbfbf" points="129.88,-1163.62 129.88,-1163.62 198.88,-1163.62 198.88,-1163.62 129.88,-1163.62"/>
<polygon fill="#bfbfbf" stroke="#bfbfbf" points="129.88,-1133.12 129.88,-1133.12 141.88,-1133.12 141.88,-1133.12 129.88,-1133.12"/>
<polygon fill="#bfbfbf" stroke="#bfbfbf" points="141.88,-1133.12 141.88,-1133.12 198.88,-1133.12 198.88,-1133.12 141.88,-1133.12"/>
<polygon fill="none" stroke="#bfbfbf" points="129.88,-1024.38 129.88,-1180.88 198.88,-1180.88 198.88,-1024.38 129.88,-1024.38"/>
</a>
</g>
</g>
<!-- Node5&#45;&gt;Node3 -->
<g id="edge4_Node000003_Node000005" class="edge">
<title>Node5&#45;&gt;Node3</title>
<g id="a_edge4_Node000003_Node000005"><a xlink:title=" ">
<path fill="none" stroke="#63b8ff" d="M164.38,-1024.66C164.38,-997.72 164.38,-966.64 164.38,-936.42"/>
<polygon fill="none" stroke="#63b8ff" points="164.38,-936.44 160.38,-930.44 164.38,-924.44 168.38,-930.44 164.38,-936.44"/>
</a>
</g>
<text text-anchor="middle" x="179.38" y="-943.5" font-family="Helvetica,sans-Serif" font-size="10.00" fill="grey"> #size_</text>
</g>
<!-- Node6&#45;&gt;Node1 -->
<g id="edge5_Node000001_Node000006" class="edge">
<title>Node6&#45;&gt;Node1</title>
<g id="a_edge5_Node000001_Node000006"><a xlink:title=" ">
<path fill="none" stroke="#63b8ff" d="M85.54,-333.06C94.44,-313.75 104.46,-292.02 114.5,-270.26"/>
<polygon fill="none" stroke="#63b8ff" points="114.5,-270.25 113.38,-263.13 119.52,-259.36 120.64,-266.48 114.5,-270.25"/>
</a>
</g>
<text text-anchor="middle" x="128.79" y="-305.5" font-family="Helvetica,sans-Serif" font-size="10.00" fill="grey"> #left_eye_</text>
<text text-anchor="middle" x="128.79" y="-294.25" font-family="Helvetica,sans-Serif" font-size="10.00" fill="grey">#right_eye_</text>
</g>
<!-- Node7&#45;&gt;Node1 -->
<g id="edge8_Node000001_Node000007" class="edge">
<title>Node7&#45;&gt;Node1</title>
<g id="a_edge8_Node000001_Node000007"><a xlink:title=" ">
<path fill="none" stroke="#63b8ff" d="M175.38,-371.29C175.38,-349.98 175.38,-319.37 175.38,-287.3"/>
<polygon fill="none" stroke="#63b8ff" points="175.38,-287.37 171.38,-281.37 175.38,-275.37 179.38,-281.37 175.38,-287.37"/>
</a>
</g>
<text text-anchor="middle" x="195.25" y="-299.88" font-family="Helvetica,sans-Serif" font-size="10.00" fill="grey"> #mouth_</text>
</g>
</g>
</svg>
