<?xml version="1.0" encoding="UTF-8" standalone="no"?>
<!DOCTYPE svg PUBLIC "-//W3C//DTD SVG 1.1//EN"
 "http://www.w3.org/Graphics/SVG/1.1/DTD/svg11.dtd">
<!-- Generated by graphviz version 12.2.0 (20241103.1931)
 -->
<!-- Title: stackchan::display::Drawable Pages: 1 -->
<svg width="646pt" height="940pt"
 viewBox="0.00 0.00 645.50 939.50" xmlns="http://www.w3.org/2000/svg" xmlns:xlink="http://www.w3.org/1999/xlink">
<g id="graph0" class="graph" transform="scale(1 1) rotate(0) translate(4 935.5)">
<title>stackchan::display::Drawable</title>
<!-- Node1 -->
<g id="Node000001" class="node">
<title>Node1</title>
<g id="a_Node000001"><a xlink:title=" ">
<polygon fill="#999999" stroke="none" points="428.38,-931.5 327.12,-931.5 327.12,-657 428.38,-657 428.38,-931.5"/>
<text text-anchor="start" x="338" y="-918" font-family="Helvetica,sans-Serif" font-size="10.00">stackchan::display</text>
<text text-anchor="start" x="355.25" y="-906.75" font-family="Helvetica,sans-Serif" font-size="10.00">::Drawable</text>
<text text-anchor="start" x="331.5" y="-891.5" font-family="Helvetica,sans-Serif" font-size="10.00">#</text>
<text text-anchor="start" x="341.12" y="-891.5" font-family="Helvetica,sans-Serif" font-size="10.00">position_</text>
<text text-anchor="start" x="331.5" y="-876.25" font-family="Helvetica,sans-Serif" font-size="10.00">#</text>
<text text-anchor="start" x="341.12" y="-876.25" font-family="Helvetica,sans-Serif" font-size="10.00">rotation_</text>
<text text-anchor="start" x="331.5" y="-861" font-family="Helvetica,sans-Serif" font-size="10.00">#</text>
<text text-anchor="start" x="341.12" y="-861" font-family="Helvetica,sans-Serif" font-size="10.00">size_</text>
<text text-anchor="start" x="331.5" y="-845.75" font-family="Helvetica,sans-Serif" font-size="10.00">#</text>
<text text-anchor="start" x="341.12" y="-845.75" font-family="Helvetica,sans-Serif" font-size="10.00">visible_</text>
<text text-anchor="start" x="331.5" y="-830.5" font-family="Helvetica,sans-Serif" font-size="10.00">#</text>
<text text-anchor="start" x="341.12" y="-830.5" font-family="Helvetica,sans-Serif" font-size="10.00">ignore_expression_</text>
<text text-anchor="start" x="331.12" y="-815.25" font-family="Helvetica,sans-Serif" font-size="10.00">+</text>
<text text-anchor="start" x="341.12" y="-815.25" font-family="Helvetica,sans-Serif" font-size="10.00">Drawable()</text>
<text text-anchor="start" x="331.12" y="-800" font-family="Helvetica,sans-Serif" font-size="10.00">+</text>
<text text-anchor="start" x="341.12" y="-800" font-family="Helvetica,sans-Serif" font-size="10.00">Drawable()</text>
<text text-anchor="start" x="331.12" y="-784.75" font-family="Helvetica,sans-Serif" font-size="10.00">+</text>
<text text-anchor="start" x="341.12" y="-784.75" font-family="Helvetica,sans-Serif" font-size="10.00">~Drawable()</text>
<text text-anchor="start" x="331.12" y="-769.5" font-family="Helvetica,sans-Serif" font-size="10.00">+</text>
<text text-anchor="start" x="341.12" y="-769.5" font-family="Helvetica,sans-Serif" font-size="10.00">setPosition()</text>
<text text-anchor="start" x="331.12" y="-754.25" font-family="Helvetica,sans-Serif" font-size="10.00">+</text>
<text text-anchor="start" x="341.12" y="-754.25" font-family="Helvetica,sans-Serif" font-size="10.00">getPosition()</text>
<text text-anchor="start" x="331.12" y="-739" font-family="Helvetica,sans-Serif" font-size="10.00">+</text>
<text text-anchor="start" x="341.12" y="-739" font-family="Helvetica,sans-Serif" font-size="10.00">setRotation()</text>
<text text-anchor="start" x="331.12" y="-723.75" font-family="Helvetica,sans-Serif" font-size="10.00">+</text>
<text text-anchor="start" x="341.12" y="-723.75" font-family="Helvetica,sans-Serif" font-size="10.00">getRotation()</text>
<text text-anchor="start" x="331.12" y="-708.5" font-family="Helvetica,sans-Serif" font-size="10.00">+</text>
<text text-anchor="start" x="341.12" y="-708.5" font-family="Helvetica,sans-Serif" font-size="10.00">setSize()</text>
<text text-anchor="start" x="331.12" y="-693.25" font-family="Helvetica,sans-Serif" font-size="10.00">+</text>
<text text-anchor="start" x="341.12" y="-693.25" font-family="Helvetica,sans-Serif" font-size="10.00">getSize()</text>
<text text-anchor="start" x="331.12" y="-678" font-family="Helvetica,sans-Serif" font-size="10.00">+</text>
<text text-anchor="start" x="341.12" y="-678" font-family="Helvetica,sans-Serif" font-size="10.00">setVisible()</text>
<text text-anchor="start" x="341.12" y="-662.75" font-family="Helvetica,sans-Serif" font-size="10.00">and 7 more...</text>
<polygon fill="#666666" stroke="#666666" points="327.12,-903 327.12,-903 428.38,-903 428.38,-903 327.12,-903"/>
<polygon fill="#666666" stroke="#666666" points="327.12,-826.75 327.12,-826.75 339.12,-826.75 339.12,-826.75 327.12,-826.75"/>
<polygon fill="#666666" stroke="#666666" points="339.12,-826.75 339.12,-826.75 428.38,-826.75 428.38,-826.75 339.12,-826.75"/>
<polygon fill="none" stroke="#666666" points="327.12,-657 327.12,-931.5 428.38,-931.5 428.38,-657 327.12,-657"/>
</a>
</g>
</g>
<!-- Node2 -->
<g id="Node000002" class="node">
<title>Node2</title>
<g id="a_Node000002"><a xlink:href="classstackchan_1_1display_1_1_facial_drawable.html" target="_top" xlink:title=" ">
<polygon fill="white" stroke="none" points="367.5,-582.88 280,-582.88 280,-491.38 367.5,-491.38 367.5,-582.88"/>
<text text-anchor="start" x="284" y="-569.38" font-family="Helvetica,sans-Serif" font-size="10.00">stackchan::display</text>
<text text-anchor="start" x="288.12" y="-558.12" font-family="Helvetica,sans-Serif" font-size="10.00">::FacialDrawable</text>
<text text-anchor="start" x="322.25" y="-542.88" font-family="Helvetica,sans-Serif" font-size="10.00"> </text>
<text text-anchor="start" x="289.75" y="-527.62" font-family="Helvetica,sans-Serif" font-size="10.00">+</text>
<text text-anchor="start" x="305.5" y="-527.62" font-family="Helvetica,sans-Serif" font-size="10.00">draw()</text>
<text text-anchor="start" x="289.75" y="-512.38" font-family="Helvetica,sans-Serif" font-size="10.00">+</text>
<text text-anchor="start" x="305.5" y="-512.38" font-family="Helvetica,sans-Serif" font-size="10.00">Drawable()</text>
<text text-anchor="start" x="289.75" y="-497.12" font-family="Helvetica,sans-Serif" font-size="10.00">+</text>
<text text-anchor="start" x="305.5" y="-497.12" font-family="Helvetica,sans-Serif" font-size="10.00">Drawable()</text>
<polygon fill="#bfbfbf" stroke="#bfbfbf" points="280,-554.38 280,-554.38 367.5,-554.38 367.5,-554.38 280,-554.38"/>
<polygon fill="#bfbfbf" stroke="#bfbfbf" points="280,-539.12 280,-539.12 367.5,-539.12 367.5,-539.12 280,-539.12"/>
<polygon fill="none" stroke="#bfbfbf" points="280,-491.38 280,-582.88 367.5,-582.88 367.5,-491.38 280,-491.38"/>
</a>
</g>
</g>
<!-- Node1&#45;&gt;Node2 -->
<g id="edge1_Node000001_Node000002" class="edge">
<title>Node1&#45;&gt;Node2</title>
<g id="a_edge1_Node000001_Node000002"><a xlink:title=" ">
<path fill="none" stroke="#63b8ff" d="M346.6,-646.08C341.72,-623.02 337.02,-600.82 333.17,-582.62"/>
<polygon fill="none" stroke="#63b8ff" points="343.12,-646.56 348.62,-655.62 349.97,-645.11 343.12,-646.56"/>
</a>
</g>
</g>
<!-- Node12 -->
<g id="Node000012" class="node">
<title>Node12</title>
<g id="a_Node000012"><a xlink:href="classstackchan_1_1display_1_1_speech_balloon.html" target="_top" xlink:title=" ">
<polygon fill="white" stroke="none" points="480,-621 385.5,-621 385.5,-453.25 480,-453.25 480,-621"/>
<text text-anchor="start" x="393" y="-607.5" font-family="Helvetica,sans-Serif" font-size="10.00">stackchan::display</text>
<text text-anchor="start" x="397.88" y="-596.25" font-family="Helvetica,sans-Serif" font-size="10.00">::SpeechBalloon</text>
<text text-anchor="start" x="389.88" y="-581" font-family="Helvetica,sans-Serif" font-size="10.00">#</text>
<text text-anchor="start" x="399.5" y="-581" font-family="Helvetica,sans-Serif" font-size="10.00">text_</text>
<text text-anchor="start" x="389.88" y="-565.75" font-family="Helvetica,sans-Serif" font-size="10.00">#</text>
<text text-anchor="start" x="399.5" y="-565.75" font-family="Helvetica,sans-Serif" font-size="10.00">font_</text>
<text text-anchor="start" x="389.5" y="-550.5" font-family="Helvetica,sans-Serif" font-size="10.00">+</text>
<text text-anchor="start" x="399.5" y="-550.5" font-family="Helvetica,sans-Serif" font-size="10.00">SpeechBalloon()</text>
<text text-anchor="start" x="389.5" y="-535.25" font-family="Helvetica,sans-Serif" font-size="10.00">+</text>
<text text-anchor="start" x="399.5" y="-535.25" font-family="Helvetica,sans-Serif" font-size="10.00">~SpeechBalloon()</text>
<text text-anchor="start" x="389.5" y="-520" font-family="Helvetica,sans-Serif" font-size="10.00">+</text>
<text text-anchor="start" x="399.5" y="-520" font-family="Helvetica,sans-Serif" font-size="10.00">SpeechBalloon()</text>
<text text-anchor="start" x="389.5" y="-504.75" font-family="Helvetica,sans-Serif" font-size="10.00">+</text>
<text text-anchor="start" x="399.5" y="-504.75" font-family="Helvetica,sans-Serif" font-size="10.00">operator=()</text>
<text text-anchor="start" x="389.5" y="-489.5" font-family="Helvetica,sans-Serif" font-size="10.00">+</text>
<text text-anchor="start" x="399.5" y="-489.5" font-family="Helvetica,sans-Serif" font-size="10.00">setText()</text>
<text text-anchor="start" x="389.5" y="-474.25" font-family="Helvetica,sans-Serif" font-size="10.00">+</text>
<text text-anchor="start" x="399.5" y="-474.25" font-family="Helvetica,sans-Serif" font-size="10.00">draw()</text>
<text text-anchor="start" x="389.5" y="-459" font-family="Helvetica,sans-Serif" font-size="10.00">+</text>
<text text-anchor="start" x="399.5" y="-459" font-family="Helvetica,sans-Serif" font-size="10.00">draw()</text>
<polygon fill="#bfbfbf" stroke="#bfbfbf" points="385.5,-592.5 385.5,-592.5 480,-592.5 480,-592.5 385.5,-592.5"/>
<polygon fill="#bfbfbf" stroke="#bfbfbf" points="385.5,-562 385.5,-562 397.5,-562 397.5,-562 385.5,-562"/>
<polygon fill="#bfbfbf" stroke="#bfbfbf" points="397.5,-562 397.5,-562 480,-562 480,-562 397.5,-562"/>
<polygon fill="none" stroke="#bfbfbf" points="385.5,-453.25 385.5,-621 480,-621 480,-453.25 385.5,-453.25"/>
</a>
</g>
</g>
<!-- Node1&#45;&gt;Node12 -->
<g id="edge11_Node000001_Node000012" class="edge">
<title>Node1&#45;&gt;Node12</title>
<g id="a_edge11_Node000001_Node000012"><a xlink:title=" ">
<path fill="none" stroke="#63b8ff" d="M409.53,-645.85C411.36,-637.34 413.17,-628.95 414.92,-620.84"/>
<polygon fill="none" stroke="#63b8ff" points="406.11,-645.11 407.42,-655.62 412.95,-646.58 406.11,-645.11"/>
</a>
</g>
</g>
<!-- Node3 -->
<g id="Node000003" class="node">
<title>Node3</title>
<g id="a_Node000003"><a xlink:href="classstackchan_1_1display_1_1_base_eye.html" target="_top" xlink:title="Base class for Eye, draw nothing.">
<polygon fill="white" stroke="none" points="214.12,-356.25 105.38,-356.25 105.38,-173.25 214.12,-173.25 214.12,-356.25"/>
<text text-anchor="start" x="120" y="-342.75" font-family="Helvetica,sans-Serif" font-size="10.00">stackchan::display</text>
<text text-anchor="start" x="138.38" y="-331.5" font-family="Helvetica,sans-Serif" font-size="10.00">::BaseEye</text>
<text text-anchor="start" x="109.75" y="-316.25" font-family="Helvetica,sans-Serif" font-size="10.00">#</text>
<text text-anchor="start" x="119.38" y="-316.25" font-family="Helvetica,sans-Serif" font-size="10.00">is_left_</text>
<text text-anchor="start" x="109.75" y="-301" font-family="Helvetica,sans-Serif" font-size="10.00">#</text>
<text text-anchor="start" x="119.38" y="-301" font-family="Helvetica,sans-Serif" font-size="10.00">gaze_</text>
<text text-anchor="start" x="109.75" y="-285.75" font-family="Helvetica,sans-Serif" font-size="10.00">#</text>
<text text-anchor="start" x="119.38" y="-285.75" font-family="Helvetica,sans-Serif" font-size="10.00">iris_position_</text>
<text text-anchor="start" x="109.75" y="-270.5" font-family="Helvetica,sans-Serif" font-size="10.00">#</text>
<text text-anchor="start" x="119.38" y="-270.5" font-family="Helvetica,sans-Serif" font-size="10.00">milli_sec_</text>
<text text-anchor="start" x="109.75" y="-255.25" font-family="Helvetica,sans-Serif" font-size="10.00">#</text>
<text text-anchor="start" x="119.38" y="-255.25" font-family="Helvetica,sans-Serif" font-size="10.00">last_saccade_millis_</text>
<text text-anchor="start" x="109.75" y="-240" font-family="Helvetica,sans-Serif" font-size="10.00">#</text>
<text text-anchor="start" x="119.38" y="-240" font-family="Helvetica,sans-Serif" font-size="10.00">saccade_interval_</text>
<text text-anchor="start" x="109.75" y="-224.75" font-family="Helvetica,sans-Serif" font-size="10.00">#</text>
<text text-anchor="start" x="119.38" y="-224.75" font-family="Helvetica,sans-Serif" font-size="10.00">saccade_noise_</text>
<text text-anchor="start" x="109.38" y="-209.5" font-family="Helvetica,sans-Serif" font-size="10.00">+</text>
<text text-anchor="start" x="119.38" y="-209.5" font-family="Helvetica,sans-Serif" font-size="10.00">BaseEye()</text>
<text text-anchor="start" x="109.75" y="-194.25" font-family="Helvetica,sans-Serif" font-size="10.00">#</text>
<text text-anchor="start" x="119.38" y="-194.25" font-family="Helvetica,sans-Serif" font-size="10.00">updateGaze()</text>
<text text-anchor="start" x="109.75" y="-179" font-family="Helvetica,sans-Serif" font-size="10.00">#</text>
<text text-anchor="start" x="119.38" y="-179" font-family="Helvetica,sans-Serif" font-size="10.00">updateSaccade()</text>
<polygon fill="#666666" stroke="#666666" points="105.38,-327.75 105.38,-327.75 214.12,-327.75 214.12,-327.75 105.38,-327.75"/>
<polygon fill="#666666" stroke="#666666" points="105.38,-221 105.38,-221 117.38,-221 117.38,-221 105.38,-221"/>
<polygon fill="#666666" stroke="#666666" points="117.38,-221 117.38,-221 214.12,-221 214.12,-221 117.38,-221"/>
<polygon fill="none" stroke="#666666" points="105.38,-173.25 105.38,-356.25 214.12,-356.25 214.12,-173.25 105.38,-173.25"/>
</a>
</g>
</g>
<!-- Node2&#45;&gt;Node3 -->
<g id="edge2_Node000002_Node000003" class="edge">
<title>Node2&#45;&gt;Node3</title>
<g id="a_edge2_Node000002_Node000003"><a xlink:title=" ">
<path fill="none" stroke="#63b8ff" d="M290.97,-482.08C268.99,-445.85 239.53,-397.28 214.1,-355.35"/>
<polygon fill="none" stroke="#63b8ff" points="287.71,-483.45 295.88,-490.18 293.69,-479.82 287.71,-483.45"/>
</a>
</g>
</g>
<!-- Node6 -->
<g id="Node000006" class="node">
<title>Node6</title>
<g id="a_Node000006"><a xlink:href="classstackchan_1_1display_1_1_base_mouth.html" target="_top" xlink:title=" ">
<polygon fill="white" stroke="none" points="372.12,-295.25 275.38,-295.25 275.38,-234.25 372.12,-234.25 372.12,-295.25"/>
<text text-anchor="start" x="284" y="-281.75" font-family="Helvetica,sans-Serif" font-size="10.00">stackchan::display</text>
<text text-anchor="start" x="296.75" y="-270.5" font-family="Helvetica,sans-Serif" font-size="10.00">::BaseMouth</text>
<text text-anchor="start" x="279.38" y="-255.25" font-family="Helvetica,sans-Serif" font-size="10.00">#</text>
<text text-anchor="start" x="288.62" y="-255.25" font-family="Helvetica,sans-Serif" font-size="10.00">breath_amplitude_</text>
<text text-anchor="start" x="322.25" y="-240" font-family="Helvetica,sans-Serif" font-size="10.00"> </text>
<polygon fill="#bfbfbf" stroke="#bfbfbf" points="275.38,-266.75 275.38,-266.75 372.12,-266.75 372.12,-266.75 275.38,-266.75"/>
<polygon fill="#bfbfbf" stroke="#bfbfbf" points="275.38,-251.5 275.38,-251.5 286.62,-251.5 286.62,-251.5 275.38,-251.5"/>
<polygon fill="#bfbfbf" stroke="#bfbfbf" points="286.62,-251.5 286.62,-251.5 372.12,-251.5 372.12,-251.5 286.62,-251.5"/>
<polygon fill="none" stroke="#bfbfbf" points="275.38,-234.25 275.38,-295.25 372.12,-295.25 372.12,-234.25 275.38,-234.25"/>
</a>
</g>
</g>
<!-- Node2&#45;&gt;Node6 -->
<g id="edge5_Node000002_Node000006" class="edge">
<title>Node2&#45;&gt;Node6</title>
<g id="a_edge5_Node000002_Node000006"><a xlink:title=" ">
<path fill="none" stroke="#63b8ff" d="M323.75,-480.27C323.75,-423.97 323.75,-339.26 323.75,-295.02"/>
<polygon fill="none" stroke="#63b8ff" points="320.25,-479.96 323.75,-489.96 327.25,-479.96 320.25,-479.96"/>
</a>
</g>
</g>
<!-- Node9 -->
<g id="Node000009" class="node">
<title>Node9</title>
<g id="a_Node000009"><a xlink:href="classstackchan_1_1display_1_1_face.html" target="_top" xlink:title=" ">
<polygon fill="white" stroke="none" points="543.25,-417.25 432.25,-417.25 432.25,-112.25 543.25,-112.25 543.25,-417.25"/>
<text text-anchor="start" x="448" y="-403.75" font-family="Helvetica,sans-Serif" font-size="10.00">stackchan::display</text>
<text text-anchor="start" x="474.62" y="-392.5" font-family="Helvetica,sans-Serif" font-size="10.00">::Face</text>
<text text-anchor="start" x="436.62" y="-377.25" font-family="Helvetica,sans-Serif" font-size="10.00">#</text>
<text text-anchor="start" x="446.25" y="-377.25" font-family="Helvetica,sans-Serif" font-size="10.00">is_auto_blink_</text>
<text text-anchor="start" x="436.62" y="-362" font-family="Helvetica,sans-Serif" font-size="10.00">#</text>
<text text-anchor="start" x="446.25" y="-362" font-family="Helvetica,sans-Serif" font-size="10.00">auto_blink_interval_</text>
<text text-anchor="start" x="436.62" y="-346.75" font-family="Helvetica,sans-Serif" font-size="10.00">#</text>
<text text-anchor="start" x="446.25" y="-346.75" font-family="Helvetica,sans-Serif" font-size="10.00">last_blink_time_</text>
<text text-anchor="start" x="436.62" y="-331.5" font-family="Helvetica,sans-Serif" font-size="10.00">#</text>
<text text-anchor="start" x="446.25" y="-331.5" font-family="Helvetica,sans-Serif" font-size="10.00">blink_duration_</text>
<text text-anchor="start" x="436.62" y="-316.25" font-family="Helvetica,sans-Serif" font-size="10.00">#</text>
<text text-anchor="start" x="446.25" y="-316.25" font-family="Helvetica,sans-Serif" font-size="10.00">breath_frequency_</text>
<text text-anchor="start" x="436.62" y="-301" font-family="Helvetica,sans-Serif" font-size="10.00">#</text>
<text text-anchor="start" x="446.25" y="-301" font-family="Helvetica,sans-Serif" font-size="10.00">left_eye_</text>
<text text-anchor="start" x="436.62" y="-285.75" font-family="Helvetica,sans-Serif" font-size="10.00">#</text>
<text text-anchor="start" x="446.25" y="-285.75" font-family="Helvetica,sans-Serif" font-size="10.00">right_eye_</text>
<text text-anchor="start" x="436.62" y="-270.5" font-family="Helvetica,sans-Serif" font-size="10.00">#</text>
<text text-anchor="start" x="446.25" y="-270.5" font-family="Helvetica,sans-Serif" font-size="10.00">mouth_</text>
<text text-anchor="start" x="436.25" y="-255.25" font-family="Helvetica,sans-Serif" font-size="10.00">+</text>
<text text-anchor="start" x="446.25" y="-255.25" font-family="Helvetica,sans-Serif" font-size="10.00">Face()</text>
<text text-anchor="start" x="436.25" y="-240" font-family="Helvetica,sans-Serif" font-size="10.00">+</text>
<text text-anchor="start" x="446.25" y="-240" font-family="Helvetica,sans-Serif" font-size="10.00">Face()</text>
<text text-anchor="start" x="436.25" y="-224.75" font-family="Helvetica,sans-Serif" font-size="10.00">+</text>
<text text-anchor="start" x="446.25" y="-224.75" font-family="Helvetica,sans-Serif" font-size="10.00">getLeftEye()</text>
<text text-anchor="start" x="436.25" y="-209.5" font-family="Helvetica,sans-Serif" font-size="10.00">+</text>
<text text-anchor="start" x="446.25" y="-209.5" font-family="Helvetica,sans-Serif" font-size="10.00">getRightEye()</text>
<text text-anchor="start" x="436.25" y="-194.25" font-family="Helvetica,sans-Serif" font-size="10.00">+</text>
<text text-anchor="start" x="446.25" y="-194.25" font-family="Helvetica,sans-Serif" font-size="10.00">getMouth()</text>
<text text-anchor="start" x="436.25" y="-179" font-family="Helvetica,sans-Serif" font-size="10.00">+</text>
<text text-anchor="start" x="446.25" y="-179" font-family="Helvetica,sans-Serif" font-size="10.00">activateAutoBlink()</text>
<text text-anchor="start" x="436.25" y="-163.75" font-family="Helvetica,sans-Serif" font-size="10.00">+</text>
<text text-anchor="start" x="446.25" y="-163.75" font-family="Helvetica,sans-Serif" font-size="10.00">deactivateAutoBlink()</text>
<text text-anchor="start" x="436.25" y="-148.5" font-family="Helvetica,sans-Serif" font-size="10.00">+</text>
<text text-anchor="start" x="446.25" y="-148.5" font-family="Helvetica,sans-Serif" font-size="10.00">getIsAutoBlink()</text>
<text text-anchor="start" x="436.25" y="-133.25" font-family="Helvetica,sans-Serif" font-size="10.00">+</text>
<text text-anchor="start" x="446.25" y="-133.25" font-family="Helvetica,sans-Serif" font-size="10.00">updateState()</text>
<text text-anchor="start" x="436.25" y="-118" font-family="Helvetica,sans-Serif" font-size="10.00">+</text>
<text text-anchor="start" x="446.25" y="-118" font-family="Helvetica,sans-Serif" font-size="10.00">draw()</text>
<polygon fill="#bfbfbf" stroke="#bfbfbf" points="432.25,-388.75 432.25,-388.75 543.25,-388.75 543.25,-388.75 432.25,-388.75"/>
<polygon fill="#bfbfbf" stroke="#bfbfbf" points="432.25,-266.75 432.25,-266.75 444.25,-266.75 444.25,-266.75 432.25,-266.75"/>
<polygon fill="#bfbfbf" stroke="#bfbfbf" points="444.25,-266.75 444.25,-266.75 543.25,-266.75 543.25,-266.75 444.25,-266.75"/>
<polygon fill="none" stroke="#bfbfbf" points="432.25,-112.25 432.25,-417.25 543.25,-417.25 543.25,-112.25 432.25,-112.25"/>
</a>
</g>
</g>
<!-- Node2&#45;&gt;Node9 -->
<g id="edge8_Node000002_Node000009" class="edge">
<title>Node2&#45;&gt;Node9</title>
<g id="a_edge8_Node000002_Node000009"><a xlink:title=" ">
<path fill="none" stroke="#63b8ff" d="M356.74,-481.74C378.4,-446.03 407.26,-398.44 432.39,-357.02"/>
<polygon fill="none" stroke="#63b8ff" points="353.81,-479.82 351.62,-490.18 359.79,-483.45 353.81,-479.82"/>
</a>
</g>
</g>
<!-- Node4 -->
<g id="Node000004" class="node">
<title>Node4</title>
<g id="a_Node000004"><a xlink:href="classstackchan_1_1display_1_1_ellipse_eye.html" target="_top" xlink:title=" ">
<polygon fill="white" stroke="none" points="87.5,-76.25 0,-76.25 0,0 87.5,0 87.5,-76.25"/>
<text text-anchor="start" x="4" y="-62.75" font-family="Helvetica,sans-Serif" font-size="10.00">stackchan::display</text>
<text text-anchor="start" x="19.38" y="-51.5" font-family="Helvetica,sans-Serif" font-size="10.00">::EllipseEye</text>
<text text-anchor="start" x="42.25" y="-36.25" font-family="Helvetica,sans-Serif" font-size="10.00"> </text>
<text text-anchor="start" x="10.31" y="-21" font-family="Helvetica,sans-Serif" font-size="10.00">+</text>
<text text-anchor="start" x="26.62" y="-21" font-family="Helvetica,sans-Serif" font-size="10.00">draw()</text>
<text text-anchor="start" x="10.31" y="-5.75" font-family="Helvetica,sans-Serif" font-size="10.00">+</text>
<text text-anchor="start" x="26.62" y="-5.75" font-family="Helvetica,sans-Serif" font-size="10.00">BaseEye()</text>
<polygon fill="#bfbfbf" stroke="#bfbfbf" points="0,-47.75 0,-47.75 87.5,-47.75 87.5,-47.75 0,-47.75"/>
<polygon fill="#bfbfbf" stroke="#bfbfbf" points="0,-32.5 0,-32.5 87.5,-32.5 87.5,-32.5 0,-32.5"/>
<polygon fill="none" stroke="#bfbfbf" points="0,0 0,-76.25 87.5,-76.25 87.5,0 0,0"/>
</a>
</g>
</g>
<!-- Node3&#45;&gt;Node4 -->
<g id="edge3_Node000003_Node000004" class="edge">
<title>Node3&#45;&gt;Node4</title>
<g id="a_edge3_Node000003_Node000004"><a xlink:title=" ">
<path fill="none" stroke="#63b8ff" d="M107.89,-163.33C91.84,-132.26 75.17,-99.96 62.84,-76.09"/>
<polygon fill="none" stroke="#63b8ff" points="104.68,-164.73 112.38,-172.01 110.9,-161.52 104.68,-164.73"/>
</a>
</g>
</g>
<!-- Node5 -->
<g id="Node000005" class="node">
<title>Node5</title>
<g id="a_Node000005"><a xlink:href="classstackchan_1_1display_1_1_eye.html" target="_top" xlink:title=" ">
<polygon fill="white" stroke="none" points="213.62,-70.62 105.88,-70.62 105.88,-5.62 213.62,-5.62 213.62,-70.62"/>
<text text-anchor="start" x="109.88" y="-57.12" font-family="Helvetica,sans-Serif" font-size="10.00">stackchan::display::Eye</text>
<text text-anchor="start" x="158.25" y="-41.88" font-family="Helvetica,sans-Serif" font-size="10.00"> </text>
<text text-anchor="start" x="121.25" y="-26.62" font-family="Helvetica,sans-Serif" font-size="10.00">+</text>
<text text-anchor="start" x="142.62" y="-26.62" font-family="Helvetica,sans-Serif" font-size="10.00">draw()</text>
<text text-anchor="start" x="121.25" y="-11.38" font-family="Helvetica,sans-Serif" font-size="10.00">+</text>
<text text-anchor="start" x="142.62" y="-11.38" font-family="Helvetica,sans-Serif" font-size="10.00">BaseEye()</text>
<polygon fill="#bfbfbf" stroke="#bfbfbf" points="105.88,-53.38 105.88,-53.38 213.62,-53.38 213.62,-53.38 105.88,-53.38"/>
<polygon fill="#bfbfbf" stroke="#bfbfbf" points="105.88,-38.12 105.88,-38.12 213.62,-38.12 213.62,-38.12 105.88,-38.12"/>
<polygon fill="none" stroke="#bfbfbf" points="105.88,-5.62 105.88,-70.62 213.62,-70.62 213.62,-5.62 105.88,-5.62"/>
</a>
</g>
</g>
<!-- Node3&#45;&gt;Node5 -->
<g id="edge4_Node000003_Node000005" class="edge">
<title>Node3&#45;&gt;Node5</title>
<g id="a_edge4_Node000003_Node000005"><a xlink:title=" ">
<path fill="none" stroke="#63b8ff" d="M159.75,-162.17C159.75,-128.99 159.75,-94.54 159.75,-70.56"/>
<polygon fill="none" stroke="#63b8ff" points="156.25,-161.84 159.75,-171.84 163.25,-161.84 156.25,-161.84"/>
</a>
</g>
</g>
<!-- Node7 -->
<g id="Node000007" class="node">
<title>Node7</title>
<g id="a_Node000007"><a xlink:href="classstackchan_1_1display_1_1_mouth.html" target="_top" xlink:title=" ">
<polygon fill="white" stroke="none" points="319.5,-68.62 232,-68.62 232,-7.62 319.5,-7.62 319.5,-68.62"/>
<text text-anchor="start" x="236" y="-55.12" font-family="Helvetica,sans-Serif" font-size="10.00">stackchan::display</text>
<text text-anchor="start" x="260" y="-43.88" font-family="Helvetica,sans-Serif" font-size="10.00">::Mouth</text>
<text text-anchor="start" x="274.25" y="-28.62" font-family="Helvetica,sans-Serif" font-size="10.00"> </text>
<text text-anchor="start" x="246.62" y="-13.38" font-family="Helvetica,sans-Serif" font-size="10.00">+</text>
<text text-anchor="start" x="267.25" y="-13.38" font-family="Helvetica,sans-Serif" font-size="10.00">draw()</text>
<polygon fill="#bfbfbf" stroke="#bfbfbf" points="232,-40.12 232,-40.12 319.5,-40.12 319.5,-40.12 232,-40.12"/>
<polygon fill="#bfbfbf" stroke="#bfbfbf" points="232,-24.88 232,-24.88 319.5,-24.88 319.5,-24.88 232,-24.88"/>
<polygon fill="none" stroke="#bfbfbf" points="232,-7.62 232,-68.62 319.5,-68.62 319.5,-7.62 232,-7.62"/>
</a>
</g>
</g>
<!-- Node6&#45;&gt;Node7 -->
<g id="edge6_Node000006_Node000007" class="edge">
<title>Node6&#45;&gt;Node7</title>
<g id="a_edge6_Node000006_Node000007"><a xlink:title=" ">
<path fill="none" stroke="#63b8ff" d="M315.12,-223.37C305.6,-178.79 290.49,-108.1 282.03,-68.5"/>
<polygon fill="none" stroke="#63b8ff" points="311.65,-223.86 317.16,-232.9 318.49,-222.39 311.65,-223.86"/>
</a>
</g>
</g>
<!-- Node8 -->
<g id="Node000008" class="node">
<title>Node8</title>
<g id="a_Node000008"><a xlink:href="classstackchan_1_1display_1_1_omega_mouth.html" target="_top" xlink:title=" ">
<polygon fill="white" stroke="none" points="425.5,-68.62 338,-68.62 338,-7.62 425.5,-7.62 425.5,-68.62"/>
<text text-anchor="start" x="342" y="-55.12" font-family="Helvetica,sans-Serif" font-size="10.00">stackchan::display</text>
<text text-anchor="start" x="350.25" y="-43.88" font-family="Helvetica,sans-Serif" font-size="10.00">::OmegaMouth</text>
<text text-anchor="start" x="380.25" y="-28.62" font-family="Helvetica,sans-Serif" font-size="10.00"> </text>
<text text-anchor="start" x="352.62" y="-13.38" font-family="Helvetica,sans-Serif" font-size="10.00">+</text>
<text text-anchor="start" x="373.25" y="-13.38" font-family="Helvetica,sans-Serif" font-size="10.00">draw()</text>
<polygon fill="#bfbfbf" stroke="#bfbfbf" points="338,-40.12 338,-40.12 425.5,-40.12 425.5,-40.12 338,-40.12"/>
<polygon fill="#bfbfbf" stroke="#bfbfbf" points="338,-24.88 338,-24.88 425.5,-24.88 425.5,-24.88 338,-24.88"/>
<polygon fill="none" stroke="#bfbfbf" points="338,-7.62 338,-68.62 425.5,-68.62 425.5,-7.62 338,-7.62"/>
</a>
</g>
</g>
<!-- Node6&#45;&gt;Node8 -->
<g id="edge7_Node000006_Node000008" class="edge">
<title>Node6&#45;&gt;Node8</title>
<g id="a_edge7_Node000006_Node000008"><a xlink:title=" ">
<path fill="none" stroke="#63b8ff" d="M334.18,-223.37C345.69,-178.79 363.94,-108.1 374.17,-68.5"/>
<polygon fill="none" stroke="#63b8ff" points="330.82,-222.36 331.71,-232.92 337.6,-224.11 330.82,-222.36"/>
</a>
</g>
</g>
<!-- Node10 -->
<g id="Node000010" class="node">
<title>Node10</title>
<g id="a_Node000010"><a xlink:href="classstackchan_1_1display_1_1_ell_face.html" target="_top" xlink:title=" ">
<polygon fill="white" stroke="none" points="531.5,-68.62 444,-68.62 444,-7.62 531.5,-7.62 531.5,-68.62"/>
<text text-anchor="start" x="448" y="-55.12" font-family="Helvetica,sans-Serif" font-size="10.00">stackchan::display</text>
<text text-anchor="start" x="469.38" y="-43.88" font-family="Helvetica,sans-Serif" font-size="10.00">::EllFace</text>
<text text-anchor="start" x="486.25" y="-28.62" font-family="Helvetica,sans-Serif" font-size="10.00"> </text>
<text text-anchor="start" x="455.81" y="-13.38" font-family="Helvetica,sans-Serif" font-size="10.00">+</text>
<text text-anchor="start" x="473.62" y="-13.38" font-family="Helvetica,sans-Serif" font-size="10.00">EllFace()</text>
<polygon fill="#bfbfbf" stroke="#bfbfbf" points="444,-40.12 444,-40.12 531.5,-40.12 531.5,-40.12 444,-40.12"/>
<polygon fill="#bfbfbf" stroke="#bfbfbf" points="444,-24.88 444,-24.88 531.5,-24.88 531.5,-24.88 444,-24.88"/>
<polygon fill="none" stroke="#bfbfbf" points="444,-7.62 444,-68.62 531.5,-68.62 531.5,-7.62 444,-7.62"/>
</a>
</g>
</g>
<!-- Node9&#45;&gt;Node10 -->
<g id="edge9_Node000009_Node000010" class="edge">
<title>Node9&#45;&gt;Node10</title>
<g id="a_edge9_Node000009_Node000010"><a xlink:title=" ">
<path fill="none" stroke="#63b8ff" d="M487.75,-101.03C487.75,-88.97 487.75,-77.88 487.75,-68.53"/>
<polygon fill="none" stroke="#63b8ff" points="484.25,-100.85 487.75,-110.85 491.25,-100.85 484.25,-100.85"/>
</a>
</g>
</g>
<!-- Node11 -->
<g id="Node000011" class="node">
<title>Node11</title>
<g id="a_Node000011"><a xlink:href="classstackchan_1_1display_1_1_omega_face.html" target="_top" xlink:title=" ">
<polygon fill="white" stroke="none" points="637.5,-68.62 550,-68.62 550,-7.62 637.5,-7.62 637.5,-68.62"/>
<text text-anchor="start" x="554" y="-55.12" font-family="Helvetica,sans-Serif" font-size="10.00">stackchan::display</text>
<text text-anchor="start" x="564.88" y="-43.88" font-family="Helvetica,sans-Serif" font-size="10.00">::OmegaFace</text>
<text text-anchor="start" x="592.25" y="-28.62" font-family="Helvetica,sans-Serif" font-size="10.00"> </text>
<text text-anchor="start" x="556.56" y="-13.38" font-family="Helvetica,sans-Serif" font-size="10.00">+</text>
<text text-anchor="start" x="569.12" y="-13.38" font-family="Helvetica,sans-Serif" font-size="10.00">OmegaFace()</text>
<polygon fill="#bfbfbf" stroke="#bfbfbf" points="550,-40.12 550,-40.12 637.5,-40.12 637.5,-40.12 550,-40.12"/>
<polygon fill="#bfbfbf" stroke="#bfbfbf" points="550,-24.88 550,-24.88 637.5,-24.88 637.5,-24.88 550,-24.88"/>
<polygon fill="none" stroke="#bfbfbf" points="550,-7.62 550,-68.62 637.5,-68.62 637.5,-7.62 550,-7.62"/>
</a>
</g>
</g>
<!-- Node9&#45;&gt;Node11 -->
<g id="edge10_Node000009_Node000011" class="edge">
<title>Node9&#45;&gt;Node11</title>
<g id="a_edge10_Node000009_Node000011"><a xlink:title=" ">
<path fill="none" stroke="#63b8ff" d="M548.01,-136.06C559.95,-110.76 571.39,-86.52 579.84,-68.61"/>
<polygon fill="none" stroke="#63b8ff" points="544.98,-134.27 543.88,-144.81 551.31,-137.26 544.98,-134.27"/>
</a>
</g>
</g>
</g>
</svg>
