<?xml version="1.0" encoding="UTF-8" standalone="no"?>
<!DOCTYPE svg PUBLIC "-//W3C//DTD SVG 1.1//EN"
 "http://www.w3.org/Graphics/SVG/1.1/DTD/svg11.dtd">
<!-- Generated by graphviz version 12.2.0 (20241103.1931)
 -->
<!-- Title: stackchan::display::ToonEye2 Pages: 1 -->
<svg width="171pt" height="833pt"
 viewBox="0.00 0.00 170.75 832.75" xmlns="http://www.w3.org/2000/svg" xmlns:xlink="http://www.w3.org/1999/xlink">
<g id="graph0" class="graph" transform="scale(1 1) rotate(0) translate(4 828.75)">
<title>stackchan::display::ToonEye2</title>
<!-- Node1 -->
<g id="Node000001" class="node">
<title>Node1</title>
<g id="a_Node000001"><a xlink:title=" ">
<polygon fill="#999999" stroke="none" points="162.75,-152.5 0,-152.5 0,0 162.75,0 162.75,-152.5"/>
<text text-anchor="start" x="41.62" y="-139" font-family="Helvetica,sans-Serif" font-size="10.00">stackchan::display</text>
<text text-anchor="start" x="57.75" y="-127.75" font-family="Helvetica,sans-Serif" font-size="10.00">::ToonEye2</text>
<text text-anchor="start" x="79.88" y="-112.5" font-family="Helvetica,sans-Serif" font-size="10.00"> </text>
<text text-anchor="start" x="4" y="-97.25" font-family="Helvetica,sans-Serif" font-size="10.00">+</text>
<text text-anchor="start" x="14" y="-97.25" font-family="Helvetica,sans-Serif" font-size="10.00">drawIris()</text>
<text text-anchor="start" x="4" y="-82" font-family="Helvetica,sans-Serif" font-size="10.00">+</text>
<text text-anchor="start" x="14" y="-82" font-family="Helvetica,sans-Serif" font-size="10.00">drawEyelid()</text>
<text text-anchor="start" x="4" y="-66.75" font-family="Helvetica,sans-Serif" font-size="10.00">+</text>
<text text-anchor="start" x="14" y="-66.75" font-family="Helvetica,sans-Serif" font-size="10.00">drawEyeLash()</text>
<text text-anchor="start" x="4" y="-51.5" font-family="Helvetica,sans-Serif" font-size="10.00">+</text>
<text text-anchor="start" x="14" y="-51.5" font-family="Helvetica,sans-Serif" font-size="10.00">draw()</text>
<text text-anchor="start" x="4" y="-36.25" font-family="Helvetica,sans-Serif" font-size="10.00">+</text>
<text text-anchor="start" x="14" y="-36.25" font-family="Helvetica,sans-Serif" font-size="10.00">BaseEye()</text>
<text text-anchor="start" x="4.38" y="-21" font-family="Helvetica,sans-Serif" font-size="10.00">#</text>
<text text-anchor="start" x="14" y="-21" font-family="Helvetica,sans-Serif" font-size="10.00">computeEyelidBaseWaypoints()</text>
<text text-anchor="start" x="4.38" y="-5.75" font-family="Helvetica,sans-Serif" font-size="10.00">#</text>
<text text-anchor="start" x="14" y="-5.75" font-family="Helvetica,sans-Serif" font-size="10.00">computeEyelashBaseWaypoints()</text>
<polygon fill="#666666" stroke="#666666" points="0,-124 0,-124 162.75,-124 162.75,-124 0,-124"/>
<polygon fill="#666666" stroke="#666666" points="0,-108.75 0,-108.75 162.75,-108.75 162.75,-108.75 0,-108.75"/>
<polygon fill="none" stroke="#666666" points="0,0 0,-152.5 162.75,-152.5 162.75,0 0,0"/>
</a>
</g>
</g>
<!-- Node2 -->
<g id="Node000002" class="node">
<title>Node2</title>
<g id="a_Node000002"><a xlink:href="classstackchan_1_1display_1_1_base_eye.html" target="_top" xlink:title="Base class for Eye, draw nothing.">
<polygon fill="white" stroke="none" points="135.75,-386.75 27,-386.75 27,-188.5 135.75,-188.5 135.75,-386.75"/>
<text text-anchor="start" x="41.62" y="-373.25" font-family="Helvetica,sans-Serif" font-size="10.00">stackchan::display</text>
<text text-anchor="start" x="60" y="-362" font-family="Helvetica,sans-Serif" font-size="10.00">::BaseEye</text>
<text text-anchor="start" x="31.38" y="-346.75" font-family="Helvetica,sans-Serif" font-size="10.00">#</text>
<text text-anchor="start" x="41" y="-346.75" font-family="Helvetica,sans-Serif" font-size="10.00">is_left_</text>
<text text-anchor="start" x="31.38" y="-331.5" font-family="Helvetica,sans-Serif" font-size="10.00">#</text>
<text text-anchor="start" x="41" y="-331.5" font-family="Helvetica,sans-Serif" font-size="10.00">gaze_</text>
<text text-anchor="start" x="31.38" y="-316.25" font-family="Helvetica,sans-Serif" font-size="10.00">#</text>
<text text-anchor="start" x="41" y="-316.25" font-family="Helvetica,sans-Serif" font-size="10.00">iris_position_</text>
<text text-anchor="start" x="31.38" y="-301" font-family="Helvetica,sans-Serif" font-size="10.00">#</text>
<text text-anchor="start" x="41" y="-301" font-family="Helvetica,sans-Serif" font-size="10.00">milli_sec_</text>
<text text-anchor="start" x="31.38" y="-285.75" font-family="Helvetica,sans-Serif" font-size="10.00">#</text>
<text text-anchor="start" x="41" y="-285.75" font-family="Helvetica,sans-Serif" font-size="10.00">last_saccade_millis_</text>
<text text-anchor="start" x="31.38" y="-270.5" font-family="Helvetica,sans-Serif" font-size="10.00">#</text>
<text text-anchor="start" x="41" y="-270.5" font-family="Helvetica,sans-Serif" font-size="10.00">saccade_interval_</text>
<text text-anchor="start" x="31.38" y="-255.25" font-family="Helvetica,sans-Serif" font-size="10.00">#</text>
<text text-anchor="start" x="41" y="-255.25" font-family="Helvetica,sans-Serif" font-size="10.00">saccade_noise_</text>
<text text-anchor="start" x="31" y="-240" font-family="Helvetica,sans-Serif" font-size="10.00">+</text>
<text text-anchor="start" x="41" y="-240" font-family="Helvetica,sans-Serif" font-size="10.00">BaseEye()</text>
<text text-anchor="start" x="31.38" y="-224.75" font-family="Helvetica,sans-Serif" font-size="10.00">#</text>
<text text-anchor="start" x="41" y="-224.75" font-family="Helvetica,sans-Serif" font-size="10.00">updateGaze()</text>
<text text-anchor="start" x="31.38" y="-209.5" font-family="Helvetica,sans-Serif" font-size="10.00">#</text>
<text text-anchor="start" x="41" y="-209.5" font-family="Helvetica,sans-Serif" font-size="10.00">updateSaccade()</text>
<text text-anchor="start" x="31.38" y="-194.25" font-family="Helvetica,sans-Serif" font-size="10.00">#</text>
<text text-anchor="start" x="41" y="-194.25" font-family="Helvetica,sans-Serif" font-size="10.00">calculateOpenRatio()</text>
<polygon fill="#666666" stroke="#666666" points="27,-358.25 27,-358.25 135.75,-358.25 135.75,-358.25 27,-358.25"/>
<polygon fill="#666666" stroke="#666666" points="27,-251.5 27,-251.5 39,-251.5 39,-251.5 27,-251.5"/>
<polygon fill="#666666" stroke="#666666" points="39,-251.5 39,-251.5 135.75,-251.5 135.75,-251.5 39,-251.5"/>
<polygon fill="none" stroke="#666666" points="27,-188.5 27,-386.75 135.75,-386.75 135.75,-188.5 27,-188.5"/>
</a>
</g>
</g>
<!-- Node2&#45;&gt;Node1 -->
<g id="edge1_Node000001_Node000002" class="edge">
<title>Node2&#45;&gt;Node1</title>
<g id="a_edge1_Node000001_Node000002"><a xlink:title=" ">
<path fill="none" stroke="#63b8ff" d="M81.38,-177.19C81.38,-168.77 81.38,-160.39 81.38,-152.27"/>
<polygon fill="none" stroke="#63b8ff" points="77.88,-177.17 81.38,-187.17 84.88,-177.17 77.88,-177.17"/>
</a>
</g>
</g>
<!-- Node3 -->
<g id="Node000003" class="node">
<title>Node3</title>
<g id="a_Node000003"><a xlink:href="classstackchan_1_1display_1_1_facial_drawable.html" target="_top" xlink:title=" ">
<polygon fill="white" stroke="none" points="125.12,-514.25 37.62,-514.25 37.62,-422.75 125.12,-422.75 125.12,-514.25"/>
<text text-anchor="start" x="41.62" y="-500.75" font-family="Helvetica,sans-Serif" font-size="10.00">stackchan::display</text>
<text text-anchor="start" x="45.75" y="-489.5" font-family="Helvetica,sans-Serif" font-size="10.00">::FacialDrawable</text>
<text text-anchor="start" x="79.88" y="-474.25" font-family="Helvetica,sans-Serif" font-size="10.00"> </text>
<text text-anchor="start" x="47.38" y="-459" font-family="Helvetica,sans-Serif" font-size="10.00">+</text>
<text text-anchor="start" x="63.12" y="-459" font-family="Helvetica,sans-Serif" font-size="10.00">draw()</text>
<text text-anchor="start" x="47.38" y="-443.75" font-family="Helvetica,sans-Serif" font-size="10.00">+</text>
<text text-anchor="start" x="63.12" y="-443.75" font-family="Helvetica,sans-Serif" font-size="10.00">Drawable()</text>
<text text-anchor="start" x="47.38" y="-428.5" font-family="Helvetica,sans-Serif" font-size="10.00">+</text>
<text text-anchor="start" x="63.12" y="-428.5" font-family="Helvetica,sans-Serif" font-size="10.00">Drawable()</text>
<polygon fill="#bfbfbf" stroke="#bfbfbf" points="37.62,-485.75 37.62,-485.75 125.12,-485.75 125.12,-485.75 37.62,-485.75"/>
<polygon fill="#bfbfbf" stroke="#bfbfbf" points="37.62,-470.5 37.62,-470.5 125.12,-470.5 125.12,-470.5 37.62,-470.5"/>
<polygon fill="none" stroke="#bfbfbf" points="37.62,-422.75 37.62,-514.25 125.12,-514.25 125.12,-422.75 37.62,-422.75"/>
</a>
</g>
</g>
<!-- Node3&#45;&gt;Node2 -->
<g id="edge2_Node000002_Node000003" class="edge">
<title>Node3&#45;&gt;Node2</title>
<g id="a_edge2_Node000002_Node000003"><a xlink:title=" ">
<path fill="none" stroke="#63b8ff" d="M81.38,-411.45C81.38,-403.46 81.38,-395.06 81.38,-386.55"/>
<polygon fill="none" stroke="#63b8ff" points="77.88,-411.31 81.38,-421.31 84.88,-411.31 77.88,-411.31"/>
</a>
</g>
</g>
<!-- Node4 -->
<g id="Node000004" class="node">
<title>Node4</title>
<g id="a_Node000004"><a xlink:href="classstackchan_1_1display_1_1_drawable.html" target="_top" xlink:title=" ">
<polygon fill="white" stroke="none" points="132,-824.75 30.75,-824.75 30.75,-550.25 132,-550.25 132,-824.75"/>
<text text-anchor="start" x="41.62" y="-811.25" font-family="Helvetica,sans-Serif" font-size="10.00">stackchan::display</text>
<text text-anchor="start" x="58.88" y="-800" font-family="Helvetica,sans-Serif" font-size="10.00">::Drawable</text>
<text text-anchor="start" x="35.12" y="-784.75" font-family="Helvetica,sans-Serif" font-size="10.00">#</text>
<text text-anchor="start" x="44.75" y="-784.75" font-family="Helvetica,sans-Serif" font-size="10.00">position_</text>
<text text-anchor="start" x="35.12" y="-769.5" font-family="Helvetica,sans-Serif" font-size="10.00">#</text>
<text text-anchor="start" x="44.75" y="-769.5" font-family="Helvetica,sans-Serif" font-size="10.00">rotation_</text>
<text text-anchor="start" x="35.12" y="-754.25" font-family="Helvetica,sans-Serif" font-size="10.00">#</text>
<text text-anchor="start" x="44.75" y="-754.25" font-family="Helvetica,sans-Serif" font-size="10.00">size_</text>
<text text-anchor="start" x="35.12" y="-739" font-family="Helvetica,sans-Serif" font-size="10.00">#</text>
<text text-anchor="start" x="44.75" y="-739" font-family="Helvetica,sans-Serif" font-size="10.00">visible_</text>
<text text-anchor="start" x="35.12" y="-723.75" font-family="Helvetica,sans-Serif" font-size="10.00">#</text>
<text text-anchor="start" x="44.75" y="-723.75" font-family="Helvetica,sans-Serif" font-size="10.00">ignore_expression_</text>
<text text-anchor="start" x="34.75" y="-708.5" font-family="Helvetica,sans-Serif" font-size="10.00">+</text>
<text text-anchor="start" x="44.75" y="-708.5" font-family="Helvetica,sans-Serif" font-size="10.00">Drawable()</text>
<text text-anchor="start" x="34.75" y="-693.25" font-family="Helvetica,sans-Serif" font-size="10.00">+</text>
<text text-anchor="start" x="44.75" y="-693.25" font-family="Helvetica,sans-Serif" font-size="10.00">Drawable()</text>
<text text-anchor="start" x="34.75" y="-678" font-family="Helvetica,sans-Serif" font-size="10.00">+</text>
<text text-anchor="start" x="44.75" y="-678" font-family="Helvetica,sans-Serif" font-size="10.00">~Drawable()</text>
<text text-anchor="start" x="34.75" y="-662.75" font-family="Helvetica,sans-Serif" font-size="10.00">+</text>
<text text-anchor="start" x="44.75" y="-662.75" font-family="Helvetica,sans-Serif" font-size="10.00">setPosition()</text>
<text text-anchor="start" x="34.75" y="-647.5" font-family="Helvetica,sans-Serif" font-size="10.00">+</text>
<text text-anchor="start" x="44.75" y="-647.5" font-family="Helvetica,sans-Serif" font-size="10.00">getPosition()</text>
<text text-anchor="start" x="34.75" y="-632.25" font-family="Helvetica,sans-Serif" font-size="10.00">+</text>
<text text-anchor="start" x="44.75" y="-632.25" font-family="Helvetica,sans-Serif" font-size="10.00">setRotation()</text>
<text text-anchor="start" x="34.75" y="-617" font-family="Helvetica,sans-Serif" font-size="10.00">+</text>
<text text-anchor="start" x="44.75" y="-617" font-family="Helvetica,sans-Serif" font-size="10.00">getRotation()</text>
<text text-anchor="start" x="34.75" y="-601.75" font-family="Helvetica,sans-Serif" font-size="10.00">+</text>
<text text-anchor="start" x="44.75" y="-601.75" font-family="Helvetica,sans-Serif" font-size="10.00">setSize()</text>
<text text-anchor="start" x="34.75" y="-586.5" font-family="Helvetica,sans-Serif" font-size="10.00">+</text>
<text text-anchor="start" x="44.75" y="-586.5" font-family="Helvetica,sans-Serif" font-size="10.00">getSize()</text>
<text text-anchor="start" x="34.75" y="-571.25" font-family="Helvetica,sans-Serif" font-size="10.00">+</text>
<text text-anchor="start" x="44.75" y="-571.25" font-family="Helvetica,sans-Serif" font-size="10.00">setVisible()</text>
<text text-anchor="start" x="44.75" y="-556" font-family="Helvetica,sans-Serif" font-size="10.00">and 7 more...</text>
<polygon fill="#bfbfbf" stroke="#bfbfbf" points="30.75,-796.25 30.75,-796.25 132,-796.25 132,-796.25 30.75,-796.25"/>
<polygon fill="#bfbfbf" stroke="#bfbfbf" points="30.75,-720 30.75,-720 42.75,-720 42.75,-720 30.75,-720"/>
<polygon fill="#bfbfbf" stroke="#bfbfbf" points="42.75,-720 42.75,-720 132,-720 132,-720 42.75,-720"/>
<polygon fill="none" stroke="#bfbfbf" points="30.75,-550.25 30.75,-824.75 132,-824.75 132,-550.25 30.75,-550.25"/>
</a>
</g>
</g>
<!-- Node4&#45;&gt;Node3 -->
<g id="edge3_Node000003_Node000004" class="edge">
<title>Node4&#45;&gt;Node3</title>
<g id="a_edge3_Node000003_Node000004"><a xlink:title=" ">
<path fill="none" stroke="#63b8ff" d="M81.38,-538.95C81.38,-530.13 81.38,-521.71 81.38,-513.97"/>
<polygon fill="none" stroke="#63b8ff" points="77.88,-538.79 81.38,-548.79 84.88,-538.79 77.88,-538.79"/>
</a>
</g>
</g>
</g>
</svg>
