<?xml version="1.0" encoding="UTF-8" standalone="no"?>
<!DOCTYPE svg PUBLIC "-//W3C//DTD SVG 1.1//EN"
 "http://www.w3.org/Graphics/SVG/1.1/DTD/svg11.dtd">
<!-- Generated by graphviz version 12.2.0 (20241103.1931)
 -->
<!-- Title: stackchan::display::OmegaFace Pages: 1 -->
<svg width="119pt" height="848pt"
 viewBox="0.00 0.00 119.00 848.00" xmlns="http://www.w3.org/2000/svg" xmlns:xlink="http://www.w3.org/1999/xlink">
<g id="graph0" class="graph" transform="scale(1 1) rotate(0) translate(4 844)">
<title>stackchan::display::OmegaFace</title>
<!-- Node1 -->
<g id="Node000001" class="node">
<title>Node1</title>
<g id="a_Node000001"><a xlink:title=" ">
<polygon fill="#999999" stroke="none" points="99.25,-61 11.75,-61 11.75,0 99.25,0 99.25,-61"/>
<text text-anchor="start" x="15.75" y="-47.5" font-family="Helvetica,sans-Serif" font-size="10.00">stackchan::display</text>
<text text-anchor="start" x="26.62" y="-36.25" font-family="Helvetica,sans-Serif" font-size="10.00">::OmegaFace</text>
<text text-anchor="start" x="54" y="-21" font-family="Helvetica,sans-Serif" font-size="10.00"> </text>
<text text-anchor="start" x="18.31" y="-5.75" font-family="Helvetica,sans-Serif" font-size="10.00">+</text>
<text text-anchor="start" x="30.88" y="-5.75" font-family="Helvetica,sans-Serif" font-size="10.00">OmegaFace()</text>
<polygon fill="#666666" stroke="#666666" points="11.75,-32.5 11.75,-32.5 99.25,-32.5 99.25,-32.5 11.75,-32.5"/>
<polygon fill="#666666" stroke="#666666" points="11.75,-17.25 11.75,-17.25 99.25,-17.25 99.25,-17.25 11.75,-17.25"/>
<polygon fill="none" stroke="#666666" points="11.75,0 11.75,-61 99.25,-61 99.25,0 11.75,0"/>
</a>
</g>
</g>
<!-- Node2 -->
<g id="Node000002" class="node">
<title>Node2</title>
<g id="a_Node000002"><a xlink:href="classstackchan_1_1display_1_1_face.html" target="_top" xlink:title=" ">
<polygon fill="white" stroke="none" points="111,-402 0,-402 0,-97 111,-97 111,-402"/>
<text text-anchor="start" x="15.75" y="-388.5" font-family="Helvetica,sans-Serif" font-size="10.00">stackchan::display</text>
<text text-anchor="start" x="42.38" y="-377.25" font-family="Helvetica,sans-Serif" font-size="10.00">::Face</text>
<text text-anchor="start" x="4.38" y="-362" font-family="Helvetica,sans-Serif" font-size="10.00">#</text>
<text text-anchor="start" x="14" y="-362" font-family="Helvetica,sans-Serif" font-size="10.00">is_auto_blink_</text>
<text text-anchor="start" x="4.38" y="-346.75" font-family="Helvetica,sans-Serif" font-size="10.00">#</text>
<text text-anchor="start" x="14" y="-346.75" font-family="Helvetica,sans-Serif" font-size="10.00">auto_blink_interval_</text>
<text text-anchor="start" x="4.38" y="-331.5" font-family="Helvetica,sans-Serif" font-size="10.00">#</text>
<text text-anchor="start" x="14" y="-331.5" font-family="Helvetica,sans-Serif" font-size="10.00">last_blink_time_</text>
<text text-anchor="start" x="4.38" y="-316.25" font-family="Helvetica,sans-Serif" font-size="10.00">#</text>
<text text-anchor="start" x="14" y="-316.25" font-family="Helvetica,sans-Serif" font-size="10.00">blink_duration_</text>
<text text-anchor="start" x="4.38" y="-301" font-family="Helvetica,sans-Serif" font-size="10.00">#</text>
<text text-anchor="start" x="14" y="-301" font-family="Helvetica,sans-Serif" font-size="10.00">breath_frequency_</text>
<text text-anchor="start" x="4.38" y="-285.75" font-family="Helvetica,sans-Serif" font-size="10.00">#</text>
<text text-anchor="start" x="14" y="-285.75" font-family="Helvetica,sans-Serif" font-size="10.00">left_eye_</text>
<text text-anchor="start" x="4.38" y="-270.5" font-family="Helvetica,sans-Serif" font-size="10.00">#</text>
<text text-anchor="start" x="14" y="-270.5" font-family="Helvetica,sans-Serif" font-size="10.00">right_eye_</text>
<text text-anchor="start" x="4.38" y="-255.25" font-family="Helvetica,sans-Serif" font-size="10.00">#</text>
<text text-anchor="start" x="14" y="-255.25" font-family="Helvetica,sans-Serif" font-size="10.00">mouth_</text>
<text text-anchor="start" x="4" y="-240" font-family="Helvetica,sans-Serif" font-size="10.00">+</text>
<text text-anchor="start" x="14" y="-240" font-family="Helvetica,sans-Serif" font-size="10.00">Face()</text>
<text text-anchor="start" x="4" y="-224.75" font-family="Helvetica,sans-Serif" font-size="10.00">+</text>
<text text-anchor="start" x="14" y="-224.75" font-family="Helvetica,sans-Serif" font-size="10.00">Face()</text>
<text text-anchor="start" x="4" y="-209.5" font-family="Helvetica,sans-Serif" font-size="10.00">+</text>
<text text-anchor="start" x="14" y="-209.5" font-family="Helvetica,sans-Serif" font-size="10.00">getLeftEye()</text>
<text text-anchor="start" x="4" y="-194.25" font-family="Helvetica,sans-Serif" font-size="10.00">+</text>
<text text-anchor="start" x="14" y="-194.25" font-family="Helvetica,sans-Serif" font-size="10.00">getRightEye()</text>
<text text-anchor="start" x="4" y="-179" font-family="Helvetica,sans-Serif" font-size="10.00">+</text>
<text text-anchor="start" x="14" y="-179" font-family="Helvetica,sans-Serif" font-size="10.00">getMouth()</text>
<text text-anchor="start" x="4" y="-163.75" font-family="Helvetica,sans-Serif" font-size="10.00">+</text>
<text text-anchor="start" x="14" y="-163.75" font-family="Helvetica,sans-Serif" font-size="10.00">activateAutoBlink()</text>
<text text-anchor="start" x="4" y="-148.5" font-family="Helvetica,sans-Serif" font-size="10.00">+</text>
<text text-anchor="start" x="14" y="-148.5" font-family="Helvetica,sans-Serif" font-size="10.00">deactivateAutoBlink()</text>
<text text-anchor="start" x="4" y="-133.25" font-family="Helvetica,sans-Serif" font-size="10.00">+</text>
<text text-anchor="start" x="14" y="-133.25" font-family="Helvetica,sans-Serif" font-size="10.00">getIsAutoBlink()</text>
<text text-anchor="start" x="4" y="-118" font-family="Helvetica,sans-Serif" font-size="10.00">+</text>
<text text-anchor="start" x="14" y="-118" font-family="Helvetica,sans-Serif" font-size="10.00">updateState()</text>
<text text-anchor="start" x="4" y="-102.75" font-family="Helvetica,sans-Serif" font-size="10.00">+</text>
<text text-anchor="start" x="14" y="-102.75" font-family="Helvetica,sans-Serif" font-size="10.00">draw()</text>
<polygon fill="#bfbfbf" stroke="#bfbfbf" points="0,-373.5 0,-373.5 111,-373.5 111,-373.5 0,-373.5"/>
<polygon fill="#bfbfbf" stroke="#bfbfbf" points="0,-251.5 0,-251.5 12,-251.5 12,-251.5 0,-251.5"/>
<polygon fill="#bfbfbf" stroke="#bfbfbf" points="12,-251.5 12,-251.5 111,-251.5 111,-251.5 12,-251.5"/>
<polygon fill="none" stroke="#bfbfbf" points="0,-97 0,-402 111,-402 111,-97 0,-97"/>
</a>
</g>
</g>
<!-- Node2&#45;&gt;Node1 -->
<g id="edge1_Node000001_Node000002" class="edge">
<title>Node2&#45;&gt;Node1</title>
<g id="a_edge1_Node000001_Node000002"><a xlink:title=" ">
<path fill="none" stroke="#63b8ff" d="M55.5,-85.78C55.5,-76.68 55.5,-68.27 55.5,-60.92"/>
<polygon fill="none" stroke="#63b8ff" points="52,-85.68 55.5,-95.68 59,-85.68 52,-85.68"/>
</a>
</g>
</g>
<!-- Node3 -->
<g id="Node000003" class="node">
<title>Node3</title>
<g id="a_Node000003"><a xlink:href="classstackchan_1_1display_1_1_facial_drawable.html" target="_top" xlink:title=" ">
<polygon fill="white" stroke="none" points="99.25,-529.5 11.75,-529.5 11.75,-438 99.25,-438 99.25,-529.5"/>
<text text-anchor="start" x="15.75" y="-516" font-family="Helvetica,sans-Serif" font-size="10.00">stackchan::display</text>
<text text-anchor="start" x="19.88" y="-504.75" font-family="Helvetica,sans-Serif" font-size="10.00">::FacialDrawable</text>
<text text-anchor="start" x="54" y="-489.5" font-family="Helvetica,sans-Serif" font-size="10.00"> </text>
<text text-anchor="start" x="21.5" y="-474.25" font-family="Helvetica,sans-Serif" font-size="10.00">+</text>
<text text-anchor="start" x="37.25" y="-474.25" font-family="Helvetica,sans-Serif" font-size="10.00">draw()</text>
<text text-anchor="start" x="21.5" y="-459" font-family="Helvetica,sans-Serif" font-size="10.00">+</text>
<text text-anchor="start" x="37.25" y="-459" font-family="Helvetica,sans-Serif" font-size="10.00">Drawable()</text>
<text text-anchor="start" x="21.5" y="-443.75" font-family="Helvetica,sans-Serif" font-size="10.00">+</text>
<text text-anchor="start" x="37.25" y="-443.75" font-family="Helvetica,sans-Serif" font-size="10.00">Drawable()</text>
<polygon fill="#bfbfbf" stroke="#bfbfbf" points="11.75,-501 11.75,-501 99.25,-501 99.25,-501 11.75,-501"/>
<polygon fill="#bfbfbf" stroke="#bfbfbf" points="11.75,-485.75 11.75,-485.75 99.25,-485.75 99.25,-485.75 11.75,-485.75"/>
<polygon fill="none" stroke="#bfbfbf" points="11.75,-438 11.75,-529.5 99.25,-529.5 99.25,-438 11.75,-438"/>
</a>
</g>
</g>
<!-- Node3&#45;&gt;Node2 -->
<g id="edge2_Node000002_Node000003" class="edge">
<title>Node3&#45;&gt;Node2</title>
<g id="a_edge2_Node000002_Node000003"><a xlink:title=" ">
<path fill="none" stroke="#63b8ff" d="M55.5,-426.92C55.5,-418.92 55.5,-410.38 55.5,-401.55"/>
<polygon fill="none" stroke="#63b8ff" points="52,-426.73 55.5,-436.73 59,-426.73 52,-426.73"/>
</a>
</g>
</g>
<!-- Node4 -->
<g id="Node000004" class="node">
<title>Node4</title>
<g id="a_Node000004"><a xlink:href="classstackchan_1_1display_1_1_drawable.html" target="_top" xlink:title=" ">
<polygon fill="white" stroke="none" points="106.12,-840 4.88,-840 4.88,-565.5 106.12,-565.5 106.12,-840"/>
<text text-anchor="start" x="15.75" y="-826.5" font-family="Helvetica,sans-Serif" font-size="10.00">stackchan::display</text>
<text text-anchor="start" x="33" y="-815.25" font-family="Helvetica,sans-Serif" font-size="10.00">::Drawable</text>
<text text-anchor="start" x="9.25" y="-800" font-family="Helvetica,sans-Serif" font-size="10.00">#</text>
<text text-anchor="start" x="18.88" y="-800" font-family="Helvetica,sans-Serif" font-size="10.00">position_</text>
<text text-anchor="start" x="9.25" y="-784.75" font-family="Helvetica,sans-Serif" font-size="10.00">#</text>
<text text-anchor="start" x="18.88" y="-784.75" font-family="Helvetica,sans-Serif" font-size="10.00">rotation_</text>
<text text-anchor="start" x="9.25" y="-769.5" font-family="Helvetica,sans-Serif" font-size="10.00">#</text>
<text text-anchor="start" x="18.88" y="-769.5" font-family="Helvetica,sans-Serif" font-size="10.00">size_</text>
<text text-anchor="start" x="9.25" y="-754.25" font-family="Helvetica,sans-Serif" font-size="10.00">#</text>
<text text-anchor="start" x="18.88" y="-754.25" font-family="Helvetica,sans-Serif" font-size="10.00">visible_</text>
<text text-anchor="start" x="9.25" y="-739" font-family="Helvetica,sans-Serif" font-size="10.00">#</text>
<text text-anchor="start" x="18.88" y="-739" font-family="Helvetica,sans-Serif" font-size="10.00">ignore_expression_</text>
<text text-anchor="start" x="8.88" y="-723.75" font-family="Helvetica,sans-Serif" font-size="10.00">+</text>
<text text-anchor="start" x="18.88" y="-723.75" font-family="Helvetica,sans-Serif" font-size="10.00">Drawable()</text>
<text text-anchor="start" x="8.88" y="-708.5" font-family="Helvetica,sans-Serif" font-size="10.00">+</text>
<text text-anchor="start" x="18.88" y="-708.5" font-family="Helvetica,sans-Serif" font-size="10.00">Drawable()</text>
<text text-anchor="start" x="8.88" y="-693.25" font-family="Helvetica,sans-Serif" font-size="10.00">+</text>
<text text-anchor="start" x="18.88" y="-693.25" font-family="Helvetica,sans-Serif" font-size="10.00">~Drawable()</text>
<text text-anchor="start" x="8.88" y="-678" font-family="Helvetica,sans-Serif" font-size="10.00">+</text>
<text text-anchor="start" x="18.88" y="-678" font-family="Helvetica,sans-Serif" font-size="10.00">setPosition()</text>
<text text-anchor="start" x="8.88" y="-662.75" font-family="Helvetica,sans-Serif" font-size="10.00">+</text>
<text text-anchor="start" x="18.88" y="-662.75" font-family="Helvetica,sans-Serif" font-size="10.00">getPosition()</text>
<text text-anchor="start" x="8.88" y="-647.5" font-family="Helvetica,sans-Serif" font-size="10.00">+</text>
<text text-anchor="start" x="18.88" y="-647.5" font-family="Helvetica,sans-Serif" font-size="10.00">setRotation()</text>
<text text-anchor="start" x="8.88" y="-632.25" font-family="Helvetica,sans-Serif" font-size="10.00">+</text>
<text text-anchor="start" x="18.88" y="-632.25" font-family="Helvetica,sans-Serif" font-size="10.00">getRotation()</text>
<text text-anchor="start" x="8.88" y="-617" font-family="Helvetica,sans-Serif" font-size="10.00">+</text>
<text text-anchor="start" x="18.88" y="-617" font-family="Helvetica,sans-Serif" font-size="10.00">setSize()</text>
<text text-anchor="start" x="8.88" y="-601.75" font-family="Helvetica,sans-Serif" font-size="10.00">+</text>
<text text-anchor="start" x="18.88" y="-601.75" font-family="Helvetica,sans-Serif" font-size="10.00">getSize()</text>
<text text-anchor="start" x="8.88" y="-586.5" font-family="Helvetica,sans-Serif" font-size="10.00">+</text>
<text text-anchor="start" x="18.88" y="-586.5" font-family="Helvetica,sans-Serif" font-size="10.00">setVisible()</text>
<text text-anchor="start" x="18.88" y="-571.25" font-family="Helvetica,sans-Serif" font-size="10.00">and 7 more...</text>
<polygon fill="#bfbfbf" stroke="#bfbfbf" points="4.88,-811.5 4.88,-811.5 106.12,-811.5 106.12,-811.5 4.88,-811.5"/>
<polygon fill="#bfbfbf" stroke="#bfbfbf" points="4.88,-735.25 4.88,-735.25 16.88,-735.25 16.88,-735.25 4.88,-735.25"/>
<polygon fill="#bfbfbf" stroke="#bfbfbf" points="16.88,-735.25 16.88,-735.25 106.12,-735.25 106.12,-735.25 16.88,-735.25"/>
<polygon fill="none" stroke="#bfbfbf" points="4.88,-565.5 4.88,-840 106.12,-840 106.12,-565.5 4.88,-565.5"/>
</a>
</g>
</g>
<!-- Node4&#45;&gt;Node3 -->
<g id="edge3_Node000003_Node000004" class="edge">
<title>Node4&#45;&gt;Node3</title>
<g id="a_edge3_Node000003_Node000004"><a xlink:title=" ">
<path fill="none" stroke="#63b8ff" d="M55.5,-554.2C55.5,-545.38 55.5,-536.96 55.5,-529.22"/>
<polygon fill="none" stroke="#63b8ff" points="52,-554.04 55.5,-564.04 59,-554.04 52,-554.04"/>
</a>
</g>
</g>
</g>
</svg>
