<?xml version="1.0" encoding="UTF-8" standalone="no"?>
<!DOCTYPE svg PUBLIC "-//W3C//DTD SVG 1.1//EN"
 "http://www.w3.org/Graphics/SVG/1.1/DTD/svg11.dtd">
<!-- Generated by graphviz version 12.2.0 (20241103.1931)
 -->
<!-- Title: Graphical Class Hierarchy Pages: 1 -->
<svg width="518pt" height="272pt"
 viewBox="0.00 0.00 518.25 271.50" xmlns="http://www.w3.org/2000/svg" xmlns:xlink="http://www.w3.org/1999/xlink">
<g id="graph0" class="graph" transform="scale(1 1) rotate(0) translate(4 267.5)">
<title>Graphical Class Hierarchy</title>
<!-- Node0 -->
<g id="Node000000" class="node">
<title>Node0</title>
<g id="a_Node000000"><a xlink:href="classstackchan_1_1display_1_1_drawable.html" target="_top" xlink:title=" ">
<polygon fill="white" stroke="#666666" points="95.5,-125.5 0,-125.5 0,-95 95.5,-95 95.5,-125.5"/>
<text text-anchor="start" x="8" y="-112" font-family="Helvetica,sans-Serif" font-size="10.00">stackchan::display</text>
<text text-anchor="middle" x="47.75" y="-100.75" font-family="Helvetica,sans-Serif" font-size="10.00">::Drawable</text>
</a>
</g>
</g>
<!-- Node1 -->
<g id="Node000001" class="node">
<title>Node1</title>
<g id="a_Node000001"><a xlink:href="classstackchan_1_1display_1_1_facial_drawable.html" target="_top" xlink:title=" ">
<polygon fill="white" stroke="#666666" points="227,-150.5 131.5,-150.5 131.5,-120 227,-120 227,-150.5"/>
<text text-anchor="start" x="139.5" y="-137" font-family="Helvetica,sans-Serif" font-size="10.00">stackchan::display</text>
<text text-anchor="middle" x="179.25" y="-125.75" font-family="Helvetica,sans-Serif" font-size="10.00">::FacialDrawable</text>
</a>
</g>
</g>
<!-- Node0&#45;&gt;Node1 -->
<g id="edge1_Node000000_Node000001" class="edge">
<title>Node0&#45;&gt;Node1</title>
<g id="a_edge1_Node000000_Node000001"><a xlink:title=" ">
<path fill="none" stroke="#63b8ff" d="M106.9,-121.48C115.1,-123.06 123.44,-124.67 131.38,-126.2"/>
<polygon fill="#63b8ff" stroke="#63b8ff" points="107.84,-118.09 97.35,-119.63 106.51,-124.97 107.84,-118.09"/>
</a>
</g>
</g>
<!-- Node11 -->
<g id="Node000011" class="node">
<title>Node11</title>
<g id="a_Node000011"><a xlink:href="classstackchan_1_1display_1_1_speech_balloon.html" target="_top" xlink:title=" ">
<polygon fill="white" stroke="#666666" points="227,-101.5 131.5,-101.5 131.5,-71 227,-71 227,-101.5"/>
<text text-anchor="start" x="139.5" y="-88" font-family="Helvetica,sans-Serif" font-size="10.00">stackchan::display</text>
<text text-anchor="middle" x="179.25" y="-76.75" font-family="Helvetica,sans-Serif" font-size="10.00">::SpeechBalloon</text>
</a>
</g>
</g>
<!-- Node0&#45;&gt;Node11 -->
<g id="edge11_Node000000_Node000011" class="edge">
<title>Node0&#45;&gt;Node11</title>
<g id="a_edge11_Node000000_Node000011"><a xlink:title=" ">
<path fill="none" stroke="#63b8ff" d="M107.18,-99.42C115.29,-97.92 123.53,-96.39 131.38,-94.94"/>
<polygon fill="#63b8ff" stroke="#63b8ff" points="106.55,-95.98 97.36,-101.24 107.83,-102.86 106.55,-95.98"/>
</a>
</g>
</g>
<!-- Node2 -->
<g id="Node000002" class="node">
<title>Node2</title>
<g id="a_Node000002"><a xlink:href="classstackchan_1_1display_1_1_base_eye.html" target="_top" xlink:title="Base class for Eye, draw nothing.">
<polygon fill="white" stroke="#666666" points="358.5,-220.5 263,-220.5 263,-190 358.5,-190 358.5,-220.5"/>
<text text-anchor="start" x="271" y="-207" font-family="Helvetica,sans-Serif" font-size="10.00">stackchan::display</text>
<text text-anchor="middle" x="310.75" y="-195.75" font-family="Helvetica,sans-Serif" font-size="10.00">::BaseEye</text>
</a>
</g>
</g>
<!-- Node1&#45;&gt;Node2 -->
<g id="edge2_Node000001_Node000002" class="edge">
<title>Node1&#45;&gt;Node2</title>
<g id="a_edge2_Node000001_Node000002"><a xlink:title=" ">
<path fill="none" stroke="#63b8ff" d="M219.26,-156.33C239.04,-167.03 262.64,-179.79 280.78,-189.59"/>
<polygon fill="#63b8ff" stroke="#63b8ff" points="221.11,-153.36 210.64,-151.68 217.78,-159.51 221.11,-153.36"/>
</a>
</g>
</g>
<!-- Node5 -->
<g id="Node000005" class="node">
<title>Node5</title>
<g id="a_Node000005"><a xlink:href="classstackchan_1_1display_1_1_base_mouth.html" target="_top" xlink:title=" ">
<polygon fill="white" stroke="#666666" points="358.5,-150.5 263,-150.5 263,-120 358.5,-120 358.5,-150.5"/>
<text text-anchor="start" x="271" y="-137" font-family="Helvetica,sans-Serif" font-size="10.00">stackchan::display</text>
<text text-anchor="middle" x="310.75" y="-125.75" font-family="Helvetica,sans-Serif" font-size="10.00">::BaseMouth</text>
</a>
</g>
</g>
<!-- Node1&#45;&gt;Node5 -->
<g id="edge5_Node000001_Node000005" class="edge">
<title>Node1&#45;&gt;Node5</title>
<g id="a_edge5_Node000001_Node000005"><a xlink:title=" ">
<path fill="none" stroke="#63b8ff" d="M238.68,-135.25C246.79,-135.25 255.03,-135.25 262.88,-135.25"/>
<polygon fill="#63b8ff" stroke="#63b8ff" points="238.88,-131.75 228.88,-135.25 238.88,-138.75 238.88,-131.75"/>
</a>
</g>
</g>
<!-- Node8 -->
<g id="Node000008" class="node">
<title>Node8</title>
<g id="a_Node000008"><a xlink:href="classstackchan_1_1display_1_1_face.html" target="_top" xlink:title=" ">
<polygon fill="white" stroke="#666666" points="358.5,-79.5 263,-79.5 263,-49 358.5,-49 358.5,-79.5"/>
<text text-anchor="start" x="271" y="-66" font-family="Helvetica,sans-Serif" font-size="10.00">stackchan::display</text>
<text text-anchor="middle" x="310.75" y="-54.75" font-family="Helvetica,sans-Serif" font-size="10.00">::Face</text>
</a>
</g>
</g>
<!-- Node1&#45;&gt;Node8 -->
<g id="edge8_Node000001_Node000008" class="edge">
<title>Node1&#45;&gt;Node8</title>
<g id="a_edge8_Node000001_Node000008"><a xlink:title=" ">
<path fill="none" stroke="#63b8ff" d="M219.4,-114.38C221.97,-112.98 224.53,-111.6 227,-110.25 245.33,-100.26 265.84,-88.86 281.85,-79.91"/>
<polygon fill="#63b8ff" stroke="#63b8ff" points="217.95,-111.18 210.8,-119 221.26,-117.35 217.95,-111.18"/>
</a>
</g>
</g>
<!-- Node3 -->
<g id="Node000003" class="node">
<title>Node3</title>
<g id="a_Node000003"><a xlink:href="classstackchan_1_1display_1_1_ellipse_eye.html" target="_top" xlink:title=" ">
<polygon fill="white" stroke="#666666" points="500.12,-263.5 404.62,-263.5 404.62,-233 500.12,-233 500.12,-263.5"/>
<text text-anchor="start" x="412.62" y="-250" font-family="Helvetica,sans-Serif" font-size="10.00">stackchan::display</text>
<text text-anchor="middle" x="452.38" y="-238.75" font-family="Helvetica,sans-Serif" font-size="10.00">::EllipseEye</text>
</a>
</g>
</g>
<!-- Node2&#45;&gt;Node3 -->
<g id="edge3_Node000002_Node000003" class="edge">
<title>Node2&#45;&gt;Node3</title>
<g id="a_edge3_Node000002_Node000003"><a xlink:title=" ">
<path fill="none" stroke="#63b8ff" d="M369.56,-223.05C381.16,-226.63 393.21,-230.34 404.38,-233.78"/>
<polygon fill="#63b8ff" stroke="#63b8ff" points="370.67,-219.73 360.08,-220.13 368.6,-226.42 370.67,-219.73"/>
</a>
</g>
</g>
<!-- Node4 -->
<g id="Node000004" class="node">
<title>Node4</title>
<g id="a_Node000004"><a xlink:href="classstackchan_1_1display_1_1_eye.html" target="_top" xlink:title=" ">
<polygon fill="white" stroke="#666666" points="510.25,-214.88 394.5,-214.88 394.5,-195.62 510.25,-195.62 510.25,-214.88"/>
<text text-anchor="middle" x="452.38" y="-201.38" font-family="Helvetica,sans-Serif" font-size="10.00">stackchan::display::Eye</text>
</a>
</g>
</g>
<!-- Node2&#45;&gt;Node4 -->
<g id="edge4_Node000002_Node000004" class="edge">
<title>Node2&#45;&gt;Node4</title>
<g id="a_edge4_Node000002_Node000004"><a xlink:title=" ">
<path fill="none" stroke="#63b8ff" d="M370.11,-205.25C378.08,-205.25 386.25,-205.25 394.19,-205.25"/>
<polygon fill="#63b8ff" stroke="#63b8ff" points="370.15,-201.75 360.15,-205.25 370.15,-208.75 370.15,-201.75"/>
</a>
</g>
</g>
<!-- Node6 -->
<g id="Node000006" class="node">
<title>Node6</title>
<g id="a_Node000006"><a xlink:href="classstackchan_1_1display_1_1_mouth.html" target="_top" xlink:title=" ">
<polygon fill="white" stroke="#666666" points="500.12,-177.5 404.62,-177.5 404.62,-147 500.12,-147 500.12,-177.5"/>
<text text-anchor="start" x="412.62" y="-164" font-family="Helvetica,sans-Serif" font-size="10.00">stackchan::display</text>
<text text-anchor="middle" x="452.38" y="-152.75" font-family="Helvetica,sans-Serif" font-size="10.00">::Mouth</text>
</a>
</g>
</g>
<!-- Node5&#45;&gt;Node6 -->
<g id="edge6_Node000005_Node000006" class="edge">
<title>Node5&#45;&gt;Node6</title>
<g id="a_edge6_Node000005_Node000006"><a xlink:title=" ">
<path fill="none" stroke="#63b8ff" d="M369.92,-146.5C381.41,-148.72 393.32,-151.02 404.38,-153.16"/>
<polygon fill="#63b8ff" stroke="#63b8ff" points="370.6,-143.07 360.12,-144.6 369.27,-149.94 370.6,-143.07"/>
</a>
</g>
</g>
<!-- Node7 -->
<g id="Node000007" class="node">
<title>Node7</title>
<g id="a_Node000007"><a xlink:href="classstackchan_1_1display_1_1_omega_mouth.html" target="_top" xlink:title=" ">
<polygon fill="white" stroke="#666666" points="500.12,-128.5 404.62,-128.5 404.62,-98 500.12,-98 500.12,-128.5"/>
<text text-anchor="start" x="412.62" y="-115" font-family="Helvetica,sans-Serif" font-size="10.00">stackchan::display</text>
<text text-anchor="middle" x="452.38" y="-103.75" font-family="Helvetica,sans-Serif" font-size="10.00">::OmegaMouth</text>
</a>
</g>
</g>
<!-- Node5&#45;&gt;Node7 -->
<g id="edge7_Node000005_Node000007" class="edge">
<title>Node5&#45;&gt;Node7</title>
<g id="a_edge7_Node000005_Node000007"><a xlink:title=" ">
<path fill="none" stroke="#63b8ff" d="M369.92,-126.08C381.41,-124.27 393.32,-122.4 404.38,-120.65"/>
<polygon fill="#63b8ff" stroke="#63b8ff" points="369.46,-122.61 360.13,-127.63 370.55,-129.53 369.46,-122.61"/>
</a>
</g>
</g>
<!-- Node9 -->
<g id="Node000009" class="node">
<title>Node9</title>
<g id="a_Node000009"><a xlink:href="classstackchan_1_1display_1_1_ell_face.html" target="_top" xlink:title=" ">
<polygon fill="white" stroke="#666666" points="500.12,-79.5 404.62,-79.5 404.62,-49 500.12,-49 500.12,-79.5"/>
<text text-anchor="start" x="412.62" y="-66" font-family="Helvetica,sans-Serif" font-size="10.00">stackchan::display</text>
<text text-anchor="middle" x="452.38" y="-54.75" font-family="Helvetica,sans-Serif" font-size="10.00">::EllFace</text>
</a>
</g>
</g>
<!-- Node8&#45;&gt;Node9 -->
<g id="edge9_Node000008_Node000009" class="edge">
<title>Node8&#45;&gt;Node9</title>
<g id="a_edge9_Node000008_Node000009"><a xlink:title=" ">
<path fill="none" stroke="#63b8ff" d="M369.92,-64.25C381.41,-64.25 393.32,-64.25 404.38,-64.25"/>
<polygon fill="#63b8ff" stroke="#63b8ff" points="370.15,-60.75 360.15,-64.25 370.15,-67.75 370.15,-60.75"/>
</a>
</g>
</g>
<!-- Node10 -->
<g id="Node000010" class="node">
<title>Node10</title>
<g id="a_Node000010"><a xlink:href="classstackchan_1_1display_1_1_omega_face.html" target="_top" xlink:title=" ">
<polygon fill="white" stroke="#666666" points="500.12,-30.5 404.62,-30.5 404.62,0 500.12,0 500.12,-30.5"/>
<text text-anchor="start" x="412.62" y="-17" font-family="Helvetica,sans-Serif" font-size="10.00">stackchan::display</text>
<text text-anchor="middle" x="452.38" y="-5.75" font-family="Helvetica,sans-Serif" font-size="10.00">::OmegaFace</text>
</a>
</g>
</g>
<!-- Node8&#45;&gt;Node10 -->
<g id="edge10_Node000008_Node000010" class="edge">
<title>Node8&#45;&gt;Node10</title>
<g id="a_edge10_Node000008_Node000010"><a xlink:title=" ">
<path fill="none" stroke="#63b8ff" d="M367.15,-44.81C380.3,-40.19 394.16,-35.33 406.76,-30.91"/>
<polygon fill="#63b8ff" stroke="#63b8ff" points="366.02,-41.5 357.74,-48.11 368.34,-48.1 366.02,-41.5"/>
</a>
</g>
</g>
</g>
</svg>
