<?xml version="1.0" encoding="UTF-8" standalone="no"?>
<!DOCTYPE svg PUBLIC "-//W3C//DTD SVG 1.1//EN"
 "http://www.w3.org/Graphics/SVG/1.1/DTD/svg11.dtd">
<!-- Generated by graphviz version 12.2.0 (20241103.1931)
 -->
<!-- Title: Graphical Class Hierarchy Pages: 1 -->
<svg width="518pt" height="615pt"
 viewBox="0.00 0.00 518.25 614.50" xmlns="http://www.w3.org/2000/svg" xmlns:xlink="http://www.w3.org/1999/xlink">
<g id="graph0" class="graph" transform="scale(1 1) rotate(0) translate(4 610.5)">
<title>Graphical Class Hierarchy</title>
<!-- Node0 -->
<g id="Node000000" class="node">
<title>Node0</title>
<g id="a_Node000000"><a xlink:href="classstackchan_1_1display_1_1_drawable.html" target="_top" xlink:title=" ">
<polygon fill="white" stroke="#666666" points="95.5,-299.5 0,-299.5 0,-269 95.5,-269 95.5,-299.5"/>
<text text-anchor="start" x="8" y="-286" font-family="Helvetica,sans-Serif" font-size="10.00">stackchan::display</text>
<text text-anchor="middle" x="47.75" y="-274.75" font-family="Helvetica,sans-Serif" font-size="10.00">::Drawable</text>
</a>
</g>
</g>
<!-- Node1 -->
<g id="Node000001" class="node">
<title>Node1</title>
<g id="a_Node000001"><a xlink:href="classstackchan_1_1display_1_1_facial_drawable.html" target="_top" xlink:title=" ">
<polygon fill="white" stroke="#666666" points="227,-324.5 131.5,-324.5 131.5,-294 227,-294 227,-324.5"/>
<text text-anchor="start" x="139.5" y="-311" font-family="Helvetica,sans-Serif" font-size="10.00">stackchan::display</text>
<text text-anchor="middle" x="179.25" y="-299.75" font-family="Helvetica,sans-Serif" font-size="10.00">::FacialDrawable</text>
</a>
</g>
</g>
<!-- Node0&#45;&gt;Node1 -->
<g id="edge1_Node000000_Node000001" class="edge">
<title>Node0&#45;&gt;Node1</title>
<g id="a_edge1_Node000000_Node000001"><a xlink:title=" ">
<path fill="none" stroke="#63b8ff" d="M106.9,-295.48C115.1,-297.06 123.44,-298.67 131.38,-300.2"/>
<polygon fill="#63b8ff" stroke="#63b8ff" points="107.84,-292.09 97.35,-293.63 106.51,-298.97 107.84,-292.09"/>
</a>
</g>
</g>
<!-- Node18 -->
<g id="Node000018" class="node">
<title>Node18</title>
<g id="a_Node000018"><a xlink:href="classstackchan_1_1display_1_1_speech_balloon.html" target="_top" xlink:title=" ">
<polygon fill="white" stroke="#666666" points="227,-275.5 131.5,-275.5 131.5,-245 227,-245 227,-275.5"/>
<text text-anchor="start" x="139.5" y="-262" font-family="Helvetica,sans-Serif" font-size="10.00">stackchan::display</text>
<text text-anchor="middle" x="179.25" y="-250.75" font-family="Helvetica,sans-Serif" font-size="10.00">::SpeechBalloon</text>
</a>
</g>
</g>
<!-- Node0&#45;&gt;Node18 -->
<g id="edge18_Node000000_Node000018" class="edge">
<title>Node0&#45;&gt;Node18</title>
<g id="a_edge18_Node000000_Node000018"><a xlink:title=" ">
<path fill="none" stroke="#63b8ff" d="M107.18,-273.42C115.29,-271.92 123.53,-270.39 131.38,-268.94"/>
<polygon fill="#63b8ff" stroke="#63b8ff" points="106.55,-269.98 97.36,-275.24 107.83,-276.86 106.55,-269.98"/>
</a>
</g>
</g>
<!-- Node2 -->
<g id="Node000002" class="node">
<title>Node2</title>
<g id="a_Node000002"><a xlink:href="classstackchan_1_1display_1_1_base_eye.html" target="_top" xlink:title="Base class for Eye, draw nothing.">
<polygon fill="white" stroke="#666666" points="358.5,-495.5 263,-495.5 263,-465 358.5,-465 358.5,-495.5"/>
<text text-anchor="start" x="271" y="-482" font-family="Helvetica,sans-Serif" font-size="10.00">stackchan::display</text>
<text text-anchor="middle" x="310.75" y="-470.75" font-family="Helvetica,sans-Serif" font-size="10.00">::BaseEye</text>
</a>
</g>
</g>
<!-- Node1&#45;&gt;Node2 -->
<g id="edge2_Node000001_Node000002" class="edge">
<title>Node1&#45;&gt;Node2</title>
<g id="a_edge2_Node000001_Node000002"><a xlink:title=" ">
<path fill="none" stroke="#63b8ff" d="M198.65,-333.55C225.75,-369.34 275.61,-435.17 298.15,-464.93"/>
<polygon fill="#63b8ff" stroke="#63b8ff" points="201.71,-331.79 192.88,-325.93 196.13,-336.02 201.71,-331.79"/>
</a>
</g>
</g>
<!-- Node8 -->
<g id="Node000008" class="node">
<title>Node8</title>
<g id="a_Node000008"><a xlink:href="classstackchan_1_1display_1_1_base_mouth.html" target="_top" xlink:title=" ">
<polygon fill="white" stroke="#666666" points="358.5,-324.5 263,-324.5 263,-294 358.5,-294 358.5,-324.5"/>
<text text-anchor="start" x="271" y="-311" font-family="Helvetica,sans-Serif" font-size="10.00">stackchan::display</text>
<text text-anchor="middle" x="310.75" y="-299.75" font-family="Helvetica,sans-Serif" font-size="10.00">::BaseMouth</text>
</a>
</g>
</g>
<!-- Node1&#45;&gt;Node8 -->
<g id="edge8_Node000001_Node000008" class="edge">
<title>Node1&#45;&gt;Node8</title>
<g id="a_edge8_Node000001_Node000008"><a xlink:title=" ">
<path fill="none" stroke="#63b8ff" d="M238.68,-309.25C246.79,-309.25 255.03,-309.25 262.88,-309.25"/>
<polygon fill="#63b8ff" stroke="#63b8ff" points="238.88,-305.75 228.88,-309.25 238.88,-312.75 238.88,-305.75"/>
</a>
</g>
</g>
<!-- Node12 -->
<g id="Node000012" class="node">
<title>Node12</title>
<g id="a_Node000012"><a xlink:href="classstackchan_1_1display_1_1_face.html" target="_top" xlink:title=" ">
<polygon fill="white" stroke="#666666" points="358.5,-153.5 263,-153.5 263,-123 358.5,-123 358.5,-153.5"/>
<text text-anchor="start" x="271" y="-140" font-family="Helvetica,sans-Serif" font-size="10.00">stackchan::display</text>
<text text-anchor="middle" x="310.75" y="-128.75" font-family="Helvetica,sans-Serif" font-size="10.00">::Face</text>
</a>
</g>
</g>
<!-- Node1&#45;&gt;Node12 -->
<g id="edge12_Node000001_Node000012" class="edge">
<title>Node1&#45;&gt;Node12</title>
<g id="a_edge12_Node000001_Node000012"><a xlink:title=" ">
<path fill="none" stroke="#63b8ff" d="M224.23,-286.79C225.19,-285.96 226.11,-285.12 227,-284.25 267.04,-245.18 293.57,-182.59 304.33,-153.74"/>
<polygon fill="#63b8ff" stroke="#63b8ff" points="222.18,-283.95 216.21,-292.7 226.34,-289.58 222.18,-283.95"/>
</a>
</g>
</g>
<!-- Node3 -->
<g id="Node000003" class="node">
<title>Node3</title>
<g id="a_Node000003"><a xlink:href="classstackchan_1_1display_1_1_ellipse_eye.html" target="_top" xlink:title=" ">
<polygon fill="white" stroke="#666666" points="500.12,-606.5 404.62,-606.5 404.62,-576 500.12,-576 500.12,-606.5"/>
<text text-anchor="start" x="412.62" y="-593" font-family="Helvetica,sans-Serif" font-size="10.00">stackchan::display</text>
<text text-anchor="middle" x="452.38" y="-581.75" font-family="Helvetica,sans-Serif" font-size="10.00">::EllipseEye</text>
</a>
</g>
</g>
<!-- Node2&#45;&gt;Node3 -->
<g id="edge3_Node000002_Node000003" class="edge">
<title>Node2&#45;&gt;Node3</title>
<g id="a_edge3_Node000002_Node000003"><a xlink:title=" ">
<path fill="none" stroke="#63b8ff" d="M330.5,-504.94C345.98,-523.98 369.42,-549.91 394.5,-567.25 398.91,-570.3 403.76,-573.07 408.72,-575.56"/>
<polygon fill="#63b8ff" stroke="#63b8ff" points="333.26,-502.79 324.3,-497.14 327.78,-507.14 333.26,-502.79"/>
</a>
</g>
</g>
<!-- Node4 -->
<g id="Node000004" class="node">
<title>Node4</title>
<g id="a_Node000004"><a xlink:href="classstackchan_1_1display_1_1_eye.html" target="_top" xlink:title=" ">
<polygon fill="white" stroke="#666666" points="510.25,-557.88 394.5,-557.88 394.5,-538.62 510.25,-538.62 510.25,-557.88"/>
<text text-anchor="middle" x="452.38" y="-544.38" font-family="Helvetica,sans-Serif" font-size="10.00">stackchan::display::Eye</text>
</a>
</g>
</g>
<!-- Node2&#45;&gt;Node4 -->
<g id="edge4_Node000002_Node000004" class="edge">
<title>Node2&#45;&gt;Node4</title>
<g id="a_edge4_Node000002_Node000004"><a xlink:title=" ">
<path fill="none" stroke="#63b8ff" d="M344.65,-501.91C359.49,-511.11 377.47,-521.47 394.5,-529.25 401.7,-532.54 409.63,-535.55 417.24,-538.16"/>
<polygon fill="#63b8ff" stroke="#63b8ff" points="346.53,-498.97 336.21,-496.59 342.8,-504.89 346.53,-498.97"/>
</a>
</g>
</g>
<!-- Node5 -->
<g id="Node000005" class="node">
<title>Node5</title>
<g id="a_Node000005"><a xlink:href="classstackchan_1_1display_1_1_round_rect_eye.html" target="_top" xlink:title=" ">
<polygon fill="white" stroke="#666666" points="500.12,-520.5 404.62,-520.5 404.62,-490 500.12,-490 500.12,-520.5"/>
<text text-anchor="start" x="412.62" y="-507" font-family="Helvetica,sans-Serif" font-size="10.00">stackchan::display</text>
<text text-anchor="middle" x="452.38" y="-495.75" font-family="Helvetica,sans-Serif" font-size="10.00">::RoundRectEye</text>
</a>
</g>
</g>
<!-- Node2&#45;&gt;Node5 -->
<g id="edge5_Node000002_Node000005" class="edge">
<title>Node2&#45;&gt;Node5</title>
<g id="a_edge5_Node000002_Node000005"><a xlink:title=" ">
<path fill="none" stroke="#63b8ff" d="M369.92,-490.67C381.41,-492.72 393.32,-494.86 404.38,-496.84"/>
<polygon fill="#63b8ff" stroke="#63b8ff" points="370.58,-487.23 360.12,-488.91 369.35,-494.12 370.58,-487.23"/>
</a>
</g>
</g>
<!-- Node6 -->
<g id="Node000006" class="node">
<title>Node6</title>
<g id="a_Node000006"><a xlink:href="classstackchan_1_1display_1_1_toon_eye1.html" target="_top" xlink:title=" ">
<polygon fill="white" stroke="#666666" points="500.12,-471.5 404.62,-471.5 404.62,-441 500.12,-441 500.12,-471.5"/>
<text text-anchor="start" x="412.62" y="-458" font-family="Helvetica,sans-Serif" font-size="10.00">stackchan::display</text>
<text text-anchor="middle" x="452.38" y="-446.75" font-family="Helvetica,sans-Serif" font-size="10.00">::ToonEye1</text>
</a>
</g>
</g>
<!-- Node2&#45;&gt;Node6 -->
<g id="edge6_Node000002_Node000006" class="edge">
<title>Node2&#45;&gt;Node6</title>
<g id="a_edge6_Node000002_Node000006"><a xlink:title=" ">
<path fill="none" stroke="#63b8ff" d="M369.92,-470.25C381.41,-468.28 393.32,-466.23 404.38,-464.33"/>
<polygon fill="#63b8ff" stroke="#63b8ff" points="369.39,-466.79 360.12,-471.94 370.57,-473.69 369.39,-466.79"/>
</a>
</g>
</g>
<!-- Node7 -->
<g id="Node000007" class="node">
<title>Node7</title>
<g id="a_Node000007"><a xlink:href="classstackchan_1_1display_1_1_toon_eye2.html" target="_top" xlink:title=" ">
<polygon fill="white" stroke="#666666" points="500.12,-422.5 404.62,-422.5 404.62,-392 500.12,-392 500.12,-422.5"/>
<text text-anchor="start" x="412.62" y="-409" font-family="Helvetica,sans-Serif" font-size="10.00">stackchan::display</text>
<text text-anchor="middle" x="452.38" y="-397.75" font-family="Helvetica,sans-Serif" font-size="10.00">::ToonEye2</text>
</a>
</g>
</g>
<!-- Node2&#45;&gt;Node7 -->
<g id="edge7_Node000002_Node000007" class="edge">
<title>Node2&#45;&gt;Node7</title>
<g id="a_edge7_Node000002_Node000007"><a xlink:title=" ">
<path fill="none" stroke="#63b8ff" d="M346.68,-458.83C361.26,-450.19 378.5,-440.38 394.5,-432.25 400.75,-429.08 407.49,-425.9 414.08,-422.93"/>
<polygon fill="#63b8ff" stroke="#63b8ff" points="345.15,-455.67 338.36,-463.81 348.74,-461.68 345.15,-455.67"/>
</a>
</g>
</g>
<!-- Node9 -->
<g id="Node000009" class="node">
<title>Node9</title>
<g id="a_Node000009"><a xlink:href="classstackchan_1_1display_1_1_mouth.html" target="_top" xlink:title=" ">
<polygon fill="white" stroke="#666666" points="500.12,-373.5 404.62,-373.5 404.62,-343 500.12,-343 500.12,-373.5"/>
<text text-anchor="start" x="412.62" y="-360" font-family="Helvetica,sans-Serif" font-size="10.00">stackchan::display</text>
<text text-anchor="middle" x="452.38" y="-348.75" font-family="Helvetica,sans-Serif" font-size="10.00">::Mouth</text>
</a>
</g>
</g>
<!-- Node8&#45;&gt;Node9 -->
<g id="edge9_Node000008_Node000009" class="edge">
<title>Node8&#45;&gt;Node9</title>
<g id="a_edge9_Node000008_Node000009"><a xlink:title=" ">
<path fill="none" stroke="#63b8ff" d="M367.15,-328.69C380.3,-333.31 394.16,-338.17 406.76,-342.59"/>
<polygon fill="#63b8ff" stroke="#63b8ff" points="368.34,-325.4 357.74,-325.39 366.02,-332 368.34,-325.4"/>
</a>
</g>
</g>
<!-- Node10 -->
<g id="Node000010" class="node">
<title>Node10</title>
<g id="a_Node000010"><a xlink:href="classstackchan_1_1display_1_1_omega_mouth.html" target="_top" xlink:title=" ">
<polygon fill="white" stroke="#666666" points="500.12,-324.5 404.62,-324.5 404.62,-294 500.12,-294 500.12,-324.5"/>
<text text-anchor="start" x="412.62" y="-311" font-family="Helvetica,sans-Serif" font-size="10.00">stackchan::display</text>
<text text-anchor="middle" x="452.38" y="-299.75" font-family="Helvetica,sans-Serif" font-size="10.00">::OmegaMouth</text>
</a>
</g>
</g>
<!-- Node8&#45;&gt;Node10 -->
<g id="edge10_Node000008_Node000010" class="edge">
<title>Node8&#45;&gt;Node10</title>
<g id="a_edge10_Node000008_Node000010"><a xlink:title=" ">
<path fill="none" stroke="#63b8ff" d="M369.92,-309.25C381.41,-309.25 393.32,-309.25 404.38,-309.25"/>
<polygon fill="#63b8ff" stroke="#63b8ff" points="370.15,-305.75 360.15,-309.25 370.15,-312.75 370.15,-305.75"/>
</a>
</g>
</g>
<!-- Node11 -->
<g id="Node000011" class="node">
<title>Node11</title>
<g id="a_Node000011"><a xlink:href="classstackchan_1_1display_1_1_toon_mouth1.html" target="_top" xlink:title=" ">
<polygon fill="white" stroke="#666666" points="500.12,-275.5 404.62,-275.5 404.62,-245 500.12,-245 500.12,-275.5"/>
<text text-anchor="start" x="412.62" y="-262" font-family="Helvetica,sans-Serif" font-size="10.00">stackchan::display</text>
<text text-anchor="middle" x="452.38" y="-250.75" font-family="Helvetica,sans-Serif" font-size="10.00">::ToonMouth1</text>
</a>
</g>
</g>
<!-- Node8&#45;&gt;Node11 -->
<g id="edge11_Node000008_Node000011" class="edge">
<title>Node8&#45;&gt;Node11</title>
<g id="a_edge11_Node000008_Node000011"><a xlink:title=" ">
<path fill="none" stroke="#63b8ff" d="M367.15,-289.81C380.3,-285.19 394.16,-280.33 406.76,-275.91"/>
<polygon fill="#63b8ff" stroke="#63b8ff" points="366.02,-286.5 357.74,-293.11 368.34,-293.1 366.02,-286.5"/>
</a>
</g>
</g>
<!-- Node13 -->
<g id="Node000013" class="node">
<title>Node13</title>
<g id="a_Node000013"><a xlink:href="classstackchan_1_1display_1_1_ell_face.html" target="_top" xlink:title=" ">
<polygon fill="white" stroke="#666666" points="500.12,-226.5 404.62,-226.5 404.62,-196 500.12,-196 500.12,-226.5"/>
<text text-anchor="start" x="412.62" y="-213" font-family="Helvetica,sans-Serif" font-size="10.00">stackchan::display</text>
<text text-anchor="middle" x="452.38" y="-201.75" font-family="Helvetica,sans-Serif" font-size="10.00">::EllFace</text>
</a>
</g>
</g>
<!-- Node12&#45;&gt;Node13 -->
<g id="edge13_Node000012_Node000013" class="edge">
<title>Node12&#45;&gt;Node13</title>
<g id="a_edge13_Node000012_Node000013"><a xlink:title=" ">
<path fill="none" stroke="#63b8ff" d="M346.68,-159.67C361.26,-168.31 378.5,-178.12 394.5,-186.25 400.75,-189.42 407.49,-192.6 414.08,-195.57"/>
<polygon fill="#63b8ff" stroke="#63b8ff" points="348.74,-156.82 338.36,-154.69 345.15,-162.83 348.74,-156.82"/>
</a>
</g>
</g>
<!-- Node14 -->
<g id="Node000014" class="node">
<title>Node14</title>
<g id="a_Node000014"><a xlink:href="classstackchan_1_1display_1_1_omega_face.html" target="_top" xlink:title=" ">
<polygon fill="white" stroke="#666666" points="500.12,-177.5 404.62,-177.5 404.62,-147 500.12,-147 500.12,-177.5"/>
<text text-anchor="start" x="412.62" y="-164" font-family="Helvetica,sans-Serif" font-size="10.00">stackchan::display</text>
<text text-anchor="middle" x="452.38" y="-152.75" font-family="Helvetica,sans-Serif" font-size="10.00">::OmegaFace</text>
</a>
</g>
</g>
<!-- Node12&#45;&gt;Node14 -->
<g id="edge14_Node000012_Node000014" class="edge">
<title>Node12&#45;&gt;Node14</title>
<g id="a_edge14_Node000012_Node000014"><a xlink:title=" ">
<path fill="none" stroke="#63b8ff" d="M369.92,-148.25C381.41,-150.22 393.32,-152.27 404.38,-154.17"/>
<polygon fill="#63b8ff" stroke="#63b8ff" points="370.57,-144.81 360.12,-146.56 369.39,-151.71 370.57,-144.81"/>
</a>
</g>
</g>
<!-- Node15 -->
<g id="Node000015" class="node">
<title>Node15</title>
<g id="a_Node000015"><a xlink:href="classstackchan_1_1display_1_1_rect_face.html" target="_top" xlink:title=" ">
<polygon fill="white" stroke="#666666" points="500.12,-128.5 404.62,-128.5 404.62,-98 500.12,-98 500.12,-128.5"/>
<text text-anchor="start" x="412.62" y="-115" font-family="Helvetica,sans-Serif" font-size="10.00">stackchan::display</text>
<text text-anchor="middle" x="452.38" y="-103.75" font-family="Helvetica,sans-Serif" font-size="10.00">::RectFace</text>
</a>
</g>
</g>
<!-- Node12&#45;&gt;Node15 -->
<g id="edge15_Node000012_Node000015" class="edge">
<title>Node12&#45;&gt;Node15</title>
<g id="a_edge15_Node000012_Node000015"><a xlink:title=" ">
<path fill="none" stroke="#63b8ff" d="M369.92,-127.83C381.41,-125.78 393.32,-123.64 404.38,-121.66"/>
<polygon fill="#63b8ff" stroke="#63b8ff" points="369.35,-124.38 360.12,-129.59 370.58,-131.27 369.35,-124.38"/>
</a>
</g>
</g>
<!-- Node16 -->
<g id="Node000016" class="node">
<title>Node16</title>
<g id="a_Node000016"><a xlink:href="classstackchan_1_1display_1_1_toon_face1.html" target="_top" xlink:title=" ">
<polygon fill="white" stroke="#666666" points="500.12,-79.5 404.62,-79.5 404.62,-49 500.12,-49 500.12,-79.5"/>
<text text-anchor="start" x="412.62" y="-66" font-family="Helvetica,sans-Serif" font-size="10.00">stackchan::display</text>
<text text-anchor="middle" x="452.38" y="-54.75" font-family="Helvetica,sans-Serif" font-size="10.00">::ToonFace1</text>
</a>
</g>
</g>
<!-- Node12&#45;&gt;Node16 -->
<g id="edge16_Node000012_Node000016" class="edge">
<title>Node12&#45;&gt;Node16</title>
<g id="a_edge16_Node000012_Node000016"><a xlink:title=" ">
<path fill="none" stroke="#63b8ff" d="M345.98,-116.73C360.69,-107.81 378.21,-97.62 394.5,-89.25 400.74,-86.05 407.47,-82.86 414.05,-79.89"/>
<polygon fill="#63b8ff" stroke="#63b8ff" points="344.29,-113.66 337.59,-121.87 347.94,-119.63 344.29,-113.66"/>
</a>
</g>
</g>
<!-- Node17 -->
<g id="Node000017" class="node">
<title>Node17</title>
<g id="a_Node000017"><a xlink:href="classstackchan_1_1display_1_1_toon_face2.html" target="_top" xlink:title=" ">
<polygon fill="white" stroke="#666666" points="500.12,-30.5 404.62,-30.5 404.62,0 500.12,0 500.12,-30.5"/>
<text text-anchor="start" x="412.62" y="-17" font-family="Helvetica,sans-Serif" font-size="10.00">stackchan::display</text>
<text text-anchor="middle" x="452.38" y="-5.75" font-family="Helvetica,sans-Serif" font-size="10.00">::ToonFace2</text>
</a>
</g>
</g>
<!-- Node12&#45;&gt;Node17 -->
<g id="edge17_Node000012_Node000017" class="edge">
<title>Node12&#45;&gt;Node17</title>
<g id="a_edge17_Node000012_Node000017"><a xlink:title=" ">
<path fill="none" stroke="#63b8ff" d="M327.96,-113.24C343.05,-91.59 367.25,-60.62 394.5,-40.25 399.17,-36.76 404.39,-33.63 409.74,-30.87"/>
<polygon fill="#63b8ff" stroke="#63b8ff" points="325.08,-111.26 322.36,-121.5 330.87,-115.19 325.08,-111.26"/>
</a>
</g>
</g>
</g>
</svg>
